<svg width="2000" height="1493" viewBox="0 0 2000 1493" fill="none" xmlns="http://www.w3.org/2000/svg">
<path d="M1570.96 743.919C1572.16 743.919 1573.99 741.805 1574.28 740.294C1576.15 730.65 1609.64 548.386 1610.49 545.357C1611.78 540.86 1609.9 538.05 1605.07 537.488C1588.2 535.526 1345.51 509.387 1331.62 507.915C1328.6 507.6 1326.75 508.201 1325.88 511.534C1323.33 521.459 1282.46 693.208 1279.1 707.983C1278.88 708.866 1278.86 709.787 1279.04 710.679C1279.22 711.572 1279.6 712.412 1280.15 713.136C1280.7 713.862 1281.41 714.453 1282.22 714.867C1283.03 715.28 1283.93 715.505 1284.84 715.526C1296.91 716.453 1566.73 744.217 1570.96 743.919Z" fill="#191919"/>
<path d="M1773.18 1027.88C1774.51 1018.53 1777.88 1011.44 1769.55 1008.88C1763.16 1006.9 1763.22 1007.06 1763.22 996.2C1763.82 984.314 1760.07 972.622 1752.65 963.31C1747.79 956.244 1741.58 950.208 1734.39 945.545C1727.19 940.889 1719.13 937.695 1710.7 936.151C1696.94 933.248 1693.47 931.428 1656.68 935.845C1643.75 937.397 1607.96 944.634 1591.47 944.903C1571.18 945.224 1553.31 938.091 1559.49 918.646C1567.96 891.875 1592.82 880.616 1619.55 863.723C1632.97 855.239 1644.05 847.636 1634.34 833.243C1629.75 826.894 1623.62 821.805 1616.54 818.455C1596.83 808.128 1597.67 809.404 1587.87 807.889C1587.87 807.292 1587.87 806.084 1587.27 805.785C1583.33 802.763 1584.6 799.152 1585.46 795.518C1586.9 787.4 1586.59 779.066 1584.55 771.075C1583.95 768.874 1582.66 766.926 1580.86 765.509C1579.07 764.098 1576.87 763.293 1574.59 763.211C1561.59 762.196 1277.87 732.456 1265.82 730.927C1261.34 730.181 1256.76 730.473 1252.42 731.78C1248.07 733.088 1244.09 735.377 1240.77 738.47C1213.66 762.33 1162.38 802.174 1135.74 824.17C1133.16 825.834 1131.21 828.319 1130.22 831.221C1129.24 834.124 1129.26 837.28 1130.3 840.167C1131.57 843.891 1132.71 856.709 1148.72 858.575C1197.31 864.238 1396.46 884.137 1463.5 892.069C1498.78 896.24 1535.71 872.013 1558.57 845.293C1566.04 837.131 1572.53 828.117 1577.9 818.44C1578.5 816.634 1582.45 816.903 1583.33 816.022C1585.44 812.702 1588.16 813.911 1590.87 814.814C1605.4 818.32 1618.54 826.095 1628.6 837.153C1639.77 850.748 1616.74 856.873 1586.35 877.28C1569.71 888.457 1551.56 908.484 1551.94 927.675C1552.19 931.95 1553.58 936.083 1555.97 939.643C1558.36 943.202 1561.66 946.052 1565.52 947.91C1597.43 962.012 1653.37 938.755 1692.28 941.269C1716.46 942.829 1736.52 952.208 1749.03 973.868C1754.23 982.493 1756.75 992.469 1756.28 1002.53C1756.28 1004.94 1755.67 1006.76 1752.65 1007.35C1746.91 1007.97 1745.96 1012.78 1744.78 1017.32C1743.19 1023.64 1743.26 1023.5 1736.91 1022.75C1647.81 1012.35 1683.51 1014.97 1654.51 1012.19C1650.32 1012.12 1646.19 1013.24 1642.6 1015.43C1639.02 1017.62 1636.13 1020.79 1634.28 1024.55C1620.95 1053.67 1572.49 1149.65 1571.2 1165.47C1570.6 1168.95 1571.37 1172.51 1573.34 1175.44C1575.31 1178.35 1578.33 1180.41 1581.77 1181.16C1593.13 1185.98 1604.97 1189.62 1617.08 1192.02C1617.75 1192.19 1735.31 1216.82 1753.5 1218.59C1758.94 1219.11 1777.95 1220.09 1785.8 1215.87C1804.54 1210.01 1818.6 1176.65 1826.54 1158.54C1861.28 1079.22 1860.72 1077.05 1862.16 1061.08C1862.57 1057.38 1861.6 1053.66 1859.43 1050.65C1857.25 1047.63 1854.02 1045.54 1850.38 1044.78C1832 1040.13 1813.59 1036.22 1795.15 1032.1C1783.36 1029.46 1774.27 1028.99 1773.18 1027.88ZM1845.91 1084.32C1846.46 1084.42 1846.99 1084.63 1847.44 1084.96C1847.9 1085.3 1848.27 1085.72 1848.53 1086.21C1848.79 1086.71 1848.93 1087.26 1848.96 1087.82C1848.97 1088.38 1848.86 1088.94 1848.63 1089.44C1839.22 1110.68 1798.22 1196.27 1796.41 1198.68C1794.16 1200.93 1585.13 1159.58 1584.54 1159.46C1583.9 1159.32 1583.31 1159.04 1582.8 1158.64C1582.28 1158.25 1581.87 1157.74 1581.58 1157.16C1581.29 1156.58 1581.13 1155.95 1581.13 1155.3C1581.11 1154.65 1581.25 1154.01 1581.52 1153.42C1591.48 1132.74 1628 1054.74 1630.99 1048.71C1631.35 1048.18 1631.85 1047.76 1632.44 1047.49C1633.02 1047.23 1633.67 1047.12 1634.31 1047.2C1657.87 1051.12 1814.52 1078.58 1845.91 1084.32ZM1569.75 817.858C1563.5 829.602 1555.57 840.384 1546.21 849.845C1517.18 877.385 1484.3 887.167 1473.78 886.376C1464.12 885.645 1173.45 854.202 1152.34 851.68C1148.88 851.509 1145.58 850.158 1143 847.853C1140.42 845.547 1138.7 842.421 1138.15 839.003C1137.66 837.183 1137.69 835.258 1138.22 833.452C1138.75 831.639 1139.78 830.012 1141.16 828.744C1176.34 799.659 1211.58 770 1246.5 740.628C1248.24 738.943 1250.34 737.684 1252.64 736.95C1254.95 736.217 1257.39 736.029 1259.78 736.402C1280.85 739.509 1542.27 767.344 1572.16 770.508C1582.46 771.59 1579.78 774.358 1577.29 799.473C1577.02 802.189 1575.49 803.092 1572.8 803.092C1569.9 803.047 1567.05 803.89 1564.65 805.509C1562.4 807.897 1560.74 810.784 1559.82 813.941C1558.61 816.358 1559.82 817.873 1562.53 817.873C1564.93 818.171 1567.35 818.164 1569.75 817.858Z" fill="#191919"/>
<path d="M1175.56 608.73C1178.28 599.676 1180.69 590.925 1183.71 582.478C1184.75 569.139 1183.84 555.721 1181 542.647C1176.5 540.399 1170.55 553.264 1162.58 561.655C1156.26 568.309 1155.34 576.745 1152.93 584.591C1151.72 588.525 1150.51 592.133 1149.31 596.056C1149.14 596.075 1148.98 596.058 1148.82 596.005C1148.66 595.952 1148.52 595.867 1148.4 595.752C1149 591.819 1151.42 552.904 1151.42 538.427C1151.42 529.434 1144.62 520.144 1136.02 524.241C1127.78 528.175 1127.08 536.42 1125.76 545.665C1119.43 545.063 1118.63 545.665 1117.33 552.005C1116.04 558.581 1116.04 565.347 1117.33 571.923C1117.96 574.407 1118.77 575.43 1120.35 574.637C1120.96 566.769 1122.77 550.796 1123.07 550.796C1123.61 552.88 1124.01 554.998 1124.28 557.136C1123.37 571.318 1122.16 585.5 1120.66 599.681C1120.66 600.524 1119.84 604.858 1117.33 603.615C1113.46 581.008 1108.32 558.637 1101.93 536.611C1100.4 530.704 1096.19 525.174 1090.16 527.253C1088.54 528.307 1087.28 529.817 1086.52 531.59C1085.78 533.363 1085.57 535.32 1085.93 537.213C1085.93 537.814 1086.23 538.117 1086.23 538.724C1084.72 539.291 1083.43 540.332 1082.56 541.692C1081.69 543.051 1081.28 544.656 1081.4 546.266C1081.25 553.213 1081.25 559.839 1081.4 566.786C1081.46 567.525 1081.78 568.218 1082.31 568.736C1082.84 569.253 1083.54 569.559 1084.28 569.597C1085.03 569.634 1085.75 569.4 1086.34 568.938C1086.92 568.477 1087.31 567.819 1087.44 567.089C1087.57 564.856 1087.87 562.635 1088.34 560.447C1104.2 639.725 1092.9 601.254 1073.86 561.351C1072.18 558.405 1070.15 555.671 1067.82 553.208C1065.5 549.753 1062.87 546.521 1059.95 543.552C1059.51 542.799 1058.9 542.16 1058.16 541.687C1057.43 541.215 1056.59 540.922 1055.72 540.832C1053.01 540.832 1052.66 542.642 1052.41 545.362C1051.68 552.893 1050.59 560.148 1049.69 567.691C1049.19 570.208 1050.04 571.293 1066.59 607.825C1067.81 610.533 1066.59 612.006 1064.48 613.26C1062.03 614.721 1059.34 616.278 1056.93 617.48C1055.06 618.446 1053.57 620.012 1052.69 621.928C1051.81 623.844 1051.6 625.999 1052.1 628.046C1054.48 643.187 1074.37 752.936 1076.55 766.553C1081.87 799.749 1130.39 793.482 1163.17 786.468C1179.63 782.953 1178.48 772.978 1182.48 755.69C1184.66 746.348 1209.41 640.956 1213.57 625.933C1217.45 612.062 1189.77 607.965 1175.56 608.73ZM1061.45 631.363C1109.75 641.625 1157.43 642.529 1204.51 625.933C1191.44 691.28 1185.29 709.073 1169.5 769.247C1167.54 776.716 1162.81 775.761 1160.15 777.119C1123.78 781.051 1109.64 785.55 1093.45 778.022C1091.18 777.208 1089.17 775.798 1087.63 773.94C1086.09 772.082 1085.07 769.844 1084.69 767.464C1062.53 648.869 1069.32 676.858 1061.48 631.363H1061.45ZM1177.05 580.965C1174.66 595.763 1170.63 610.245 1165.01 624.14C1164.68 624.868 1164.16 625.494 1163.5 625.95C1158.07 626.855 1152.64 627.457 1146.9 628.063C1147.81 624.415 1161.81 579.729 1161.99 579.167C1164.71 572.215 1178.29 579.46 1177.08 580.965H1177.05ZM1063.87 572.215C1065.37 572.518 1066.9 573.761 1068.4 573.423C1069.6 573.153 1070.51 571.31 1071.72 569.804C1079.87 588.812 1089.82 606.898 1097.07 626.838C1091.63 626.231 1087.1 625.629 1082.58 625.028C1080.38 625.028 1080.11 623.702 1061.16 579.46C1060.16 577.397 1062.22 575.019 1063.9 572.215H1063.87ZM1107.63 567.995C1111.86 588.789 1115.5 608.129 1119.7 628.345C1115.48 628.046 1112.76 627.743 1109.75 627.743C1104.74 627.743 1107.58 627.872 1094.66 571.31C1099.22 570.108 1103.44 569.197 1107.66 567.995H1107.63ZM1125.74 628.345C1127.65 601.693 1128.96 589.345 1129.68 577.043C1130.06 570.411 1130.89 569.174 1137.83 569.804C1139.66 570.206 1141.48 570.709 1143.25 571.31C1141.45 590.324 1139.63 609.337 1138.13 628.345H1125.74ZM1131.17 562.587C1132.38 553.236 1133.53 543.265 1135.4 533.621C1136.57 527.579 1142.64 530.603 1143.55 532.109C1144.75 533.777 1145.38 535.787 1145.36 537.842C1144.87 558.108 1143.55 560.019 1143.55 565.303C1139.36 564.369 1135.74 563.442 1131.2 562.56L1131.17 562.587ZM1168.3 567.719C1174.03 558.969 1174.03 558.969 1177.96 560.177C1179.77 573.755 1180.98 571.642 1177.05 571.642C1173.86 571.072 1170.87 569.713 1168.34 567.691L1168.3 567.719ZM1065.68 564.701C1061.45 562.29 1061.45 562.29 1057.25 568.321H1056.34C1056.63 564.397 1056.94 560.474 1057.25 556.552C1058.83 555.956 1060.44 555.453 1062.07 555.045C1067.83 561.351 1067.83 561.351 1065.71 564.673L1065.68 564.701Z" fill="#191919"/>
<path d="M1933.43 1319.08C1936.34 1319.49 1939.28 1319.49 1942.19 1319.08C1942.73 1318.95 1943.24 1318.7 1943.66 1318.32C1944.08 1317.96 1944.4 1317.49 1944.6 1316.97C1944.9 1316.36 1943.69 1315.15 1943.09 1314.25C1942.04 1313.17 1940.76 1312.35 1939.35 1311.83C1937.94 1311.31 1936.44 1311.1 1934.94 1311.23C1882.01 1301.3 1022.37 1144.31 926.567 1125.65C917.701 1123.92 912.306 1132.51 919.321 1134.08C925.56 1135.5 1932.87 1318.97 1933.43 1319.08Z" fill="#191919"/>
<path d="M906.948 1159.15C905.903 1158.75 904.739 1158.74 903.687 1159.13C902.627 1159.51 901.754 1160.28 901.216 1161.26C901.821 1164.58 904.537 1165.2 907.246 1166.1C1249.58 1248.09 1894.33 1366.46 1925.28 1366.46C1925.28 1353.56 1721.22 1337.35 906.948 1159.15Z" fill="#191919"/>
<path d="M1784.04 841.697C1792.47 848.942 1816.3 845.271 1824.78 839.884C1830.59 836.191 1835.34 831.05 1838.57 824.969C1841.8 818.88 1843.39 812.06 1843.19 805.181C1844.06 776.007 1819.29 766.33 1803.66 779.529C1802.45 780.432 1801.24 781.64 1800.34 779.529C1797.93 774.91 1794.41 770.971 1790.08 768.075C1785.76 765.173 1780.78 763.405 1775.6 762.935C1745.19 757.682 1729.76 754.533 1684.15 763.233C1670.54 765.83 1663.35 777.417 1664.53 792.206C1666.45 813.538 1674.89 833.766 1688.7 850.143C1693.62 856.306 1700.75 860.321 1708.57 861.313C1722.46 863.447 1736.54 863.954 1750.54 862.82C1767.68 861.395 1778.31 846.599 1784.04 841.697ZM1796.1 787.982C1797.06 798.831 1795.19 809.747 1790.67 819.664C1784.7 831.736 1776.15 842.346 1765.62 850.748C1761.81 854.225 1756.89 856.254 1751.73 856.478C1735.28 857.754 1718.74 856.844 1702.54 853.77C1700.9 853.285 1699.43 852.337 1698.31 851.046C1682.12 834.348 1669.02 808.859 1669.94 784.961C1670.46 771.433 1684.6 767.322 1698.01 765.352C1727.89 760.942 1793.19 757.98 1796.1 787.982ZM1746.31 766.553C1697.07 761.495 1665.51 776.805 1678.4 782.543C1701.35 792.78 1739.67 798.682 1783.43 787.378C1787.96 786.207 1795.53 780.066 1785.54 774.395C1778.62 770.456 1754.76 767.419 1746.31 766.553ZM1803.04 790.392C1802.68 788.535 1803 786.602 1803.96 784.961C1805.88 782.595 1808.41 780.782 1811.28 779.715C1814.13 778.641 1817.23 778.357 1820.25 778.88C1823.25 779.402 1826.07 780.715 1828.41 782.685C1830.75 784.655 1832.51 787.214 1833.53 790.094C1835.46 794.586 1836.43 799.428 1836.36 804.315C1836.3 809.21 1835.2 814.023 1833.15 818.462C1831.1 822.902 1828.14 826.856 1824.46 830.08C1820.78 833.295 1816.47 835.706 1811.8 837.146C1803.81 840.324 1795 840.742 1786.75 838.347C1788.26 836.235 1789.77 834.415 1790.98 832.616C1808.58 838.877 1842.59 806.121 1820.55 790.676C1818.07 788.691 1815.01 787.587 1811.85 787.542C1808.68 787.49 1805.58 788.49 1803.04 790.392ZM1792.49 830.527C1798.68 820.648 1802.12 809.292 1802.45 797.638C1802.93 796.429 1803.68 795.347 1804.64 794.466C1805.6 793.586 1806.75 792.937 1807.99 792.556C1809.24 792.183 1810.55 792.086 1811.84 792.288C1813.13 792.482 1814.35 792.967 1815.43 793.705C1832.11 802.965 1811.4 830.527 1792.49 830.527ZM1749.63 776.216C1758.06 771.985 1773.17 773.492 1778 781.043C1768.34 779.26 1759.6 777.716 1749.63 776.216Z" fill="#191919"/>
<path d="M1589.96 758.405C1588.75 771.082 1595.36 760.211 1595.7 758.107C1597.58 746.602 1633.22 560.761 1634.63 550.791C1636.01 544.426 1635.38 537.795 1632.84 531.8C1630.3 525.805 1625.97 520.739 1620.45 517.294C1617.25 515.654 1613.77 514.63 1610.19 514.276C1602.36 512.967 1349.41 489.351 1338.55 488.929C1304.68 487.614 1307.82 492.11 1258.57 721.892C1258.57 728.232 1263.34 726.102 1264 723.399C1264.83 720.061 1266.19 716.784 1267.02 713.445C1310.79 536.521 1310.22 513.894 1314.1 506.734C1315.63 503.189 1318.22 500.208 1321.52 498.206C1324.82 496.204 1328.66 495.282 1332.52 495.566C1341.57 496.185 1611.12 520.857 1615.62 523.634C1626.16 530.08 1626.3 539.292 1627.69 547.773C1627.39 548.076 1592.99 740.906 1589.96 758.405Z" fill="#191919"/>
<path d="M1805.46 988.657C1812.38 990.007 1838.07 995.544 1844.1 996.805C1853.49 998.767 1876.28 1002.12 1915.33 1010.68C1916.85 1011.15 1918.46 1011.29 1920.04 1011.11C1921.62 1010.93 1923.14 1010.43 1924.53 1009.64C1925.91 1008.85 1927.12 1007.79 1928.08 1006.52C1929.04 1005.25 1929.73 1003.8 1930.11 1002.25C1971.22 904.641 1969.84 907.551 1969.04 902.045C1969.04 900.179 1970.65 901.03 1859.49 879.713C1851.62 878.213 1843.78 876.773 1835.95 874.885C1832.32 874.02 1830.52 876.094 1829.01 878.825C1791.57 946.201 1806.9 921.534 1778.9 966.937C1776.49 970.869 1774.63 974.749 1772.27 978.405C1770.72 980.8 1771.97 982.605 1774.37 983.232C1776.46 983.769 1796.7 986.941 1805.46 988.657ZM1778.3 977.189C1778.64 976.629 1809.22 921.594 1830.81 884.548C1831.31 883.279 1832.28 882.257 1833.52 881.698C1834.77 881.138 1836.18 881.086 1837.46 881.548C1877.62 889.032 1912.18 895.315 1964.22 905.388C1948.1 943.672 1961.41 915.177 1920.75 1002.56C1920.16 1004.07 1919.55 1005.27 1917.44 1004.67C1902.04 1001.65 1886.65 999.289 1871.26 996.237C1845.9 991.141 1784.04 978.696 1778.3 977.189Z" fill="#191919"/>
<path d="M1951.24 730.927C1957.73 732.225 1960.83 723.514 1954.25 721.873C1945.83 720.861 1632.65 693.435 1622.56 692.603C1618.34 692.254 1616.83 692.901 1616.52 695.919C1616.22 698.937 1617.13 700.448 1620.46 700.448C1631.76 700.471 1949.46 730.927 1951.24 730.927Z" fill="#191919"/>
<path d="M1010.78 889.375C1027.96 884.69 1018.33 889.331 1062.69 872.774C1074.39 867.857 1085.36 861.358 1095.29 853.464C1097.39 852.024 1099.75 850.994 1102.23 850.449C1104.07 850.196 1105.8 849.442 1107.23 848.278C1108.67 847.107 1109.76 845.57 1110.38 843.831C1111.01 842.085 1111.13 840.205 1110.76 838.392C1110.4 836.579 1109.53 834.907 1108.27 833.549C1101.28 825.23 1092.22 818.88 1082.01 815.142C1064.44 807.74 1047 810.322 1029.8 816.351C1004.12 825.342 972.343 834.691 964.597 859.806C963.388 864.417 963.672 869.297 965.411 873.736C967.142 878.176 970.239 881.959 974.254 884.533C995.649 896.322 1001.38 891.935 1010.78 889.375ZM1087.44 854.672C1068.51 866.499 1047.84 875.251 1026.17 880.623C1029.69 877.101 1022.2 881.556 1085.33 854.068C1087.79 852.434 1088.92 853.934 1087.44 854.672ZM1068.13 815.448C1080.25 818.253 1097.36 825.812 1104.34 835.967C1107.43 840.458 1106.16 843.555 1100.72 845.017C1072.6 852.3 1045.66 863.581 1020.74 878.512C1006.89 885.495 995.94 891.405 977.881 876.4C969.448 869.409 969.119 863.417 974.866 854.068C979.478 846.196 986.448 839.973 994.784 836.265C1008.96 830.207 1023.45 824.797 1038.25 819.664C1047.85 816.41 1057.99 814.978 1068.13 815.448Z" fill="#191919"/>
<path d="M1116.72 963.914C1116.11 952.446 1107.4 947.977 1097.4 953.655C1096.84 953.983 1019.72 996.483 959.463 1031.21C954.127 1037.07 949.373 1043.44 945.284 1050.23C943.896 1052.32 944.575 1054.72 948 1054.72C974.754 1051.75 951.015 1061.17 1108.87 972.667C1111.58 970.249 1115.51 967.839 1116.72 963.914ZM963.388 1034.22L1077.19 969.645C1078.1 968.876 1079.16 968.309 1080.32 967.996C1081.48 967.682 1082.69 967.623 1083.86 967.824C1085.04 968.026 1086.16 968.481 1087.14 969.16C1088.13 969.839 1088.95 970.727 1089.55 971.764C1092.02 974.726 1091.96 976.256 1088.65 978.091C1036.58 1006.93 971.687 1044.78 970.336 1044.78C968.216 1041.47 966.104 1037.84 963.388 1034.22ZM953.731 1044.48L958.261 1037.25C964 1039.66 966.41 1042.67 966.127 1047.5C961.881 1046.9 957.052 1049.91 953.731 1044.48ZM1108.88 966.63C1106.46 963.004 1104.35 959.691 1101.93 956.065C1102.66 955.662 1103.46 955.409 1104.29 955.334C1105.12 955.252 1105.95 955.341 1106.74 955.595C1107.53 955.849 1108.26 956.267 1108.89 956.811C1109.51 957.363 1110.01 958.035 1110.37 958.781C1112.49 962.4 1111.58 965.422 1108.87 966.63H1108.88ZM1097.41 973.868C1094.4 969.936 1091.68 966.929 1088.98 963.609C1091.11 963.467 1093.22 964.086 1094.93 965.362C1096.65 966.63 1097.86 968.473 1098.34 970.555C1098.31 971.473 1097.43 972.965 1097.43 973.868H1097.41ZM1103.45 970.846C1100.72 966.354 1098.62 962.982 1096.81 959.385C1101.34 960.288 1104.35 962.706 1104.67 966.63C1104.51 968.093 1104.09 969.525 1103.43 970.846H1103.45Z" fill="#191919"/>
<path d="M1675.69 846.219C1657.35 849.412 1662.57 887.532 1726.69 891.487C1751.58 893.017 1806.16 883.257 1796.72 863.723C1795.93 861.418 1794.48 859.381 1792.54 857.888C1790.62 856.389 1788.29 855.486 1785.85 855.299C1786.31 856.21 1787.05 856.948 1787.97 857.411C1789.5 858.217 1790.78 859.448 1791.65 860.948C1792.51 862.447 1792.94 864.163 1792.88 865.902C1792.81 867.633 1792.26 869.312 1791.28 870.744C1790.31 872.184 1788.95 873.311 1787.36 874.005C1760.19 890.517 1704.34 892.308 1676.29 869.513C1674.75 868.372 1673.47 866.939 1672.51 865.29C1671.55 863.641 1670.94 861.813 1670.71 859.918C1670.49 858.015 1670.65 856.098 1671.19 854.27C1671.74 852.442 1672.66 850.74 1673.88 849.278C1674.78 848.636 1675.09 847.427 1675.69 846.219Z" fill="#191919"/>
<path d="M1043.07 645.548C1047.46 645.548 1048.3 641.839 1045.19 639.512C1040.07 633.994 974.53 629.857 973.963 629.857C972.44 629.737 970.933 630.226 969.776 631.216C968.612 632.206 967.896 633.617 967.776 635.137C967.657 636.657 968.142 638.163 969.134 639.323C970.127 640.483 971.537 641.202 973.052 641.322C996.299 644.068 1019.68 645.48 1043.07 645.548Z" fill="#191919"/>
<path d="M1243.79 655.8C1220.18 653.108 1216.28 652.704 1213 654.592C1212.38 654.877 1211.86 655.341 1211.51 655.925C1211.16 656.508 1210.99 657.183 1211.01 657.864C1211.04 658.545 1211.28 659.202 1211.69 659.748C1212.1 660.294 1212.66 660.707 1213.31 660.931C1217.51 662.462 1221.86 663.575 1226.28 664.253C1236.84 665.557 1247.71 666.366 1258.57 666.968C1263.1 667.569 1271.28 658.936 1243.79 655.8Z" fill="#191919"/>
<path d="M1152.63 931.913C1154.75 929.197 1157.13 925.876 1161.69 927.69C1162.59 927.988 1171.74 928.652 1174.05 924.668C1178.4 917.251 1195.01 912.864 1201.52 912.304C1263.22 905.693 1291.08 918.273 1321.64 935.539C1327.52 938.061 1323.25 936.785 1342.16 930.107C1378.63 916.438 1440.29 919.497 1499.11 956.968C1506.71 961.654 1513.19 967.936 1518.12 975.375C1521.93 981.083 1524.81 980.091 1533.22 983.807C1534.12 984.008 1534.96 984.441 1535.66 985.045C1536.35 985.657 1536.9 986.426 1537.22 987.291C1537.55 988.157 1537.66 989.089 1537.54 990.007C1537.42 990.925 1537.07 991.805 1536.54 992.559C1531.71 1000.71 1444.18 1147.37 1436.34 1160.95C1433.92 1165.17 1432.1 1166.07 1427.58 1165.17C1410.98 1161.54 1271.11 1134.39 1240.15 1127.75C1235.24 1126.42 1230.14 1125.91 1225.06 1126.24C1214.56 1127.5 1203.97 1124.69 1195.49 1118.37C1193.1 1116.63 1190.28 1115.58 1187.33 1115.35C1173.15 1113.55 1064.49 1097.55 1053.33 1096.04C1020.19 1092.59 1008.78 1118.51 1152.63 931.913ZM1420.04 1150.99C1422.29 1148.75 1517.16 992.223 1517.53 991.664C1514.9 989.03 1523.15 977.89 1421.55 1145.57C1418.31 1150.97 1418.28 1149.24 1420.04 1150.99ZM1372.36 1135.91C1335.1 1119.42 1295.06 1110.11 1254.34 1108.45L1372.36 1135.91ZM1360.28 1125.04C1334.03 1111.77 1306.56 1103.32 1278.49 1104.52C1306.43 1108.33 1333.86 1115.21 1360.28 1125.04ZM1412.5 1147.98C1446.91 1091.85 1481.31 1035.82 1515.72 979.897C1464.22 936.054 1395.46 919.37 1337.34 940.06C1330.17 942.545 1324.08 947.455 1320.14 953.946C1270.42 1030.14 1226.31 1095.62 1220.25 1105.73C1292.37 1083.4 1355.15 1103.02 1412.5 1147.98ZM1213 1104.52C1248.31 1051.41 1283.93 997.7 1319.84 943.985C1286.01 915.99 1214.91 912.834 1179.49 925.876C1176.81 926.555 1066.28 1070.79 1063.9 1074.35C1089.39 1068.89 1115.83 1069.82 1140.87 1077.06C1166.06 1082.84 1190.34 1092.09 1213 1104.52ZM1086.84 1078.57C1107.64 1081.6 1129.69 1084.3 1151.43 1087.33C1122.45 1079.48 1095.29 1076.16 1086.84 1078.57ZM1180.4 1100.91C1180.64 1100.55 1180.75 1100.12 1180.7 1099.7C1173.76 1097.88 1166.51 1095.76 1158.97 1094.56C1143.76 1092.25 1083.75 1083.21 1068.13 1082.5C1066.08 1082.52 1064.05 1082.83 1062.09 1083.4C1101.93 1089.44 1141.16 1095.17 1180.4 1100.91Z" fill="#191919"/>
<path d="M1108.87 966.623C1115.06 963.87 1109.87 952.245 1102.24 956.058C1104.35 959.669 1106.76 963.004 1108.87 966.623Z" fill="#FF0000"/>
<path d="M1640.07 1160.06C1640.67 1163.37 1642.49 1164.95 1645.5 1164.58C1659.73 1162.86 1641.13 1171.04 1701.94 1135C1717.8 1125.61 1782.83 1090.57 1782.83 1078.58C1781.35 1077.1 1764.36 1079.71 1761.69 1081.3C1627.18 1162.53 1649.72 1147.99 1640.07 1160.06ZM1703.15 1129.27C1701.63 1130.8 1673.56 1147.5 1653.35 1159.45C1651.25 1160.69 1650.33 1159.75 1649.12 1158.25C1647.91 1156.43 1649.12 1155.54 1650.63 1154.62C1656.31 1151.17 1690.17 1130.45 1701.04 1124.14C1701.63 1125.89 1702.34 1127.61 1703.15 1129.27Z" fill="#191919"/>
<path d="M1259.48 747.848C1253.96 748.691 1257.79 746.519 1174.66 818.156C1171.53 820.245 1173.83 822.379 1175.87 822.379C1187.34 823.581 1460.49 854.687 1472.86 856.478C1474.79 856.791 1476.78 856.568 1478.59 855.821C1480.4 855.075 1481.97 853.837 1483.12 852.255C1542.14 780.685 1544.03 780.872 1543.19 778.32C1540.81 773.56 1260.14 747.736 1259.48 747.848ZM1487.65 799.749C1491.27 800.346 1493.99 800.95 1497.01 801.256C1499.72 801.861 1497.31 802.763 1495.49 802.763C1484.75 799.779 1480.16 806.852 1467.73 822.379C1471.96 822.984 1475.28 823.282 1478.6 823.887C1481.61 825.095 1478.9 824.789 1478.6 825.095C1475.69 825.416 1472.75 825.416 1469.84 825.095C1468.34 824.745 1466.76 824.842 1465.31 825.379C1463.87 825.916 1462.6 826.864 1461.69 828.11C1458.82 830.982 1455.8 833.706 1452.63 836.258C1451.73 836.862 1450.83 837.466 1451.73 835.355C1454.75 832.034 1457.46 828.714 1460.79 825.401C1460.85 825.327 1460.9 825.237 1460.91 825.14C1460.93 825.043 1460.93 824.946 1460.9 824.857C1460.86 824.767 1460.81 824.685 1460.74 824.618C1460.66 824.551 1460.58 824.506 1460.49 824.491C1455.66 823.887 1435.13 821.171 1424.57 820.268C1423.04 820.469 1421.65 821.223 1420.63 822.379C1412.87 830.154 1402.36 842.331 1405.54 835.959C1409.77 830.826 1413.98 825.401 1418.52 820.268C1417.31 819.656 1408.85 818.88 1385.62 816.336C1375.05 815.209 1371.67 813.851 1368.42 817.537C1365.04 821.395 1361.48 825.08 1358.16 829.005C1356.65 831.415 1355.44 830.214 1357.25 828.102C1360.27 823.573 1363.59 819.35 1366.91 814.523C1353.93 813.008 1341.25 811.508 1328.28 809.994C1323.78 809.994 1318.54 819.902 1312.58 823.872L1311.68 822.969C1315 818.746 1318.01 814.538 1321.34 810.299C1322.19 808.613 1322.4 809.665 1286.02 804.86C1281.79 804.301 1279.08 803.659 1276.07 807.882C1270.63 817.537 1268.19 819.044 1270.33 813.62C1271.24 812.105 1273.35 807.882 1274.55 805.472C1274.64 805.315 1274.69 805.136 1274.68 804.957C1274.68 804.778 1274.63 804.606 1274.54 804.45C1274.45 804.301 1274.31 804.174 1274.16 804.084C1274 803.995 1273.83 803.957 1273.65 803.957C1268.82 803.353 1256.74 800.995 1245.89 799.734C1235.92 798.578 1232.88 796.697 1229.28 800.644C1226.54 803.644 1223.54 806.375 1220.53 809.389C1218.42 811.799 1217.51 811.202 1219.32 808.486L1227.75 798.227C1227.9 798.115 1228.01 797.958 1228.05 797.779C1228.1 797.6 1228.09 797.414 1228.02 797.242C1227.96 797.07 1227.84 796.929 1227.68 796.832C1227.52 796.742 1227.34 796.697 1227.16 796.72L1216.89 794.004C1214.48 793.399 1215.68 792.795 1217.19 792.795C1231.31 794.078 1230.19 796.63 1237.72 787.662C1241.02 783.729 1252.81 773.783 1254.62 771.97C1253.64 771.403 1252.63 770.903 1251.6 770.463C1249.49 769.859 1249.49 768.956 1252.51 769.553C1254.21 769.918 1255.99 769.814 1257.64 769.254C1258.24 768.956 1262.76 763.524 1264.28 761.711C1266.09 760.204 1266.09 761.107 1265.18 762.315L1261.25 768.65C1261.16 768.807 1261.12 768.986 1261.12 769.165C1261.12 769.336 1261.17 769.515 1261.26 769.665C1261.36 769.821 1261.49 769.948 1261.64 770.03C1261.8 770.12 1261.97 770.165 1262.15 770.165C1274.83 771.672 1287.21 773.179 1299.57 774.38C1303.61 774.38 1305.2 771.657 1309.54 768.046C1310.75 765.934 1311.65 766.844 1310.14 768.65C1308.63 770.762 1307.43 772.873 1305.91 774.992C1305.31 776.201 1305.61 776.499 1306.22 776.499C1311.95 777.708 1323.43 777.977 1330.39 778.909C1347.9 781.26 1348.84 781.67 1355.74 773.478C1357.31 771.724 1359.02 770.105 1360.87 768.65C1361.78 767.449 1362.38 768.352 1361.78 769.553C1359.05 772.873 1355.74 777.104 1352.72 780.723C1352.66 780.797 1352.62 780.887 1352.6 780.976C1352.58 781.073 1352.59 781.17 1352.62 781.26C1352.65 781.349 1352.7 781.431 1352.78 781.498C1352.84 781.558 1352.93 781.603 1353.02 781.625C1357.55 781.931 1376.25 782.849 1384.41 784.341C1391.04 785.565 1392.28 785.244 1397.39 779.215C1398.73 777.275 1400.25 775.455 1401.92 773.783C1404.03 771.067 1403.43 773.179 1402.82 774.686C1400.71 777.708 1398.6 781.028 1396.49 784.341C1396.42 784.483 1396.38 784.632 1396.38 784.782C1396.38 784.938 1396.4 785.087 1396.46 785.229C1396.51 785.371 1396.6 785.498 1396.71 785.602C1396.82 785.714 1396.95 785.796 1397.09 785.856C1410.97 787.967 1424.49 790.124 1438.13 792.191C1443.11 792.944 1441.38 791.064 1449.29 783.14L1450.2 784.043C1448.38 787.065 1446.26 789.773 1443.86 793.093C1455.63 795.205 1467.1 796.697 1478.57 799.13C1480.25 799.622 1482.07 799.495 1483.67 798.779C1485.28 798.055 1486.57 796.787 1487.32 795.198C1494.87 785.841 1496.07 786.445 1494.87 787.953C1492.85 792.116 1490.44 796.063 1487.65 799.749Z" fill="#FF0000"/>
<path d="M1484.03 875.191C1484.59 874.632 1489.4 870.953 1483.43 869.461C1471.06 867.946 1161.99 832.639 1148.71 831.139C1146.11 831.139 1144.29 834.333 1148.41 835.355C1180.22 839.466 1477.63 873.915 1484.03 875.191Z" fill="#191919"/>
<path d="M1572.77 777.119C1490.19 869.856 1488.24 867.237 1491.88 870.364C1493.99 872.177 1495.49 870.043 1496.71 868.558C1512.49 849.33 1577.29 779.544 1577.29 778.32C1577.29 777.417 1577.31 772.008 1572.77 777.119Z" fill="#191919"/>
<path d="M1442.38 985.933C1445.87 987.731 1449.25 989.738 1450.25 987.142C1451.46 982.329 1425.99 971.249 1423.39 970.242C1399.69 960.952 1374.25 956.938 1348.84 958.475C1344.46 958.953 1340.12 959.759 1335.86 960.893C1322.84 967.384 1385.02 956.55 1442.38 985.933Z" fill="#191919"/>
<path d="M1333.43 981.106C1326.18 984.127 1333.13 985.038 1334.34 985.038C1349 985.127 1363.6 987.052 1377.79 990.776C1378.69 991.074 1385.94 990.171 1379 986.843C1352.07 978.211 1346.12 978.181 1333.43 981.106Z" fill="#191919"/>
<path d="M1209.98 1044.18C1213.6 1038.45 1217.22 1033.01 1220.84 1027.58C1221.37 1027.24 1221.97 1027.01 1222.59 1026.9C1223.22 1026.8 1223.85 1026.82 1224.47 1026.98C1227.51 1027.81 1230.81 1028.78 1234.13 1029.4C1232.31 1025.17 1228.09 1024.26 1224.47 1021.84C1227.19 1017.32 1229.6 1012.79 1232.34 1007.97C1243.22 1011.91 1242.57 1011.7 1245.62 1010.68C1243.78 1007.94 1247.01 1009 1234.45 1003.74C1238.07 997.401 1241.4 991.38 1245.01 985.03C1247.43 985.941 1249.84 986.843 1252.56 987.746C1252.56 983.531 1248.94 983.254 1247.13 981.412C1249.84 975.681 1252.56 969.943 1255.28 963.907C1254.97 963.609 1255.13 958.975 1250.45 965.422C1242.57 976.241 1241.86 979.3 1239.58 979.3C1229.62 977.188 1219.96 974.771 1210 972.361C1220.27 953.648 1221.78 947.313 1206.38 969.339C1206.04 970.361 1205.31 971.212 1204.36 971.719C1203.4 972.219 1202.29 972.346 1201.25 972.055C1194.01 971.354 1186.77 971.152 1178.92 970.846C1179.93 969.026 1180.73 967.108 1181.33 965.116C1189.2 940.672 1177.1 963.303 1177.1 963.609C1171.55 980.27 1158.1 966.22 1152.37 976.883C1157.2 976.584 1162.34 976.286 1168.37 975.98C1165.05 981.113 1162.34 985.635 1159.31 990.164C1158.61 991.574 1143.81 990.268 1139.4 994.663C1144.53 997.379 1149.66 994.663 1155.4 996.469C1152.98 1000.41 1150.57 1004.34 1147.84 1008.24C1147.54 1008.85 1146.04 1008.85 1144.83 1008.85C1140.3 1009.15 1136.07 1009.15 1131.54 1009.45C1130.3 1009.71 1129.08 1010.12 1127.93 1010.65C1127.93 1012.85 1126.14 1011.12 1144.23 1013.97C1141.51 1018.5 1139.1 1023.02 1136.08 1027.25C1134.51 1028.83 1129.34 1027.74 1117.07 1028.46C1115.88 1028.46 1110.32 1030.44 1111.93 1032.08C1118.57 1032.68 1125.22 1033.29 1132.17 1033.89C1131.66 1036.16 1130.95 1038.38 1130.07 1040.53C1122.19 1062.26 1122.51 1063.16 1134 1043.25C1136.25 1040.24 1138.22 1035.1 1141.24 1035.1C1149.11 1036.31 1156.63 1037.51 1164.78 1038.72C1162.66 1043.85 1158.75 1054.12 1157.54 1058.03C1154.82 1065.27 1159.35 1058.64 1159.65 1058.33C1167.31 1047.5 1169.54 1040.83 1172.93 1040.83C1181.99 1042.64 1190.74 1044.77 1199.8 1046.56C1197.07 1051.39 1194.66 1055.92 1192.25 1060.44C1190.13 1063.77 1192.55 1063.16 1193.76 1061.35C1195.57 1059.23 1197.69 1057.41 1199.49 1055.32C1201.6 1052.89 1203.43 1048.98 1205.83 1048.37C1209.01 1047.32 1212.48 1050.32 1222.73 1052.6C1220.84 1048.1 1215.11 1047.2 1209.98 1044.18ZM1229 1001.63C1219.34 999.222 1209.98 996.498 1200.63 994.088C1203.04 988.657 1205.75 983.531 1208.5 977.494C1218.46 979.3 1228.73 981.426 1239.58 983.531C1235.63 989.858 1232.34 995.894 1229 1001.63ZM1216.32 1024.26C1212.39 1030.3 1208.77 1036.03 1205.15 1041.47C1204.91 1041.77 1204.57 1042.01 1204.19 1042.11C1203.81 1042.22 1203.41 1042.21 1203.04 1042.07C1194.28 1039.65 1185.23 1037.24 1176.18 1034.52C1179.19 1029.4 1182.21 1024.57 1185.23 1019.74C1185.45 1019.39 1185.77 1019.12 1186.15 1018.96C1186.52 1018.79 1186.94 1018.76 1187.34 1018.83C1196.7 1020.64 1206.06 1022.46 1216.32 1024.26ZM1189.16 1013.7C1191.57 1009.47 1194.28 1005.27 1196.7 1001.03C1197.78 998.864 1202.13 1001.27 1226.58 1005.86C1223.87 1010.68 1221.75 1014.29 1219.34 1018.22C1218.73 1018.83 1217.52 1019.73 1216.62 1019.43C1207.57 1017.62 1198.51 1015.82 1189.16 1013.7ZM1179.8 1017.32C1172.08 1029.95 1170.5 1033.62 1168.63 1033.62C1160.76 1032.41 1152.94 1030.9 1144.79 1029.4C1147.51 1024.87 1149.92 1020.64 1152.66 1016.42C1153.51 1014.67 1155.75 1014.84 1179.8 1017.32ZM1203.04 976.883C1194.1 993.275 1196.78 993.41 1186.13 992.275C1180.4 991.664 1174.67 991.067 1168.63 990.462C1171.04 985.941 1173.4 981.665 1175.88 977.793C1176.17 977.308 1176.57 976.897 1177.04 976.584C1177.51 976.271 1178.04 976.069 1178.59 975.98C1186.45 976.129 1194.28 976.584 1203.04 976.883ZM1191.27 998.61C1188.55 1003.44 1186.13 1007.36 1183.4 1011.29C1183.11 1011.65 1182.75 1011.95 1182.33 1012.16C1181.91 1012.37 1181.46 1012.49 1180.98 1012.5C1172.84 1011.59 1164.98 1010.38 1156.54 1009.47C1167.43 993.171 1158.86 996.297 1191.27 998.61Z" fill="#191919"/>
<path d="M1263.1 948.514C1264.01 945.798 1261.89 944.284 1259.78 943.687C1229.1 932.39 1197.7 934.539 1191.87 940.366C1189.25 942.985 1192.14 944.575 1193.99 943.993C1215.91 937.009 1241.3 943.067 1263.1 948.514Z" fill="#191919"/>
<path d="M1078.99 823.581C1074.46 823.581 1070.24 823.282 1066.01 823.581C1063.6 823.887 1057.58 830.826 1055.75 832.333C1059.69 831.729 1068.43 830.221 1069.04 829.923C1072.05 828.11 1075.07 825.998 1078.99 823.581Z" fill="#191919"/>
<path d="M1373.27 811.508C1378.69 812.113 1383.22 812.754 1387.75 813.321C1398.01 814.605 1408.28 815.433 1418.54 816.634C1419.75 816.634 1421.56 816.634 1422.16 815.731C1427.6 809.397 1433.02 802.763 1439.06 795.496C1432.72 794.593 1405.23 790.848 1397.41 789.46C1396.02 789.094 1394.56 789.154 1393.22 789.639C1391.87 790.124 1390.69 791.012 1389.87 792.176C1385.07 798.264 1379.31 804.569 1373.27 811.508Z" fill="#FF0000"/>
<path d="M1237.75 793.705C1237.6 793.817 1237.5 793.974 1237.46 794.153C1237.4 794.325 1237.42 794.511 1237.49 794.683C1237.55 794.854 1237.67 794.996 1237.83 795.093C1237.99 795.19 1238.17 795.227 1238.36 795.213C1242.46 795.698 1259.43 798.339 1276.99 799.742C1281.96 799.742 1278.44 800.159 1298.11 779.506C1298.26 779.394 1298.37 779.238 1298.41 779.066C1298.46 778.887 1298.45 778.7 1298.38 778.529C1298.31 778.357 1298.19 778.215 1298.04 778.118C1297.88 778.021 1297.69 777.984 1297.51 777.999C1259.29 772.731 1259.29 771.575 1257.97 772.873C1251.03 779.812 1244.47 786.833 1237.75 793.705Z" fill="#FF0000"/>
<path d="M1345.49 783.446C1331.56 781.707 1313.57 780.029 1306.56 778.924C1305.17 778.656 1303.75 778.768 1302.42 779.245C1301.09 779.723 1299.92 780.551 1299.01 781.64C1293.76 787.878 1288.15 794.004 1282.41 800.652C1291.01 801.876 1289.75 801.473 1323.16 805.479C1324.43 805.502 1325.67 805.188 1326.78 804.577C1333.12 798.234 1339.14 791.594 1345.49 784.961V783.446Z" fill="#FF0000"/>
<path d="M1329.5 806.39C1339.77 807.598 1349.74 808.188 1359.69 810.322C1363.15 811.262 1366.83 810.993 1370.13 809.568C1373.42 808.136 1376.12 805.629 1377.79 802.45C1381.1 798.055 1384.63 793.825 1388.37 789.781C1388.48 789.631 1388.55 789.452 1388.58 789.266C1388.61 789.087 1388.6 788.893 1388.54 788.714C1388.48 788.535 1388.37 788.378 1388.24 788.244C1388.1 788.117 1387.93 788.02 1387.75 787.968C1350.96 784.035 1356.22 784.386 1352.14 784.035C1350.33 784.035 1349.42 785.237 1348.2 786.445C1341.52 792.653 1335.27 799.316 1329.5 806.39Z" fill="#FF0000"/>
<path d="M1480.71 801.853C1470.46 800.346 1464.7 799.264 1452.34 797.63C1445.09 796.668 1442.09 793.84 1438.46 800.04C1432.57 810.091 1429.39 810.479 1424.87 817.246C1442.4 819.186 1450.48 820.544 1461.09 821.469C1465.7 821.469 1466.15 819.567 1481.01 803.054C1481.13 802.987 1481.23 802.875 1481.28 802.749C1481.34 802.622 1481.34 802.48 1481.31 802.346C1481.28 802.204 1481.2 802.085 1481.09 801.995C1480.99 801.913 1480.85 801.861 1480.71 801.853Z" fill="#FF0000"/>
<path d="M1095.57 339.464V369.307H674.907V339.464H1095.57ZM756.963 355.622C756.963 354.244 756.552 352.896 755.776 351.749C755.015 350.603 753.925 349.71 752.649 349.183C751.381 348.656 749.97 348.519 748.619 348.787C747.269 349.056 746.026 349.721 745.054 350.696C744.075 351.671 743.412 352.913 743.143 354.266C742.872 355.618 743.013 357.021 743.536 358.294C744.064 359.569 744.958 360.658 746.104 361.425C747.254 362.191 748.597 362.601 749.978 362.603C750.903 362.608 751.813 362.43 752.664 362.08C753.522 361.73 754.291 361.214 754.94 360.563C755.597 359.912 756.112 359.138 756.463 358.285C756.806 357.434 756.985 356.521 756.985 355.599L756.963 355.622ZM729.5 355.622C729.5 354.244 729.089 352.896 728.325 351.75C727.555 350.604 726.464 349.711 725.194 349.183C723.918 348.657 722.518 348.519 721.163 348.787C719.809 349.056 718.566 349.72 717.594 350.694C716.616 351.669 715.953 352.91 715.683 354.263C715.413 355.614 715.548 357.016 716.076 358.291C716.604 359.565 717.493 360.654 718.64 361.422C719.787 362.189 721.136 362.6 722.513 362.603C723.434 362.608 724.345 362.43 725.199 362.08C726.054 361.73 726.83 361.215 727.482 360.563C728.128 359.912 728.645 359.138 728.999 358.286C729.348 357.434 729.528 356.522 729.522 355.599L729.5 355.622ZM702.034 355.622C702.034 354.244 701.625 352.896 700.854 351.749C700.089 350.603 698.999 349.71 697.723 349.183C696.453 348.656 695.048 348.519 693.698 348.787C692.343 349.056 691.101 349.721 690.129 350.696C689.151 351.671 688.487 352.913 688.218 354.266C687.948 355.618 688.088 357.021 688.611 358.294C689.14 359.569 690.034 360.658 691.18 361.425C692.327 362.191 693.676 362.601 695.053 362.603C695.975 362.61 696.891 362.435 697.745 362.086C698.6 361.736 699.376 361.221 700.028 360.569C700.686 359.918 701.203 359.144 701.551 358.29C701.905 357.437 702.085 356.522 702.08 355.599L702.034 355.622Z" fill="#313553"/>
<path d="M1011.68 963.086H552.655L494.925 922.213L322.237 799.965L322.495 798.809C324.973 799.577 327.552 799.965 330.146 799.965H763.381C767.933 799.973 772.41 798.764 776.343 796.474L1011.68 963.086ZM761.709 900.403H885.179L848.903 874.729L768.343 817.671H395.655L427.943 840.54L512.492 900.403H761.709ZM660.998 947.402H840.157L795.493 915.781H615.882L660.548 947.402H660.998Z" fill="#FF0000"/>
<path d="M885.179 900.396H761.709V899.672L728.053 875.84H848.127L848.91 874.721L885.179 900.396Z" fill="#FF0000"/>
<path d="M565.235 840.548L532.947 817.679H768.343L848.91 874.736L848.127 875.855H728.053L761.709 899.679V900.411H512.469L427.92 840.548H565.235Z" fill="#FF0000"/>
<path d="M840.164 947.402H661.002H660.553L615.887 915.781H795.045H795.493L840.164 947.402Z" fill="#B3B3B3"/>
<path d="M789.157 620.019V774.216C789.157 777.596 788.493 780.946 787.194 784.073C785.896 787.206 784 790.042 781.612 792.429C779.216 794.825 776.373 796.72 773.246 798.011C770.112 799.301 766.761 799.973 763.381 799.965H330.149C326.766 799.965 323.415 799.301 320.29 798.011C317.163 796.72 314.323 794.817 311.931 792.429C309.539 790.034 307.642 787.199 306.349 784.073C305.055 780.946 304.39 777.596 304.393 774.216V465.839C304.393 459.008 307.106 452.458 311.935 447.627C316.765 442.795 323.316 440.079 330.149 440.076H763.381C766.761 440.075 770.119 440.741 773.246 442.035C776.373 443.33 779.216 445.229 781.612 447.622C784.008 450.016 785.903 452.858 787.194 455.986C788.493 459.113 789.157 462.466 789.157 465.85V620.019ZM769.537 760.129V479.901C769.537 474.535 767.41 469.389 763.619 465.595C759.813 461.8 754.672 459.669 749.306 459.669H344.23C338.863 459.669 333.716 461.8 329.92 465.595C326.125 469.389 323.993 474.535 323.993 479.901V760.129C323.993 765.501 326.125 770.65 329.92 774.44C333.716 778.23 338.863 780.364 344.23 780.364H749.299C754.664 780.364 759.813 778.23 763.612 774.44C767.403 770.65 769.537 765.501 769.537 760.129Z" fill="#FF0000"/>
<path d="M769.537 479.899V566.528H765.687V565.073C765.687 540.344 751.761 528.26 734.733 528.26H732.912C731.81 528.262 730.759 527.827 729.978 527.052C729.196 526.276 728.757 525.224 728.752 524.124V517.594C731.416 516.28 733.665 514.246 735.234 511.724C736.801 509.201 737.639 506.29 737.639 503.318V494.449C737.639 490.224 735.958 486.174 732.974 483.186C729.983 480.199 725.936 478.521 721.709 478.521C717.481 478.521 713.434 480.199 710.444 483.186C707.459 486.174 705.778 490.224 705.778 494.449V503.318C705.778 506.29 706.616 509.201 708.184 511.724C709.752 514.246 712.001 516.28 714.666 517.594V524.146C714.66 525.242 714.227 526.293 713.451 527.069C712.675 527.853 711.619 528.299 710.511 528.311C705.772 528.15 701.057 528.979 696.655 530.744C692.254 532.508 688.268 535.171 684.957 538.562C681.646 541.951 679.072 545.995 677.413 550.434C675.75 554.873 675.031 559.61 675.3 564.342H674.907V459.677H749.298C754.657 459.677 759.806 461.807 763.604 465.599C767.395 469.391 769.537 474.534 769.537 479.899Z" fill="#B3B3B3"/>
<path d="M765.224 771.366L766.089 771.426C764.239 774.179 761.746 776.425 758.813 777.984C755.888 779.536 752.627 780.349 749.313 780.349H674.907V778.104H675.3C675.031 773.366 675.75 768.628 677.413 764.188C679.072 759.756 681.646 755.712 684.957 752.317C688.268 748.93 692.254 746.266 696.655 744.503C701.057 742.738 705.772 741.906 710.511 742.07C711.057 742.07 711.596 741.968 712.102 741.76C712.602 741.552 713.063 741.249 713.451 740.867C713.839 740.479 714.142 740.024 714.351 739.518C714.564 739.018 714.671 738.478 714.671 737.933V731.38C712.007 730.065 709.758 728.035 708.19 725.512C706.616 722.989 705.784 720.077 705.784 717.105V708.241C705.784 704.015 707.465 699.968 710.449 696.978C713.44 693.994 717.487 692.313 721.714 692.313C725.942 692.313 729.995 693.994 732.979 696.978C735.964 699.968 737.645 704.015 737.645 708.241V717.105C737.645 720.077 736.813 722.989 735.239 725.512C733.671 728.035 731.422 730.065 728.757 731.38V737.944C728.763 739.045 729.201 740.097 729.983 740.872C730.765 741.648 731.816 742.081 732.917 742.081H734.739C749.948 742.064 762.672 751.713 765.224 771.366Z" fill="#313553"/>
<path d="M765.694 671.004V673.099H674.907V670.216H675.3C675.031 665.484 675.75 660.746 677.413 656.312C679.078 651.872 681.646 647.831 684.957 644.442C688.274 641.048 692.254 638.389 696.655 636.624C701.057 634.86 705.772 634.028 710.511 634.19C711.619 634.19 712.675 633.753 713.457 632.971C714.233 632.195 714.671 631.145 714.671 630.049V623.501C712.007 622.186 709.758 620.151 708.19 617.628C706.616 615.104 705.784 612.194 705.784 609.22V600.357C705.784 596.131 707.465 592.084 710.449 589.094C713.44 586.11 717.487 584.429 721.714 584.429C725.942 584.429 729.995 586.11 732.979 589.094C735.964 592.084 737.645 596.131 737.645 600.357V609.237C737.645 612.21 736.813 615.121 735.239 617.645C733.671 620.168 731.422 622.203 728.757 623.518V630.032C728.763 631.134 729.201 632.184 729.983 632.96C730.765 633.735 731.816 634.174 732.917 634.174H734.739C751.769 634.191 765.694 646.291 765.694 671.004Z" fill="#313553"/>
<path d="M765.694 565.087V566.542H674.907V564.294H675.3C675.036 559.565 675.761 554.833 677.425 550.398C679.089 545.964 681.657 541.925 684.975 538.539C688.285 535.153 692.265 532.494 696.666 530.732C701.062 528.969 705.778 528.142 710.511 528.302C711.613 528.299 712.67 527.863 713.457 527.088C714.233 526.312 714.666 525.262 714.671 524.166V517.585C712.007 516.271 709.758 514.238 708.19 511.715C706.622 509.192 705.784 506.281 705.784 503.309V494.44C705.784 490.216 707.465 486.165 710.449 483.178C713.44 480.191 717.487 478.512 721.714 478.512C725.942 478.512 729.995 480.191 732.979 483.178C735.964 486.165 737.645 490.216 737.645 494.44V503.309C737.645 506.281 736.807 509.192 735.239 511.715C733.671 514.238 731.422 516.271 728.757 517.585V524.137C728.763 525.237 729.201 526.29 729.983 527.066C730.765 527.841 731.816 528.276 732.917 528.274H734.739C751.769 528.302 765.694 540.375 765.694 565.087Z" fill="#313553"/>
<path d="M722.535 348.638C723.918 348.634 725.267 349.041 726.419 349.806C727.566 350.57 728.466 351.659 728.994 352.934C729.522 354.209 729.663 355.613 729.393 356.967C729.129 358.321 728.466 359.566 727.487 360.542C726.51 361.519 725.267 362.184 723.913 362.453C722.557 362.723 721.152 362.584 719.876 362.054C718.606 361.525 717.516 360.63 716.746 359.481C715.981 358.333 715.576 356.981 715.576 355.602C715.576 353.756 716.313 351.987 717.616 350.681C718.921 349.376 720.692 348.641 722.535 348.638Z" fill="#B3B3B3"/>
<path d="M695.073 348.638C696.456 348.636 697.805 349.043 698.951 349.809C700.104 350.574 700.998 351.664 701.526 352.938C702.054 354.213 702.195 355.617 701.925 356.97C701.656 358.324 700.992 359.568 700.02 360.544C699.042 361.521 697.799 362.185 696.445 362.453C695.09 362.723 693.685 362.583 692.409 362.054C691.133 361.525 690.048 360.629 689.278 359.48C688.513 358.332 688.108 356.981 688.108 355.602C688.108 353.755 688.845 351.984 690.149 350.679C691.459 349.374 693.229 348.639 695.073 348.638Z" fill="#FF0000"/>
<path d="M605.168 141.351V171.222H27.5332V141.351H605.168ZM109.631 157.515C109.63 156.136 109.22 154.789 108.453 153.643C107.686 152.496 106.596 151.603 105.322 151.076C104.048 150.548 102.646 150.411 101.293 150.68C99.9395 150.95 98.6977 151.614 97.7224 152.588C96.747 153.564 96.0828 154.807 95.8134 156.159C95.544 157.511 95.6821 158.913 96.2089 160.187C96.7366 161.461 97.6291 162.551 98.7754 163.318C99.9224 164.084 101.27 164.495 102.649 164.495C103.566 164.497 104.475 164.318 105.322 163.967C106.17 163.616 106.941 163.102 107.589 162.455C108.238 161.806 108.752 161.036 109.102 160.189C109.452 159.34 109.632 158.432 109.631 157.515ZM82.1709 157.515C82.1701 156.136 81.7604 154.789 80.9933 153.643C80.2269 152.497 79.138 151.604 77.8634 151.076C76.5895 150.549 75.1873 150.411 73.8349 150.68C72.4825 150.948 71.2402 151.612 70.2649 152.587C69.2891 153.561 68.6246 154.803 68.3542 156.155C68.0845 157.508 68.2216 158.909 68.7478 160.183C69.2745 161.458 70.1666 162.547 71.3122 163.315C72.4578 164.083 73.8051 164.494 75.1843 164.495C76.1022 164.498 77.0112 164.318 77.8589 163.969C78.7082 163.619 79.4783 163.104 80.1276 162.456C80.7769 161.808 81.2918 161.038 81.6425 160.189C81.9933 159.342 82.1731 158.433 82.1709 157.515ZM54.7061 157.515C54.7051 156.136 54.2951 154.789 53.5281 153.643C52.7612 152.496 51.6716 151.603 50.3972 151.076C49.1228 150.548 47.7206 150.411 46.3679 150.68C45.0153 150.95 43.7728 151.614 42.7975 152.588C41.8222 153.564 41.158 154.807 40.8887 156.159C40.6192 157.511 40.7569 158.913 41.2842 160.187C41.8115 161.461 42.7048 162.551 43.8511 163.318C44.9975 164.084 46.3454 164.495 47.7245 164.495C48.6419 164.497 49.5504 164.318 50.3981 163.967C51.2457 163.616 52.016 163.102 52.6646 162.455C53.3132 161.806 53.8274 161.036 54.1777 160.189C54.5281 159.34 54.7076 158.432 54.7061 157.515Z" fill="#313553"/>
<path d="M585.257 572.212V585.92L571.683 579.175C573.077 576.871 575.084 574.999 577.484 573.769C579.878 572.538 582.571 571.998 585.257 572.212Z" fill="#B3B3B3"/>
<path d="M532.942 817.679L565.231 840.548H427.916L395.628 817.679H532.942Z" fill="#FF0000"/>
<path d="M471.74 293.198C472.239 293.559 472.654 294.023 472.962 294.558C473.269 295.092 473.459 295.685 473.519 296.299C473.581 296.911 473.511 297.53 473.316 298.115C473.121 298.699 472.804 299.236 472.387 299.689L460.02 312.75L447.232 326.239L423.184 351.659L421.768 351.856C421.217 351.252 420.584 350.729 419.884 350.305C418.348 349.335 416.585 348.78 414.769 348.697V348.658L447.44 313.672L465.99 293.765C466.398 293.325 466.893 292.974 467.443 292.734C467.993 292.494 468.587 292.371 469.188 292.372C470.104 292.374 470.996 292.663 471.74 293.198Z" fill="#313553"/>
<path d="M443.921 515.521L458.682 522.878C455.799 531.842 443.91 528.897 443.91 528.897L443.921 515.521Z" fill="#B3B3B3"/>
<path d="M437.387 245.948V259.662L423.828 252.917C425.221 250.615 427.227 248.744 429.62 247.513C432.014 246.283 434.703 245.741 437.387 245.948Z" fill="#B3B3B3"/>
<path d="M427.896 372.358C430.014 378.225 423.483 384.161 423.483 384.161C418.48 380.726 408.182 385.414 405.219 391.023C396.225 389.809 396.45 385.122 399.599 380.71C401.75 377.84 404.433 375.409 407.502 373.549C414.54 369.317 425.776 366.496 427.896 372.358Z" fill="#B3B3B3"/>
<path d="M420.828 361.865C428.833 366.4 427.889 372.358 427.889 372.358C425.769 366.496 414.533 369.317 407.49 373.538C404.421 375.397 401.737 377.827 399.586 380.698L398.563 380.006C397.742 379.963 396.926 379.838 396.129 379.636C389.501 377.989 393.442 371.987 393.717 371.554C397.245 370.213 400.587 368.427 403.661 366.237C404.549 365.554 405.301 364.709 405.876 363.747L406.522 363.843C406.522 363.843 415.472 358.824 420.828 361.865Z" fill="#B3B3B3"/>
<path d="M405.218 391.007C408.181 385.387 418.478 380.711 423.481 384.145C428.484 387.579 425.657 396.931 413.813 410.347C410.972 414.076 407.331 417.121 403.16 419.261C398.988 421.401 394.39 422.579 389.704 422.711L381.272 439.835V440.072H337.876V439.847L355.982 401.5L372.79 369.465C373.874 367.705 375.432 366.284 377.287 365.368C384.688 361.385 392.704 358.666 401.002 357.325C401.901 357.268 402.804 357.36 403.672 357.6C404.276 357.786 404.829 358.108 405.287 358.543C405.744 358.978 406.094 359.514 406.309 360.108C406.525 360.701 406.598 361.337 406.525 361.964C406.451 362.591 406.233 363.193 405.887 363.721C405.312 364.683 404.56 365.527 403.672 366.211C400.598 368.4 397.257 370.188 393.728 371.527C392.649 371.96 391.631 372.37 390.727 372.708L390.884 373.135L362.874 402.753C362.457 403.205 362.14 403.74 361.945 404.324C361.75 404.906 361.68 405.524 361.741 406.136C361.803 406.748 361.993 407.34 362.299 407.873C362.606 408.406 363.022 408.868 363.52 409.228C364.27 409.762 365.168 410.05 366.089 410.048C366.689 410.048 367.283 409.925 367.833 409.685C368.384 409.445 368.878 409.095 369.287 408.654L395.437 381.003L396.14 379.609C396.937 379.813 397.752 379.937 398.574 379.98L399.591 380.672C396.449 385.106 396.235 389.793 405.218 391.007Z" fill="#B3B3B3"/>
<path d="M421.771 351.881C425.442 356.119 420.832 361.863 420.832 361.863C415.475 358.823 406.549 363.825 406.549 363.825L405.902 363.729C406.249 363.2 406.466 362.599 406.54 361.971C406.613 361.344 406.54 360.709 406.325 360.115C406.11 359.521 405.76 358.985 405.302 358.55C404.844 358.115 404.292 357.793 403.687 357.608C402.819 357.368 401.916 357.275 401.017 357.333C402.408 354.864 404.395 352.783 406.799 351.281C409.202 349.78 411.944 348.907 414.772 348.74C416.588 348.822 418.351 349.377 419.888 350.347C420.585 350.766 421.219 351.283 421.771 351.881Z" fill="#B3B3B3"/>
<path d="M419.896 778.096V780.349H344.229C340.945 780.349 337.708 779.551 334.802 778.021C331.897 776.492 329.409 774.276 327.557 771.56L327.849 771.366C330.402 751.698 343.133 742.061 358.316 742.061H360.16C361.257 742.061 362.31 741.623 363.085 740.847C363.861 740.071 364.297 739.021 364.297 737.925V731.371C361.634 730.057 359.391 728.022 357.825 725.499C356.258 722.975 355.429 720.064 355.432 717.096V708.233C355.393 706.115 355.775 704.012 356.558 702.045C357.34 700.078 358.508 698.291 359.99 696.779C361.473 695.267 363.242 694.064 365.194 693.25C367.147 692.429 369.243 692.007 371.36 692.007C373.478 692.007 375.573 692.429 377.525 693.25C379.478 694.064 381.247 695.267 382.73 696.779C384.213 698.291 385.38 700.078 386.162 702.045C386.945 704.012 387.328 706.115 387.288 708.233V717.096C387.287 720.069 386.455 722.98 384.886 725.504C383.316 728.027 381.072 730.057 378.407 731.371V737.947C378.408 739.043 378.844 740.094 379.619 740.87C380.396 741.645 381.446 742.084 382.544 742.084C387.283 741.92 392.005 742.747 396.407 744.512C400.809 746.273 404.796 748.937 408.111 752.332C411.427 755.719 413.999 759.763 415.663 764.203C417.327 768.642 418.047 773.381 417.777 778.118L419.896 778.096Z" fill="#313553"/>
<path d="M419.894 673.099V778.089H417.781C418.05 773.358 417.33 768.62 415.666 764.181C414.001 759.741 411.429 755.697 408.114 752.302C404.799 748.907 400.812 746.251 396.41 744.487C392.007 742.722 387.287 741.896 382.546 742.059C381.45 742.059 380.399 741.62 379.622 740.845C378.847 740.07 378.41 739.019 378.41 737.923V731.369C381.075 730.054 383.319 728.026 384.889 725.502C386.458 722.979 387.29 720.067 387.291 717.094V708.231C387.212 704.061 385.5 700.087 382.522 697.165C379.543 694.242 375.537 692.601 371.363 692.601C367.19 692.601 363.184 694.242 360.204 697.165C357.226 700.087 355.513 704.061 355.436 708.231V717.094C355.432 720.061 356.26 722.973 357.828 725.496C359.395 728.02 361.637 730.054 364.3 731.369V737.94C364.3 739.036 363.864 740.086 363.088 740.862C362.313 741.638 361.26 742.076 360.163 742.076H358.319C343.142 742.076 330.404 751.728 327.852 771.381L327.56 771.575C325.24 768.217 324.001 764.225 324.007 760.137V673.099H419.894Z" fill="#B3B3B3"/>
<path d="M419.892 670.223V673.106H327.378V671.009C327.378 646.281 341.301 634.197 358.295 634.197H360.138C361.236 634.197 362.289 633.759 363.064 632.983C363.84 632.208 364.275 631.151 364.275 630.055V623.507C361.612 622.193 359.37 620.158 357.803 617.634C356.237 615.111 355.408 612.2 355.411 609.227V600.364C355.372 598.244 355.754 596.143 356.537 594.176C357.319 592.208 358.487 590.421 359.969 588.91C361.452 587.398 363.221 586.195 365.173 585.38C367.125 584.56 369.222 584.138 371.339 584.138C373.456 584.138 375.552 584.56 377.504 585.38C379.456 586.195 381.225 587.398 382.708 588.91C384.192 590.421 385.358 592.208 386.141 594.176C386.924 596.143 387.306 598.244 387.266 600.364V609.243C387.266 612.217 386.434 615.128 384.864 617.652C383.295 620.175 381.05 622.209 378.385 623.524V630.038C378.388 631.134 378.825 632.185 379.599 632.961C380.375 633.736 381.425 634.175 382.522 634.18C387.261 634.017 391.982 634.843 396.384 636.608C400.787 638.373 404.772 641.031 408.088 644.42C411.403 647.809 413.975 651.856 415.64 656.296C417.304 660.736 418.025 665.474 417.756 670.206L419.892 670.223Z" fill="#313553"/>
<path d="M419.892 564.313V566.561H327.378V565.105C327.378 540.376 341.301 528.292 358.295 528.292H360.138C361.236 528.291 362.287 527.855 363.063 527.079C363.838 526.304 364.275 525.253 364.275 524.157V517.592C361.613 516.277 359.372 514.242 357.805 511.719C356.238 509.197 355.409 506.287 355.411 503.316V494.448C355.372 492.332 355.754 490.228 356.537 488.261C357.319 486.295 358.487 484.503 359.969 482.992C361.452 481.481 363.221 480.281 365.173 479.462C367.125 478.643 369.222 478.221 371.339 478.221C373.456 478.221 375.552 478.643 377.504 479.462C379.456 480.281 381.225 481.481 382.708 482.992C384.192 484.503 385.358 486.295 386.141 488.261C386.924 490.228 387.306 492.332 387.266 494.448V503.316C387.266 506.287 386.433 509.2 384.863 511.722C383.294 514.244 381.05 516.278 378.385 517.592V524.145C378.387 525.242 378.822 526.293 379.598 527.068C380.374 527.844 381.425 528.28 382.522 528.281C387.262 528.119 391.984 528.945 396.386 530.709C400.788 532.472 404.774 535.135 408.089 538.525C411.405 541.915 413.977 545.96 415.642 550.401C417.306 554.841 418.026 559.579 417.756 564.313H419.892Z" fill="#313553"/>
<path d="M396.13 379.636L395.428 381.029L369.3 408.681C368.891 409.121 368.396 409.471 367.846 409.712C367.296 409.951 366.702 410.075 366.102 410.075C365.181 410.076 364.283 409.788 363.533 409.254C363.035 408.894 362.619 408.432 362.312 407.899C362.005 407.366 361.816 406.774 361.755 406.163C361.693 405.55 361.763 404.933 361.958 404.35C362.153 403.766 362.469 403.231 362.887 402.78L390.897 373.161L390.74 372.734C391.644 372.397 392.662 371.987 393.741 371.554C393.471 371.987 389.503 377.989 396.13 379.636Z" fill="#313553"/>
<path d="M296.055 189.245L310.845 196.602C307.984 205.561 296.078 202.622 296.078 202.622L296.055 189.245Z" fill="#B3B3B3"/>
<path d="M304.387 476.72V539.605H277.827V538.953L259.721 517.596C263.333 509.202 265.258 500.178 265.387 491.041C265.387 480.429 258.405 467.188 252.379 457.718L277.827 440.076L304.387 476.72Z" fill="#B3B3B3"/>
<path d="M247.089 171.219V391.908L246.813 392.47C243.086 390.79 239.167 389.572 235.144 388.845L235.318 387.962V171.219H247.089Z" fill="#FF0000"/>
<path d="M206.067 340.03C209.266 346.404 205.713 355.666 198.968 356.509C196.573 356.844 194.133 356.452 191.963 355.385C194.744 351.266 196.868 346.74 198.26 341.97C199.086 339.986 200.435 337.828 201.75 335.085C203.619 336.303 205.113 338.014 206.067 340.03Z" fill="#313553"/>
<path d="M183.643 381.168L205.319 387.997C205.319 387.997 193.396 401.176 161.243 402.901C141.078 403.569 121.151 398.393 103.862 387.997L131.169 376.717L113.457 358.361C113.575 358.361 111.125 338.802 111.243 338.786C114.615 338.353 138.37 359.44 140.31 356.652L145.571 357.866C150.729 361.405 156.371 364.18 162.322 366.106L162.519 366.168C164.245 366.815 177.23 371.579 183.132 373.384H183.239L183.295 374.462L183.643 381.168Z" fill="#B3B3B3"/>
<path d="M191.457 337.532C190.834 337.978 190.172 338.365 189.479 338.69C189.479 338.69 182.734 337.218 180.254 337.004C178.275 336.83 167.056 337.381 162.739 337.634C161.682 337.673 161.052 337.712 161.052 337.712C163.859 340.114 166.82 342.329 169.917 344.344C171.577 345.561 173.496 346.378 175.524 346.732C177.552 347.086 179.634 346.967 181.609 346.385C185.297 343.918 188.613 340.937 191.457 337.532ZM106.363 309.881C109.439 306.509 113.716 308.37 116.482 310.252C119.323 312.308 122.769 313.356 126.274 313.231C144.751 312.017 148.652 284.422 149.81 274.614C149.81 274.614 175.139 277.357 183.318 281.397C184.099 281.791 184.887 282.224 185.651 282.657C193.68 287.372 199.614 294.965 202.25 303.896L202.054 304.458C201.542 305.93 201.092 306.908 201.092 306.908C203.507 312.09 204.403 317.851 203.678 323.521C202.938 327.714 201.625 331.786 199.777 335.622C198.028 339.331 196.185 342.231 195.089 344.901C193.209 351.314 190.349 357.4 186.612 362.941C185.514 364.249 184.193 365.353 182.711 366.201C181.303 366.997 179.759 367.522 178.157 367.747C173.763 368.259 169.312 367.947 165.032 366.825C164.211 366.628 163.346 366.415 162.542 366.162L162.346 366.1C156.395 364.172 150.753 361.397 145.594 357.861L136.415 356.647C138.201 354.465 139.284 351.793 139.519 348.983C139.754 346.173 139.13 343.358 137.73 340.91C134.357 335.616 131.923 333.497 123.368 337.285C121.3 338.357 119.596 340.014 118.466 342.051L117.876 344.716C112.131 341.405 99.3261 324.106 104.812 312.337C105.19 311.438 105.714 310.608 106.363 309.881Z" fill="#B3B3B3"/>
<path d="M149.764 274.522C149.775 274.554 149.775 274.59 149.764 274.622C148.55 285.155 144.115 316.145 121.968 313.065C120.407 312.837 118.937 312.192 117.713 311.199C115.16 309.159 109.944 305.905 106.335 309.889C105.687 310.62 105.156 311.447 104.761 312.34C99.2694 324.109 109.59 333.758 115.334 337.069L119.966 340.25C118.942 341.996 118.375 343.972 118.321 345.996C118.266 348.019 118.723 350.023 119.651 351.822C122.063 358.628 127.595 357.858 131.816 357.959L131.147 376.708L103.84 387.988C91.9104 389.99 80.335 393.714 69.4769 399.043C59.2969 370.762 92.7992 324.064 102.119 296.586C103.097 293.72 101.9 272.734 117.263 255.418C125.047 249.142 134.165 244.734 143.919 242.531C145.042 242.239 146.122 241.979 147.156 241.75C157.357 239.834 167.904 241.231 177.254 245.737C186.604 250.243 194.268 257.622 199.124 266.794C212.266 293.568 202.222 303.887 202.222 303.887C199.589 294.958 193.656 287.364 185.628 282.649C178.656 276.895 170.408 272.894 161.575 270.975C149.511 269.031 149.686 273.836 149.764 274.522Z" fill="#313553"/>
<path d="M185.641 282.667C184.877 282.234 184.09 281.801 183.303 281.408C175.124 277.367 149.8 274.624 149.8 274.624C149.81 274.592 149.81 274.556 149.8 274.524C149.722 273.838 149.547 269.032 161.605 270.994C170.432 272.915 178.674 276.917 185.641 282.667Z" fill="#313553"/>
<path d="M182.868 366.503L183.239 373.371H183.138C177.235 371.567 164.251 366.801 162.525 366.154C163.346 366.407 164.211 366.621 165.015 366.818C169.295 367.94 173.746 368.252 178.14 367.74C179.74 367.515 181.284 366.991 182.688 366.194L182.868 366.503Z" fill="#313553"/>
<path d="M130.781 357C128.225 357.305 125.642 356.693 123.494 355.275C121.346 353.856 119.772 351.72 119.049 349.25C118.525 347.775 118.339 346.202 118.502 344.646C118.666 343.09 119.175 341.591 119.994 340.257C120.779 338.94 121.959 337.904 123.366 337.295C124.581 336.579 125.934 336.13 127.335 335.976C128.737 335.821 130.155 335.965 131.496 336.398C132.838 336.832 134.072 337.544 135.119 338.49C136.165 339.434 136.999 340.591 137.566 341.882C138.411 343.729 138.766 345.763 138.594 347.787C138.422 349.812 137.731 351.757 136.587 353.436C135.971 354.387 135.159 355.195 134.205 355.807C133.251 356.418 132.178 356.819 131.057 356.983C130.966 356.977 130.882 357 130.781 357Z" fill="#FF0000"/>
<path d="M103.872 483.84L102.146 539.604H45.1805V481.507L103.872 483.84Z" fill="#B3B3B3"/>
<path d="M75.1746 150.554C76.5559 150.551 77.9059 150.959 79.0552 151.724C80.2037 152.49 81.0992 153.579 81.6291 154.854C82.1582 156.13 82.297 157.532 82.0283 158.887C81.7597 160.24 81.0947 161.485 80.1194 162.461C79.1425 163.436 77.8985 164.101 76.5447 164.37C75.1895 164.639 73.7868 164.5 72.5113 163.971C71.2364 163.441 70.147 162.546 69.3814 161.397C68.6153 160.247 68.2077 158.898 68.21 157.517C68.2116 155.671 68.9458 153.901 70.2515 152.595C71.5574 151.289 73.328 150.556 75.1746 150.554Z" fill="#B3B3B3"/>
<path d="M47.7289 150.554C49.1095 150.551 50.4598 150.959 51.6087 151.724C52.7577 152.49 53.6535 153.579 54.1828 154.854C54.7122 156.13 54.8513 157.532 54.5825 158.887C54.3137 160.24 53.6491 161.485 52.6728 162.461C51.6966 163.436 50.4525 164.101 49.0983 164.37C47.744 164.639 46.3405 164.5 45.0654 163.971C43.7902 163.441 42.7009 162.546 41.9352 161.397C41.1695 160.247 40.762 158.898 40.7642 157.517C40.7657 155.671 41.5 153.901 42.8057 152.595C44.1116 151.289 45.8822 150.556 47.7289 150.554Z" fill="#FF0000"/>
<path d="M776.351 796.474C772.41 798.772 767.933 799.973 763.381 799.965H330.149C326.766 799.965 323.415 799.301 320.29 798.011C317.163 796.72 314.323 794.817 311.931 792.429C309.539 790.034 307.642 787.199 306.349 784.073C305.055 780.946 304.39 777.596 304.393 774.216V465.839C304.393 459.008 307.106 452.458 311.935 447.627C316.765 442.795 323.316 440.079 330.149 440.076H763.381C766.761 440.075 770.119 440.741 773.246 442.035C776.373 443.33 779.216 445.229 781.612 447.622C784.008 450.016 785.903 452.858 787.194 455.986C788.493 459.113 789.157 462.466 789.157 465.85V774.224C789.157 778.73 787.97 783.155 785.724 787.065C783.478 790.967 780.246 794.213 776.351 796.474Z" stroke="#313553" stroke-width="0.262881" stroke-linecap="round" stroke-linejoin="round"/>
<path d="M419.896 780.349H344.229C338.863 780.349 333.715 778.215 329.92 774.425C326.125 770.627 323.993 765.479 323.993 760.114V479.895C323.993 474.529 326.125 469.383 329.92 465.589C333.715 461.794 338.863 459.663 344.229 459.663H749.299C754.664 459.663 759.813 461.794 763.612 465.589C767.403 469.383 769.537 474.529 769.537 479.895V760.122C769.537 765.494 767.403 770.635 763.612 774.433C759.813 778.23 754.664 780.357 749.299 780.357L419.896 780.349Z" stroke="#313553" stroke-width="0.262881" stroke-linecap="round" stroke-linejoin="round"/>
<path d="M521.382 451.516H554.789" stroke="#313553" stroke-width="0.262881" stroke-linecap="round" stroke-linejoin="round"/>
<path d="M419.882 459.677V564.315V566.551V670.222V673.105V778.096V780.349" stroke="#313553" stroke-width="0.262881" stroke-linecap="round" stroke-linejoin="round"/>
<path d="M674.907 459.677V564.315V566.551V670.222V673.105V778.096V780.349" stroke="#313553" stroke-width="0.262881" stroke-linecap="round" stroke-linejoin="round"/>
<path d="M324 566.549H327.378H419.887" stroke="#313553" stroke-width="0.262881" stroke-linecap="round" stroke-linejoin="round"/>
<path d="M324 673.099H327.378H419.887" stroke="#313553" stroke-width="0.262881" stroke-linecap="round" stroke-linejoin="round"/>
<path d="M417.77 564.312C418.036 559.58 417.313 554.845 415.647 550.409C413.981 545.971 411.408 541.931 408.093 538.543C404.778 535.155 400.793 532.496 396.393 530.735C391.993 528.972 387.274 528.146 382.537 528.309C381.44 528.307 380.388 527.872 379.613 527.096C378.837 526.32 378.401 525.269 378.399 524.173V517.591C381.064 516.277 383.308 514.244 384.878 511.721C386.448 509.198 387.28 506.287 387.281 503.316V494.448C387.203 490.275 385.49 486.3 382.511 483.379C379.533 480.456 375.526 478.819 371.353 478.819C367.18 478.819 363.173 480.456 360.195 483.379C357.216 486.3 355.504 490.275 355.425 494.448V503.316C355.423 506.285 356.253 509.196 357.819 511.719C359.387 514.242 361.628 516.276 364.29 517.591V524.145C364.289 525.241 363.852 526.292 363.077 527.067C362.302 527.843 361.249 528.279 360.153 528.281H358.309C341.299 528.281 327.393 540.381 327.393 565.094" stroke="#313553" stroke-width="0.262881" stroke-linecap="round" stroke-linejoin="round"/>
<path d="M417.775 670.217C418.045 665.485 417.324 660.747 415.659 656.308C413.995 651.867 411.422 647.821 408.107 644.432C404.792 641.043 400.806 638.385 396.404 636.62C392.002 634.855 387.281 634.029 382.542 634.192C381.445 634.186 380.394 633.748 379.619 632.972C378.844 632.197 378.408 631.146 378.405 630.049V623.502C381.069 622.187 383.313 620.158 384.883 617.634C386.453 615.117 387.287 612.206 387.292 609.238V600.358C387.213 596.187 385.501 592.214 382.522 589.292C379.543 586.369 375.537 584.728 371.364 584.728C367.191 584.728 363.184 586.369 360.205 589.292C357.228 592.214 355.515 596.187 355.437 600.358V609.238C355.433 612.211 356.262 615.122 357.829 617.646C359.396 620.169 361.637 622.204 364.301 623.519V630.033C364.301 631.128 363.866 632.186 363.09 632.961C362.314 633.736 361.262 634.175 360.164 634.175H358.32C341.311 634.175 327.404 646.275 327.404 670.987" stroke="#313553" stroke-width="0.262881" stroke-linecap="round" stroke-linejoin="round"/>
<path d="M417.768 778.104C418.039 773.366 417.319 768.628 415.654 764.188C413.99 759.749 411.418 755.705 408.102 752.317C404.787 748.922 400.801 746.266 396.399 744.498C391.996 742.734 387.275 741.907 382.535 742.07C381.438 742.07 380.387 741.632 379.611 740.856C378.835 740.08 378.399 739.03 378.398 737.934V731.38C381.063 730.066 383.307 728.031 384.878 725.513C386.447 722.989 387.279 720.079 387.279 717.105V708.242C387.201 704.072 385.488 700.098 382.51 697.176C379.531 694.253 375.525 692.612 371.351 692.612C367.178 692.612 363.172 694.253 360.193 697.176C357.215 700.098 355.502 704.072 355.423 708.242V717.105C355.421 720.073 356.249 722.984 357.816 725.508C359.382 728.031 361.625 730.066 364.288 731.38V737.951C364.288 739.046 363.852 740.097 363.077 740.873C362.301 741.649 361.248 742.087 360.151 742.087H358.307C343.13 742.087 330.393 751.735 327.841 771.388" stroke="#313553" stroke-width="0.262881" stroke-linecap="round" stroke-linejoin="round"/>
<path d="M769.537 566.549H765.694H675.14" stroke="#313553" stroke-width="0.262881" stroke-linecap="round" stroke-linejoin="round"/>
<path d="M769.537 673.099H765.694H675.14" stroke="#313553" stroke-width="0.262881" stroke-linecap="round" stroke-linejoin="round"/>
<path d="M675.302 564.306C675.038 559.575 675.758 554.842 677.422 550.406C679.086 545.971 681.654 541.93 684.971 538.543C688.282 535.155 692.267 532.496 696.663 530.732C701.059 528.969 705.781 528.142 710.513 528.302C711.616 528.299 712.672 527.863 713.459 527.088C714.235 526.312 714.668 525.262 714.673 524.166V517.585C712.009 516.271 709.76 514.238 708.193 511.715C706.624 509.192 705.787 506.281 705.787 503.309V494.44C705.787 490.216 707.467 486.165 710.452 483.178C713.437 480.191 717.49 478.512 721.717 478.512C725.944 478.512 729.991 480.191 732.981 483.178C735.966 486.165 737.647 490.216 737.647 494.44V503.309C737.647 506.281 736.81 509.192 735.241 511.715C733.673 514.238 731.425 516.271 728.76 517.585V524.137C728.766 525.237 729.204 526.29 729.986 527.066C730.767 527.841 731.818 528.276 732.92 528.274H734.741C751.769 528.274 765.694 540.375 765.694 565.087" stroke="#313553" stroke-width="0.262881" stroke-linecap="round" stroke-linejoin="round"/>
<path d="M675.297 670.216C675.028 665.484 675.747 660.746 677.411 656.312C679.075 651.872 681.643 647.831 684.954 644.442C688.271 641.048 692.251 638.389 696.652 636.624C701.054 634.86 705.77 634.028 710.508 634.19C711.616 634.19 712.672 633.753 713.454 632.971C714.23 632.195 714.668 631.145 714.668 630.049V623.501C712.004 622.186 709.755 620.151 708.187 617.628C706.613 615.104 705.781 612.194 705.781 609.22V600.357C705.781 596.131 707.462 592.084 710.446 589.094C713.437 586.11 717.484 584.429 721.711 584.429C725.939 584.429 729.992 586.11 732.976 589.094C735.961 592.084 737.642 596.131 737.642 600.357V609.237C737.642 612.21 736.81 615.121 735.236 617.645C733.668 620.168 731.419 622.203 728.755 623.518V630.032C728.76 631.134 729.199 632.184 729.981 632.96C730.762 633.735 731.813 634.174 732.914 634.174H734.736C751.761 634.174 765.694 646.274 765.694 670.986" stroke="#313553" stroke-width="0.262881" stroke-linecap="round" stroke-linejoin="round"/>
<path d="M675.297 778.096C675.028 773.358 675.747 768.62 677.411 764.181C679.069 759.749 681.638 755.704 684.954 752.317C688.266 748.922 692.251 746.258 696.652 744.496C701.048 742.731 705.77 741.899 710.508 742.062C711.054 742.062 711.593 741.961 712.099 741.753C712.599 741.545 713.06 741.241 713.449 740.859C713.831 740.471 714.14 740.016 714.348 739.51C714.561 739.01 714.668 738.471 714.668 737.925V731.372C712.004 730.057 709.755 728.029 708.187 725.505C706.613 722.981 705.781 720.07 705.781 717.097V708.234C705.781 704.007 707.462 699.961 710.446 696.971C713.437 693.987 717.484 692.307 721.711 692.307C725.939 692.307 729.986 693.987 732.976 696.971C735.961 699.961 737.642 704.007 737.642 708.234V717.097C737.642 720.07 736.81 722.981 735.236 725.505C733.668 728.029 731.419 730.057 728.755 731.372V737.943C728.76 739.044 729.199 740.095 729.981 740.87C730.762 741.646 731.813 742.079 732.914 742.079H734.736C749.91 742.079 762.664 751.728 765.216 771.381" stroke="#313553" stroke-width="0.262881" stroke-linecap="round" stroke-linejoin="round"/>
<path d="M674.907 440.063V369.316V339.449H1095.59V369.316V620.017H789.157" stroke="#313553" stroke-width="0.262881" stroke-linecap="round" stroke-linejoin="round"/>
<path d="M674.907 369.317H1095.59" stroke="#313553" stroke-width="0.262881" stroke-linecap="round" stroke-linejoin="round"/>
<path d="M702.083 355.602C702.083 356.981 701.678 358.33 700.913 359.479C700.149 360.627 699.058 361.523 697.782 362.052C696.512 362.583 695.107 362.722 693.752 362.455C692.403 362.188 691.155 361.525 690.183 360.551C689.204 359.576 688.536 358.334 688.266 356.981C687.996 355.628 688.131 354.225 688.659 352.95C689.187 351.675 690.081 350.584 691.228 349.817C692.375 349.049 693.718 348.639 695.101 348.638C696.017 348.636 696.922 348.816 697.771 349.165C698.614 349.513 699.384 350.026 700.037 350.673C700.683 351.32 701.2 352.087 701.549 352.933C701.903 353.78 702.083 354.685 702.083 355.602Z" stroke="#313553" stroke-width="0.262881" stroke-linecap="round" stroke-linejoin="round"/>
<path d="M729.521 355.602C729.521 356.981 729.116 358.33 728.352 359.478C727.587 360.626 726.497 361.522 725.227 362.052C723.951 362.582 722.551 362.722 721.196 362.455C719.841 362.189 718.599 361.526 717.621 360.552C716.643 359.578 715.98 358.337 715.705 356.984C715.434 355.632 715.569 354.229 716.098 352.954C716.62 351.678 717.514 350.588 718.661 349.819C719.808 349.051 721.157 348.64 722.534 348.638C723.45 348.636 724.361 348.814 725.204 349.162C726.053 349.512 726.823 350.024 727.469 350.671C728.122 351.317 728.639 352.086 728.987 352.932C729.341 353.778 729.521 354.685 729.521 355.602Z" stroke="#313553" stroke-width="0.262881" stroke-linecap="round" stroke-linejoin="round"/>
<path d="M756.978 355.602C756.978 356.981 756.567 358.33 755.806 359.479C755.037 360.627 753.948 361.523 752.679 362.052C751.403 362.583 750 362.722 748.649 362.455C747.291 362.188 746.046 361.525 745.074 360.551C744.096 359.576 743.427 358.334 743.157 356.981C742.887 355.628 743.022 354.225 743.551 352.95C744.079 351.675 744.973 350.584 746.119 349.817C747.269 349.049 748.612 348.639 749.993 348.638C750.91 348.636 751.813 348.814 752.664 349.162C753.515 349.512 754.284 350.024 754.925 350.671C755.575 351.318 756.09 352.087 756.44 352.932C756.791 353.779 756.978 354.685 756.978 355.602Z" stroke="#313553" stroke-width="0.262881" stroke-linecap="round" stroke-linejoin="round"/>
<path d="M304.388 539.6H277.828H247.086H102.137H45.1719H27.5551V171.222V141.351H605.166V171.222V440.06" stroke="#313553" stroke-width="0.262881" stroke-linecap="round" stroke-linejoin="round"/>
<path d="M27.5551 171.219H235.315H247.086H605.166" stroke="#313553" stroke-width="0.262881" stroke-linecap="round" stroke-linejoin="round"/>
<path d="M54.7088 157.517C54.711 158.897 54.3039 160.247 53.539 161.395C52.7741 162.543 51.6856 163.439 50.4115 163.969C49.1373 164.498 47.7347 164.639 46.3809 164.371C45.0271 164.104 43.783 163.441 42.8062 162.467C41.8291 161.492 41.1632 160.25 40.8925 158.897C40.6218 157.544 40.7585 156.142 41.2853 154.866C41.812 153.591 42.7053 152.501 43.852 151.733C44.9987 150.966 46.3473 150.555 47.7272 150.554C49.5764 150.552 51.3505 151.285 52.6596 152.591C53.9687 153.897 54.7058 155.669 54.7088 157.517Z" stroke="#313553" stroke-width="0.262881" stroke-linecap="round" stroke-linejoin="round"/>
<path d="M82.1619 157.517C82.1642 158.897 81.7575 160.246 80.9925 161.394C80.2276 162.543 79.1395 163.438 77.8657 163.968C76.5918 164.498 75.1895 164.639 73.836 164.372C72.4824 164.105 71.2383 163.442 70.2614 162.468C69.2839 161.495 68.6178 160.253 68.3463 158.901C68.0748 157.548 68.2108 156.145 68.7369 154.87C69.2625 153.594 70.1551 152.504 71.3008 151.736C72.4469 150.968 73.7949 150.556 75.1746 150.554C76.0903 150.552 76.9985 150.731 77.8448 151.08C78.6918 151.43 79.4619 151.942 80.1112 152.589C80.7597 153.235 81.2746 154.004 81.6261 154.849C81.9783 155.695 82.1604 156.601 82.1619 157.517Z" stroke="#313553" stroke-width="0.262881" stroke-linecap="round" stroke-linejoin="round"/>
<path d="M109.629 157.517C109.631 158.897 109.225 160.247 108.46 161.395C107.695 162.543 106.606 163.439 105.332 163.969C104.058 164.498 102.655 164.639 101.302 164.371C99.9478 164.104 98.7037 163.441 97.7269 162.467C96.75 161.492 96.0836 160.25 95.8134 158.897C95.5426 157.544 95.6791 156.142 96.206 154.866C96.7328 153.591 97.6261 152.501 98.7732 151.733C99.9194 150.966 101.268 150.555 102.648 150.554C104.497 150.552 106.271 151.285 107.58 152.591C108.89 153.897 109.626 155.669 109.629 157.517Z" stroke="#313553" stroke-width="0.262881" stroke-linecap="round" stroke-linejoin="round"/>
<path d="M494.925 922.213L322.237 799.965V806.711C322.235 811.299 323.335 815.821 325.446 819.895C327.555 823.969 330.613 827.483 334.361 830.132L539.535 975.383C548.087 981.419 558.296 984.665 568.766 984.68H990.993C993.709 984.68 996.403 984.142 998.925 983.105C1001.43 982.068 1003.72 980.539 1005.64 978.614C1007.57 976.696 1009.09 974.413 1010.13 971.898C1011.18 969.384 1011.71 966.69 1011.71 963.967V963.101" stroke="#313553" stroke-width="0.262881" stroke-linecap="round" stroke-linejoin="round"/>
<path d="M776.351 796.474L1011.69 963.086H552.658" stroke="#313553" stroke-width="0.262881" stroke-linecap="round" stroke-linejoin="round"/>
<path d="M741.156 420.148H1029.33" stroke="#313553" stroke-width="0.262881" stroke-linecap="round" stroke-linejoin="round"/>
<path d="M792.157 484.874H1029.32" stroke="#313553" stroke-width="0.262881" stroke-linecap="round" stroke-linejoin="round"/>
<path d="M792.157 549.6H1029.32" stroke="#313553" stroke-width="0.262881" stroke-linecap="round" stroke-linejoin="round"/>
<path d="M195.375 717.692H290.789" stroke="#313553" stroke-width="0.262881" stroke-linecap="round" stroke-linejoin="round"/>
<path d="M803.493 717.692H938.134" stroke="#313553" stroke-width="0.262881" stroke-linecap="round" stroke-linejoin="round"/>
<path d="M494.928 922.22L552.657 963.086V981.546" stroke="#313553" stroke-width="0.262881" stroke-linecap="round" stroke-linejoin="round"/>
<path d="M660.553 947.402L615.887 915.781H795.045" stroke="#313553" stroke-width="0.262881" stroke-linecap="round" stroke-linejoin="round"/>
<path d="M795.485 915.781L840.157 947.402H660.994" stroke="#313553" stroke-width="0.262881" stroke-linecap="round" stroke-linejoin="round"/>
<path d="M885.179 900.411H761.709H512.465L427.916 840.548L395.628 817.679H532.942H768.343L848.903 874.736L885.179 900.411Z" stroke="#313553" stroke-width="0.262881" stroke-linecap="round" stroke-linejoin="round"/>
<path d="M427.92 840.533H565.235H750.045" stroke="#313553" stroke-width="0.262881" stroke-linecap="round" stroke-linejoin="round"/>
<path d="M526.003 875.84H728.052H848.127" stroke="#313553" stroke-width="0.262881" stroke-linecap="round" stroke-linejoin="round"/>
<path d="M532.941 817.679L565.229 840.548L598.889 864.38" stroke="#313553" stroke-width="0.262881" stroke-linecap="round" stroke-linejoin="round"/>
<path d="M695.757 852.971L728.046 875.84L761.701 899.672" stroke="#313553" stroke-width="0.262881" stroke-linecap="round" stroke-linejoin="round"/>
<path d="M593.424 648.587C598.781 648.587 604.081 649.644 609.028 651.695C613.975 653.741 618.466 656.748 622.255 660.53C626.038 664.318 629.04 668.814 631.092 673.76C633.137 678.706 634.189 684.006 634.189 689.362C634.2 689.491 634.2 689.626 634.189 689.755C634.189 700.563 629.894 710.926 622.249 718.57C614.61 726.208 604.245 730.502 593.435 730.502C582.625 730.502 572.26 726.208 564.615 718.57C556.975 710.926 552.681 700.563 552.681 689.755C552.669 689.626 552.669 689.491 552.681 689.362C552.678 678.554 556.969 668.185 564.61 660.541C572.249 652.892 582.614 648.592 593.424 648.587Z" stroke="#313553" stroke-width="0.262881" stroke-linecap="round" stroke-linejoin="round"/>
<path d="M593.422 622.734V648.582V689.75V730.115V752.847" stroke="#313553" stroke-width="0.262881" stroke-linecap="round" stroke-linejoin="round"/>
<path d="M658.486 689.756H634.163H593.42H552.678H528.349" stroke="#313553" stroke-width="0.262881" stroke-linecap="round" stroke-linejoin="round"/>
<path d="M445.017 312.928C445.267 302.288 449.671 292.166 457.287 284.729C464.902 277.291 475.125 273.128 485.771 273.128C496.417 273.128 506.64 277.291 514.256 284.729C521.872 292.166 526.275 302.288 526.525 312.928C526.533 313.067 526.533 313.206 526.525 313.344C526.426 322.946 522.941 332.205 516.683 339.489C510.425 346.773 501.796 351.614 492.317 353.159C482.839 354.705 473.119 352.854 464.871 347.936C456.623 343.017 450.376 335.344 447.232 326.271" stroke="#313553" stroke-width="0.262881" stroke-linecap="round" stroke-linejoin="round"/>
<path d="M485.781 246.313V272.166V313.334V353.677V376.427" stroke="#313553" stroke-width="0.262881" stroke-linecap="round" stroke-linejoin="round"/>
<path d="M447.033 313.342H445.015H420.709" stroke="#313553" stroke-width="0.262881" stroke-linecap="round" stroke-linejoin="round"/>
<path d="M550.844 313.342H526.522H485.779H460.646" stroke="#313553" stroke-width="0.262881" stroke-linecap="round" stroke-linejoin="round"/>
<path d="M508.437 547.668L443.917 555.239V528.897V515.521L458.69 522.878L508.437 547.668ZM508.437 547.668L585.256 538.648V572.223V585.931L571.681 579.164L508.437 547.668Z" stroke="#313553" stroke-width="0.262881" stroke-linecap="round" stroke-linejoin="round"/>
<path d="M443.917 528.87C443.917 528.87 455.806 531.815 458.69 522.851" stroke="#313553" stroke-width="0.262881" stroke-linecap="round" stroke-linejoin="round"/>
<path d="M571.66 579.153C573.06 576.854 575.067 574.983 577.467 573.758C579.862 572.533 582.554 571.998 585.236 572.212" stroke="#313553" stroke-width="0.262881" stroke-linecap="round" stroke-linejoin="round"/>
<path d="M360.592 221.393L296.055 228.98V202.622V189.245L310.822 196.602L360.592 221.393ZM360.592 221.393L437.389 212.367V245.948V259.656L423.813 252.889L360.592 221.393Z" stroke="#313553" stroke-width="0.262881" stroke-linecap="round" stroke-linejoin="round"/>
<path d="M296.055 202.624C296.055 202.624 307.96 205.564 310.822 196.605" stroke="#313553" stroke-width="0.262881" stroke-linecap="round" stroke-linejoin="round"/>
<path d="M423.828 252.914C425.226 250.614 427.236 248.746 429.633 247.52C432.029 246.295 434.719 245.76 437.403 245.973" stroke="#313553" stroke-width="0.262881" stroke-linecap="round" stroke-linejoin="round"/>
<path d="M528.269 670.551H480.443V650.937V622.734H508.656H528.269V670.551Z" stroke="#313553" stroke-width="0.262881" stroke-linecap="round" stroke-linejoin="round"/>
<path d="M508.66 650.936H480.448H460.836V603.119H508.66V622.734V650.936Z" stroke="#313553" stroke-width="0.262881" stroke-linecap="round" stroke-linejoin="round"/>
<path d="M460.836 603.119L480.448 622.734" stroke="#313553" stroke-width="0.262881" stroke-linecap="round" stroke-linejoin="round"/>
<path d="M508.658 603.119L528.27 622.734" stroke="#313553" stroke-width="0.262881" stroke-linecap="round" stroke-linejoin="round"/>
<path d="M508.658 650.948L528.27 670.563" stroke="#313553" stroke-width="0.262881" stroke-linecap="round" stroke-linejoin="round"/>
<path d="M460.836 650.948L480.448 670.563" stroke="#313553" stroke-width="0.262881" stroke-linecap="round" stroke-linejoin="round"/>
<path d="M351.758 362.23H303.934V342.615V314.413H332.146H351.758V362.23Z" stroke="#313553" stroke-width="0.262881" stroke-linecap="round" stroke-linejoin="round"/>
<path d="M332.151 342.622H303.938H284.325V294.805H332.151V314.42V342.622Z" stroke="#313553" stroke-width="0.262881" stroke-linecap="round" stroke-linejoin="round"/>
<path d="M284.325 294.805L303.938 314.42" stroke="#313553" stroke-width="0.262881" stroke-linecap="round" stroke-linejoin="round"/>
<path d="M332.14 294.805L351.753 314.42" stroke="#313553" stroke-width="0.262881" stroke-linecap="round" stroke-linejoin="round"/>
<path d="M332.14 342.626L351.753 362.241" stroke="#313553" stroke-width="0.262881" stroke-linecap="round" stroke-linejoin="round"/>
<path d="M284.325 342.626L303.938 362.241" stroke="#313553" stroke-width="0.262881" stroke-linecap="round" stroke-linejoin="round"/>
<path d="M458.868 731.723C458.868 731.723 450.841 734.983 450.437 740.67C450.031 746.355 457.361 746.378 460.616 743.121C460.736 739.237 460.328 735.359 459.402 731.588C459.068 730.289 458.587 729.031 457.969 727.839C454.928 722.152 449.828 722.956 448.002 726.822" stroke="#313553" stroke-width="0.262881" stroke-linecap="round" stroke-linejoin="round"/>
<path d="M614.079 496.275C614.079 496.275 606.052 499.529 605.647 505.239C605.243 510.949 612.572 510.949 615.827 507.69C615.946 503.803 615.54 499.918 614.613 496.14C614.281 494.846 613.804 493.596 613.18 492.414C610.139 486.704 605.04 487.53 603.213 491.392" stroke="#313553" stroke-width="0.262881" stroke-linecap="round" stroke-linejoin="round"/>
<path d="M470.641 730.123H480.45" stroke="#313553" stroke-width="0.262881" stroke-linecap="round" stroke-linejoin="round"/>
<path d="M470.641 737.971H480.45" stroke="#313553" stroke-width="0.262881" stroke-linecap="round" stroke-linejoin="round"/>
<path d="M489.593 727.665C490.082 721.483 504.838 721.371 501.993 732.077C500.048 739.356 489.885 745.318 489.885 745.318H506.524" stroke="#313553" stroke-width="0.262881" stroke-linecap="round" stroke-linejoin="round"/>
<path d="M557.446 491.893C557.952 485.739 572.707 485.598 569.813 496.288C567.873 503.594 557.727 509.546 557.727 509.546H574.343" stroke="#313553" stroke-width="0.262881" stroke-linecap="round" stroke-linejoin="round"/>
<path d="M523.445 483.986C523.776 479.843 533.687 479.765 531.764 486.947C530.466 491.809 523.659 495.828 523.659 495.828H534.799" stroke="#313553" stroke-width="0.262881" stroke-linecap="round" stroke-linejoin="round"/>
<path d="M517.37 741.732C524.116 749.541 534.419 744.615 530.923 736.673C527.427 728.732 518 734.414 517.37 741.732Z" stroke="#313553" stroke-width="0.262881" stroke-linecap="round" stroke-linejoin="round"/>
<path d="M523.563 720.177C519.522 724.471 510.634 733.908 517.38 741.731" stroke="#313553" stroke-width="0.262881" stroke-linecap="round" stroke-linejoin="round"/>
<path d="M587.552 490.295V496.555V502.811" stroke="#313553" stroke-width="0.262881" stroke-linecap="round" stroke-linejoin="round"/>
<path d="M580.563 496.547H587.544H594.02" stroke="#313553" stroke-width="0.262881" stroke-linecap="round" stroke-linejoin="round"/>
<path d="M551.91 480.954C546.126 482.718 541.32 493.722 543.125 501.467C543.605 504.77 544.934 507.891 546.981 510.527C549.029 513.162 551.724 515.223 554.805 516.507" stroke="#313553" stroke-width="0.262881" stroke-linecap="round" stroke-linejoin="round"/>
<path d="M620.169 480.954C625.954 482.718 630.76 493.722 628.955 501.467C628.472 504.765 627.14 507.882 625.094 510.515C623.053 513.148 620.36 515.208 617.286 516.496" stroke="#313553" stroke-width="0.262881" stroke-linecap="round" stroke-linejoin="round"/>
<path d="M235.311 171.219V387.985" stroke="#313553" stroke-width="0.262881" stroke-linecap="round" stroke-linejoin="round"/>
<path d="M247.089 171.219V391.908" stroke="#313553" stroke-width="0.262881" stroke-linecap="round" stroke-linejoin="round"/>
<path d="M103.864 473.919V483.844L45.1731 481.512L38.72 481.259C38.72 481.259 39.1528 435.516 51.2327 414.828C55.7494 407.993 62.0625 402.535 69.4791 399.052C80.3433 393.713 91.9261 389.981 103.864 387.975C121.154 398.37 141.081 403.547 161.245 402.88C193.398 401.154 205.321 387.975 205.321 387.975C215.253 386.861 225.293 387.157 235.142 388.857C239.165 389.585 243.084 390.801 246.811 392.483C249.652 393.755 252.27 395.479 254.563 397.585C265.745 409.188 275.553 422.039 283.793 435.887L277.812 440.046L252.381 457.722" stroke="#313553" stroke-width="0.262881" stroke-linecap="round" stroke-linejoin="round"/>
<path d="M45.1805 481.507V539.604" stroke="#313553" stroke-width="0.262881" stroke-linecap="round" stroke-linejoin="round"/>
<path d="M103.864 483.839L102.138 539.603" stroke="#313553" stroke-width="0.262881" stroke-linecap="round" stroke-linejoin="round"/>
<path d="M243.725 445.468C243.725 445.468 247.767 450.493 252.376 457.709C258.402 467.179 265.367 480.42 265.384 491.031C265.254 500.169 263.329 509.192 259.718 517.587C256.538 525.268 252.284 532.459 247.081 538.944" stroke="#313553" stroke-width="0.262881" stroke-linecap="round" stroke-linejoin="round"/>
<path d="M199.186 481.507C199.186 481.507 200.675 509.316 190.298 521.81" stroke="#313553" stroke-width="0.262881" stroke-linecap="round" stroke-linejoin="round"/>
<path d="M195.44 311.694C193.657 310.918 191.758 310.439 189.819 310.277C187.998 309.894 186.105 310.01 184.344 310.614" stroke="#313553" stroke-width="0.262881" stroke-linecap="round" stroke-linejoin="round"/>
<path d="M154.184 309.677C156.378 309.135 158.604 308.741 160.851 308.497C162.681 308.142 164.572 308.286 166.325 308.913" stroke="#313553" stroke-width="0.262881" stroke-linecap="round" stroke-linejoin="round"/>
<path d="M181.787 304.19C181.031 305.784 180.647 307.529 180.663 309.293C180.68 311.057 181.096 312.795 181.882 314.374C183.04 318.257 186.75 322.394 186.099 326.064C185.446 329.734 178.684 331.201 174.721 330.122" stroke="#313553" stroke-width="0.262881" stroke-linecap="round" stroke-linejoin="round"/>
<path d="M162.325 366.102C156.373 364.176 150.731 361.401 145.573 357.862" stroke="#313553" stroke-width="0.262881" stroke-linecap="round" stroke-linejoin="round"/>
<path d="M199.76 335.617C198.018 339.326 196.174 342.226 195.072 344.896C193.192 351.308 190.334 357.393 186.601 362.937C185.492 364.247 184.16 365.351 182.666 366.196C181.261 366.993 179.718 367.517 178.119 367.742C173.724 368.255 169.272 367.942 164.993 366.821C164.167 366.624 163.307 366.41 162.503 366.157" stroke="#313553" stroke-width="0.262881" stroke-linecap="round" stroke-linejoin="round"/>
<path d="M202.03 304.46C201.519 305.932 201.069 306.91 201.069 306.91C203.487 312.092 204.384 317.852 203.66 323.524C202.907 327.718 201.584 331.789 199.725 335.624" stroke="#313553" stroke-width="0.262881" stroke-linecap="round" stroke-linejoin="round"/>
<path d="M149.243 302.65C154.187 299.563 159.994 298.152 165.803 298.626C172.154 299.705 172.509 301.902 172.549 301.998" stroke="#313553" stroke-width="0.262881" stroke-linecap="round" stroke-linejoin="round"/>
<path d="M199.944 299.253C198.081 299.073 196.202 299.185 194.374 299.584C191.646 300.103 188.963 300.838 186.352 301.782" stroke="#313553" stroke-width="0.262881" stroke-linecap="round" stroke-linejoin="round"/>
<path d="M191.472 337.525C190.849 337.97 190.187 338.358 189.493 338.683C186.776 339.82 183.866 340.427 180.921 340.47C174.779 340.207 168.687 339.264 162.753 337.66C161.477 337.345 160.594 337.098 160.302 337.03" stroke="#313553" stroke-width="0.262881" stroke-linecap="round" stroke-linejoin="round"/>
<path d="M160.2 337.009C160.2 337.009 160.531 337.284 161.066 337.75C163.873 340.152 166.834 342.367 169.931 344.382C171.591 345.599 173.509 346.416 175.537 346.77C177.566 347.125 179.648 347.005 181.622 346.423C185.319 343.947 188.641 340.955 191.487 337.537" stroke="#313553" stroke-width="0.262881" stroke-linecap="round" stroke-linejoin="round"/>
<path d="M182.861 366.512L183.232 373.38L183.289 374.459L183.643 381.164" stroke="#313553" stroke-width="0.262881" stroke-linecap="round" stroke-linejoin="round"/>
<path d="M205.324 387.986L183.649 381.158" stroke="#313553" stroke-width="0.262881" stroke-linecap="round" stroke-linejoin="round"/>
<path d="M131.839 357.957L131.169 376.706L103.862 387.986" stroke="#313553" stroke-width="0.262881" stroke-linecap="round" stroke-linejoin="round"/>
<path d="M119.24 312.542C119.24 312.542 111.297 304.46 106.356 309.895C105.707 310.625 105.177 311.452 104.782 312.345C99.2903 324.114 111.022 337.035 119.959 340.255" stroke="#313553" stroke-width="0.262881" stroke-linecap="round" stroke-linejoin="round"/>
<path d="M106.358 309.888V309.929" stroke="#313553" stroke-width="0.262881" stroke-linecap="round" stroke-linejoin="round"/>
<path d="M136.587 353.432C137.742 351.758 138.44 349.811 138.61 347.784C138.782 345.758 138.422 343.722 137.566 341.876C136.996 340.589 136.16 339.437 135.113 338.493C134.066 337.551 132.833 336.84 131.493 336.407C130.152 335.974 128.735 335.829 127.335 335.981C125.935 336.134 124.583 336.58 123.366 337.291C121.967 337.911 120.79 338.945 119.994 340.252C119.175 341.586 118.666 343.085 118.502 344.642C118.339 346.198 118.525 347.77 119.049 349.245C119.781 351.71 121.358 353.838 123.504 355.255C125.649 356.673 128.226 357.289 130.781 356.995C130.86 356.995 130.938 356.995 131.017 356.995C132.146 356.832 133.227 356.43 134.187 355.815C135.148 355.2 135.966 354.388 136.587 353.432Z" stroke="#313553" stroke-width="0.262881" stroke-linecap="round" stroke-linejoin="round"/>
<path d="M191.949 355.394C194.116 356.47 196.558 356.862 198.954 356.518C205.699 355.675 209.251 346.402 206.059 340.039C205.107 338.017 203.602 336.305 201.719 335.099" stroke="#313553" stroke-width="0.262881" stroke-linecap="round" stroke-linejoin="round"/>
<path d="M161.027 337.735C161.027 337.735 161.674 337.697 162.713 337.657C167.031 337.404 178.251 336.853 180.229 337.027C182.686 337.224 189.454 338.714 189.454 338.714" stroke="#313553" stroke-width="0.262881" stroke-linecap="round" stroke-linejoin="round"/>
<path d="M162.325 366.096L162.521 366.158C164.247 366.804 177.232 371.571 183.134 373.375" stroke="#313553" stroke-width="0.262881" stroke-linecap="round" stroke-linejoin="round"/>
<path d="M149.771 274.524C149.693 273.838 149.518 269.032 161.575 270.994C170.41 272.912 178.656 276.915 185.629 282.667L185.685 282.723" stroke="#313553" stroke-width="0.262881" stroke-linecap="round" stroke-linejoin="round"/>
<path d="M126.049 257.543C126.049 257.543 147 256.346 149.765 274.528C149.776 274.56 149.776 274.596 149.765 274.629" stroke="#313553" stroke-width="0.262881" stroke-linecap="round" stroke-linejoin="round"/>
<path d="M119.714 312.423C145.572 322.169 148.489 285.57 149.765 274.628C149.765 274.628 175.06 277.37 183.267 281.411C184.054 281.804 184.841 282.237 185.606 282.67C193.634 287.386 199.566 294.979 202.2 303.908C202.2 303.908 212.245 293.595 199.102 266.815C194.246 257.643 186.583 250.265 177.233 245.759C167.882 241.254 157.336 239.856 147.134 241.771C146.092 242 145.013 242.26 143.896 242.553C134.143 244.757 125.025 249.165 117.241 255.44C101.878 272.756 103.075 293.741 102.097 296.608C92.7776 324.085 59.275 370.795 69.455 399.065" stroke="#313553" stroke-width="0.262881" stroke-linecap="round" stroke-linejoin="round"/>
<path d="M393.745 371.535C397.274 370.195 400.616 368.408 403.689 366.218C404.577 365.535 405.329 364.69 405.904 363.729C406.25 363.2 406.468 362.599 406.541 361.971C406.615 361.344 406.541 360.708 406.326 360.115C406.111 359.521 405.761 358.985 405.304 358.55C404.846 358.115 404.293 357.793 403.689 357.608C402.821 357.368 401.919 357.275 401.019 357.333C392.721 358.673 384.705 361.392 377.303 365.375C375.448 366.289 373.889 367.71 372.806 369.472L355.993 401.508L337.876 439.849" stroke="#313553" stroke-width="0.262881" stroke-linecap="round" stroke-linejoin="round"/>
<path d="M386.978 374.089C386.978 374.089 388.523 373.577 390.721 372.734C391.626 372.397 392.643 371.987 393.723 371.554" stroke="#313553" stroke-width="0.262881" stroke-linecap="round" stroke-linejoin="round"/>
<path d="M277.828 440.062L304.389 476.717" stroke="#313553" stroke-width="0.262881" stroke-linecap="round" stroke-linejoin="round"/>
<path d="M259.718 517.59L277.824 538.947" stroke="#313553" stroke-width="0.262881" stroke-linecap="round" stroke-linejoin="round"/>
<path d="M381.264 439.844L389.695 422.719C394.383 422.588 398.98 421.408 403.152 419.27C407.324 417.13 410.964 414.083 413.805 410.355C425.648 396.939 428.454 387.581 423.473 384.153C418.493 380.725 408.172 385.406 405.21 391.016C402.248 396.624 404.525 404.274 418.904 393.528" stroke="#313553" stroke-width="0.262881" stroke-linecap="round" stroke-linejoin="round"/>
<path d="M423.478 384.147C423.478 384.147 430.01 378.223 427.891 372.344C425.772 366.465 414.535 369.304 407.492 373.525C404.423 375.383 401.74 377.814 399.588 380.685C396.446 385.096 396.216 389.784 405.21 390.998" stroke="#313553" stroke-width="0.262881" stroke-linecap="round" stroke-linejoin="round"/>
<path d="M427.9 372.359C427.9 372.359 428.845 366.403 420.84 361.867C415.483 358.826 406.556 363.828 406.556 363.828" stroke="#313553" stroke-width="0.262881" stroke-linecap="round" stroke-linejoin="round"/>
<path d="M393.746 371.532C393.471 371.964 389.531 377.967 396.158 379.614C396.956 379.817 397.771 379.941 398.592 379.985" stroke="#313553" stroke-width="0.262881" stroke-linecap="round" stroke-linejoin="round"/>
<path d="M423.191 351.684L447.239 326.263L460.027 312.775L472.393 299.713C473.182 298.864 473.601 297.736 473.558 296.579C473.516 295.421 473.014 294.328 472.166 293.539C471.316 292.751 470.189 292.331 469.031 292.375C467.873 292.417 466.78 292.918 465.991 293.767L447.441 313.674L414.798 348.682" stroke="#313553" stroke-width="0.262881" stroke-linecap="round" stroke-linejoin="round"/>
<path d="M390.882 373.157L362.872 402.776C362.455 403.228 362.138 403.763 361.943 404.346C361.748 404.929 361.678 405.546 361.74 406.159C361.801 406.77 361.99 407.362 362.297 407.895C362.604 408.428 363.019 408.89 363.518 409.25C364.268 409.785 365.166 410.072 366.087 410.071C366.687 410.071 367.281 409.947 367.831 409.707C368.381 409.468 368.877 409.117 369.286 408.677L395.435 381.026" stroke="#313553" stroke-width="0.262881" stroke-linecap="round" stroke-linejoin="round"/>
<path d="M420.832 361.865C420.832 361.865 425.442 356.122 421.771 351.884C421.221 351.28 420.587 350.757 419.888 350.332C418.351 349.362 416.588 348.809 414.772 348.725C411.944 348.892 409.202 349.766 406.799 351.267C404.395 352.769 402.408 354.85 401.017 357.318" stroke="#313553" stroke-width="0.262881" stroke-linecap="round" stroke-linejoin="round"/>
</svg>
