<svg width="512" height="512" viewBox="0 0 512 512" fill="none" xmlns="http://www.w3.org/2000/svg">
<path d="M255.559 44C255.559 44 533.877 480.601 471.719 418.438C409.562 356.274 208.23 418.438 39.3984 418.438L255.559 44Z" fill="#FF0000"/>
<path d="M35.5883 324.525L37.7266 320.821L57.9773 332.514C60.0681 333.721 61.6503 335.292 62.724 337.226C63.7935 339.145 64.2867 341.269 64.2036 343.597C64.1105 345.92 63.3714 348.281 61.9861 350.68C60.6008 353.08 58.9257 354.901 56.9609 356.143C54.9862 357.379 52.8979 358.019 50.696 358.062C48.4899 358.089 46.3415 357.499 44.2507 356.292L24 344.599L26.1383 340.895L46.0903 352.415C47.5838 353.277 49.1026 353.716 50.6468 353.732C52.1811 353.741 53.6324 353.331 55.0008 352.502C56.3649 351.657 57.5384 350.383 58.5213 348.68C59.5043 346.977 60.0207 345.324 60.0706 343.72C60.1106 342.11 59.7399 340.648 58.9587 339.334C58.1732 338.004 57.0337 336.908 55.5403 336.046L35.5883 324.525Z" fill="black"/>
<path d="M55.9993 289.169L86.5844 306.829L84.5151 310.414L50.8785 313.216L50.7061 313.514L74.7202 327.38L72.5819 331.084L41.9968 313.424L44.0661 309.84L77.7969 307.012L77.9693 306.714L53.8954 292.813L55.9993 289.169Z" fill="black"/>
<path d="M84.0454 262.662L81.907 266.366C80.7153 265.97 79.5581 265.813 78.4355 265.895C77.3187 265.967 76.2623 266.233 75.2663 266.694C74.2662 267.138 73.3566 267.748 72.5375 268.523C71.7184 269.298 71.0157 270.194 70.4293 271.209C69.3602 273.061 68.8596 275.009 68.9275 277.053C69.0011 279.087 69.6931 281.073 71.0035 283.011C72.3196 284.94 74.3019 286.668 76.9502 288.197C79.5985 289.727 82.0866 290.579 84.4144 290.755C86.7479 290.921 88.8138 290.527 90.6118 289.574C92.4157 288.611 93.8522 287.203 94.9214 285.351C95.5077 284.336 95.9316 283.279 96.1932 282.182C96.4547 281.085 96.533 279.995 96.428 278.913C96.3188 277.814 96.0162 276.763 95.5202 275.76C95.0199 274.741 94.3054 273.817 93.3765 272.989L95.5148 269.285C96.9169 270.466 98.0226 271.781 98.8318 273.231C99.641 274.681 100.163 276.203 100.396 277.799C100.62 279.388 100.563 280.995 100.223 282.617C99.8894 284.23 99.277 285.808 98.3861 287.352C96.8801 289.96 94.9035 291.913 92.4565 293.208C90.0095 294.503 87.2749 295.055 84.2528 294.863C81.2306 294.672 78.1066 293.645 74.8808 291.782C71.6551 289.919 69.2036 287.727 67.5265 285.206C65.8494 282.684 64.96 280.04 64.8582 277.272C64.7565 274.505 65.4586 271.817 66.9646 269.209C67.8556 267.665 68.916 266.346 70.1457 265.251C71.3813 264.145 72.7483 263.295 74.2467 262.7C75.7353 262.099 77.3095 261.786 78.9694 261.762C80.6194 261.733 82.3113 262.033 84.0454 262.662Z" fill="black"/>
<path d="M108.528 268.818L77.9429 251.158L88.5999 232.697L91.8855 234.594L83.3667 249.351L93.7011 255.318L101.668 241.518L104.954 243.415L96.9866 257.215L107.381 263.217L116.038 248.221L119.323 250.118L108.528 268.818Z" fill="black"/>
<path d="M123.039 243.681L92.4541 226.021L98.4207 215.686C99.8002 213.296 101.341 211.57 103.042 210.508C104.734 209.44 106.499 208.946 108.339 209.026C110.178 209.105 111.998 209.665 113.8 210.706C115.602 211.746 116.988 213.037 117.956 214.579C118.925 216.121 119.367 217.883 119.284 219.867C119.192 221.844 118.461 224.018 117.093 226.388L112.265 234.752L108.919 232.82L113.679 224.575C114.621 222.943 115.141 221.49 115.238 220.219C115.341 218.937 115.083 217.819 114.466 216.865C113.844 215.896 112.921 215.057 111.697 214.35C110.472 213.643 109.269 213.254 108.089 213.183C106.909 213.112 105.779 213.436 104.701 214.154C103.613 214.867 102.591 216.049 101.637 217.702L97.8779 224.214L125.178 239.977L123.039 243.681ZM117.612 221.35L135.697 221.756L133.213 226.057L115.197 225.532L117.612 221.35Z" fill="black"/>
<path d="M110.305 202.688L107.019 200.791L120.263 177.85L123.548 179.747L117.996 189.366L145.295 205.129L143.157 208.833L115.857 193.07L110.305 202.688Z" fill="black"/>
<path d="M152.81 192.112L150.568 195.996L126.467 167.104L128.674 163.28L165.743 169.709L163.501 173.592L132.478 167.867L132.34 168.106L152.81 192.112ZM141.69 183.78L150.726 168.127L154.012 170.025L144.976 185.677L141.69 183.78Z" fill="black"/>
<path d="M140.047 143.58L170.632 161.24L168.493 164.944L137.908 147.284L140.047 143.58Z" fill="black"/>
<path d="M158.337 111.898L188.922 129.558L186.852 133.143L153.216 135.945L153.043 136.244L177.058 150.11L174.919 153.814L144.334 136.154L146.403 132.569L180.134 129.742L180.307 129.443L156.233 115.542L158.337 111.898Z" fill="black"/>
<path d="M164.935 108.056L161.65 106.159L174.893 83.218L178.179 85.1151L172.626 94.7336L199.926 110.497L197.788 114.201L170.488 98.4377L164.935 108.056Z" fill="black"/>
<path d="M176.676 80.1301L179.125 75.8884L198.299 75.6486L198.506 75.2902L189.127 58.5631L191.575 54.3214L203.176 75.7559L215.78 83.0338L213.642 86.7378L201.037 79.4599L176.676 80.1301Z" fill="black"/>
<path d="M341.347 77.2428L310.761 94.9029L308.623 91.1989L339.208 73.5388L341.347 77.2428Z" fill="black"/>
<path d="M359.636 108.925L329.051 126.585L326.982 123.001L341.374 92.4665L341.201 92.1677L317.187 106.034L315.049 102.33L345.634 84.6696L347.703 88.2541L333.286 118.882L333.459 119.181L357.533 105.281L359.636 108.925Z" fill="black"/>
<path d="M340.883 147.08L338.641 143.197L375.71 136.769L377.918 140.592L353.817 169.484L351.575 165.601L372.044 141.594L371.906 141.355L340.883 147.08ZM353.658 141.616L362.694 157.268L359.409 159.165L350.373 143.513L353.658 141.616Z" fill="black"/>
<path d="M356.567 174.248L387.152 156.588L393.119 166.924C394.498 169.313 395.223 171.511 395.291 173.515C395.37 175.514 394.915 177.291 393.927 178.844C392.938 180.397 391.543 181.694 389.741 182.734C387.939 183.775 386.128 184.329 384.309 184.397C382.49 184.465 380.742 183.967 379.067 182.904C377.401 181.834 375.883 180.115 374.515 177.745L369.687 169.381L373.032 167.45L377.792 175.694C378.734 177.327 379.732 178.503 380.785 179.223C381.843 179.953 382.94 180.289 384.075 180.231C385.225 180.177 386.413 179.797 387.637 179.09C388.862 178.383 389.8 177.536 390.452 176.549C391.103 175.562 391.388 174.422 391.305 173.129C391.232 171.83 390.718 170.354 389.764 168.701L386.005 162.189L358.705 177.952L356.567 174.248ZM378.618 180.713L369.224 196.174L366.741 191.872L376.204 176.531L378.618 180.713Z" fill="black"/>
<path d="M398.432 183.715L401.717 181.818L414.961 204.759L411.676 206.656L406.123 197.038L378.823 212.801L376.685 209.097L403.984 193.334L398.432 183.715Z" fill="black"/>
<path d="M420.4 214.18L389.814 231.84L387.676 228.136L418.261 210.476L420.4 214.18Z" fill="black"/>
<path d="M394.102 239.267L424.687 221.607L435.275 239.948L431.99 241.845L423.54 227.208L413.205 233.175L420.862 246.438L417.576 248.335L409.92 235.072L396.24 242.971L394.102 239.267Z" fill="black"/>
<path d="M441.076 249.996L410.491 267.656L408.352 263.952L438.937 246.292L441.076 249.996Z" fill="black"/>
<path d="M450.015 287.555L447.876 283.851C448.815 283.017 449.53 282.093 450.02 281.08C450.516 280.076 450.814 279.028 450.913 277.936C451.028 276.847 450.955 275.754 450.693 274.657C450.431 273.56 450.007 272.504 449.421 271.488C448.352 269.636 446.916 268.229 445.112 267.266C443.314 266.312 441.248 265.919 438.914 266.085C436.586 266.26 434.098 267.113 431.45 268.642C428.802 270.171 426.819 271.9 425.503 273.828C424.193 275.766 423.501 277.752 423.427 279.786C423.359 281.83 423.86 283.778 424.929 285.63C425.516 286.646 426.218 287.541 427.037 288.316C427.856 289.091 428.761 289.704 429.751 290.154C430.757 290.609 431.819 290.873 432.935 290.945C434.068 291.021 435.225 290.864 436.407 290.473L438.545 294.177C436.821 294.801 435.129 295.101 433.469 295.077C431.809 295.053 430.23 294.744 428.732 294.148C427.243 293.548 425.881 292.694 424.646 291.589C423.416 290.494 422.355 289.174 421.464 287.631C419.958 285.022 419.256 282.334 419.358 279.567C419.46 276.8 420.349 274.156 422.026 271.634C423.703 269.112 426.155 266.92 429.381 265.057C432.606 263.195 435.73 262.168 438.753 261.976C441.775 261.784 444.509 262.336 446.956 263.632C449.403 264.927 451.38 266.879 452.886 269.488C453.777 271.031 454.389 272.609 454.723 274.222C455.062 275.845 455.115 277.454 454.881 279.049C454.657 280.639 454.141 282.159 453.332 283.608C452.532 285.052 451.427 286.368 450.015 287.555Z" fill="black"/>
<path d="M465.166 291.726L434.581 309.386L432.443 305.682L463.028 288.022L465.166 291.726Z" fill="black"/>
<path d="M439.593 318.067L437.351 314.184L474.42 307.755L476.627 311.579L452.526 340.47L450.284 336.587L470.754 312.58L470.616 312.341L439.593 318.067ZM452.368 312.602L461.404 328.255L458.118 330.152L449.082 314.5L452.368 312.602Z" fill="black"/>
<path d="M455.277 345.235L485.862 327.575L488 331.279L460.7 347.042L468.909 361.261L465.623 363.158L455.277 345.235Z" fill="black"/>
<path d="M96.5121 431.197V466.517H92.2355V431.197H96.5121Z" fill="black"/>
<path d="M133.092 431.197V466.517H128.953L109.708 438.785H109.364V466.517H105.087V431.197H109.226L128.539 458.998H128.884V431.197H133.092Z" fill="black"/>
<path d="M139.718 434.991V431.197H166.206V434.991H155.1V466.517H150.824V434.991H139.718Z" fill="black"/>
<path d="M172.806 466.517V431.197H194.12V434.991H177.083V446.925H193.016V450.72H177.083V462.723H194.396V466.517H172.806Z" fill="black"/>
<path d="M201.828 466.517V431.197H206.105V462.723H222.522V466.517H201.828Z" fill="black"/>
<path d="M229.144 466.517V431.197H233.42V462.723H249.837V466.517H229.144Z" fill="black"/>
<path d="M260.735 431.197V466.517H256.459V431.197H260.735Z" fill="black"/>
<path d="M293.453 442.235C293.073 441.073 292.573 440.033 291.952 439.113C291.343 438.182 290.613 437.388 289.762 436.733C288.923 436.078 287.969 435.578 286.9 435.233C285.831 434.888 284.658 434.715 283.382 434.715C281.289 434.715 279.387 435.256 277.674 436.336C275.961 437.417 274.599 439.009 273.587 441.114C272.575 443.218 272.069 445.799 272.069 448.857C272.069 451.915 272.581 454.497 273.604 456.601C274.627 458.705 276.013 460.297 277.76 461.378C279.508 462.459 281.473 462.999 283.658 462.999C285.681 462.999 287.463 462.568 289.003 461.705C290.556 460.832 291.763 459.601 292.625 458.015C293.499 456.417 293.935 454.537 293.935 452.375L295.246 452.651H284.623V448.857H298.074V452.651C298.074 455.56 297.453 458.089 296.212 460.24C294.982 462.39 293.28 464.057 291.107 465.241C288.946 466.414 286.463 467 283.658 467C280.531 467 277.783 466.264 275.415 464.792C273.058 463.321 271.219 461.228 269.897 458.515C268.586 455.801 267.931 452.582 267.931 448.857C267.931 446.063 268.304 443.551 269.052 441.32C269.81 439.078 270.88 437.17 272.259 435.595C273.639 434.02 275.271 432.812 277.157 431.973C279.042 431.134 281.117 430.714 283.382 430.714C285.244 430.714 286.98 430.996 288.59 431.559C290.211 432.111 291.653 432.899 292.918 433.922C294.194 434.934 295.257 436.147 296.108 437.561C296.959 438.963 297.545 440.521 297.867 442.235H293.453Z" fill="black"/>
<path d="M305.399 466.517V431.197H326.713V434.991H309.675V446.925H325.609V450.72H309.675V462.723H326.989V466.517H305.399Z" fill="black"/>
<path d="M362.426 431.197V466.517H358.287L339.043 438.785H338.698V466.517H334.421V431.197H338.56L357.874 458.998H358.219V431.197H362.426Z" fill="black"/>
<path d="M399.403 442.235H395.126C394.873 441.004 394.43 439.924 393.798 438.992C393.177 438.061 392.419 437.279 391.522 436.647C390.637 436.003 389.654 435.52 388.573 435.198C387.492 434.876 386.366 434.715 385.193 434.715C383.055 434.715 381.118 435.256 379.382 436.336C377.657 437.417 376.284 439.009 375.26 441.114C374.249 443.218 373.743 445.799 373.743 448.857C373.743 451.915 374.249 454.497 375.26 456.601C376.284 458.705 377.657 460.297 379.382 461.378C381.118 462.459 383.055 462.999 385.193 462.999C386.366 462.999 387.492 462.838 388.573 462.516C389.654 462.194 390.637 461.717 391.522 461.085C392.419 460.441 393.177 459.653 393.798 458.722C394.43 457.779 394.873 456.698 395.126 455.48H399.403C399.081 457.285 398.494 458.9 397.644 460.326C396.793 461.751 395.735 462.964 394.471 463.965C393.206 464.953 391.786 465.707 390.211 466.224C388.648 466.741 386.975 467 385.193 467C382.181 467 379.502 466.264 377.157 464.792C374.812 463.321 372.967 461.228 371.622 458.515C370.277 455.801 369.604 452.582 369.604 448.857C369.604 445.132 370.277 441.913 371.622 439.199C372.967 436.486 374.812 434.393 377.157 432.922C379.502 431.45 382.181 430.714 385.193 430.714C386.975 430.714 388.648 430.973 390.211 431.49C391.786 432.008 393.206 432.766 394.471 433.767C395.735 434.755 396.793 435.963 397.644 437.388C398.494 438.803 399.081 440.418 399.403 442.235Z" fill="black"/>
<path d="M406.313 466.517V431.197H427.627V434.991H410.59V446.925H426.524V450.72H410.59V462.723H427.903V466.517H406.313Z" fill="black"/>
</svg>
