<svg width="268" height="200" viewBox="0 0 268 200" fill="none" xmlns="http://www.w3.org/2000/svg">
<path d="M210.509 99.7025C210.67 99.7025 210.914 99.4192 210.953 99.2166C211.204 97.9241 215.692 73.4965 215.806 73.0905C215.978 72.4879 215.727 72.1113 215.079 72.0359C212.819 71.773 180.298 68.2697 178.437 68.0724C178.033 68.0302 177.784 68.1108 177.668 68.5575C177.326 69.8877 171.85 92.906 171.4 94.8862C171.37 95.0045 171.367 95.128 171.391 95.2476C171.415 95.3672 171.466 95.4798 171.54 95.5769C171.614 95.6741 171.709 95.7533 171.818 95.8088C171.926 95.8642 172.046 95.8944 172.168 95.8971C173.786 96.0214 209.942 99.7424 210.509 99.7025Z" fill="#191919"/>
<path d="M237.606 137.76C237.785 136.507 238.236 135.556 237.12 135.213C236.263 134.948 236.271 134.97 236.271 133.514C236.352 131.921 235.849 130.354 234.855 129.106C234.204 128.159 233.372 127.35 232.408 126.725C231.443 126.101 230.364 125.673 229.234 125.466C227.39 125.077 226.925 124.833 221.995 125.425C220.262 125.633 215.467 126.603 213.257 126.639C210.538 126.682 208.143 125.726 208.972 123.12C210.106 119.532 213.438 118.023 217.02 115.759C218.818 114.622 220.303 113.603 219.002 111.674C218.386 110.823 217.565 110.141 216.616 109.692C213.975 108.308 214.088 108.479 212.774 108.276C212.774 108.196 212.774 108.034 212.694 107.994C212.166 107.589 212.336 107.105 212.451 106.618C212.644 105.53 212.603 104.413 212.33 103.342C212.249 103.047 212.076 102.786 211.835 102.596C211.595 102.407 211.301 102.299 210.995 102.288C209.253 102.152 171.234 98.1662 169.62 97.9613C169.02 97.8613 168.406 97.9004 167.824 98.0756C167.242 98.2509 166.708 98.5577 166.263 98.9722C162.631 102.17 155.759 107.51 152.189 110.458C151.843 110.681 151.582 111.014 151.45 111.403C151.318 111.792 151.321 112.215 151.46 112.602C151.631 113.101 151.783 114.819 153.928 115.069C160.44 115.828 187.125 118.495 196.109 119.558C200.836 120.117 205.785 116.87 208.849 113.289C209.85 112.195 210.719 110.987 211.438 109.69C211.519 109.448 212.048 109.484 212.166 109.366C212.449 108.921 212.813 109.083 213.176 109.204C215.123 109.674 216.885 110.716 218.233 112.198C219.729 114.02 216.643 114.841 212.571 117.576C210.341 119.074 207.909 121.758 207.96 124.33C207.994 124.903 208.18 125.457 208.5 125.934C208.82 126.411 209.262 126.793 209.78 127.042C214.056 128.932 221.551 125.815 226.766 126.152C230.005 126.361 232.694 127.618 234.37 130.521C235.067 131.677 235.405 133.014 235.341 134.362C235.341 134.686 235.26 134.929 234.855 135.009C234.086 135.091 233.958 135.736 233.801 136.344C233.587 137.191 233.597 137.173 232.746 137.073C220.806 135.678 225.591 136.03 221.705 135.657C221.143 135.647 220.589 135.798 220.109 136.091C219.629 136.385 219.242 136.809 218.994 137.314C217.207 141.216 210.713 154.08 210.541 156.2C210.461 156.666 210.564 157.144 210.827 157.536C211.091 157.927 211.496 158.202 211.957 158.303C213.48 158.949 215.066 159.437 216.689 159.759C216.778 159.781 232.532 163.082 234.969 163.319C235.698 163.389 238.245 163.521 239.297 162.955C241.809 162.169 243.693 157.699 244.756 155.272C249.411 144.641 249.336 144.35 249.529 142.209C249.585 141.714 249.455 141.215 249.163 140.811C248.871 140.407 248.439 140.127 247.951 140.025C245.488 139.402 243.021 138.878 240.55 138.326C238.97 137.972 237.752 137.908 237.606 137.76ZM247.352 145.324C247.426 145.337 247.496 145.366 247.557 145.41C247.618 145.455 247.668 145.512 247.703 145.578C247.738 145.645 247.757 145.718 247.76 145.793C247.762 145.868 247.747 145.943 247.716 146.011C246.456 148.857 240.962 160.328 240.719 160.651C240.418 160.953 212.408 155.411 212.328 155.394C212.243 155.376 212.164 155.339 212.095 155.285C212.026 155.232 211.971 155.164 211.932 155.087C211.893 155.009 211.872 154.924 211.871 154.837C211.869 154.75 211.887 154.664 211.924 154.585C213.259 151.814 218.152 141.36 218.552 140.551C218.601 140.48 218.668 140.424 218.747 140.388C218.825 140.353 218.912 140.339 218.997 140.349C222.154 140.875 243.146 144.555 247.352 145.324ZM210.347 109.612C209.509 111.186 208.446 112.631 207.192 113.899C203.302 117.59 198.896 118.901 197.486 118.795C196.192 118.697 157.242 114.483 154.413 114.145C153.95 114.122 153.508 113.941 153.162 113.632C152.816 113.323 152.586 112.904 152.512 112.446C152.447 112.202 152.451 111.944 152.522 111.702C152.593 111.459 152.73 111.241 152.916 111.071C157.629 107.173 162.352 103.198 167.031 99.2614C167.264 99.0356 167.545 98.8668 167.854 98.7685C168.163 98.6702 168.49 98.645 168.811 98.695C171.634 99.1115 206.664 102.842 210.67 103.266C212.05 103.411 211.691 103.782 211.357 107.148C211.321 107.512 211.115 107.633 210.755 107.633C210.366 107.627 209.985 107.74 209.663 107.957C209.361 108.277 209.139 108.664 209.016 109.087C208.854 109.411 209.016 109.614 209.379 109.614C209.701 109.654 210.025 109.653 210.347 109.612Z" fill="#191919"/>
<path d="M157.525 81.584C157.889 80.3705 158.213 79.1977 158.617 78.0656C158.757 76.2779 158.635 74.4795 158.254 72.7273C157.651 72.4261 156.854 74.1502 155.786 75.2748C154.939 76.1666 154.816 77.2973 154.492 78.3488C154.33 78.8761 154.169 79.3596 154.007 79.8854C153.985 79.8879 153.963 79.8856 153.942 79.8786C153.921 79.8715 153.902 79.86 153.886 79.8447C153.966 79.3175 154.29 74.102 154.29 72.1617C154.29 70.9565 153.379 69.7114 152.227 70.2605C151.122 70.7878 151.029 71.8928 150.852 73.1318C150.003 73.0512 149.896 73.1318 149.722 73.9815C149.549 74.8629 149.549 75.7696 149.722 76.651C149.806 76.9839 149.915 77.121 150.127 77.0148C150.208 75.9603 150.451 73.8195 150.492 73.8195C150.564 74.0988 150.618 74.3827 150.653 74.6692C150.531 76.5699 150.369 78.4706 150.168 80.3712C150.168 80.4842 150.058 81.065 149.722 80.8985C149.204 77.8686 148.515 74.8704 147.658 71.9184C147.454 71.1267 146.89 70.3855 146.081 70.6642C145.864 70.8055 145.695 71.0078 145.594 71.2455C145.494 71.4831 145.466 71.7454 145.514 71.999C145.514 72.0796 145.555 72.1202 145.555 72.2016C145.352 72.2775 145.18 72.4171 145.063 72.5993C144.946 72.7815 144.892 72.9966 144.908 73.2124C144.887 74.1434 144.887 75.0315 144.908 75.9625C144.915 76.0616 144.959 76.1545 145.03 76.2239C145.101 76.2932 145.195 76.3342 145.294 76.3392C145.394 76.3442 145.491 76.3128 145.569 76.251C145.647 76.1891 145.699 76.101 145.717 76.0032C145.735 75.7038 145.775 75.4062 145.838 75.1129C147.963 85.7381 146.448 80.5821 143.897 75.2341C143.672 74.8393 143.4 74.4729 143.088 74.1427C142.777 73.6797 142.424 73.2465 142.033 72.8486C141.974 72.7477 141.892 72.6621 141.794 72.5987C141.695 72.5354 141.583 72.4961 141.467 72.4841C141.103 72.4841 141.057 72.7266 141.023 73.0912C140.925 74.1005 140.779 75.0729 140.658 76.0838C140.591 76.4212 140.705 76.5666 142.923 81.4627C143.087 81.8257 142.923 82.0231 142.64 82.1911C142.312 82.3869 141.952 82.5956 141.629 82.7567C141.378 82.8861 141.178 83.096 141.06 83.3528C140.943 83.6096 140.915 83.8984 140.982 84.1728C141.3 86.2021 143.965 100.911 144.258 102.736C144.971 107.185 151.472 106.345 155.865 105.405C158.071 104.934 157.916 103.597 158.453 101.28C158.744 100.028 162.061 85.903 162.619 83.8896C163.138 82.0306 159.429 81.4815 157.525 81.584ZM142.234 84.6173C148.706 85.9927 155.096 86.1139 161.405 83.8896C159.653 92.6476 158.829 95.0323 156.713 103.097C156.451 104.098 155.817 103.97 155.46 104.152C150.587 104.679 148.692 105.282 146.522 104.273C146.218 104.164 145.949 103.975 145.742 103.726C145.536 103.477 145.4 103.177 145.349 102.858C142.379 86.9636 143.289 90.7147 142.239 84.6173H142.234ZM157.725 77.8629C157.405 79.8461 156.864 81.787 156.111 83.6493C156.067 83.7469 155.997 83.8307 155.909 83.8919C155.181 84.0132 154.454 84.0938 153.685 84.1751C153.807 83.6862 155.683 77.6972 155.707 77.6219C156.071 76.6901 157.891 77.6611 157.729 77.8629H157.725ZM142.558 76.6901C142.76 76.7308 142.964 76.8973 143.165 76.8521C143.327 76.8159 143.448 76.5689 143.61 76.367C144.702 78.9145 146.036 81.3384 147.007 84.0109C146.279 83.9295 145.672 83.8489 145.066 83.7683C144.771 83.7683 144.735 83.5906 142.195 77.6611C142.061 77.3846 142.338 77.066 142.563 76.6901H142.558ZM148.422 76.1245C148.989 78.9115 149.477 81.5034 150.04 84.2128C149.474 84.1728 149.11 84.1322 148.706 84.1322C148.035 84.1322 148.416 84.1495 146.684 76.5689C147.295 76.4077 147.861 76.2857 148.427 76.1245H148.422ZM150.849 84.2128C151.105 80.6409 151.28 78.986 151.377 77.3372C151.428 76.4484 151.539 76.2826 152.469 76.367C152.715 76.4209 152.958 76.4883 153.196 76.5689C152.954 79.1171 152.711 81.6653 152.509 84.2128H150.849ZM151.577 75.3998C151.739 74.1465 151.893 72.8102 152.143 71.5176C152.3 70.7079 153.114 71.1132 153.236 71.315C153.396 71.5386 153.481 71.8079 153.478 72.0833C153.413 74.7995 153.236 75.0556 153.236 75.7637C152.674 75.6386 152.189 75.5143 151.581 75.3961L151.577 75.3998ZM156.552 76.0876C157.32 74.9148 157.32 74.9148 157.846 75.0767C158.089 76.8965 158.251 76.6133 157.725 76.6133C157.297 76.5369 156.896 76.3548 156.557 76.0838L156.552 76.0876ZM142.801 75.6831C142.234 75.3599 142.234 75.3599 141.671 76.1682H141.55C141.589 75.6424 141.63 75.1166 141.671 74.5909C141.883 74.5111 142.099 74.4437 142.318 74.389C143.089 75.2341 143.089 75.2341 142.805 75.6793L142.801 75.6831Z" fill="#191919"/>
<path d="M259.08 176.787C259.469 176.842 259.864 176.842 260.253 176.787C260.326 176.77 260.394 176.736 260.45 176.686C260.507 176.637 260.55 176.574 260.576 176.504C260.617 176.423 260.455 176.261 260.374 176.14C260.233 175.996 260.062 175.886 259.873 175.816C259.684 175.746 259.483 175.718 259.282 175.735C252.189 174.405 136.998 153.364 124.16 150.863C122.972 150.631 122.249 151.783 123.189 151.993C124.025 152.183 259.005 176.773 259.08 176.787Z" fill="#191919"/>
<path d="M121.531 155.353C121.391 155.299 121.235 155.298 121.094 155.35C120.952 155.402 120.835 155.504 120.763 155.636C120.844 156.081 121.208 156.164 121.571 156.284C167.444 167.273 253.84 183.138 257.988 183.138C257.988 181.408 230.643 179.236 121.531 155.353Z" fill="#191919"/>
<path d="M239.061 112.807C240.191 113.778 243.384 113.286 244.52 112.564C245.299 112.069 245.936 111.38 246.369 110.565C246.801 109.749 247.014 108.835 246.987 107.913C247.104 104.003 243.785 102.706 241.69 104.475C241.528 104.596 241.366 104.758 241.245 104.475C240.923 103.856 240.451 103.328 239.871 102.94C239.292 102.551 238.625 102.314 237.93 102.251C233.855 101.547 231.788 101.125 225.676 102.291C223.853 102.639 222.889 104.192 223.047 106.174C223.304 109.033 224.435 111.744 226.286 113.939C226.945 114.765 227.901 115.303 228.949 115.436C230.809 115.722 232.696 115.79 234.572 115.638C236.869 115.447 238.293 113.464 239.061 112.807ZM240.678 105.608C240.806 107.062 240.555 108.525 239.95 109.854C239.15 111.472 238.004 112.894 236.593 114.02C236.082 114.486 235.423 114.758 234.732 114.788C232.528 114.959 230.311 114.837 228.14 114.425C227.92 114.36 227.723 114.233 227.573 114.06C225.404 111.822 223.648 108.406 223.772 105.203C223.842 103.39 225.737 102.839 227.533 102.575C231.537 101.984 240.288 101.587 240.678 105.608ZM234.005 102.736C227.407 102.058 223.179 104.11 224.905 104.879C227.981 106.251 233.116 107.042 238.98 105.527C239.587 105.37 240.601 104.547 239.263 103.787C238.335 103.259 235.138 102.852 234.005 102.736ZM241.608 105.931C241.559 105.682 241.602 105.423 241.73 105.203C241.988 104.886 242.327 104.643 242.711 104.5C243.094 104.356 243.509 104.318 243.913 104.388C244.316 104.458 244.694 104.634 245.007 104.898C245.32 105.162 245.557 105.505 245.693 105.891C245.952 106.493 246.081 107.142 246.072 107.797C246.064 108.453 245.917 109.098 245.642 109.693C245.368 110.288 244.971 110.818 244.478 111.25C243.985 111.681 243.407 112.004 242.781 112.197C241.711 112.623 240.53 112.679 239.425 112.358C239.627 112.075 239.829 111.831 239.991 111.59C242.35 112.429 246.907 108.039 243.954 105.969C243.622 105.703 243.212 105.555 242.788 105.549C242.363 105.542 241.948 105.676 241.608 105.931ZM240.193 111.31C241.023 109.986 241.484 108.464 241.528 106.902C241.593 106.74 241.693 106.595 241.822 106.477C241.951 106.359 242.104 106.272 242.271 106.221C242.438 106.171 242.614 106.158 242.786 106.185C242.959 106.211 243.123 106.276 243.267 106.375C245.503 107.616 242.728 111.31 240.193 111.31ZM234.45 104.031C235.58 103.464 237.605 103.666 238.252 104.678C236.958 104.439 235.787 104.232 234.45 104.031Z" fill="#191919"/>
<path d="M213.055 101.644C212.893 103.343 213.778 101.886 213.824 101.604C214.076 100.062 218.851 75.155 219.041 73.8188C219.225 72.9658 219.141 72.077 218.801 71.2736C218.46 70.4701 217.88 69.7912 217.14 69.3295C216.711 69.1096 216.245 68.9724 215.766 68.925C214.716 68.7495 180.821 65.5844 179.366 65.5279C174.827 65.3516 175.248 65.9542 168.649 96.7504C168.649 97.6001 169.287 97.3146 169.376 96.9523C169.487 96.5049 169.67 96.0657 169.781 95.6183C175.646 71.9063 175.569 68.8738 176.09 67.9141C176.294 67.439 176.642 67.0395 177.084 66.7712C177.526 66.5029 178.041 66.3793 178.557 66.4174C179.77 66.5003 215.89 69.807 216.493 70.1791C217.905 71.0431 217.924 72.2777 218.111 73.4143C218.07 73.455 213.46 99.2987 213.055 101.644Z" fill="#191919"/>
<path d="M241.932 132.503C242.859 132.684 246.301 133.426 247.109 133.595C248.367 133.858 251.422 134.307 256.654 135.455C256.858 135.517 257.073 135.536 257.285 135.512C257.497 135.488 257.701 135.421 257.887 135.315C258.072 135.209 258.234 135.067 258.363 134.897C258.491 134.727 258.584 134.532 258.635 134.325C264.143 121.243 263.958 121.633 263.852 120.895C263.852 120.645 264.067 120.759 249.172 117.902C248.117 117.701 247.066 117.508 246.017 117.255C245.531 117.139 245.289 117.417 245.087 117.783C240.07 126.813 242.124 123.507 238.373 129.592C238.049 130.119 237.8 130.639 237.484 131.129C237.277 131.45 237.444 131.692 237.766 131.776C238.046 131.848 240.758 132.273 241.932 132.503ZM238.292 130.966C238.338 130.891 242.435 123.515 245.329 118.55C245.396 118.38 245.526 118.243 245.692 118.168C245.859 118.093 246.048 118.086 246.219 118.148C251.601 119.151 256.232 119.993 263.205 121.343C261.045 126.474 262.829 122.655 257.381 134.366C257.301 134.569 257.22 134.73 256.937 134.649C254.874 134.245 252.811 133.928 250.749 133.519C247.35 132.836 239.061 131.168 238.292 130.966Z" fill="#191919"/>
<path d="M261.466 97.9612C262.336 98.1352 262.751 96.9677 261.87 96.7478C260.741 96.6122 218.775 92.9364 217.423 92.8249C216.858 92.7782 216.655 92.8648 216.614 93.2693C216.574 93.6738 216.696 93.8764 217.142 93.8764C218.656 93.8794 261.227 97.9612 261.466 97.9612Z" fill="#191919"/>
<path d="M135.444 119.197C137.747 118.569 136.456 119.191 142.4 116.972C143.968 116.313 145.438 115.442 146.769 114.384C147.05 114.191 147.366 114.053 147.699 113.98C147.945 113.946 148.177 113.845 148.369 113.689C148.562 113.532 148.708 113.326 148.791 113.093C148.875 112.859 148.892 112.607 148.842 112.364C148.793 112.121 148.677 111.897 148.508 111.715C147.571 110.6 146.357 109.749 144.989 109.248C142.635 108.256 140.298 108.602 137.993 109.41C134.552 110.615 130.294 111.868 129.256 115.234C129.094 115.852 129.132 116.506 129.365 117.101C129.597 117.696 130.012 118.203 130.55 118.548C133.417 120.128 134.185 119.54 135.444 119.197ZM145.717 114.546C143.18 116.131 140.41 117.304 137.507 118.024C137.979 117.552 136.975 118.149 145.434 114.465C145.764 114.246 145.915 114.447 145.717 114.546ZM143.129 109.289C144.754 109.665 147.046 110.678 147.982 112.039C148.396 112.641 148.226 113.056 147.496 113.252C143.728 114.228 140.118 115.74 136.779 117.741C134.923 118.677 133.456 119.469 131.036 117.458C129.906 116.521 129.862 115.718 130.632 114.465C131.25 113.41 132.184 112.576 133.301 112.079C135.2 111.267 137.142 110.542 139.125 109.854C140.412 109.418 141.771 109.226 143.129 109.289Z" fill="#191919"/>
<path d="M149.64 129.187C149.559 127.65 148.391 127.051 147.052 127.812C146.976 127.856 136.642 133.552 128.568 138.206C127.853 138.991 127.216 139.845 126.668 140.755C126.482 141.036 126.573 141.357 127.032 141.357C130.617 140.959 127.436 142.222 148.588 130.36C148.952 130.036 149.478 129.713 149.64 129.187ZM129.094 138.61L144.343 129.955C144.465 129.852 144.608 129.776 144.763 129.734C144.918 129.692 145.08 129.684 145.237 129.711C145.395 129.738 145.545 129.799 145.677 129.89C145.809 129.981 145.919 130.1 146 130.239C146.331 130.636 146.322 130.841 145.879 131.087C138.902 134.952 130.206 140.025 130.025 140.025C129.741 139.581 129.458 139.095 129.094 138.61ZM127.8 139.985L128.407 139.015C129.176 139.338 129.499 139.742 129.461 140.389C128.892 140.309 128.245 140.713 127.8 139.985ZM148.59 129.551C148.266 129.065 147.983 128.621 147.659 128.135C147.757 128.081 147.864 128.047 147.975 128.037C148.086 128.026 148.197 128.038 148.303 128.072C148.409 128.106 148.507 128.162 148.591 128.235C148.674 128.309 148.742 128.399 148.789 128.499C149.073 128.984 148.952 129.389 148.588 129.551H148.59ZM147.053 130.521C146.649 129.994 146.285 129.591 145.923 129.146C146.209 129.127 146.492 129.21 146.721 129.381C146.951 129.551 147.113 129.798 147.177 130.077C147.173 130.2 147.055 130.4 147.055 130.521H147.053ZM147.862 130.116C147.497 129.514 147.215 129.062 146.972 128.58C147.579 128.701 147.983 129.025 148.026 129.551C148.004 129.747 147.948 129.939 147.86 130.116H147.862Z" fill="#191919"/>
<path d="M224.542 113.413C222.085 113.841 222.785 118.95 231.377 119.48C234.712 119.685 242.025 118.377 240.76 115.759C240.655 115.45 240.46 115.177 240.201 114.977C239.943 114.776 239.631 114.655 239.304 114.63C239.366 114.752 239.465 114.851 239.588 114.913C239.793 115.021 239.964 115.186 240.081 115.387C240.197 115.588 240.254 115.818 240.246 116.051C240.237 116.283 240.163 116.508 240.032 116.7C239.902 116.893 239.719 117.044 239.506 117.137C235.865 119.35 228.382 119.59 224.623 116.535C224.417 116.382 224.245 116.19 224.116 115.969C223.988 115.748 223.906 115.503 223.875 115.249C223.845 114.994 223.867 114.737 223.94 114.492C224.013 114.247 224.136 114.019 224.3 113.823C224.421 113.737 224.462 113.575 224.542 113.413Z" fill="#191919"/>
<path d="M139.772 86.5185C140.36 86.5185 140.472 86.0214 140.056 85.7095C139.37 84.9699 130.587 84.4155 130.511 84.4155C130.307 84.3994 130.105 84.4649 129.95 84.5976C129.794 84.7303 129.698 84.9194 129.682 85.1231C129.666 85.3269 129.731 85.5287 129.864 85.6842C129.997 85.8396 130.186 85.936 130.389 85.9521C133.504 86.3201 136.637 86.5093 139.772 86.5185Z" fill="#191919"/>
<path d="M166.668 87.8925C163.504 87.5317 162.981 87.4775 162.542 87.7306C162.459 87.7688 162.389 87.831 162.342 87.9092C162.295 87.9873 162.272 88.0778 162.276 88.1691C162.28 88.2604 162.312 88.3484 162.367 88.4216C162.421 88.4948 162.497 88.5501 162.583 88.5802C163.147 88.7854 163.729 88.9345 164.322 89.0254C165.736 89.2002 167.193 89.3086 168.649 89.3892C169.256 89.4698 170.351 88.3128 166.668 87.8925Z" fill="#191919"/>
<path d="M154.453 124.898C154.736 124.534 155.056 124.089 155.666 124.332C155.787 124.372 157.013 124.461 157.323 123.927C157.905 122.933 160.132 122.345 161.004 122.27C169.271 121.384 173.005 123.07 177.1 125.384C177.888 125.722 177.316 125.551 179.85 124.656C184.737 122.824 192.999 123.234 200.881 128.256C201.899 128.884 202.768 129.726 203.428 130.723C203.939 131.488 204.325 131.355 205.451 131.853C205.572 131.88 205.684 131.938 205.778 132.019C205.871 132.101 205.944 132.204 205.988 132.32C206.032 132.436 206.046 132.561 206.03 132.684C206.014 132.807 205.968 132.925 205.896 133.026C205.249 134.118 193.52 153.774 192.469 155.594C192.145 156.16 191.902 156.281 191.296 156.16C189.071 155.674 170.329 152.035 166.18 151.145C165.522 150.967 164.839 150.898 164.158 150.942C162.751 151.111 161.332 150.734 160.195 149.888C159.875 149.654 159.497 149.514 159.102 149.483C157.202 149.241 142.642 147.097 141.146 146.895C136.706 146.432 135.176 149.907 154.453 124.898ZM190.286 154.26C190.587 153.959 203.299 132.981 203.349 132.906C202.996 132.553 204.102 131.06 190.488 153.533C190.054 154.257 190.05 154.025 190.286 154.26ZM183.896 152.238C178.903 150.028 173.538 148.78 168.082 148.558L183.896 152.238ZM182.278 150.782C178.76 149.003 175.079 147.871 171.318 148.032C175.061 148.542 178.737 149.464 182.278 150.782ZM189.275 153.856C193.886 146.333 198.496 138.824 203.107 131.329C196.205 125.453 186.992 123.217 179.204 125.99C178.243 126.323 177.427 126.981 176.899 127.851C170.236 138.063 164.325 146.839 163.513 148.194C173.178 145.201 181.59 147.83 189.275 153.856ZM162.542 148.032C167.274 140.914 172.046 133.715 176.858 126.516C172.325 122.764 162.798 122.341 158.052 124.089C157.693 124.18 142.881 143.511 142.563 143.988C145.978 143.256 149.521 143.381 152.876 144.351C156.252 145.126 159.505 146.365 162.542 148.032ZM145.637 144.554C148.424 144.959 151.379 145.322 154.291 145.727C150.408 144.675 146.769 144.23 145.637 144.554ZM158.174 147.547C158.206 147.499 158.22 147.442 158.214 147.385C157.284 147.142 156.313 146.857 155.302 146.697C153.264 146.387 145.222 145.175 143.129 145.08C142.855 145.083 142.583 145.124 142.32 145.201C147.658 146.01 152.916 146.778 158.174 147.547Z" fill="#191919"/>
<path d="M148.589 129.55C149.418 129.181 148.722 127.623 147.7 128.134C147.983 128.618 148.306 129.065 148.589 129.55Z" fill="#FF0000"/>
<path d="M219.769 155.475C219.85 155.919 220.094 156.13 220.497 156.081C222.404 155.85 219.911 156.947 228.06 152.117C230.185 150.858 238.899 146.162 238.899 144.555C238.701 144.357 236.424 144.706 236.067 144.919C218.042 155.806 221.063 153.857 219.769 155.475ZM228.222 151.349C228.018 151.553 224.257 153.792 221.549 155.393C221.268 155.56 221.144 155.434 220.982 155.232C220.82 154.989 220.982 154.869 221.184 154.746C221.945 154.284 226.483 151.507 227.939 150.661C228.019 150.896 228.113 151.126 228.222 151.349Z" fill="#191919"/>
<path d="M168.77 100.229C168.03 100.342 168.544 100.051 157.405 109.652C156.985 109.932 157.293 110.218 157.567 110.218C159.104 110.379 195.705 114.548 197.363 114.788C197.622 114.83 197.888 114.8 198.131 114.7C198.374 114.6 198.584 114.434 198.738 114.222C206.647 104.63 206.9 104.655 206.787 104.313C206.468 103.675 168.859 100.214 168.77 100.229ZM199.345 107.185C199.83 107.265 200.194 107.346 200.599 107.387C200.963 107.468 200.639 107.589 200.396 107.589C198.957 107.189 198.341 108.137 196.676 110.218C197.242 110.299 197.687 110.339 198.132 110.42C198.536 110.582 198.172 110.541 198.132 110.582C197.742 110.625 197.349 110.625 196.959 110.582C196.757 110.535 196.546 110.548 196.352 110.62C196.158 110.692 195.989 110.819 195.867 110.986C195.482 111.371 195.077 111.736 194.653 112.078C194.532 112.159 194.411 112.24 194.532 111.957C194.937 111.512 195.3 111.067 195.746 110.623C195.754 110.613 195.76 110.601 195.762 110.588C195.765 110.575 195.764 110.562 195.76 110.55C195.755 110.538 195.748 110.527 195.739 110.518C195.729 110.509 195.718 110.503 195.705 110.501C195.058 110.42 192.308 110.056 190.893 109.935C190.688 109.962 190.501 110.063 190.365 110.218C189.324 111.26 187.916 112.892 188.343 112.038C188.909 111.35 189.473 110.623 190.082 109.935C189.92 109.853 188.786 109.749 185.673 109.408C184.257 109.257 183.804 109.075 183.368 109.569C182.916 110.086 182.438 110.58 181.993 111.106C181.791 111.429 181.629 111.268 181.872 110.985C182.276 110.378 182.721 109.812 183.166 109.165C181.427 108.962 179.728 108.761 177.99 108.558C177.387 108.558 176.685 109.886 175.886 110.418L175.765 110.297C176.21 109.731 176.614 109.167 177.059 108.599C177.173 108.373 177.202 108.514 172.327 107.87C171.76 107.795 171.397 107.709 170.993 108.275C170.264 109.569 169.938 109.771 170.224 109.044C170.346 108.841 170.629 108.275 170.79 107.952C170.802 107.931 170.808 107.907 170.807 107.883C170.807 107.859 170.8 107.836 170.788 107.815C170.776 107.795 170.758 107.778 170.737 107.766C170.716 107.754 170.693 107.749 170.669 107.749C170.022 107.668 168.403 107.352 166.949 107.183C165.613 107.028 165.206 106.776 164.724 107.305C164.357 107.707 163.955 108.073 163.551 108.477C163.268 108.8 163.147 108.72 163.389 108.356L164.519 106.981C164.539 106.966 164.553 106.945 164.559 106.921C164.566 106.897 164.564 106.872 164.555 106.849C164.546 106.826 164.53 106.807 164.509 106.794C164.488 106.782 164.463 106.776 164.439 106.779L163.063 106.415C162.74 106.334 162.901 106.253 163.104 106.253C164.995 106.425 164.845 106.767 165.854 105.565C166.297 105.038 167.876 103.705 168.119 103.462C167.988 103.386 167.853 103.319 167.715 103.26C167.431 103.179 167.431 103.058 167.836 103.138C168.064 103.187 168.302 103.173 168.524 103.098C168.604 103.058 169.21 102.33 169.413 102.087C169.656 101.885 169.656 102.006 169.534 102.168L169.007 103.017C168.995 103.038 168.99 103.062 168.99 103.086C168.99 103.109 168.997 103.133 169.009 103.153C169.022 103.174 169.039 103.191 169.06 103.202C169.081 103.214 169.104 103.22 169.128 103.22C170.827 103.422 172.486 103.624 174.143 103.785C174.684 103.785 174.897 103.42 175.478 102.936C175.64 102.653 175.761 102.775 175.559 103.017C175.357 103.3 175.195 103.583 174.992 103.867C174.912 104.029 174.952 104.069 175.033 104.069C175.801 104.231 177.339 104.267 178.272 104.392C180.618 104.707 180.745 104.762 181.669 103.664C181.879 103.429 182.109 103.212 182.357 103.017C182.478 102.856 182.559 102.977 182.478 103.138C182.113 103.583 181.669 104.15 181.265 104.635C181.256 104.645 181.251 104.657 181.249 104.669C181.246 104.682 181.247 104.695 181.251 104.707C181.255 104.719 181.262 104.73 181.272 104.739C181.281 104.747 181.293 104.753 181.305 104.756C181.912 104.797 184.418 104.92 185.511 105.12C186.4 105.284 186.566 105.241 187.25 104.433C187.43 104.173 187.633 103.929 187.857 103.705C188.14 103.341 188.059 103.624 187.978 103.826C187.695 104.231 187.412 104.676 187.129 105.12C187.12 105.139 187.115 105.159 187.115 105.179C187.115 105.2 187.118 105.22 187.126 105.239C187.133 105.258 187.145 105.275 187.159 105.289C187.174 105.304 187.191 105.315 187.21 105.323C189.07 105.606 190.882 105.895 192.709 106.172C193.377 106.273 193.145 106.021 194.205 104.959L194.327 105.08C194.083 105.485 193.799 105.848 193.477 106.293C195.054 106.576 196.592 106.776 198.128 107.102C198.354 107.168 198.597 107.151 198.812 107.055C199.027 106.958 199.2 106.788 199.301 106.575C200.312 105.321 200.474 105.402 200.312 105.604C200.042 106.162 199.719 106.691 199.345 107.185Z" fill="#FF0000"/>
<path d="M198.86 117.296C198.935 117.221 199.58 116.728 198.779 116.528C197.122 116.325 155.706 111.593 153.927 111.392C153.579 111.392 153.335 111.82 153.887 111.957C158.149 112.508 198.003 117.125 198.86 117.296Z" fill="#191919"/>
<path d="M210.751 104.152C199.685 116.581 199.424 116.23 199.912 116.649C200.195 116.892 200.395 116.606 200.559 116.407C202.673 113.83 211.357 104.477 211.357 104.313C211.357 104.192 211.36 103.467 210.751 104.152Z" fill="#191919"/>
<path d="M193.279 132.138C193.747 132.379 194.199 132.648 194.333 132.3C194.495 131.655 191.082 130.17 190.734 130.035C187.558 128.79 184.149 128.252 180.744 128.458C180.157 128.522 179.576 128.63 179.005 128.782C177.26 129.652 185.593 128.2 193.279 132.138Z" fill="#191919"/>
<path d="M178.679 131.491C177.708 131.896 178.639 132.018 178.801 132.018C180.766 132.03 182.723 132.288 184.624 132.787C184.745 132.827 185.716 132.706 184.786 132.26C181.177 131.103 180.38 131.099 178.679 131.491Z" fill="#191919"/>
<path d="M162.137 139.945C162.623 139.176 163.108 138.448 163.593 137.72C163.664 137.674 163.744 137.643 163.827 137.629C163.911 137.615 163.996 137.618 164.079 137.639C164.486 137.751 164.928 137.881 165.373 137.963C165.13 137.396 164.564 137.275 164.079 136.951C164.443 136.345 164.766 135.738 165.133 135.091C166.591 135.619 166.504 135.592 166.913 135.455C166.667 135.087 167.099 135.229 165.416 134.525C165.902 133.675 166.347 132.868 166.832 132.017C167.156 132.139 167.479 132.26 167.843 132.381C167.843 131.816 167.358 131.779 167.115 131.532C167.479 130.764 167.843 129.995 168.207 129.186C168.166 129.146 168.187 128.525 167.56 129.389C166.505 130.839 166.409 131.249 166.104 131.249C164.769 130.966 163.475 130.642 162.14 130.319C163.516 127.811 163.718 126.962 161.655 129.914C161.609 130.051 161.512 130.165 161.384 130.233C161.256 130.3 161.107 130.317 160.968 130.278C159.998 130.184 159.027 130.157 157.975 130.116C158.11 129.872 158.218 129.615 158.298 129.348C159.353 126.072 157.732 129.105 157.732 129.146C156.988 131.379 155.186 129.496 154.418 130.925C155.065 130.885 155.753 130.845 156.562 130.804C156.117 131.492 155.753 132.098 155.348 132.705C155.254 132.894 153.271 132.719 152.679 133.308C153.367 133.672 154.054 133.308 154.823 133.55C154.499 134.078 154.176 134.605 153.811 135.128C153.771 135.209 153.569 135.209 153.407 135.209C152.8 135.249 152.234 135.249 151.627 135.29C151.46 135.325 151.297 135.379 151.142 135.451C151.142 135.745 150.903 135.513 153.327 135.896C152.963 136.503 152.639 137.109 152.235 137.676C152.024 137.887 151.331 137.741 149.687 137.838C149.528 137.838 148.783 138.103 148.999 138.323C149.889 138.403 150.779 138.485 151.711 138.565C151.642 138.869 151.547 139.167 151.429 139.455C150.374 142.367 150.417 142.488 151.956 139.82C152.257 139.417 152.521 138.727 152.926 138.727C153.981 138.889 154.989 139.051 156.081 139.212C155.797 139.9 155.272 141.276 155.11 141.801C154.746 142.771 155.353 141.882 155.393 141.841C156.419 140.389 156.718 139.496 157.173 139.496C158.386 139.738 159.559 140.023 160.773 140.264C160.408 140.911 160.085 141.518 159.761 142.124C159.478 142.57 159.802 142.488 159.964 142.246C160.206 141.962 160.491 141.718 160.732 141.437C161.014 141.112 161.259 140.588 161.581 140.506C162.008 140.365 162.472 140.768 163.846 141.073C163.593 140.47 162.825 140.349 162.137 139.945ZM164.686 134.242C163.392 133.919 162.137 133.554 160.884 133.231C161.207 132.503 161.571 131.816 161.939 131.007C163.273 131.249 164.65 131.534 166.104 131.816C165.575 132.664 165.133 133.473 164.686 134.242ZM162.987 137.275C162.46 138.084 161.975 138.852 161.49 139.581C161.458 139.622 161.413 139.653 161.362 139.667C161.311 139.682 161.257 139.68 161.207 139.661C160.034 139.337 158.821 139.014 157.608 138.65C158.012 137.963 158.416 137.316 158.821 136.669C158.85 136.622 158.893 136.586 158.944 136.564C158.994 136.542 159.05 136.537 159.104 136.547C160.358 136.79 161.612 137.033 162.987 137.275ZM159.347 135.86C159.671 135.293 160.034 134.73 160.358 134.161C160.503 133.871 161.085 134.194 164.362 134.808C163.998 135.455 163.715 135.938 163.392 136.465C163.31 136.547 163.148 136.668 163.027 136.627C161.814 136.385 160.601 136.143 159.347 135.86ZM158.093 136.345C157.059 138.037 156.847 138.529 156.597 138.529C155.542 138.367 154.494 138.165 153.402 137.963C153.766 137.356 154.089 136.79 154.457 136.224C154.57 135.99 154.871 136.012 158.093 136.345ZM161.207 130.925C160.009 133.122 160.369 133.14 158.942 132.988C158.174 132.906 157.406 132.826 156.597 132.745C156.92 132.139 157.235 131.566 157.568 131.047C157.607 130.982 157.66 130.927 157.723 130.885C157.786 130.843 157.857 130.816 157.931 130.804C158.984 130.824 160.034 130.885 161.207 130.925ZM159.63 133.837C159.266 134.484 158.942 135.01 158.575 135.536C158.537 135.585 158.488 135.625 158.432 135.653C158.376 135.681 158.315 135.697 158.252 135.698C157.16 135.577 156.108 135.415 154.976 135.293C156.436 133.108 155.287 133.527 159.63 133.837Z" fill="#191919"/>
<path d="M169.255 127.123C169.377 126.759 169.093 126.556 168.81 126.476C164.7 124.962 160.492 125.25 159.711 126.031C159.359 126.382 159.747 126.595 159.994 126.517C162.932 125.581 166.334 126.393 169.255 127.123Z" fill="#191919"/>
<path d="M144.585 110.379C143.978 110.379 143.412 110.339 142.846 110.379C142.522 110.42 141.716 111.35 141.471 111.552C141.998 111.471 143.169 111.269 143.251 111.229C143.655 110.986 144.06 110.703 144.585 110.379Z" fill="#191919"/>
<path d="M184.018 108.761C184.745 108.842 185.352 108.928 185.959 109.004C187.333 109.176 188.709 109.287 190.084 109.448C190.246 109.448 190.489 109.448 190.569 109.327C191.298 108.478 192.025 107.589 192.834 106.615C191.985 106.494 188.301 105.992 187.253 105.806C187.067 105.757 186.871 105.765 186.691 105.83C186.51 105.895 186.353 106.014 186.242 106.17C185.6 106.986 184.827 107.831 184.018 108.761Z" fill="#FF0000"/>
<path d="M165.859 106.375C165.839 106.39 165.825 106.411 165.819 106.435C165.812 106.458 165.814 106.483 165.823 106.506C165.832 106.529 165.848 106.548 165.869 106.561C165.89 106.574 165.915 106.579 165.94 106.577C166.489 106.642 168.763 106.996 171.117 107.184C171.782 107.184 171.311 107.24 173.947 104.472C173.967 104.457 173.981 104.436 173.987 104.413C173.994 104.389 173.992 104.364 173.983 104.341C173.974 104.318 173.958 104.299 173.937 104.286C173.916 104.273 173.891 104.268 173.867 104.27C168.745 103.564 168.745 103.409 168.568 103.583C167.638 104.513 166.759 105.454 165.859 106.375Z" fill="#FF0000"/>
<path d="M180.296 105C178.429 104.767 176.019 104.542 175.079 104.394C174.893 104.358 174.702 104.373 174.524 104.437C174.346 104.501 174.189 104.612 174.068 104.758C173.364 105.594 172.612 106.415 171.843 107.306C172.995 107.47 172.826 107.416 177.303 107.953C177.473 107.956 177.64 107.914 177.788 107.832C178.638 106.982 179.445 106.092 180.296 105.203V105Z" fill="#FF0000"/>
<path d="M178.153 108.075C179.529 108.237 180.865 108.316 182.198 108.602C182.662 108.728 183.155 108.692 183.597 108.501C184.038 108.309 184.4 107.973 184.624 107.547C185.067 106.958 185.54 106.391 186.041 105.849C186.056 105.829 186.066 105.805 186.07 105.78C186.074 105.756 186.072 105.73 186.064 105.706C186.056 105.682 186.042 105.661 186.024 105.643C186.006 105.626 185.983 105.613 185.959 105.606C181.028 105.079 181.734 105.126 181.187 105.079C180.944 105.079 180.822 105.24 180.659 105.402C179.764 106.234 178.926 107.127 178.153 108.075Z" fill="#FF0000"/>
<path d="M198.415 107.467C197.041 107.265 196.27 107.12 194.614 106.901C193.642 106.772 193.24 106.393 192.754 107.224C191.965 108.571 191.538 108.623 190.933 109.53C193.282 109.79 194.364 109.972 195.786 110.096C196.404 110.096 196.464 109.841 198.456 107.628C198.472 107.619 198.485 107.604 198.492 107.587C198.499 107.57 198.5 107.551 198.496 107.533C198.491 107.514 198.481 107.498 198.466 107.486C198.452 107.475 198.434 107.468 198.415 107.467Z" fill="#FF0000"/>
<path d="M146.806 45.4961V49.4958H90.4375V45.4961H146.806ZM101.433 47.6617C101.433 47.4769 101.378 47.2963 101.274 47.1426C101.172 46.989 101.026 46.8693 100.855 46.7987C100.685 46.728 100.496 46.7096 100.315 46.7456C100.134 46.7817 99.9675 46.8708 99.8372 47.0014C99.7061 47.1321 99.6172 47.2986 99.5811 47.4799C99.5449 47.6611 99.5638 47.8491 99.6338 48.0198C99.7046 48.1906 99.8244 48.3366 99.978 48.4394C100.132 48.5421 100.312 48.597 100.497 48.5972C100.621 48.5979 100.743 48.5741 100.857 48.5272C100.972 48.4803 101.075 48.4111 101.162 48.3238C101.25 48.2366 101.319 48.1328 101.366 48.0186C101.412 47.9045 101.436 47.7821 101.436 47.6586L101.433 47.6617ZM97.753 47.6617C97.753 47.4769 97.698 47.2963 97.5955 47.1427C97.4924 46.9891 97.3462 46.8694 97.176 46.7987C97.005 46.7281 96.8174 46.7096 96.6359 46.7456C96.4544 46.7816 96.2879 46.8706 96.1576 47.0012C96.0265 47.1318 95.9377 47.2982 95.9015 47.4795C95.8654 47.6606 95.8834 47.8485 95.9542 48.0193C96.025 48.1901 96.1441 48.3361 96.2977 48.439C96.4514 48.5418 96.6322 48.5969 96.8167 48.5972C96.9402 48.5979 97.0623 48.5741 97.1767 48.5272C97.2912 48.4803 97.3952 48.4112 97.4826 48.3239C97.5692 48.2366 97.6385 48.1329 97.6859 48.0187C97.7326 47.9045 97.7567 47.7822 97.756 47.6586L97.753 47.6617ZM94.0726 47.6617C94.0726 47.4769 94.0177 47.2963 93.9145 47.1426C93.812 46.989 93.6659 46.8693 93.4949 46.7987C93.3247 46.728 93.1364 46.7096 92.9556 46.7456C92.774 46.7817 92.6076 46.8708 92.4773 47.0014C92.3462 47.1321 92.2573 47.2986 92.2212 47.4799C92.185 47.6611 92.2038 47.8491 92.2739 48.0198C92.3447 48.1906 92.4645 48.3366 92.6181 48.4394C92.7718 48.5421 92.9526 48.597 93.1371 48.5972C93.2606 48.5982 93.3834 48.5747 93.4979 48.5279C93.6124 48.4811 93.7164 48.412 93.8037 48.3247C93.8919 48.2374 93.9612 48.1336 94.0079 48.0192C94.0553 47.9049 94.0794 47.7823 94.0787 47.6586L94.0726 47.6617Z" fill="#313553"/>
<path d="M135.565 129.076H74.0558L66.32 123.598L43.1797 107.214L43.2143 107.059C43.5464 107.162 43.892 107.214 44.2395 107.214H102.293C102.903 107.215 103.503 107.053 104.03 106.746L135.565 129.076ZM102.069 120.675H118.614L113.753 117.234L102.958 109.587H53.0178L57.3444 112.652L68.6739 120.675H102.069ZM88.5737 126.974H112.581L106.596 122.736H82.5282L88.5135 126.974H88.5737Z" fill="#FF0000"/>
<path d="M118.614 120.674H102.069V120.577L97.5591 117.383H113.649L113.754 117.233L118.614 120.674Z" fill="#FF0000"/>
<path d="M75.7415 112.653L71.4149 109.588H102.958L113.754 117.235L113.649 117.385H97.5591L102.069 120.578V120.676H68.6708L57.3413 112.653H75.7415Z" fill="#FF0000"/>
<path d="M112.582 126.974H88.5743H88.5141L82.5288 122.736H106.536H106.596L112.582 126.974Z" fill="#B3B3B3"/>
<path d="M105.747 83.097V103.763C105.747 104.216 105.658 104.665 105.484 105.084C105.31 105.504 105.056 105.884 104.736 106.204C104.415 106.525 104.034 106.779 103.615 106.952C103.195 107.125 102.746 107.215 102.293 107.214H44.2399C43.7866 107.214 43.3376 107.125 42.9188 106.952C42.4999 106.779 42.1193 106.524 41.7987 106.204C41.4782 105.883 41.224 105.503 41.0507 105.084C40.8773 104.665 40.7883 104.216 40.7886 103.763V62.4333C40.7886 61.5178 41.1522 60.6399 41.7993 59.9924C42.4465 59.3449 43.3244 58.9809 44.2399 58.9805H102.293C102.746 58.9803 103.196 59.0695 103.615 59.243C104.034 59.4166 104.415 59.671 104.736 59.9918C105.057 60.3126 105.311 60.6935 105.484 61.1127C105.658 61.5319 105.747 61.9812 105.747 62.4348V83.097ZM103.118 101.875V64.3179C103.118 63.5988 102.833 62.9091 102.325 62.4006C101.815 61.892 101.126 61.6063 100.407 61.6063H46.1268C45.4076 61.6063 44.7179 61.892 44.2093 62.4006C43.7008 62.9091 43.4151 63.5988 43.4151 64.3179V101.875C43.4151 102.595 43.7008 103.285 44.2093 103.793C44.7179 104.301 45.4076 104.587 46.1268 104.587H100.406C101.125 104.587 101.815 104.301 102.324 103.793C102.832 103.285 103.118 102.595 103.118 101.875H103.118Z" fill="#FF0000"/>
<path d="M103.118 64.3176V75.928H102.602V75.7329C102.602 72.4187 100.736 70.7992 98.4542 70.7992H98.2102C98.0625 70.7994 97.9217 70.7411 97.817 70.6372C97.7123 70.5333 97.6535 70.3922 97.6528 70.2448V69.3696C98.0098 69.1935 98.3111 68.921 98.5213 68.5829C98.7314 68.2448 98.8437 67.8546 98.8437 67.4563V66.2677C98.8437 65.7015 98.6184 65.1586 98.2185 64.7582C97.8177 64.3579 97.2754 64.133 96.709 64.133C96.1425 64.133 95.6002 64.3579 95.1995 64.7582C94.7995 65.1586 94.5743 65.7015 94.5743 66.2677V67.4563C94.5743 67.8546 94.6865 68.2448 94.8967 68.5829C95.1068 68.921 95.4081 69.1935 95.7652 69.3696V70.2478C95.7644 70.3947 95.7064 70.5355 95.6025 70.6395C95.4985 70.7446 95.3569 70.8044 95.2085 70.806C94.5735 70.7844 93.9416 70.8955 93.3518 71.132C92.762 71.3685 92.2279 71.7254 91.7843 72.1798C91.3406 72.6341 90.9957 73.1761 90.7734 73.771C90.5505 74.3659 90.4541 75.0008 90.4902 75.635H90.4375V61.6074H100.406C101.124 61.6074 101.814 61.8929 102.323 62.4011C102.831 62.9093 103.118 63.5986 103.118 64.3176Z" fill="#B3B3B3"/>
<path d="M102.54 103.381L102.656 103.389C102.408 103.758 102.074 104.059 101.681 104.268C101.289 104.476 100.852 104.585 100.408 104.585H90.4375V104.284H90.4902C90.4541 103.649 90.5505 103.014 90.7734 102.419C90.9957 101.825 91.3406 101.283 91.7843 100.828C92.2279 100.374 92.762 100.017 93.3518 99.7807C93.9416 99.5442 94.5735 99.4327 95.2085 99.4546C95.2816 99.4546 95.3539 99.441 95.4217 99.4131C95.4887 99.3853 95.5505 99.3446 95.6025 99.2934C95.6544 99.2414 95.6951 99.1804 95.723 99.1126C95.7516 99.0456 95.7659 98.9733 95.7659 98.9002V98.0219C95.4089 97.8457 95.1076 97.5737 94.8974 97.2355C94.6865 96.8973 94.575 96.5071 94.575 96.1087V94.9208C94.575 94.3544 94.8003 93.812 95.2002 93.4113C95.601 93.0114 96.1433 92.7861 96.7097 92.7861C97.2762 92.7861 97.8193 93.0114 98.2192 93.4113C98.6192 93.812 98.8444 94.3544 98.8444 94.9208V96.1087C98.8444 96.5071 98.7329 96.8973 98.522 97.2355C98.3119 97.5737 98.0106 97.8457 97.6535 98.0219V98.9017C97.6543 99.0493 97.713 99.1902 97.8177 99.2941C97.9225 99.3981 98.0633 99.4561 98.2109 99.4561H98.455C100.493 99.4538 102.198 100.747 102.54 103.381Z" fill="#313553"/>
<path d="M102.603 89.9301V90.211H90.4375V89.8246H90.4902C90.4541 89.1904 90.5505 88.5554 90.7734 87.9611C90.9964 87.366 91.3406 86.8245 91.7843 86.3703C92.2287 85.9153 92.762 85.559 93.3518 85.3225C93.9416 85.086 94.5735 84.9745 95.2085 84.9963C95.3569 84.9963 95.4985 84.9376 95.6032 84.8329C95.7072 84.7289 95.7659 84.5881 95.7659 84.4412V83.5637C95.4089 83.3874 95.1076 83.1147 94.8974 82.7765C94.6865 82.4383 94.575 82.0482 94.575 81.6497V80.4618C94.575 79.8954 94.8003 79.3531 95.2002 78.9523C95.601 78.5524 96.1433 78.3271 96.7097 78.3271C97.2762 78.3271 97.8193 78.5524 98.2192 78.9523C98.6192 79.3531 98.8444 79.8954 98.8444 80.4618V81.652C98.8444 82.0504 98.7329 82.4406 98.522 82.7788C98.3119 83.117 98.0106 83.3897 97.6535 83.5659V84.4389C97.6543 84.5866 97.713 84.7274 97.8177 84.8314C97.9225 84.9353 98.0633 84.9941 98.2109 84.9941H98.455C100.737 84.9963 102.603 86.6181 102.603 89.9301Z" fill="#313553"/>
<path d="M102.603 75.7348V75.9298H90.4375V75.6285H90.4902C90.4548 74.9948 90.552 74.3605 90.775 73.7662C90.9979 73.1719 91.3421 72.6306 91.7866 72.1768C92.2302 71.723 92.7635 71.3666 93.3533 71.1304C93.9423 70.8942 94.5743 70.7833 95.2085 70.8048C95.3562 70.8044 95.4978 70.746 95.6032 70.6421C95.7072 70.5381 95.7652 70.3973 95.7659 70.2504V69.3684C95.4089 69.1923 95.1076 68.9198 94.8974 68.5817C94.6873 68.2436 94.575 67.8534 94.575 67.4551V66.2665C94.575 65.7004 94.8003 65.1574 95.2002 64.7571C95.601 64.3568 96.1433 64.1318 96.7097 64.1318C97.2762 64.1318 97.8193 64.3568 98.2192 64.7571C98.6192 65.1574 98.8444 65.7004 98.8444 66.2665V67.4551C98.8444 67.8534 98.7322 68.2436 98.522 68.5817C98.3119 68.9198 98.0106 69.1923 97.6535 69.3684V70.2466C97.6543 70.394 97.713 70.5351 97.8177 70.6391C97.9225 70.743 98.0633 70.8013 98.2109 70.801H98.455C100.737 70.8048 102.603 72.4228 102.603 75.7348Z" fill="#313553"/>
<path d="M96.8197 46.7256C97.005 46.7251 97.1858 46.7796 97.3402 46.8821C97.4939 46.9846 97.6144 47.1305 97.6852 47.3014C97.756 47.4723 97.7748 47.6604 97.7387 47.8419C97.7033 48.0234 97.6144 48.1902 97.4833 48.321C97.3523 48.4519 97.1858 48.5411 97.0043 48.5772C96.8227 48.6133 96.6344 48.5947 96.4634 48.5237C96.2932 48.4528 96.1471 48.3328 96.0439 48.1788C95.9414 48.0249 95.8872 47.8438 95.8872 47.6589C95.8872 47.4115 95.9859 47.1744 96.1606 46.9994C96.3354 46.8245 96.5727 46.726 96.8197 46.7256Z" fill="#B3B3B3"/>
<path d="M93.1398 46.7256C93.3251 46.7253 93.5059 46.7799 93.6595 46.8825C93.814 46.9851 93.9337 47.1311 94.0045 47.3019C94.0753 47.4728 94.0942 47.6609 94.058 47.8423C94.0219 48.0238 93.933 48.1905 93.8027 48.3213C93.6716 48.4522 93.5051 48.5412 93.3236 48.5772C93.1421 48.6133 92.9538 48.5946 92.7828 48.5236C92.6118 48.4528 92.4664 48.3327 92.3632 48.1787C92.2608 48.0248 92.2065 47.8438 92.2065 47.6589C92.2065 47.4114 92.3052 47.1741 92.48 46.9992C92.6555 46.8242 92.8927 46.7257 93.1398 46.7256Z" fill="#FF0000"/>
<path d="M81.0925 18.9443V22.9478H3.68945V18.9443H81.0925ZM14.6905 21.1107C14.6904 20.9259 14.6355 20.7453 14.5327 20.5917C14.4299 20.438 14.2839 20.3183 14.1132 20.2477C13.9424 20.177 13.7545 20.1586 13.5732 20.1946C13.3919 20.2308 13.2255 20.3198 13.0948 20.4504C12.9641 20.5811 12.8751 20.7477 12.839 20.9289C12.8029 21.1101 12.8214 21.2981 12.892 21.4688C12.9627 21.6396 13.0823 21.7856 13.2359 21.8884C13.3896 21.9911 13.5702 22.0461 13.755 22.0462C13.8779 22.0464 13.9996 22.0224 14.1132 21.9754C14.2268 21.9284 14.3301 21.8595 14.4169 21.7727C14.5039 21.6858 14.5728 21.5826 14.6197 21.469C14.6666 21.3553 14.6907 21.2336 14.6905 21.1107ZM11.0109 21.1107C11.0108 20.9259 10.9559 20.7453 10.8531 20.5917C10.7504 20.4382 10.6045 20.3185 10.4337 20.2477C10.263 20.1771 10.0751 20.1586 9.89388 20.1946C9.71265 20.2306 9.54619 20.3196 9.4155 20.4502C9.28474 20.5808 9.1957 20.7472 9.15947 20.9284C9.12332 21.1097 9.1417 21.2975 9.2122 21.4683C9.28278 21.6391 9.40232 21.7851 9.55583 21.888C9.70934 21.9909 9.88989 22.046 10.0747 22.0462C10.1977 22.0465 10.3195 22.0225 10.4331 21.9756C10.5469 21.9288 10.6501 21.8598 10.7371 21.7729C10.8241 21.686 10.8931 21.5828 10.9401 21.4691C10.9871 21.3555 11.0112 21.2337 11.0109 21.1107ZM7.33062 21.1107C7.33048 20.9259 7.27554 20.7453 7.17277 20.5917C7.07 20.438 6.924 20.3183 6.75322 20.2477C6.58245 20.177 6.39456 20.1586 6.2133 20.1946C6.03205 20.2308 5.86555 20.3198 5.73487 20.4504C5.60418 20.5811 5.51517 20.7477 5.47908 20.9289C5.44298 21.1101 5.46143 21.2981 5.53209 21.4688C5.60274 21.6396 5.72244 21.7856 5.87605 21.8884C6.02966 21.9911 6.21028 22.0461 6.39509 22.0462C6.51801 22.0464 6.63975 22.0224 6.75334 21.9754C6.86693 21.9284 6.97015 21.8595 7.05706 21.7727C7.14397 21.6858 7.21287 21.5826 7.25981 21.469C7.30676 21.3553 7.33082 21.2336 7.33062 21.1107Z" fill="#313553"/>
<path d="M78.4245 76.6897V78.5269L76.6055 77.623C76.7923 77.3141 77.0612 77.0633 77.3828 76.8984C77.7037 76.7334 78.0645 76.6611 78.4245 76.6897Z" fill="#B3B3B3"/>
<path d="M71.4143 109.588L75.7409 112.653H57.3408L53.0142 109.588H71.4143Z" fill="#FF0000"/>
<path d="M63.2132 39.2953C63.28 39.3438 63.3357 39.4059 63.3769 39.4776C63.418 39.5492 63.4435 39.6287 63.4516 39.7109C63.4598 39.793 63.4505 39.876 63.4243 39.9543C63.3982 40.0326 63.3557 40.1046 63.2998 40.1653L61.6427 41.9158L59.9291 43.7236L56.7067 47.1305L56.5169 47.1569C56.4431 47.0759 56.3582 47.0058 56.2645 46.949C56.0586 46.819 55.8224 46.7447 55.5791 46.7335V46.7283L59.9569 42.0394L62.4426 39.3714C62.4973 39.3124 62.5636 39.2653 62.6373 39.2332C62.7111 39.201 62.7907 39.1845 62.8712 39.1846C62.9939 39.1849 63.1135 39.2237 63.2132 39.2953Z" fill="#313553"/>
<path d="M59.4854 69.0918L61.4634 70.0778C61.077 71.2792 59.4839 70.8845 59.4839 70.8845L59.4854 69.0918Z" fill="#B3B3B3"/>
<path d="M58.6098 32.9628V34.8007L56.793 33.8968C56.9796 33.5882 57.2484 33.3375 57.5691 33.1725C57.8899 33.0076 58.2502 32.935 58.6098 32.9628Z" fill="#B3B3B3"/>
<path d="M57.338 49.9047C57.6219 50.691 56.7467 51.4865 56.7467 51.4865C56.0763 51.0262 54.6964 51.6544 54.2994 52.4062C53.0942 52.2435 53.1243 51.6153 53.5462 51.024C53.8345 50.6393 54.194 50.3135 54.6052 50.0643C55.5483 49.4971 57.054 49.119 57.338 49.9047Z" fill="#B3B3B3"/>
<path d="M56.391 48.4983C57.4636 49.1061 57.3371 49.9046 57.3371 49.9046C57.0531 49.119 55.5474 49.4971 54.6036 50.0628C54.1924 50.3119 53.8328 50.6376 53.5445 51.0224L53.4074 50.9297C53.2974 50.9239 53.1881 50.9072 53.0813 50.88C52.1932 50.6593 52.7212 49.8549 52.7581 49.7969C53.2309 49.6172 53.6787 49.3778 54.0906 49.0843C54.2096 48.9927 54.3103 48.8795 54.3874 48.7506L54.474 48.7634C54.474 48.7634 55.6732 48.0908 56.391 48.4983Z" fill="#B3B3B3"/>
<path d="M54.2992 52.4041C54.6962 51.6508 56.0761 51.0241 56.7465 51.4844C57.4169 51.9446 57.038 53.198 55.4509 54.996C55.0702 55.4958 54.5824 55.904 54.0235 56.1908C53.4644 56.4775 52.8483 56.6355 52.2203 56.6531L51.0904 58.9482V58.9799H45.2754V58.9497L47.7016 53.8104L49.9538 49.5169C50.0991 49.281 50.3079 49.0906 50.5564 48.9678C51.5482 48.434 52.6223 48.0696 53.7343 47.8899C53.8548 47.8822 53.9757 47.8946 54.0921 47.9268C54.173 47.9516 54.2471 47.9948 54.3084 48.0531C54.3697 48.1114 54.4166 48.1832 54.4454 48.2628C54.4743 48.3424 54.4841 48.4276 54.4743 48.5116C54.4645 48.5957 54.4352 48.6763 54.3888 48.7471C54.3118 48.876 54.2111 48.9892 54.0921 49.0808C53.6802 49.3742 53.2324 49.6138 52.7596 49.7933C52.615 49.8513 52.4786 49.9063 52.3574 49.9515L52.3784 50.0088L48.6251 53.9783C48.5692 54.0389 48.5268 54.1106 48.5006 54.1888C48.4745 54.2669 48.4651 54.3497 48.4733 54.4317C48.4816 54.5137 48.507 54.5931 48.5481 54.6645C48.5892 54.7359 48.6449 54.7978 48.7117 54.8461C48.8122 54.9177 48.9325 54.9562 49.0559 54.956C49.1363 54.956 49.2159 54.9395 49.2896 54.9073C49.3634 54.8752 49.4297 54.8282 49.4845 54.7692L52.9886 51.0633L53.0827 50.8765C53.1895 50.9038 53.2988 50.9204 53.4089 50.9262L53.5452 51.0189C53.1242 51.6132 53.0955 52.2414 54.2992 52.4041Z" fill="#B3B3B3"/>
<path d="M56.5173 47.1603C57.0092 47.7283 56.3915 48.4981 56.3915 48.4981C55.6737 48.0906 54.4775 48.761 54.4775 48.761L54.3909 48.7482C54.4373 48.6773 54.4665 48.5967 54.4764 48.5126C54.4862 48.4285 54.4763 48.3434 54.4475 48.2638C54.4187 48.1842 54.3718 48.1124 54.3104 48.0541C54.2491 47.9958 54.1751 47.9526 54.0941 47.9278C53.9777 47.8957 53.8568 47.8832 53.7363 47.8909C53.9226 47.56 54.1889 47.2811 54.511 47.0799C54.833 46.8787 55.2005 46.7616 55.5795 46.7393C55.8228 46.7503 56.059 46.8246 56.265 46.9546C56.3584 47.0108 56.4434 47.0801 56.5173 47.1603Z" fill="#B3B3B3"/>
<path d="M56.2661 104.283V104.585H46.1267C45.6866 104.585 45.2529 104.478 44.8635 104.273C44.4742 104.068 44.1408 103.771 43.8926 103.407L43.9318 103.381C44.2738 100.745 45.9798 99.4535 48.0143 99.4535H48.2614C48.4084 99.4535 48.5495 99.3947 48.6534 99.2908C48.7574 99.1868 48.8158 99.046 48.8158 98.8991V98.0208C48.4589 97.8446 48.1584 97.5719 47.9485 97.2337C47.7386 96.8955 47.6275 96.5053 47.6279 96.1076V94.9197C47.6226 94.6358 47.6738 94.354 47.7788 94.0904C47.8836 93.8268 48.04 93.5872 48.2387 93.3846C48.4374 93.182 48.6744 93.0208 48.936 92.9116C49.1977 92.8016 49.4785 92.7451 49.7622 92.7451C50.046 92.7451 50.3268 92.8016 50.5884 92.9116C50.85 93.0208 51.0871 93.182 51.2858 93.3846C51.4845 93.5872 51.6409 93.8268 51.7457 94.0904C51.8506 94.354 51.9019 94.6358 51.8966 94.9197V96.1076C51.8965 96.506 51.785 96.8962 51.5747 97.2344C51.3644 97.5726 51.0636 97.8446 50.7065 98.0208V98.9021C50.7066 99.049 50.7651 99.1899 50.869 99.2938C50.973 99.3977 51.1138 99.4565 51.2609 99.4565C51.8959 99.4346 52.5286 99.5454 53.1186 99.7819C53.7084 100.018 54.2426 100.375 54.6869 100.83C55.1312 101.284 55.4758 101.826 55.6988 102.421C55.9218 103.016 56.0183 103.651 55.9821 104.286L56.2661 104.283Z" fill="#313553"/>
<path d="M56.2658 90.2109V104.282H55.9826C56.0187 103.648 55.9222 103.013 55.6992 102.418C55.4762 101.823 55.1315 101.281 54.6873 100.826C54.243 100.371 53.7088 100.015 53.119 99.7786C52.529 99.5421 51.8964 99.4314 51.2612 99.4532C51.1143 99.4532 50.9734 99.3944 50.8694 99.2905C50.7655 99.1866 50.707 99.0457 50.7069 98.8988V98.0205C51.064 97.8443 51.3648 97.5724 51.5751 97.2342C51.7854 96.896 51.8969 96.5058 51.897 96.1073V94.9194C51.8864 94.3605 51.657 93.828 51.2579 93.4363C50.8587 93.0446 50.3219 92.8247 49.7627 92.8247C49.2035 92.8247 48.6666 93.0446 48.2674 93.4363C47.8683 93.828 47.6388 94.3605 47.6284 94.9194V96.1073C47.6279 96.505 47.7389 96.8952 47.9489 97.2334C48.1589 97.5716 48.4593 97.8443 48.8162 98.0205V98.9011C48.8162 99.048 48.7578 99.1888 48.6538 99.2928C48.5499 99.3967 48.4089 99.4555 48.2618 99.4555H48.0148C45.981 99.4555 44.2742 100.749 43.9322 103.383L43.893 103.409C43.5822 102.959 43.4161 102.424 43.417 101.876V90.2109H56.2658Z" fill="#B3B3B3"/>
<path d="M56.2655 89.8255V90.2119H43.8687V89.9309C43.8687 86.6167 45.7344 84.9972 48.0115 84.9972H48.2585C48.4056 84.9972 48.5467 84.9384 48.6506 84.8345C48.7545 84.7306 48.8129 84.5889 48.8129 84.4421V83.5645C48.456 83.3883 48.1556 83.1156 47.9456 82.7774C47.7357 82.4392 47.6247 82.049 47.6251 81.6506V80.4627C47.6198 80.1787 47.671 79.897 47.7759 79.6334C47.8808 79.3697 48.0372 79.1302 48.2359 78.9276C48.4346 78.725 48.6716 78.5638 48.9332 78.4546C49.1948 78.3446 49.4757 78.2881 49.7594 78.2881C50.0431 78.2881 50.324 78.3446 50.5856 78.4546C50.8471 78.5638 51.0842 78.725 51.2829 78.9276C51.4817 79.1302 51.638 79.3697 51.7429 79.6334C51.8478 79.897 51.899 80.1787 51.8937 80.4627V81.6528C51.8937 82.0513 51.7821 82.4415 51.5718 82.7797C51.3615 83.1179 51.0607 83.3905 50.7036 83.5668V84.4398C50.704 84.5867 50.7625 84.7275 50.8663 84.8315C50.9702 84.9354 51.111 84.9942 51.2579 84.9949C51.893 84.9731 52.5256 85.0838 53.1155 85.3203C53.7054 85.5569 54.2395 85.9131 54.6838 86.3673C55.128 86.8215 55.4726 87.3639 55.6957 87.9589C55.9188 88.554 56.0153 89.189 55.9793 89.8232L56.2655 89.8255Z" fill="#313553"/>
<path d="M56.2655 75.6311V75.9324H43.8687V75.7373C43.8687 72.423 45.7344 70.8035 48.0115 70.8035H48.2585C48.4056 70.8033 48.5464 70.7449 48.6504 70.6409C48.7543 70.537 48.8128 70.3961 48.8129 70.2492V69.3694C48.4561 69.1931 48.1558 68.9204 47.9459 68.5823C47.7359 68.2443 47.6248 67.8542 47.6251 67.4561V66.2675C47.6198 65.9839 47.671 65.702 47.7759 65.4384C47.8808 65.1748 48.0372 64.9347 48.2359 64.7322C48.4346 64.5297 48.6716 64.3689 48.9332 64.2591C49.1948 64.1493 49.4757 64.0928 49.7594 64.0928C50.0431 64.0928 50.324 64.1493 50.5856 64.2591C50.8471 64.3689 51.0842 64.5297 51.2829 64.7322C51.4817 64.9347 51.638 65.1748 51.7429 65.4384C51.8478 65.702 51.899 65.9839 51.8937 66.2675V67.4561C51.8936 67.8543 51.782 68.2446 51.5717 68.5826C51.3614 68.9207 51.0607 69.1933 50.7036 69.3694V70.2477C50.7038 70.3946 50.7622 70.5355 50.8662 70.6394C50.9701 70.7434 51.111 70.8018 51.2579 70.802C51.8931 70.7802 52.5258 70.891 53.1157 71.1274C53.7056 71.3637 54.2397 71.7205 54.684 72.1749C55.1283 72.6293 55.4729 73.1714 55.696 73.7665C55.919 74.3616 56.0155 74.9966 55.9793 75.6311H56.2655Z" fill="#313553"/>
<path d="M53.0814 50.88L52.9873 51.0668L49.4862 54.7728C49.4314 54.8317 49.3651 54.8787 49.2913 54.9109C49.2176 54.943 49.1381 54.9596 49.0576 54.9596C48.9342 54.9597 48.8139 54.9212 48.7134 54.8496C48.6467 54.8013 48.5909 54.7394 48.5498 54.668C48.5087 54.5965 48.4833 54.5172 48.4751 54.4353C48.4668 54.3532 48.4762 54.2704 48.5023 54.1923C48.5285 54.1141 48.5709 54.0424 48.6268 53.9819L52.3802 50.0123L52.3591 49.9551C52.4803 49.9099 52.6167 49.8549 52.7613 49.7969C52.7251 49.8549 52.1934 50.6593 53.0814 50.88Z" fill="#313553"/>
<path d="M39.6714 25.3633L41.6532 26.3493C41.2698 27.5499 39.6744 27.156 39.6744 27.156L39.6714 25.3633Z" fill="#B3B3B3"/>
<path d="M40.7878 63.8916V72.3196H37.2288V72.2322L34.8026 69.3699C35.2866 68.2449 35.5446 67.0355 35.5618 65.8109C35.5618 64.3887 34.6263 62.6141 33.8188 61.3449L37.2288 58.9805L40.7878 63.8916Z" fill="#B3B3B3"/>
<path d="M33.1099 22.9473V52.5248L33.073 52.6001C32.5735 52.3749 32.0484 52.2117 31.5093 52.1143L31.5326 51.996V22.9473H33.1099Z" fill="#FF0000"/>
<path d="M27.613 45.572C28.0416 46.4262 27.5656 47.6675 26.6617 47.7805C26.3408 47.8254 26.0138 47.7729 25.7231 47.6299C26.0957 47.0778 26.3803 46.4713 26.5668 45.8319C26.6775 45.566 26.8583 45.2768 27.0345 44.9092C27.2849 45.0724 27.4852 45.3018 27.613 45.572Z" fill="#313553"/>
<path d="M24.6082 51.0854L27.5127 52.0006C27.5127 52.0006 25.9151 53.7669 21.6066 53.9981C18.9045 54.0876 16.2343 53.3939 13.9175 52.0006L17.5767 50.4888L15.2033 48.0287C15.2191 48.0287 14.8907 45.4074 14.9065 45.4052C15.3584 45.3472 18.5416 48.1733 18.8015 47.7997L19.5065 47.9624C20.1977 48.4367 20.9537 48.8086 21.7512 49.0667L21.7775 49.075C22.0088 49.1617 23.7488 49.8003 24.5397 50.0421H24.554L24.5615 50.1867L24.6082 51.0854Z" fill="#B3B3B3"/>
<path d="M25.6553 45.2372C25.5718 45.2969 25.4831 45.3488 25.3902 45.3924C25.3902 45.3924 24.4863 45.195 24.1541 45.1664C23.8889 45.1431 22.3855 45.2169 21.807 45.2508C21.6654 45.256 21.581 45.2613 21.581 45.2613C21.9571 45.5832 22.3539 45.88 22.7689 46.1501C22.9913 46.3132 23.2485 46.4227 23.5202 46.4702C23.792 46.5176 24.071 46.5016 24.3356 46.4236C24.8298 46.093 25.2742 45.6935 25.6553 45.2372ZM14.2527 41.5313C14.6648 41.0793 15.238 41.3287 15.6086 41.581C15.9893 41.8565 16.4511 41.997 16.9207 41.9802C19.3966 41.8175 19.9194 38.1191 20.0745 36.8047C20.0745 36.8047 23.4686 37.1723 24.5646 37.7138C24.6693 37.7666 24.7748 37.8246 24.8772 37.8826C25.9531 38.5145 26.7483 39.5322 27.1015 40.7291L27.0752 40.8044C27.0066 41.0017 26.9463 41.1328 26.9463 41.1328C27.2699 41.8273 27.39 42.5994 27.2928 43.3594C27.1937 43.9213 27.0178 44.467 26.7701 44.9811C26.5358 45.4783 26.2888 45.8669 26.1419 46.2247C25.89 47.0843 25.5068 47.8999 25.006 48.6426C24.8589 48.8179 24.6819 48.9658 24.4833 49.0795C24.2946 49.1862 24.0877 49.2565 23.8731 49.2866C23.2842 49.3553 22.6878 49.3134 22.1143 49.1631C22.0043 49.1367 21.8883 49.1081 21.7806 49.0742L21.7543 49.0659C20.9569 48.8075 20.2009 48.4356 19.5096 47.9617L18.2796 47.799C18.5189 47.5066 18.664 47.1484 18.6955 46.7718C18.727 46.3952 18.6434 46.018 18.4558 45.6899C18.0039 44.9804 17.6777 44.6964 16.5313 45.2041C16.2542 45.3477 16.0258 45.5698 15.8745 45.8428L15.7954 46.1999C15.0256 45.7562 13.3097 43.4377 14.0448 41.8604C14.0955 41.74 14.1657 41.6287 14.2527 41.5313Z" fill="#B3B3B3"/>
<path d="M20.0684 36.7923C20.0699 36.7966 20.0699 36.8014 20.0684 36.8058C19.9057 38.2174 19.3114 42.3708 16.3437 41.958C16.1346 41.9274 15.9376 41.841 15.7735 41.7079C15.4315 41.4345 14.7325 40.9984 14.2489 41.5324C14.162 41.6303 14.0909 41.7411 14.038 41.8608C13.3021 43.4381 14.685 44.7314 15.4548 45.1751L16.0755 45.6014C15.9382 45.8354 15.8623 46.1003 15.855 46.3715C15.8476 46.6426 15.9089 46.9112 16.0333 47.1523C16.3565 48.0645 17.0977 47.9613 17.6633 47.9749L17.5737 50.4877L13.9145 51.9994C12.316 52.2678 10.7649 52.7669 9.30991 53.4811C7.94579 49.6908 12.4351 43.4321 13.684 39.7495C13.815 39.3653 13.6546 36.5527 15.7132 34.232C16.7563 33.3909 17.9781 32.8001 19.2851 32.5048C19.4357 32.4657 19.5803 32.4308 19.7189 32.4001C21.0859 32.1433 22.4992 32.3306 23.7521 32.9345C25.005 33.5384 26.0319 34.5273 26.6826 35.7566C28.4437 39.345 27.0977 40.728 27.0977 40.728C26.7449 39.5312 25.9499 38.5135 24.8741 37.8815C23.9399 37.1104 22.8347 36.5741 21.651 36.317C20.0345 36.0564 20.0579 36.7004 20.0684 36.7923Z" fill="#313553"/>
<path d="M24.8759 37.8839C24.7735 37.8259 24.668 37.7679 24.5626 37.7152C23.4666 37.1736 20.0732 36.806 20.0732 36.806C20.0746 36.8017 20.0746 36.7969 20.0732 36.7926C20.0627 36.7007 20.0393 36.0566 21.6551 36.3195C22.8379 36.5769 23.9423 37.1133 24.8759 37.8839Z" fill="#313553"/>
<path d="M24.5043 49.1199L24.554 50.0404H24.5405C23.7495 49.7986 22.0096 49.1599 21.7783 49.0732C21.8883 49.1071 22.0043 49.1358 22.112 49.1621C22.6855 49.3125 23.282 49.3544 23.8708 49.2857C24.0852 49.2556 24.292 49.1853 24.4802 49.0785L24.5043 49.1199Z" fill="#313553"/>
<path d="M17.5247 47.8463C17.1821 47.8872 16.836 47.8052 16.5482 47.6151C16.2603 47.4249 16.0494 47.1387 15.9526 46.8076C15.8824 46.6099 15.8574 46.3992 15.8793 46.1906C15.9012 45.9821 15.9694 45.7811 16.0792 45.6024C16.1844 45.4259 16.3425 45.287 16.5311 45.2054C16.6939 45.1095 16.8751 45.0493 17.0629 45.0286C17.2508 45.0079 17.4408 45.0271 17.6205 45.0852C17.8003 45.1433 17.9657 45.2388 18.1059 45.3655C18.2461 45.4921 18.3579 45.6471 18.4338 45.8201C18.5471 46.0677 18.5946 46.3403 18.5716 46.6116C18.5486 46.8829 18.456 47.1437 18.3027 47.3687C18.2201 47.4961 18.1113 47.6044 17.9835 47.6864C17.8556 47.7683 17.7118 47.822 17.5616 47.844C17.5495 47.8433 17.5382 47.8463 17.5247 47.8463Z" fill="#FF0000"/>
<path d="M13.9188 64.8458L13.6876 72.3195H6.0542V64.5332L13.9188 64.8458Z" fill="#B3B3B3"/>
<path d="M10.0734 20.1777C10.2585 20.1774 10.4394 20.232 10.5934 20.3346C10.7473 20.4372 10.8673 20.5832 10.9383 20.7541C11.0092 20.925 11.0278 21.113 10.9918 21.2945C10.9558 21.4759 10.8667 21.6427 10.736 21.7735C10.6051 21.9043 10.4384 21.9933 10.257 22.0294C10.0754 22.0654 9.88743 22.0468 9.71652 21.9759C9.54568 21.9049 9.3997 21.7849 9.29711 21.6309C9.19445 21.4769 9.13984 21.296 9.14014 21.111C9.14036 20.8636 9.23874 20.6263 9.41371 20.4513C9.58869 20.2763 9.82596 20.178 10.0734 20.1777Z" fill="#B3B3B3"/>
<path d="M6.39567 20.1777C6.58068 20.1774 6.76162 20.232 6.91557 20.3346C7.06953 20.4372 7.18957 20.5832 7.2605 20.7541C7.33144 20.925 7.35008 21.113 7.31406 21.2945C7.27804 21.4759 7.18898 21.6427 7.05816 21.7735C6.92734 21.9043 6.76064 21.9933 6.57917 22.0294C6.3977 22.0654 6.20963 22.0468 6.03876 21.9759C5.86789 21.9049 5.72192 21.7849 5.61932 21.6309C5.51672 21.4769 5.46211 21.296 5.4624 21.111C5.46261 20.8636 5.561 20.6263 5.73597 20.4513C5.91095 20.2763 6.14821 20.178 6.39567 20.1777Z" fill="#FF0000"/>
<path d="M104.031 106.746C103.503 107.054 102.903 107.215 102.293 107.214H44.2399C43.7866 107.214 43.3376 107.125 42.9188 106.952C42.4999 106.779 42.1193 106.524 41.7987 106.204C41.4782 105.883 41.224 105.503 41.0507 105.084C40.8773 104.665 40.7883 104.216 40.7886 103.763V62.4333C40.7886 61.5178 41.1522 60.6399 41.7993 59.9924C42.4465 59.3449 43.3244 58.9809 44.2399 58.9805H102.293C102.746 58.9803 103.196 59.0695 103.615 59.243C104.034 59.4166 104.415 59.671 104.736 59.9918C105.057 60.3126 105.311 60.6935 105.484 61.1127C105.658 61.5319 105.747 61.9812 105.747 62.4348V103.764C105.747 104.368 105.588 104.961 105.287 105.485C104.986 106.008 104.553 106.443 104.031 106.746Z" stroke="#313553" stroke-width="0.262881" stroke-linecap="round" stroke-linejoin="round"/>
<path d="M56.2661 104.585H46.1267C45.4076 104.585 44.7178 104.299 44.2093 103.791C43.7007 103.282 43.415 102.592 43.415 101.873V64.3171C43.415 63.5979 43.7007 62.9083 44.2093 62.3997C44.7178 61.8912 45.4076 61.6055 46.1267 61.6055H100.406C101.125 61.6055 101.815 61.8912 102.324 62.3997C102.832 62.9083 103.118 63.5979 103.118 64.3171V101.874C103.118 102.594 102.832 103.283 102.324 103.792C101.815 104.301 101.125 104.586 100.406 104.586H56.2661V104.585Z" stroke="#313553" stroke-width="0.262881" stroke-linecap="round" stroke-linejoin="round"/>
<path d="M69.8652 60.5137H74.3417" stroke="#313553" stroke-width="0.262881" stroke-linecap="round" stroke-linejoin="round"/>
<path d="M56.2642 61.6074V75.6313V75.931V89.8253V90.2117V104.283V104.585" stroke="#313553" stroke-width="0.262881" stroke-linecap="round" stroke-linejoin="round"/>
<path d="M90.4375 61.6074V75.6313V75.931V89.8253V90.2117V104.283V104.585" stroke="#313553" stroke-width="0.262881" stroke-linecap="round" stroke-linejoin="round"/>
<path d="M43.416 75.9307H43.8687H56.2648" stroke="#313553" stroke-width="0.262881" stroke-linecap="round" stroke-linejoin="round"/>
<path d="M43.416 90.2109H43.8687H56.2648" stroke="#313553" stroke-width="0.262881" stroke-linecap="round" stroke-linejoin="round"/>
<path d="M55.9812 75.631C56.0168 74.9968 55.92 74.3622 55.6967 73.7676C55.4734 73.1729 55.1287 72.6314 54.6845 72.1773C54.2402 71.7233 53.7063 71.3669 53.1167 71.1308C52.5271 70.8946 51.8947 70.7839 51.2599 70.8057C51.1129 70.8055 50.972 70.7471 50.8681 70.6431C50.7642 70.5392 50.7057 70.3983 50.7055 70.2514V69.3693C51.0626 69.1932 51.3633 68.9207 51.5737 68.5825C51.784 68.2444 51.8955 67.8542 51.8956 67.4561V66.2675C51.8852 65.7083 51.6556 65.1756 51.2565 64.784C50.8574 64.3923 50.3205 64.1729 49.7613 64.1729C49.2021 64.1729 48.6652 64.3923 48.2661 64.784C47.867 65.1756 47.6375 65.7083 47.627 66.2675V67.4561C47.6267 67.854 47.7379 68.2441 47.9478 68.5823C48.1578 68.9204 48.4581 69.193 48.8149 69.3693V70.2476C48.8147 70.3945 48.7562 70.5354 48.6523 70.6393C48.5484 70.7433 48.4074 70.8017 48.2605 70.802H48.0134C45.7341 70.802 43.8706 72.4237 43.8706 75.7357" stroke="#313553" stroke-width="0.262881" stroke-linecap="round" stroke-linejoin="round"/>
<path d="M55.9819 89.8247C56.018 89.1905 55.9214 88.5555 55.6983 87.9605C55.4753 87.3654 55.1306 86.8231 54.6863 86.3689C54.2421 85.9147 53.708 85.5584 53.1181 85.3219C52.5283 85.0853 51.8957 84.9746 51.2606 84.9965C51.1136 84.9957 50.9728 84.937 50.869 84.833C50.7651 84.7291 50.7066 84.5882 50.7062 84.4413V83.5638C51.0632 83.3875 51.3639 83.1156 51.5743 82.7774C51.7847 82.44 51.8965 82.0498 51.8971 81.6521V80.4619C51.8866 79.903 51.6571 79.3705 51.258 78.9788C50.8588 78.5871 50.322 78.3672 49.7628 78.3672C49.2036 78.3672 48.6667 78.5871 48.2675 78.9788C47.8685 79.3705 47.639 79.903 47.6285 80.4619V81.6521C47.628 82.0505 47.7391 82.4407 47.9491 82.7789C48.159 83.1171 48.4594 83.3898 48.8163 83.5661V84.4391C48.8163 84.5859 48.758 84.7276 48.654 84.8315C48.5501 84.9354 48.4091 84.9942 48.262 84.9942H48.0149C45.7356 84.9942 43.8721 86.6159 43.8721 89.9279" stroke="#313553" stroke-width="0.262881" stroke-linecap="round" stroke-linejoin="round"/>
<path d="M55.9809 104.284C56.0172 103.649 55.9207 103.014 55.6976 102.419C55.4746 101.824 55.13 101.282 54.6857 100.828C54.2414 100.373 53.7073 100.017 53.1174 99.7801C52.5275 99.5436 51.8948 99.4328 51.2597 99.4547C51.1127 99.4547 50.9718 99.3959 50.8679 99.292C50.7639 99.188 50.7055 99.0472 50.7053 98.9003V98.022C51.0624 97.8458 51.3632 97.5731 51.5736 97.2356C51.7839 96.8974 51.8954 96.5073 51.8954 96.1088V94.9209C51.8849 94.362 51.6554 93.8295 51.2563 93.4378C50.8572 93.0461 50.3203 92.8262 49.761 92.8262C49.2018 92.8262 48.665 93.0461 48.2659 93.4378C47.8668 93.8295 47.6373 94.362 47.6267 94.9209V96.1088C47.6264 96.5065 47.7374 96.8967 47.9473 97.2349C48.1572 97.5731 48.4577 97.8458 48.8146 98.022V98.9026C48.8146 99.0494 48.7562 99.1903 48.6523 99.2943C48.5483 99.3982 48.4072 99.4569 48.2602 99.4569H48.0132C45.9794 99.4569 44.2726 100.75 43.9307 103.384" stroke="#313553" stroke-width="0.262881" stroke-linecap="round" stroke-linejoin="round"/>
<path d="M103.118 75.9307H102.603H90.4688" stroke="#313553" stroke-width="0.262881" stroke-linecap="round" stroke-linejoin="round"/>
<path d="M103.118 90.2109H102.603H90.4688" stroke="#313553" stroke-width="0.262881" stroke-linecap="round" stroke-linejoin="round"/>
<path d="M90.4905 75.6301C90.4551 74.9961 90.5516 74.3617 90.7745 73.7672C90.9975 73.1728 91.3417 72.6313 91.7861 72.1773C92.2298 71.7233 92.7638 71.3669 93.3529 71.1305C93.9419 70.8942 94.5746 70.7833 95.2088 70.8048C95.3565 70.8044 95.4981 70.746 95.6035 70.6421C95.7075 70.5381 95.7655 70.3973 95.7662 70.2504V69.3684C95.4092 69.1923 95.1079 68.9198 94.8978 68.5817C94.6876 68.2436 94.5754 67.8534 94.5754 67.4551V66.2665C94.5754 65.7004 94.8006 65.1574 95.2006 64.7571C95.6005 64.3568 96.1436 64.1318 96.7101 64.1318C97.2765 64.1318 97.8188 64.3568 98.2195 64.7571C98.6195 65.1574 98.8447 65.7004 98.8447 66.2665V67.4551C98.8447 67.8534 98.7325 68.2436 98.5223 68.5817C98.3122 68.9198 98.0109 69.1923 97.6539 69.3684V70.2466C97.6546 70.394 97.7134 70.5351 97.8181 70.6391C97.9228 70.743 98.0636 70.8013 98.2113 70.801H98.4553C100.737 70.801 102.603 72.4228 102.603 75.7348" stroke="#313553" stroke-width="0.262881" stroke-linecap="round" stroke-linejoin="round"/>
<path d="M90.4898 89.8246C90.4537 89.1904 90.5501 88.5554 90.7731 87.9611C90.996 87.366 91.3402 86.8245 91.7839 86.3703C92.2283 85.9153 92.7616 85.559 93.3514 85.3225C93.9412 85.086 94.5732 84.9745 95.2081 84.9963C95.3565 84.9963 95.4981 84.9376 95.6028 84.8329C95.7068 84.7289 95.7655 84.5881 95.7655 84.4412V83.5637C95.4085 83.3874 95.1072 83.1147 94.897 82.7765C94.6861 82.4383 94.5747 82.0482 94.5747 81.6497V80.4618C94.5747 79.8954 94.7999 79.3531 95.1998 78.9523C95.6006 78.5524 96.1429 78.3271 96.7093 78.3271C97.2758 78.3271 97.8189 78.5524 98.2188 78.9523C98.6188 79.3531 98.844 79.8954 98.844 80.4618V81.652C98.844 82.0504 98.7325 82.4406 98.5216 82.7788C98.3115 83.117 98.0102 83.3897 97.6531 83.5659V84.4389C97.6539 84.5866 97.7127 84.7274 97.8174 84.8314C97.9221 84.9353 98.0629 84.9941 98.2105 84.9941H98.4546C100.736 84.9941 102.603 86.6158 102.603 89.9278" stroke="#313553" stroke-width="0.262881" stroke-linecap="round" stroke-linejoin="round"/>
<path d="M90.4898 104.283C90.4537 103.648 90.5501 103.013 90.7731 102.418C90.9953 101.824 91.3395 101.282 91.7839 100.828C92.2276 100.373 92.7616 100.016 93.3514 99.7798C93.9404 99.5432 94.5732 99.4318 95.2081 99.4536C95.2812 99.4536 95.3535 99.44 95.4213 99.4122C95.4883 99.3843 95.5501 99.3436 95.6021 99.2924C95.6533 99.2404 95.6947 99.1794 95.7226 99.1116C95.7512 99.0446 95.7655 98.9723 95.7655 98.8992V98.0209C95.4085 97.8447 95.1072 97.5728 94.897 97.2346C94.6861 96.8963 94.5747 96.5062 94.5747 96.1077V94.9198C94.5747 94.3534 94.7999 93.8111 95.1998 93.4103C95.6006 93.0104 96.1429 92.7852 96.7093 92.7852C97.2758 92.7852 97.8181 93.0104 98.2188 93.4103C98.6188 93.8111 98.844 94.3534 98.844 94.9198V96.1077C98.844 96.5062 98.7325 96.8963 98.5216 97.2346C98.3115 97.5728 98.0102 97.8447 97.6531 98.0209V98.9015C97.6539 99.0491 97.7127 99.19 97.8174 99.2939C97.9221 99.3979 98.0629 99.4559 98.2105 99.4559H98.4546C100.488 99.4559 102.197 100.749 102.539 103.383" stroke="#313553" stroke-width="0.262881" stroke-linecap="round" stroke-linejoin="round"/>
<path d="M90.4375 58.9787V49.4969V45.4941H146.809V49.4969V83.0967H105.747" stroke="#313553" stroke-width="0.262881" stroke-linecap="round" stroke-linejoin="round"/>
<path d="M90.4375 49.4971H146.809" stroke="#313553" stroke-width="0.262881" stroke-linecap="round" stroke-linejoin="round"/>
<path d="M94.0791 47.6589C94.0791 47.8438 94.0248 48.0246 93.9224 48.1785C93.82 48.3324 93.6738 48.4525 93.5028 48.5234C93.3326 48.5945 93.1443 48.6132 92.9628 48.5774C92.782 48.5416 92.6148 48.4527 92.4845 48.3222C92.3534 48.1915 92.2638 48.0251 92.2276 47.8437C92.1915 47.6624 92.2095 47.4744 92.2803 47.3035C92.3511 47.1326 92.4709 46.9864 92.6246 46.8836C92.7782 46.7807 92.9582 46.7257 93.1435 46.7256C93.2663 46.7254 93.3876 46.7494 93.5013 46.7962C93.6143 46.8429 93.7175 46.9116 93.8049 46.9983C93.8915 47.085 93.9608 47.1879 94.0075 47.3013C94.055 47.4147 94.0791 47.5361 94.0791 47.6589Z" stroke="#313553" stroke-width="0.262881" stroke-linecap="round" stroke-linejoin="round"/>
<path d="M97.7558 47.6589C97.7558 47.8437 97.7016 48.0246 97.5992 48.1784C97.4967 48.3323 97.3506 48.4524 97.1804 48.5234C97.0094 48.5944 96.8218 48.6132 96.6403 48.5774C96.4587 48.5417 96.2923 48.4529 96.1612 48.3224C96.0302 48.1918 95.9413 48.0255 95.9044 47.8442C95.8682 47.6629 95.8863 47.4749 95.9571 47.304C96.0271 47.1331 96.1469 46.9869 96.3006 46.8839C96.4542 46.781 96.635 46.7259 96.8196 46.7256C96.9423 46.7253 97.0644 46.7492 97.1773 46.7959C97.2911 46.8427 97.3943 46.9114 97.4809 46.9981C97.5683 47.0847 97.6376 47.1877 97.6843 47.3011C97.7317 47.4145 97.7558 47.5361 97.7558 47.6589Z" stroke="#313553" stroke-width="0.262881" stroke-linecap="round" stroke-linejoin="round"/>
<path d="M101.435 47.6589C101.435 47.8438 101.38 48.0246 101.278 48.1785C101.175 48.3324 101.029 48.4525 100.859 48.5234C100.688 48.5945 100.5 48.6132 100.319 48.5774C100.137 48.5416 99.9702 48.4527 99.8399 48.3222C99.7089 48.1915 99.6192 48.0251 99.5831 47.8437C99.5469 47.6624 99.565 47.4744 99.6358 47.3035C99.7066 47.1326 99.8264 46.9864 99.98 46.8836C100.134 46.7807 100.314 46.7257 100.499 46.7256C100.622 46.7253 100.743 46.7492 100.857 46.7959C100.971 46.8427 101.074 46.9114 101.16 46.9981C101.247 47.0848 101.316 47.1878 101.363 47.3011C101.41 47.4146 101.435 47.5361 101.435 47.6589Z" stroke="#313553" stroke-width="0.262881" stroke-linecap="round" stroke-linejoin="round"/>
<path d="M40.788 72.319H37.229H33.1095H13.6864H6.05304H3.69238V22.9478V18.9443H81.0923V22.9478V58.9783" stroke="#313553" stroke-width="0.262881" stroke-linecap="round" stroke-linejoin="round"/>
<path d="M3.69238 22.9473H31.5322H33.1095H81.0923" stroke="#313553" stroke-width="0.262881" stroke-linecap="round" stroke-linejoin="round"/>
<path d="M7.33097 21.111C7.33127 21.2959 7.27672 21.4768 7.17422 21.6307C7.07172 21.7845 6.92587 21.9046 6.75514 21.9756C6.5844 22.0466 6.39644 22.0654 6.21503 22.0296C6.03363 21.9937 5.86692 21.9049 5.73602 21.7743C5.6051 21.6437 5.51587 21.4772 5.47959 21.2959C5.44332 21.1145 5.46163 20.9266 5.53222 20.7557C5.60281 20.5848 5.7225 20.4387 5.87616 20.3358C6.02982 20.2329 6.21053 20.1779 6.39544 20.1777C6.64323 20.1775 6.88096 20.2757 7.05638 20.4507C7.2318 20.6258 7.33057 20.8633 7.33097 21.111Z" stroke="#313553" stroke-width="0.262881" stroke-linecap="round" stroke-linejoin="round"/>
<path d="M11.0097 21.111C11.01 21.2959 10.9555 21.4767 10.853 21.6306C10.7505 21.7845 10.6047 21.9045 10.434 21.9756C10.2633 22.0466 10.0754 22.0654 9.89402 22.0297C9.71264 21.9939 9.54594 21.9051 9.41503 21.7745C9.28404 21.6441 9.19478 21.4776 9.1584 21.2964C9.12202 21.1151 9.14025 20.9271 9.21075 20.7562C9.28118 20.5852 9.40079 20.4391 9.55431 20.3361C9.70789 20.2332 9.88852 20.178 10.0734 20.1777C10.1961 20.1775 10.3178 20.2015 10.4312 20.2483C10.5447 20.2951 10.6479 20.3638 10.7349 20.4505C10.8218 20.5371 10.8908 20.6401 10.9379 20.7534C10.9851 20.8667 11.0095 20.9882 11.0097 21.111Z" stroke="#313553" stroke-width="0.262881" stroke-linecap="round" stroke-linejoin="round"/>
<path d="M14.6903 21.111C14.6906 21.2959 14.6361 21.4768 14.5336 21.6307C14.4311 21.7845 14.2852 21.9046 14.1145 21.9756C13.9438 22.0466 13.7558 22.0654 13.5744 22.0296C13.393 21.9937 13.2263 21.9049 13.0954 21.7743C12.9645 21.6437 12.8752 21.4772 12.839 21.2959C12.8027 21.1145 12.821 20.9266 12.8916 20.7557C12.9622 20.5848 13.0819 20.4387 13.2356 20.3358C13.3892 20.2329 13.5699 20.1779 13.7548 20.1777C14.0026 20.1775 14.2403 20.2757 14.4157 20.4507C14.5912 20.6258 14.6899 20.8633 14.6903 21.111Z" stroke="#313553" stroke-width="0.262881" stroke-linecap="round" stroke-linejoin="round"/>
<path d="M66.32 123.598L43.1797 107.214V108.118C43.1795 108.733 43.3269 109.339 43.6097 109.885C43.8924 110.431 44.3022 110.902 44.8044 111.257L72.2977 130.724C73.4436 131.533 74.8117 131.968 76.2146 131.97H132.793C133.157 131.97 133.518 131.898 133.856 131.759C134.192 131.62 134.498 131.415 134.756 131.157C135.014 130.9 135.218 130.594 135.358 130.257C135.498 129.92 135.569 129.559 135.569 129.194V129.078" stroke="#313553" stroke-width="0.262881" stroke-linecap="round" stroke-linejoin="round"/>
<path d="M104.031 106.746L135.566 129.076H74.0562" stroke="#313553" stroke-width="0.262881" stroke-linecap="round" stroke-linejoin="round"/>
<path d="M99.3149 56.3096H137.93" stroke="#313553" stroke-width="0.262881" stroke-linecap="round" stroke-linejoin="round"/>
<path d="M106.149 64.9844H137.929" stroke="#313553" stroke-width="0.262881" stroke-linecap="round" stroke-linejoin="round"/>
<path d="M106.149 73.6592H137.929" stroke="#313553" stroke-width="0.262881" stroke-linecap="round" stroke-linejoin="round"/>
<path d="M26.1802 96.1875H38.9657" stroke="#313553" stroke-width="0.262881" stroke-linecap="round" stroke-linejoin="round"/>
<path d="M107.668 96.1875H125.71" stroke="#313553" stroke-width="0.262881" stroke-linecap="round" stroke-linejoin="round"/>
<path d="M66.3203 123.599L74.0561 129.076V131.55" stroke="#313553" stroke-width="0.262881" stroke-linecap="round" stroke-linejoin="round"/>
<path d="M88.5141 126.974L82.5288 122.736H106.536" stroke="#313553" stroke-width="0.262881" stroke-linecap="round" stroke-linejoin="round"/>
<path d="M106.595 122.736L112.581 126.974H88.5732" stroke="#313553" stroke-width="0.262881" stroke-linecap="round" stroke-linejoin="round"/>
<path d="M118.614 120.676H102.069H68.6703L57.3408 112.653L53.0142 109.588H71.4143H102.958L113.753 117.235L118.614 120.676Z" stroke="#313553" stroke-width="0.262881" stroke-linecap="round" stroke-linejoin="round"/>
<path d="M57.3413 112.651H75.7415H100.506" stroke="#313553" stroke-width="0.262881" stroke-linecap="round" stroke-linejoin="round"/>
<path d="M70.4844 117.383H97.5589H113.649" stroke="#313553" stroke-width="0.262881" stroke-linecap="round" stroke-linejoin="round"/>
<path d="M71.4141 109.588L75.7407 112.653L80.2511 115.847" stroke="#313553" stroke-width="0.262881" stroke-linecap="round" stroke-linejoin="round"/>
<path d="M93.2314 114.318L97.5581 117.383L102.068 120.577" stroke="#313553" stroke-width="0.262881" stroke-linecap="round" stroke-linejoin="round"/>
<path d="M79.5188 86.9258C80.2366 86.9258 80.9469 87.0674 81.6098 87.3423C82.2726 87.6165 82.8745 88.0195 83.3822 88.5264C83.8891 89.0341 84.2913 89.6367 84.5663 90.2995C84.8404 90.9624 84.9813 91.6727 84.9813 92.3905C84.9828 92.4079 84.9828 92.4259 84.9813 92.4433C84.9813 93.8917 84.4058 95.2807 83.3814 96.3051C82.3578 97.3288 80.9688 97.9043 79.5203 97.9043C78.0718 97.9043 76.6828 97.3288 75.6584 96.3051C74.6346 95.2807 74.0592 93.8917 74.0592 92.4433C74.0577 92.4259 74.0577 92.4079 74.0592 92.3905C74.0589 90.9421 74.6338 89.5523 75.6577 88.5279C76.6813 87.5028 78.0703 86.9265 79.5188 86.9258Z" stroke="#313553" stroke-width="0.262881" stroke-linecap="round" stroke-linejoin="round"/>
<path d="M79.5186 83.4609V86.9251V92.4426V97.8524V100.899" stroke="#313553" stroke-width="0.262881" stroke-linecap="round" stroke-linejoin="round"/>
<path d="M88.2371 92.4434H84.9778H79.5183H74.0589H70.7988" stroke="#313553" stroke-width="0.262881" stroke-linecap="round" stroke-linejoin="round"/>
<path d="M59.6323 41.9397C59.6658 40.5136 60.2559 39.1571 61.2764 38.1603C62.2969 37.1635 63.6668 36.6055 65.0933 36.6055C66.5199 36.6055 67.8898 37.1635 68.9103 38.1603C69.9308 39.1571 70.5209 40.5136 70.5543 41.9397C70.5554 41.9583 70.5554 41.9769 70.5543 41.9954C70.5411 43.2823 70.0741 44.5232 69.2355 45.4994C68.397 46.4756 67.2407 47.1245 65.9705 47.3315C64.7004 47.5387 63.3979 47.2907 62.2927 46.6315C61.1875 45.9722 60.3504 44.9439 59.9291 43.7279" stroke="#313553" stroke-width="0.262881" stroke-linecap="round" stroke-linejoin="round"/>
<path d="M65.0947 33.0117V36.4766V41.9941V47.4009V50.45" stroke="#313553" stroke-width="0.262881" stroke-linecap="round" stroke-linejoin="round"/>
<path d="M59.9024 41.9951H59.632H56.375" stroke="#313553" stroke-width="0.262881" stroke-linecap="round" stroke-linejoin="round"/>
<path d="M73.8131 41.9951H70.5539H65.0944H61.7266" stroke="#313553" stroke-width="0.262881" stroke-linecap="round" stroke-linejoin="round"/>
<path d="M59.4849 70.8845V74.4149L68.1306 73.4003L78.4243 72.1914V76.6912V78.5284L76.6053 77.6215L68.1306 73.4003L61.4644 70.0778L59.4849 69.0918V70.8845Z" stroke="#313553" stroke-width="0.262881" stroke-linecap="round" stroke-linejoin="round"/>
<path d="M59.4849 70.8809C59.4849 70.8809 61.078 71.2756 61.4644 70.0742" stroke="#313553" stroke-width="0.262881" stroke-linecap="round" stroke-linejoin="round"/>
<path d="M76.6025 77.62C76.7901 77.3119 77.059 77.0611 77.3806 76.8969C77.7015 76.7327 78.0623 76.6611 78.4216 76.6897" stroke="#313553" stroke-width="0.262881" stroke-linecap="round" stroke-linejoin="round"/>
<path d="M39.6714 27.156V30.6887L48.3193 29.6718L58.6101 28.4621V32.9627V34.7999L56.791 33.893L48.3193 29.6718L41.6501 26.3493L39.6714 25.3633V27.156Z" stroke="#313553" stroke-width="0.262881" stroke-linecap="round" stroke-linejoin="round"/>
<path d="M39.6714 27.1563C39.6714 27.1563 41.2667 27.5503 41.6501 26.3496" stroke="#313553" stroke-width="0.262881" stroke-linecap="round" stroke-linejoin="round"/>
<path d="M56.793 33.8964C56.9803 33.5881 57.2496 33.3378 57.5708 33.1735C57.8919 33.0093 58.2524 32.9375 58.612 32.9661" stroke="#313553" stroke-width="0.262881" stroke-linecap="round" stroke-linejoin="round"/>
<path d="M70.788 89.8695H64.3794V87.2407V83.4609H68.1599H70.788V89.8695Z" stroke="#313553" stroke-width="0.262881" stroke-linecap="round" stroke-linejoin="round"/>
<path d="M68.1605 87.2406H64.38H61.752V80.832H68.1605V83.4608V87.2406Z" stroke="#313553" stroke-width="0.262881" stroke-linecap="round" stroke-linejoin="round"/>
<path d="M61.752 80.832L64.38 83.4608" stroke="#313553" stroke-width="0.262881" stroke-linecap="round" stroke-linejoin="round"/>
<path d="M68.1602 80.832L70.7882 83.4608" stroke="#313553" stroke-width="0.262881" stroke-linecap="round" stroke-linejoin="round"/>
<path d="M68.1602 87.2422L70.7882 89.871" stroke="#313553" stroke-width="0.262881" stroke-linecap="round" stroke-linejoin="round"/>
<path d="M61.752 87.2422L64.38 89.871" stroke="#313553" stroke-width="0.262881" stroke-linecap="round" stroke-linejoin="round"/>
<path d="M47.1356 48.5472H40.7271V45.9184V42.1387H44.5076H47.1356V48.5472Z" stroke="#313553" stroke-width="0.262881" stroke-linecap="round" stroke-linejoin="round"/>
<path d="M44.5082 45.9193H40.7277H38.0996V39.5107H44.5082V42.1396V45.9193Z" stroke="#313553" stroke-width="0.262881" stroke-linecap="round" stroke-linejoin="round"/>
<path d="M38.0996 39.5107L40.7277 42.1396" stroke="#313553" stroke-width="0.262881" stroke-linecap="round" stroke-linejoin="round"/>
<path d="M44.5068 39.5107L47.1349 42.1396" stroke="#313553" stroke-width="0.262881" stroke-linecap="round" stroke-linejoin="round"/>
<path d="M44.5068 45.9199L47.1349 48.5487" stroke="#313553" stroke-width="0.262881" stroke-linecap="round" stroke-linejoin="round"/>
<path d="M38.0996 45.9199L40.7277 48.5487" stroke="#313553" stroke-width="0.262881" stroke-linecap="round" stroke-linejoin="round"/>
<path d="M61.4883 98.0679C61.4883 98.0679 60.4127 98.5048 60.3585 99.2671C60.3042 100.029 61.2864 100.032 61.7226 99.5955C61.7386 99.075 61.6839 98.5553 61.5598 98.0498C61.5151 97.8758 61.4507 97.7071 61.3678 97.5474C60.9603 96.7852 60.277 96.8929 60.0322 97.4111" stroke="#313553" stroke-width="0.262881" stroke-linecap="round" stroke-linejoin="round"/>
<path d="M82.2866 66.5124C82.2866 66.5124 81.211 66.9485 81.1567 67.7138C81.1025 68.4791 82.0847 68.4791 82.5208 68.0423C82.5367 67.5213 82.4824 67.0006 82.3581 66.4943C82.3137 66.3209 82.2497 66.1533 82.1661 65.9949C81.7586 65.2297 81.0754 65.3404 80.8306 65.8579" stroke="#313553" stroke-width="0.262881" stroke-linecap="round" stroke-linejoin="round"/>
<path d="M63.0659 97.8535H64.3803" stroke="#313553" stroke-width="0.262881" stroke-linecap="round" stroke-linejoin="round"/>
<path d="M63.0659 98.9053H64.3803" stroke="#313553" stroke-width="0.262881" stroke-linecap="round" stroke-linejoin="round"/>
<path d="M65.6055 97.5241C65.671 96.6955 67.6483 96.6805 67.2671 98.1154C67.0065 99.0909 65.6446 99.89 65.6446 99.89H67.8742" stroke="#313553" stroke-width="0.262881" stroke-linecap="round" stroke-linejoin="round"/>
<path d="M74.6978 65.9251C74.7655 65.1003 76.7428 65.0814 76.3549 66.5141C76.095 67.4933 74.7354 68.291 74.7354 68.291H76.962" stroke="#313553" stroke-width="0.262881" stroke-linecap="round" stroke-linejoin="round"/>
<path d="M70.1416 64.8654C70.186 64.3102 71.514 64.2997 71.2564 65.2623C71.0824 65.9139 70.1703 66.4525 70.1703 66.4525H71.6631" stroke="#313553" stroke-width="0.262881" stroke-linecap="round" stroke-linejoin="round"/>
<path d="M69.3276 99.4093C70.2315 100.456 71.6122 99.7958 71.1437 98.7314C70.6752 97.6671 69.412 98.4286 69.3276 99.4093Z" stroke="#313553" stroke-width="0.262881" stroke-linecap="round" stroke-linejoin="round"/>
<path d="M70.1575 96.5205C69.6159 97.096 68.425 98.3607 69.3289 99.4092" stroke="#313553" stroke-width="0.262881" stroke-linecap="round" stroke-linejoin="round"/>
<path d="M78.7319 65.7109V66.55V67.3884" stroke="#313553" stroke-width="0.262881" stroke-linecap="round" stroke-linejoin="round"/>
<path d="M77.7954 66.5488H78.7309H79.5987" stroke="#313553" stroke-width="0.262881" stroke-linecap="round" stroke-linejoin="round"/>
<path d="M73.956 64.459C73.1809 64.6955 72.5369 66.1703 72.7787 67.2083C72.8431 67.6509 73.0212 68.0692 73.2955 68.4225C73.5699 68.7757 73.931 69.0519 74.3439 69.224" stroke="#313553" stroke-width="0.262881" stroke-linecap="round" stroke-linejoin="round"/>
<path d="M83.1027 64.459C83.8778 64.6955 84.5218 66.1703 84.28 67.2083C84.2153 67.6503 84.0367 68.068 83.7626 68.4209C83.4891 68.7738 83.1283 69.0499 82.7163 69.2225" stroke="#313553" stroke-width="0.262881" stroke-linecap="round" stroke-linejoin="round"/>
<path d="M31.5317 22.9473V51.999" stroke="#313553" stroke-width="0.262881" stroke-linecap="round" stroke-linejoin="round"/>
<path d="M33.1099 22.9473V52.5248" stroke="#313553" stroke-width="0.262881" stroke-linecap="round" stroke-linejoin="round"/>
<path d="M13.9178 63.5162V64.8464L6.0532 64.5338L5.18848 64.4999C5.18848 64.4999 5.24648 58.3693 6.86519 55.5966C7.47042 54.6806 8.31638 53.949 9.3102 53.4823C10.766 52.7667 12.3181 52.2666 13.9178 51.9977C16.2346 53.3909 18.9048 54.0847 21.6069 53.9953C25.9154 53.764 27.513 51.9977 27.513 51.9977C28.8439 51.8484 30.1892 51.8881 31.509 52.1159C32.0481 52.2134 32.5732 52.3765 33.0727 52.6018C33.4534 52.7724 33.8042 53.0034 34.1114 53.2857C35.6098 54.8407 36.9241 56.5631 38.0283 58.419L37.2268 58.9764L33.8191 61.3454" stroke="#313553" stroke-width="0.262881" stroke-linecap="round" stroke-linejoin="round"/>
<path d="M6.0542 64.5332V72.3195" stroke="#313553" stroke-width="0.262881" stroke-linecap="round" stroke-linejoin="round"/>
<path d="M13.9178 64.8457L13.6865 72.3194" stroke="#313553" stroke-width="0.262881" stroke-linecap="round" stroke-linejoin="round"/>
<path d="M32.6592 59.7031C32.6592 59.7031 33.2008 60.3765 33.8184 61.3437C34.6259 62.6129 35.5592 64.3875 35.5614 65.8096C35.5441 67.0343 35.2861 68.2436 34.8022 69.3687C34.3761 70.3982 33.806 71.3619 33.1089 72.231" stroke="#313553" stroke-width="0.262881" stroke-linecap="round" stroke-linejoin="round"/>
<path d="M26.6909 64.5332C26.6909 64.5332 26.8905 68.2602 25.5 69.9347" stroke="#313553" stroke-width="0.262881" stroke-linecap="round" stroke-linejoin="round"/>
<path d="M26.189 41.7742C25.95 41.6702 25.6956 41.6061 25.4358 41.5843C25.1917 41.533 24.9381 41.5486 24.7021 41.6295" stroke="#313553" stroke-width="0.262881" stroke-linecap="round" stroke-linejoin="round"/>
<path d="M20.6606 41.5039C20.9546 41.4313 21.253 41.3785 21.554 41.3458C21.7992 41.2982 22.0526 41.3175 22.2876 41.4015" stroke="#313553" stroke-width="0.262881" stroke-linecap="round" stroke-linejoin="round"/>
<path d="M24.3594 40.7686C24.2581 40.9822 24.2067 41.2161 24.2089 41.4525C24.2111 41.6889 24.2669 41.9218 24.3722 42.1334C24.5274 42.6539 25.0245 43.2083 24.9372 43.7002C24.8498 44.192 23.9436 44.3886 23.4126 44.244" stroke="#313553" stroke-width="0.262881" stroke-linecap="round" stroke-linejoin="round"/>
<path d="M21.7515 49.0662C20.954 48.808 20.198 48.4362 19.5068 47.9619" stroke="#313553" stroke-width="0.262881" stroke-linecap="round" stroke-linejoin="round"/>
<path d="M26.7679 44.9805C26.5344 45.4776 26.2873 45.8663 26.1397 46.2241C25.8877 47.0835 25.5048 47.899 25.0045 48.642C24.856 48.8176 24.6775 48.9656 24.4773 49.0788C24.289 49.1856 24.0822 49.2559 23.8679 49.286C23.279 49.3547 22.6825 49.3128 22.1091 49.1625C21.9984 49.1361 21.8831 49.1075 21.7754 49.0736" stroke="#313553" stroke-width="0.262881" stroke-linecap="round" stroke-linejoin="round"/>
<path d="M27.072 40.8047C27.0035 41.002 26.9432 41.1331 26.9432 41.1331C27.2672 41.8276 27.3875 42.5996 27.2904 43.3597C27.1896 43.9218 27.0122 44.4675 26.7632 44.9814" stroke="#313553" stroke-width="0.262881" stroke-linecap="round" stroke-linejoin="round"/>
<path d="M19.9985 40.5621C20.661 40.1484 21.4392 39.9593 22.2176 40.0228C23.0687 40.1674 23.1162 40.4619 23.1215 40.4747" stroke="#313553" stroke-width="0.262881" stroke-linecap="round" stroke-linejoin="round"/>
<path d="M26.7925 40.1069C26.5429 40.0828 26.291 40.0978 26.0461 40.1513C25.6805 40.2208 25.3211 40.3193 24.9712 40.4458" stroke="#313553" stroke-width="0.262881" stroke-linecap="round" stroke-linejoin="round"/>
<path d="M25.6572 45.2362C25.5738 45.2959 25.485 45.3478 25.392 45.3914C25.028 45.5438 24.6381 45.6252 24.2434 45.6309C23.4204 45.5956 22.604 45.4693 21.8089 45.2543C21.6379 45.2121 21.5196 45.179 21.4805 45.1699" stroke="#313553" stroke-width="0.262881" stroke-linecap="round" stroke-linejoin="round"/>
<path d="M21.4668 45.167C21.4668 45.167 21.5112 45.2039 21.5828 45.2664C21.959 45.5883 22.3558 45.8852 22.7707 46.1552C22.9932 46.3183 23.2502 46.4278 23.522 46.4753C23.7938 46.5228 24.0728 46.5068 24.3374 46.4287C24.8327 46.0969 25.2779 45.6959 25.6593 45.2378" stroke="#313553" stroke-width="0.262881" stroke-linecap="round" stroke-linejoin="round"/>
<path d="M24.5034 49.1211L24.5531 50.0416L24.5607 50.1862L24.6081 51.0848" stroke="#313553" stroke-width="0.262881" stroke-linecap="round" stroke-linejoin="round"/>
<path d="M27.5134 51.9992L24.6089 51.084" stroke="#313553" stroke-width="0.262881" stroke-linecap="round" stroke-linejoin="round"/>
<path d="M17.6664 47.9746L17.5767 50.4874L13.9175 51.9992" stroke="#313553" stroke-width="0.262881" stroke-linecap="round" stroke-linejoin="round"/>
<path d="M15.9781 41.8879C15.9781 41.8879 14.9138 40.8047 14.2517 41.5331C14.1648 41.631 14.0937 41.7418 14.0408 41.8615C13.3049 43.4388 14.8769 45.1705 16.0745 45.6021" stroke="#313553" stroke-width="0.262881" stroke-linecap="round" stroke-linejoin="round"/>
<path d="M14.252 41.5322V41.5378" stroke="#313553" stroke-width="0.262881" stroke-linecap="round" stroke-linejoin="round"/>
<path d="M18.3027 47.3681C18.4574 47.1437 18.5509 46.8828 18.5738 46.6112C18.5968 46.3396 18.5485 46.0667 18.4338 45.8194C18.3574 45.6469 18.2454 45.4924 18.1052 45.366C17.9649 45.2397 17.7996 45.1444 17.62 45.0864C17.4404 45.0284 17.2505 45.0089 17.0629 45.0293C16.8753 45.0498 16.6941 45.1096 16.5311 45.2048C16.3436 45.288 16.1859 45.4265 16.0792 45.6017C15.9694 45.7805 15.9012 45.9814 15.8793 46.19C15.8574 46.3986 15.8824 46.6093 15.9526 46.8069C16.0506 47.1373 16.262 47.4225 16.5495 47.6125C16.837 47.8025 17.1823 47.885 17.5247 47.8456C17.5352 47.8456 17.5457 47.8456 17.5563 47.8456C17.7075 47.8238 17.8524 47.7699 17.9811 47.6875C18.1098 47.6051 18.2194 47.4963 18.3027 47.3681Z" stroke="#313553" stroke-width="0.262881" stroke-linecap="round" stroke-linejoin="round"/>
<path d="M25.7212 47.6311C26.0116 47.7753 26.3388 47.8278 26.6598 47.7817C27.5637 47.6687 28.0397 46.4259 27.6119 45.5732C27.4843 45.3022 27.2827 45.0727 27.0304 44.9111" stroke="#313553" stroke-width="0.262881" stroke-linecap="round" stroke-linejoin="round"/>
<path d="M21.5776 45.2644C21.5776 45.2644 21.6643 45.2592 21.8036 45.2539C22.3821 45.22 23.8856 45.1462 24.1507 45.1695C24.4799 45.1959 25.3868 45.3955 25.3868 45.3955" stroke="#313553" stroke-width="0.262881" stroke-linecap="round" stroke-linejoin="round"/>
<path d="M21.7515 49.0654L21.7778 49.0737C22.0091 49.1603 23.7491 49.7991 24.54 50.0409" stroke="#313553" stroke-width="0.262881" stroke-linecap="round" stroke-linejoin="round"/>
<path d="M20.0693 36.7926C20.0588 36.7007 20.0354 36.0566 21.6511 36.3195C22.8349 36.5766 23.9399 37.113 24.8743 37.8839L24.8818 37.8915" stroke="#313553" stroke-width="0.262881" stroke-linecap="round" stroke-linejoin="round"/>
<path d="M16.8906 34.5168C16.8906 34.5168 19.698 34.3564 20.0685 36.7931C20.07 36.7975 20.07 36.8022 20.0685 36.8067" stroke="#313553" stroke-width="0.262881" stroke-linecap="round" stroke-linejoin="round"/>
<path d="M16.0417 41.872C19.5066 43.1781 19.8975 38.273 20.0685 36.8065C20.0685 36.8065 23.4581 37.174 24.5578 37.7156C24.6633 37.7683 24.7687 37.8263 24.8712 37.8843C25.947 38.5164 26.7419 39.5341 27.0948 40.7308C27.0948 40.7308 28.4408 39.3486 26.6797 35.7594C26.029 34.5302 25.0021 33.5413 23.7492 32.9374C22.4962 32.3336 21.083 32.1463 19.716 32.403C19.5764 32.4337 19.4317 32.4685 19.2821 32.5077C17.9752 32.8031 16.7533 33.3939 15.7103 34.2349C13.6517 36.5556 13.8121 39.3682 13.681 39.7524C12.4322 43.435 7.94286 49.6952 9.30698 53.484" stroke="#313553" stroke-width="0.262881" stroke-linecap="round" stroke-linejoin="round"/>
<path d="M52.7618 49.7943C53.2347 49.6147 53.6825 49.3752 54.0943 49.0817C54.2133 48.9902 54.3141 48.8769 54.3911 48.7481C54.4375 48.6773 54.4667 48.5967 54.4765 48.5126C54.4864 48.4285 54.4765 48.3433 54.4477 48.2638C54.4189 48.1842 54.372 48.1124 54.3107 48.0541C54.2494 47.9958 54.1753 47.9526 54.0943 47.9278C53.978 47.8956 53.8571 47.8832 53.7365 47.8909C52.6246 48.0706 51.5505 48.4349 50.5586 48.9688C50.31 49.0913 50.1011 49.2817 49.956 49.5179L47.7031 53.8114L45.2754 58.95" stroke="#313553" stroke-width="0.262881" stroke-linecap="round" stroke-linejoin="round"/>
<path d="M51.855 50.1366C51.855 50.1366 52.0621 50.068 52.3566 49.9551C52.4779 49.9099 52.6142 49.8549 52.7589 49.7969" stroke="#313553" stroke-width="0.262881" stroke-linecap="round" stroke-linejoin="round"/>
<path d="M37.229 58.9785L40.7881 63.8912" stroke="#313553" stroke-width="0.262881" stroke-linecap="round" stroke-linejoin="round"/>
<path d="M34.8022 69.3691L37.2284 72.2315" stroke="#313553" stroke-width="0.262881" stroke-linecap="round" stroke-linejoin="round"/>
<path d="M51.0894 58.9493L52.2192 56.6542C52.8473 56.6366 53.4633 56.4785 54.0224 56.1919C54.5814 55.9051 55.0692 55.4968 55.4499 54.9971C57.0369 53.1991 57.4128 51.9449 56.7454 51.4855C56.0781 51.026 54.6951 51.6534 54.2982 52.4052C53.9012 53.1569 54.2063 54.1821 56.1331 52.7419" stroke="#313553" stroke-width="0.262881" stroke-linecap="round" stroke-linejoin="round"/>
<path d="M56.7461 51.4846C56.7461 51.4846 57.6214 50.6907 57.3374 49.9028C57.0534 49.1149 55.5477 49.4953 54.6039 50.061C54.1927 50.3101 53.8332 50.6359 53.5448 51.0206C53.1238 51.6119 53.0929 52.2401 54.2981 52.4028" stroke="#313553" stroke-width="0.262881" stroke-linecap="round" stroke-linejoin="round"/>
<path d="M57.3386 49.9048C57.3386 49.9048 57.4652 49.1065 56.3926 48.4986C55.6747 48.0911 54.4785 48.7614 54.4785 48.7614" stroke="#313553" stroke-width="0.262881" stroke-linecap="round" stroke-linejoin="round"/>
<path d="M52.762 49.7939C52.7251 49.8519 52.1971 50.6564 53.0852 50.8771C53.1921 50.9043 53.3013 50.9209 53.4113 50.9268" stroke="#313553" stroke-width="0.262881" stroke-linecap="round" stroke-linejoin="round"/>
<path d="M56.7076 47.1338L59.93 43.7269L61.6436 41.9191L63.3007 40.1685C63.4064 40.0547 63.4625 39.9036 63.4568 39.7485C63.4511 39.5933 63.3839 39.4468 63.2702 39.3411C63.1564 39.2354 63.0053 39.1792 62.8501 39.185C62.695 39.1907 62.5485 39.2578 62.4428 39.3716L59.9571 42.0396L55.583 46.7315" stroke="#313553" stroke-width="0.262881" stroke-linecap="round" stroke-linejoin="round"/>
<path d="M52.3782 50.0117L48.6248 53.9813C48.5689 54.0419 48.5265 54.1136 48.5003 54.1918C48.4742 54.2699 48.4649 54.3526 48.4731 54.4347C48.4813 54.5166 48.5067 54.596 48.5478 54.6674C48.5889 54.7388 48.6446 54.8008 48.7114 54.849C48.8119 54.9207 48.9322 54.9592 49.0557 54.959C49.1361 54.959 49.2157 54.9424 49.2894 54.9103C49.3631 54.8782 49.4295 54.8312 49.4843 54.7722L52.9883 51.0663" stroke="#313553" stroke-width="0.262881" stroke-linecap="round" stroke-linejoin="round"/>
<path d="M56.3915 48.4984C56.3915 48.4984 57.0092 47.7286 56.5173 47.1606C56.4436 47.0797 56.3586 47.0096 56.265 46.9527C56.059 46.8227 55.8228 46.7485 55.5795 46.7373C55.2005 46.7597 54.833 46.8768 54.511 47.078C54.1889 47.2793 53.9226 47.5581 53.7363 47.889" stroke="#313553" stroke-width="0.262881" stroke-linecap="round" stroke-linejoin="round"/>
</svg>
