<svg width="500" height="353" viewBox="0 0 500 353" fill="none" xmlns="http://www.w3.org/2000/svg">
<path d="M486.3 110.9C483.4 110.9 475.6 114.6 468.9 121.3C462.3 127.9 458.6 135.6 458.6 147.5V190.8C458.6 208.2 447.1 215.7 430.2 215.7C413.3 215.7 401.8 208.2 401.8 190.8V147.5C401.8 135.6 398.1 127.9 391.4 121.3C384.8 114.6 377 110.9 374.1 110.9C373 110.9 372.6 111.7 372.6 112.4C372.6 114 372.6 193.6 372.6 193.6C372.6 228.9 403.3 240.9 430.2 240.9C457.1 240.9 487.8 228.9 487.8 193.6C487.8 193.6 487.8 114 487.8 112.4C487.8 111.7 487.4 110.9 486.3 110.9Z" fill="#70BE44"/>
<path fill-rule="evenodd" clip-rule="evenodd" d="M41.2999 149.9H52.0999V180.4C52.0999 194.6 45.9999 202.7 31.8999 202.7C19.4999 202.7 11.8999 197.2 11.8999 180.4V149.9H23.2999V182C23.2999 190 25.3999 192.2 32.0999 192.2C38.5999 192.2 41.2999 189.7 41.2999 182V149.9ZM112.5 149.9V201.8H101.1V149.9H112.5ZM175 149.9C176.9 167.2 179.5 201.8 179.5 201.8H168.6L166.4 165.8H166L156.1 201.8H145.3L135 165.8H134.7L131.8 201.8H122.2C122.2 201.8 124.9 167.3 126.9 149.9H139.8L151 188.7H151.3L161.9 149.9H175ZM200.6 149.9V201.8H189.2V149.9H200.6ZM242.2 149.9H252.5V201.8H241.4L222.5 165.9L222.2 166L222.1 201.8H211.9V149.9H223.8C223.8 149.9 241.2 182 241.8 184H242.2V149.9ZM286.6 149.9C292.1 167.2 302.2 201.8 302.2 201.8H290.6L287.1 189.4H272.2L268.7 201.8H258.3C258.3 201.8 268 167.5 273.9 149.9H286.6ZM284.6 179.9L279.9 161.5H279.5L274.9 179.9H284.6ZM92.9999 186.5C92.9999 197.3 84.9999 202.6 73.7999 202.6C66.5999 202.6 60.6999 200.6 60.6999 200.6V190C60.6999 190 69.2999 193.6 75.1999 193C79.3999 192.6 81.2999 191 81.2999 187.5C81.2999 178.9 59.8999 180.5 59.8999 164.7C59.8999 154.5 67.9999 149.1 79.3999 149.1C84.1999 149.1 89.8999 150.2 89.9999 150.2H90.0999V160.2C90.0999 160.2 82.1999 158.4 77.5999 158.7C73.9999 158.9 71.5999 160.6 71.5999 164C71.5999 171.9 92.9999 171.4 92.9999 186.5ZM340.1 186.5C340.1 197.3 332.1 202.6 320.9 202.6C313.7 202.6 307.8 200.6 307.8 200.6V190C307.8 190 316.4 193.6 322.3 193C326.5 192.6 328.4 191 328.4 187.5C328.4 178.9 307 180.5 307 164.7C307 154.5 315.1 149.1 326.6 149.1C331.3 149.1 337.1 150.2 337.2 150.2V160.2C337.2 160.2 329.3 158.4 324.7 158.7C321.1 158.9 318.8 160.6 318.8 164C318.8 171.9 340.1 171.4 340.1 186.5Z" fill="#FEFEFE"/>
</svg>
