<svg version="1.2" xmlns="http://www.w3.org/2000/svg" viewBox="0 0 1256 334" width="1256" height="334">
	<title>Samsung_Orig_Wordmark_WHITE_CMYK-ai</title>
	<style>
		.s0 { fill: #fefefe } 
	</style>
	<g id="Layer 1">
		<path id="&lt;Compound Path&gt;" class="s0" d="m59.8 124c-0.9-3.6-0.7-7.3-0.2-9.3 1.2-5.6 5-11.8 16.1-11.8 10.3 0 16.3 6.4 16.3 15.9 0 3.3 0 10.9 0 10.9h43.9v-12.3c0-38.3-34.5-44.4-59.4-44.4-31.2 0-56.7 10.4-61.4 39.1-1.3 7.9-1.5 14.8 0.3 23.7 7.7 36 70.2 46.4 79.3 69.2 1.7 4.2 1.2 9.6 0.3 12.9-1.4 6-5.4 11.9-17.2 11.9-11 0-17.5-6.4-17.5-16l-0.1-16.9h-47.2v13.4c0 39.4 30.9 51.2 64 51.2 31.8 0 57.9-10.8 62.1-40.3 2.1-15.2 0.5-25-0.2-28.8-7.4-36.9-74.1-47.8-79.1-68.4zm572.2 0.4c-0.8-3.5-0.6-7.2-0.2-9.1 1.3-5.6 5.1-11.8 16-11.8 10.1 0 16.1 6.4 16.1 15.9 0 3.2 0 10.7 0 10.7h43.4v-12.2c0-37.9-34-43.9-58.6-43.9-31 0-56.3 10.2-60.9 38.7-1.3 7.8-1.6 14.7 0.4 23.5 7.5 35.6 69.4 45.9 78.4 68.4 1.6 4.2 1.1 9.7 0.3 12.9-1.3 5.8-5.2 11.7-16.9 11.7-11 0-17.6-6.3-17.6-15.8v-16.9h-46.7v13.5c0 38.9 30.5 50.6 63.3 50.6 31.4 0 57.4-10.8 61.6-39.9 1.9-15 0.4-24.8-0.4-28.5-7.2-36.5-73.2-47.4-78.2-67.8zm399.5 95.9l-41.4-141.7h-65.3v174.1h43.2l-2.5-146.2 44.5 146.2h62.6v-174.1h-43.5zm-830.1-141.7l-32.6 176h47.5l24.6-162.9 23.9 162.9h47.2l-32.4-176zm265.7 0l-22.2 137.6-22.1-137.6h-71.8l-3.8 176h44l1.1-162.9 30.3 162.9h44.6l30.3-162.9 1.2 162.9h44.1l-4-176zm408.9 0h-44.5v130.2c0.1 2.3 0 4.8-0.4 6.7-0.9 4.4-4.6 12.8-16.9 12.8-12.1 0-15.9-8.4-16.8-12.8-0.4-1.9-0.5-4.4-0.4-6.7v-130.2h-44.5v126.2c-0.1 3.2 0.2 9.9 0.4 11.6 3.1 32.9 29 43.5 61.3 43.5 32.4 0 58.3-10.6 61.4-43.5 0.3-1.7 0.6-8.4 0.4-11.6zm305.5 77.2v25.6h18.1v25.5c0 2.3-0.1 4.7-0.5 6.7-0.7 4.7-5.2 12.8-18 12.8-12.7 0-17.2-8.1-17.9-12.8-0.4-2-0.5-4.4-0.5-6.7v-80.4c0-2.9 0.2-6 0.8-8.3 0.9-4.3 4.7-12.8 17.5-12.8 13.4 0 16.8 8.9 17.6 12.8 0.5 2.5 0.5 6.7 0.5 6.7v9.8h44.3v-5.8c0 0 0.2-6-0.3-11.6-3.3-33-30.5-43.5-61.7-43.5-31.3 0-57.9 10.6-61.8 43.5-0.3 3-0.9 8.4-0.9 11.6v74c0 3.2 0.1 5.7 0.7 11.6 2.9 32.1 30.7 43.5 61.9 43.5 31.3 0 58.9-11.4 61.8-43.5 0.6-5.9 0.6-8.4 0.7-11.6v-47.1z"/>
	</g>
</svg>