<svg width="464" height="328" viewBox="0 0 464 328" fill="none" xmlns="http://www.w3.org/2000/svg">
<g filter="url(#filter0_f_14_66)">
<path d="M371.688 209.433L323.209 140.135C315.733 129.447 300.013 129.447 292.538 140.135L262.436 183.184L201.461 96.0162C193.986 85.3279 178.266 85.3279 170.791 96.0162L91.4581 209.433C82.7004 221.949 91.5864 239.209 106.793 239.209H356.334C371.541 239.209 380.427 221.949 371.669 209.433H371.688Z" fill="url(#paint0_linear_14_66)" fill-opacity="0.6"/>
</g>
<g clip-path="url(#clip0_14_66)">
<path d="M241.49 144.527C249.247 144.527 255.535 138.239 255.535 130.482C255.535 122.725 249.247 116.437 241.49 116.437C233.733 116.437 227.445 122.725 227.445 130.482C227.445 138.239 233.733 144.527 241.49 144.527Z" fill="url(#paint1_linear_14_66)"/>
<path d="M249.743 230.895C247.496 232.527 244.815 233.457 242.039 233.566C239.263 233.675 236.517 232.959 234.149 231.507C231.78 230.055 229.896 227.934 228.733 225.411C227.57 222.888 227.181 220.077 227.616 217.334C228.051 214.59 229.29 212.037 231.175 209.997C233.061 207.957 235.51 206.523 238.211 205.875C240.912 205.226 243.745 205.394 246.351 206.356C248.957 207.318 251.22 209.031 252.852 211.278C255.041 214.292 255.943 218.052 255.36 221.73C254.777 225.409 252.757 228.705 249.743 230.895Z" fill="url(#paint2_linear_14_66)"/>
<path d="M231.358 188.366C228.717 189.224 225.88 189.28 223.206 188.526C220.533 187.772 218.143 186.242 216.339 184.13C214.535 182.018 213.398 179.419 213.071 176.66C212.745 173.902 213.243 171.108 214.504 168.633C215.765 166.158 217.731 164.113 220.154 162.755C222.578 161.398 225.349 160.789 228.118 161.006C230.887 161.224 233.53 162.257 235.712 163.977C237.893 165.696 239.516 168.023 240.375 170.665C240.946 172.419 241.165 174.269 241.021 176.108C240.876 177.947 240.371 179.74 239.534 181.383C238.696 183.027 237.544 184.49 236.141 185.688C234.738 186.886 233.113 187.796 231.358 188.366Z" fill="url(#paint3_linear_14_66)"/>
<path d="M180.89 213.886C178.642 212.253 176.93 209.99 175.968 207.384C175.007 204.778 174.84 201.945 175.489 199.244C176.138 196.542 177.573 194.094 179.613 192.209C181.653 190.323 184.207 189.085 186.951 188.651C189.694 188.217 192.505 188.606 195.028 189.77C197.551 190.933 199.672 192.819 201.123 195.188C202.574 197.556 203.289 200.303 203.18 203.078C203.07 205.854 202.14 208.535 200.506 210.782C198.316 213.795 195.019 215.814 191.341 216.396C187.662 216.978 183.903 216.075 180.89 213.886Z" fill="url(#paint4_linear_14_66)"/>
<path d="M202.501 151.83C201.642 154.472 200.019 156.799 197.837 158.518C195.655 160.238 193.013 161.271 190.244 161.489C187.474 161.706 184.703 161.098 182.28 159.74C179.856 158.382 177.89 156.337 176.629 153.862C175.368 151.387 174.87 148.593 175.197 145.835C175.523 143.076 176.661 140.477 178.465 138.365C180.269 136.253 182.658 134.723 185.332 133.969C188.005 133.215 190.842 133.271 193.484 134.129C195.238 134.699 196.863 135.609 198.266 136.807C199.669 138.005 200.822 139.468 201.659 141.112C202.496 142.756 203.002 144.548 203.146 146.387C203.291 148.226 203.071 150.076 202.501 151.83Z" fill="url(#paint5_linear_14_66)"/>
<path d="M280.769 187.217C287.515 183.387 289.879 174.815 286.05 168.069C282.221 161.323 273.648 158.959 266.902 162.788C260.156 166.617 257.792 175.19 261.621 181.936C265.45 188.681 274.023 191.046 280.769 187.217Z" fill="url(#paint6_linear_14_66)"/>
<path d="M248.7 108.211C249.88 108.595 251.165 108.493 252.272 107.93C253.378 107.366 254.215 106.386 254.599 105.205L260.385 87.415C260.608 86.8229 260.708 86.1918 260.68 85.5599C260.651 84.9281 260.496 84.3084 260.221 83.7384C259.947 83.1685 259.56 82.66 259.084 82.2437C258.608 81.8273 258.052 81.5118 257.451 81.3162C256.849 81.1206 256.214 81.0488 255.584 81.1053C254.954 81.1618 254.342 81.3454 253.785 81.645C253.228 81.9446 252.738 82.3539 252.343 82.8484C251.949 83.3428 251.658 83.912 251.49 84.5217L245.703 102.312C245.319 103.492 245.419 104.775 245.981 105.882C246.543 106.988 247.521 107.825 248.7 108.211Z" fill="url(#paint7_linear_14_66)"/>
<path d="M258.826 91.0901C266.583 91.0901 272.871 84.8019 272.871 77.0451C272.871 69.2882 266.583 63 258.826 63C251.069 63 244.781 69.2882 244.781 77.0451C244.781 84.8019 251.069 91.0901 258.826 91.0901Z" fill="url(#paint8_linear_14_66)"/>
<path d="M289.571 143.118C290.134 144.224 291.114 145.061 292.295 145.445C293.476 145.828 294.761 145.727 295.867 145.164L312.553 136.662C313.102 136.383 313.59 135.999 313.991 135.532C314.391 135.064 314.695 134.522 314.886 133.937C315.077 133.352 315.15 132.735 315.102 132.121C315.054 131.508 314.886 130.91 314.606 130.361C314.327 129.813 313.942 129.325 313.474 128.925C313.005 128.526 312.463 128.222 311.878 128.033C311.292 127.843 310.675 127.771 310.061 127.82C309.448 127.869 308.85 128.039 308.302 128.319L291.607 136.821C290.502 137.386 289.667 138.367 289.286 139.548C288.904 140.729 289.006 142.013 289.571 143.118Z" fill="url(#paint9_linear_14_66)"/>
<path d="M318.77 142.284C326.527 142.284 332.815 135.996 332.815 128.239C332.815 120.482 326.527 114.194 318.77 114.194C311.014 114.194 304.725 120.482 304.725 128.239C304.725 135.996 311.014 142.284 318.77 142.284Z" fill="url(#paint10_linear_14_66)"/>
<path d="M293.789 196.7C293.405 197.88 293.506 199.165 294.07 200.272C294.634 201.378 295.614 202.215 296.795 202.599L314.585 208.385C315.747 208.706 316.987 208.567 318.049 207.996C319.11 207.425 319.911 206.467 320.284 205.321C320.656 204.174 320.573 202.929 320.05 201.843C319.528 200.757 318.606 199.914 317.478 199.49L299.688 193.703C298.508 193.319 297.224 193.419 296.118 193.981C295.012 194.543 294.175 195.521 293.789 196.7Z" fill="url(#paint11_linear_14_66)"/>
<path d="M324.955 220.871C332.712 220.871 339 214.583 339 206.826C339 199.069 332.712 192.781 324.955 192.781C317.198 192.781 310.91 199.069 310.91 206.826C310.91 214.583 317.198 220.871 324.955 220.871Z" fill="url(#paint12_linear_14_66)"/>
<path d="M258.882 237.571C257.776 238.134 256.939 239.115 256.555 240.295C256.171 241.476 256.273 242.761 256.836 243.868L265.338 260.553C265.903 261.657 266.883 262.492 268.063 262.874C269.243 263.256 270.526 263.155 271.631 262.592C272.737 262.029 273.573 261.05 273.957 259.871C274.342 258.692 274.242 257.408 273.681 256.302L265.179 239.607C264.614 238.503 263.633 237.668 262.452 237.286C261.271 236.904 259.987 237.006 258.882 237.571Z" fill="url(#paint13_linear_14_66)"/>
<path d="M273.761 280.815C281.518 280.815 287.806 274.527 287.806 266.77C287.806 259.014 281.518 252.725 273.761 252.725C266.004 252.725 259.716 259.014 259.716 266.77C259.716 274.527 266.004 280.815 273.761 280.815Z" fill="url(#paint14_linear_14_66)"/>
<path d="M205.3 241.789C204.119 241.405 202.835 241.507 201.728 242.07C200.622 242.634 199.785 243.614 199.401 244.795L193.615 262.585C193.294 263.747 193.433 264.987 194.004 266.049C194.575 267.11 195.533 267.911 196.679 268.284C197.826 268.656 199.071 268.573 200.157 268.05C201.243 267.528 202.086 266.606 202.51 265.478L208.297 247.688C208.681 246.508 208.581 245.224 208.019 244.118C207.457 243.012 206.479 242.175 205.3 241.789Z" fill="url(#paint15_linear_14_66)"/>
<path d="M195.174 287C202.931 287 209.219 280.712 209.219 272.955C209.219 265.198 202.931 258.91 195.174 258.91C187.417 258.91 181.129 265.198 181.129 272.955C181.129 280.712 187.417 287 195.174 287Z" fill="url(#paint16_linear_14_66)"/>
<path d="M164.429 206.882C163.865 205.776 162.885 204.939 161.704 204.555C160.524 204.172 159.239 204.273 158.132 204.836L141.447 213.338C140.898 213.617 140.409 214.001 140.009 214.468C139.609 214.936 139.304 215.478 139.114 216.063C138.923 216.648 138.85 217.265 138.898 217.879C138.946 218.492 139.114 219.091 139.394 219.639C139.673 220.187 140.058 220.675 140.526 221.075C140.994 221.474 141.537 221.778 142.122 221.967C142.708 222.157 143.325 222.229 143.938 222.18C144.552 222.131 145.15 221.962 145.698 221.681L162.393 213.179C163.497 212.614 164.332 211.633 164.714 210.452C165.096 209.272 164.994 207.987 164.429 206.882Z" fill="url(#paint17_linear_14_66)"/>
<path d="M135.229 235.806C142.986 235.806 149.274 229.518 149.274 221.761C149.274 214.004 142.986 207.716 135.229 207.716C127.473 207.716 121.184 214.004 121.184 221.761C121.184 229.518 127.473 235.806 135.229 235.806Z" fill="url(#paint18_linear_14_66)"/>
<path d="M160.211 153.3C160.595 152.12 160.494 150.835 159.93 149.728C159.366 148.622 158.386 147.785 157.205 147.401L139.415 141.615C138.823 141.392 138.192 141.292 137.56 141.32C136.928 141.349 136.308 141.504 135.739 141.779C135.169 142.053 134.66 142.44 134.244 142.916C133.827 143.392 133.512 143.948 133.316 144.549C133.121 145.151 133.049 145.786 133.105 146.416C133.162 147.046 133.345 147.658 133.645 148.215C133.945 148.772 134.354 149.262 134.848 149.657C135.343 150.051 135.912 150.342 136.522 150.51L154.312 156.297C155.492 156.681 156.776 156.581 157.882 156.019C158.988 155.457 159.825 154.479 160.211 153.3Z" fill="url(#paint19_linear_14_66)"/>
<path d="M129.045 157.219C136.802 157.219 143.09 150.931 143.09 143.174C143.09 135.417 136.802 129.129 129.045 129.129C121.288 129.129 115 135.417 115 143.174C115 150.931 121.288 157.219 129.045 157.219Z" fill="url(#paint20_linear_14_66)"/>
<path d="M195.118 112.429C196.224 111.866 197.061 110.885 197.445 109.705C197.828 108.524 197.727 107.239 197.164 106.132L188.662 89.4469C188.097 88.3428 187.117 87.508 185.937 87.1258C184.757 86.7435 183.474 86.8451 182.368 87.4082C181.263 87.9713 180.427 88.9498 180.043 90.1291C179.658 91.3083 179.758 92.5918 180.319 93.6978L188.821 110.393C189.386 111.497 190.367 112.332 191.548 112.714C192.728 113.096 194.013 112.994 195.118 112.429Z" fill="url(#paint21_linear_14_66)"/>
<path d="M180.239 97.2746C187.996 97.2746 194.284 90.9864 194.284 83.2296C194.284 75.4727 187.996 69.1845 180.239 69.1845C172.482 69.1845 166.194 75.4727 166.194 83.2296C166.194 90.9864 172.482 97.2746 180.239 97.2746Z" fill="url(#paint22_linear_14_66)"/>
<g filter="url(#filter1_bi_14_66)">
<path d="M227 254.589C270.955 254.589 306.588 218.956 306.588 175C306.588 131.044 270.955 95.4113 227 95.4113C183.044 95.4113 147.411 131.044 147.411 175C147.411 218.956 183.044 254.589 227 254.589Z" fill="#1D1D1D" fill-opacity="0.05"/>
<path d="M227 254.589C270.955 254.589 306.588 218.956 306.588 175C306.588 131.044 270.955 95.4113 227 95.4113C183.044 95.4113 147.411 131.044 147.411 175C147.411 218.956 183.044 254.589 227 254.589Z" fill="url(#paint23_linear_14_66)" fill-opacity="0.2"/>
<path d="M306.438 175C306.438 218.873 270.873 254.439 227 254.439C183.127 254.439 147.561 218.873 147.561 175C147.561 131.127 183.127 95.5613 227 95.5613C270.873 95.5613 306.438 131.127 306.438 175Z" stroke="url(#paint24_linear_14_66)" stroke-opacity="0.1" stroke-width="0.3"/>
</g>
<g filter="url(#filter2_i_14_66)">
<path d="M241.492 144.529C249.249 144.529 255.537 138.241 255.537 130.484C255.537 122.727 249.249 116.439 241.492 116.439C233.735 116.439 227.447 122.727 227.447 130.484C227.447 138.241 233.735 144.529 241.492 144.529Z" fill="white" fill-opacity="0.1"/>
<path d="M249.746 230.897C247.498 232.529 244.817 233.459 242.042 233.568C239.266 233.677 236.52 232.961 234.151 231.509C231.783 230.057 229.898 227.936 228.735 225.413C227.572 222.89 227.184 220.079 227.618 217.336C228.053 214.592 229.292 212.039 231.178 209.999C233.064 207.959 235.512 206.525 238.213 205.877C240.915 205.228 243.748 205.396 246.354 206.358C248.96 207.32 251.222 209.033 252.855 211.28C255.043 214.294 255.945 218.054 255.362 221.732C254.779 225.411 252.759 228.707 249.746 230.897Z" fill="white" fill-opacity="0.1"/>
<path d="M231.361 188.368C228.719 189.226 225.882 189.282 223.209 188.528C220.535 187.774 218.146 186.244 216.342 184.132C214.538 182.02 213.4 179.421 213.074 176.662C212.747 173.904 213.246 171.11 214.506 168.635C215.767 166.16 217.734 164.115 220.157 162.757C222.58 161.4 225.352 160.791 228.121 161.008C230.89 161.226 233.532 162.259 235.714 163.979C237.896 165.698 239.519 168.025 240.378 170.667C240.948 172.421 241.168 174.271 241.023 176.11C240.879 177.949 240.374 179.742 239.536 181.385C238.699 183.029 237.546 184.492 236.143 185.69C234.74 186.888 233.115 187.798 231.361 188.368Z" fill="white" fill-opacity="0.1"/>
<path d="M180.892 213.888C178.645 212.255 176.932 209.992 175.971 207.386C175.009 204.78 174.843 201.947 175.491 199.246C176.14 196.545 177.575 194.096 179.615 192.211C181.656 190.325 184.209 189.087 186.953 188.653C189.697 188.219 192.508 188.608 195.03 189.772C197.553 190.935 199.674 192.821 201.125 195.19C202.576 197.559 203.292 200.305 203.182 203.08C203.072 205.856 202.142 208.537 200.509 210.784C198.319 213.797 195.022 215.816 191.343 216.398C187.665 216.98 183.905 216.077 180.892 213.888Z" fill="white" fill-opacity="0.1"/>
<path d="M202.503 151.832C201.644 154.474 200.021 156.801 197.839 158.52C195.658 160.24 193.015 161.273 190.246 161.491C187.477 161.708 184.705 161.1 182.282 159.742C179.859 158.384 177.892 156.339 176.632 153.864C175.371 151.389 174.872 148.595 175.199 145.837C175.526 143.079 176.663 140.479 178.467 138.367C180.271 136.255 182.661 134.725 185.334 133.971C188.008 133.217 190.844 133.273 193.486 134.131C195.241 134.701 196.866 135.611 198.269 136.809C199.671 138.007 200.824 139.47 201.662 141.114C202.499 142.758 203.004 144.55 203.149 146.389C203.293 148.228 203.074 150.078 202.503 151.832Z" fill="white" fill-opacity="0.1"/>
<path d="M280.771 187.219C287.517 183.389 289.882 174.817 286.052 168.071C282.223 161.325 273.65 158.961 266.905 162.79C260.159 166.619 257.794 175.192 261.624 181.938C265.453 188.683 274.026 191.048 280.771 187.219Z" fill="white" fill-opacity="0.1"/>
</g>
</g>
<defs>
<filter id="filter0_f_14_66" x="0" y="0" width="463.128" height="327.209" filterUnits="userSpaceOnUse" color-interpolation-filters="sRGB">
<feFlood flood-opacity="0" result="BackgroundImageFix"/>
<feBlend mode="normal" in="SourceGraphic" in2="BackgroundImageFix" result="shape"/>
<feGaussianBlur stdDeviation="44" result="effect1_foregroundBlur_14_66"/>
</filter>
<filter id="filter1_bi_14_66" x="141.411" y="89.4113" width="171.177" height="171.177" filterUnits="userSpaceOnUse" color-interpolation-filters="sRGB">
<feFlood flood-opacity="0" result="BackgroundImageFix"/>
<feGaussianBlur in="BackgroundImageFix" stdDeviation="3"/>
<feComposite in2="SourceAlpha" operator="in" result="effect1_backgroundBlur_14_66"/>
<feBlend mode="normal" in="SourceGraphic" in2="effect1_backgroundBlur_14_66" result="shape"/>
<feColorMatrix in="SourceAlpha" type="matrix" values="0 0 0 0 0 0 0 0 0 0 0 0 0 0 0 0 0 0 127 0" result="hardAlpha"/>
<feOffset dy="2"/>
<feGaussianBlur stdDeviation="1.5"/>
<feComposite in2="hardAlpha" operator="arithmetic" k2="-1" k3="1"/>
<feColorMatrix type="matrix" values="0 0 0 0 1 0 0 0 0 1 0 0 0 0 1 0 0 0 0.15 0"/>
<feBlend mode="normal" in2="shape" result="effect2_innerShadow_14_66"/>
</filter>
<filter id="filter2_i_14_66" x="175.102" y="116.439" width="112.784" height="119.14" filterUnits="userSpaceOnUse" color-interpolation-filters="sRGB">
<feFlood flood-opacity="0" result="BackgroundImageFix"/>
<feBlend mode="normal" in="SourceGraphic" in2="BackgroundImageFix" result="shape"/>
<feColorMatrix in="SourceAlpha" type="matrix" values="0 0 0 0 0 0 0 0 0 0 0 0 0 0 0 0 0 0 127 0" result="hardAlpha"/>
<feOffset dy="2"/>
<feGaussianBlur stdDeviation="1"/>
<feComposite in2="hardAlpha" operator="arithmetic" k2="-1" k3="1"/>
<feColorMatrix type="matrix" values="0 0 0 0 1 0 0 0 0 1 0 0 0 0 1 0 0 0 0.1 0"/>
<feBlend mode="normal" in2="shape" result="effect1_innerShadow_14_66"/>
</filter>
<linearGradient id="paint0_linear_14_66" x1="88.032" y1="163.616" x2="375.151" y2="163.616" gradientUnits="userSpaceOnUse">
<stop stop-color="#4A72FF"/>
<stop offset="0.49" stop-color="#915DFF"/>
<stop offset="1" stop-color="#854DFB"/>
</linearGradient>
<linearGradient id="paint1_linear_14_66" x1="175.099" y1="116.437" x2="308.545" y2="149.061" gradientUnits="userSpaceOnUse">
<stop stop-color="#B1F0E0"/>
<stop offset="1" stop-color="#6732FF"/>
</linearGradient>
<linearGradient id="paint2_linear_14_66" x1="175.099" y1="116.437" x2="308.545" y2="149.061" gradientUnits="userSpaceOnUse">
<stop stop-color="#B1F0E0"/>
<stop offset="1" stop-color="#6732FF"/>
</linearGradient>
<linearGradient id="paint3_linear_14_66" x1="175.099" y1="116.437" x2="308.545" y2="149.061" gradientUnits="userSpaceOnUse">
<stop stop-color="#B1F0E0"/>
<stop offset="1" stop-color="#6732FF"/>
</linearGradient>
<linearGradient id="paint4_linear_14_66" x1="175.099" y1="116.437" x2="308.545" y2="149.061" gradientUnits="userSpaceOnUse">
<stop stop-color="#B1F0E0"/>
<stop offset="1" stop-color="#6732FF"/>
</linearGradient>
<linearGradient id="paint5_linear_14_66" x1="175.099" y1="116.437" x2="308.545" y2="149.061" gradientUnits="userSpaceOnUse">
<stop stop-color="#B1F0E0"/>
<stop offset="1" stop-color="#6732FF"/>
</linearGradient>
<linearGradient id="paint6_linear_14_66" x1="175.099" y1="116.437" x2="308.545" y2="149.061" gradientUnits="userSpaceOnUse">
<stop stop-color="#B1F0E0"/>
<stop offset="1" stop-color="#6732FF"/>
</linearGradient>
<linearGradient id="paint7_linear_14_66" x1="245.473" y1="81.0866" x2="264.174" y2="83.7271" gradientUnits="userSpaceOnUse">
<stop stop-color="#B1F0E0"/>
<stop offset="1" stop-color="#6732FF"/>
</linearGradient>
<linearGradient id="paint8_linear_14_66" x1="244.781" y1="63" x2="277.87" y2="71.402" gradientUnits="userSpaceOnUse">
<stop stop-color="#B1F0E0"/>
<stop offset="1" stop-color="#6732FF"/>
</linearGradient>
<linearGradient id="paint9_linear_14_66" x1="289.058" y1="127.805" x2="317.793" y2="138.445" gradientUnits="userSpaceOnUse">
<stop stop-color="#B1F0E0"/>
<stop offset="1" stop-color="#6732FF"/>
</linearGradient>
<linearGradient id="paint10_linear_14_66" x1="304.725" y1="114.194" x2="337.815" y2="122.596" gradientUnits="userSpaceOnUse">
<stop stop-color="#B1F0E0"/>
<stop offset="1" stop-color="#6732FF"/>
</linearGradient>
<linearGradient id="paint11_linear_14_66" x1="293.56" y1="193.473" x2="321.585" y2="206.192" gradientUnits="userSpaceOnUse">
<stop stop-color="#B1F0E0"/>
<stop offset="1" stop-color="#6732FF"/>
</linearGradient>
<linearGradient id="paint12_linear_14_66" x1="310.91" y1="192.781" x2="343.999" y2="201.183" gradientUnits="userSpaceOnUse">
<stop stop-color="#B1F0E0"/>
<stop offset="1" stop-color="#6732FF"/>
</linearGradient>
<linearGradient id="paint13_linear_14_66" x1="256.326" y1="237.059" x2="278.064" y2="240.844" gradientUnits="userSpaceOnUse">
<stop stop-color="#B1F0E0"/>
<stop offset="1" stop-color="#6732FF"/>
</linearGradient>
<linearGradient id="paint14_linear_14_66" x1="259.716" y1="252.725" x2="292.805" y2="261.127" gradientUnits="userSpaceOnUse">
<stop stop-color="#B1F0E0"/>
<stop offset="1" stop-color="#6732FF"/>
</linearGradient>
<linearGradient id="paint15_linear_14_66" x1="193.446" y1="241.56" x2="211.982" y2="244.193" gradientUnits="userSpaceOnUse">
<stop stop-color="#B1F0E0"/>
<stop offset="1" stop-color="#6732FF"/>
</linearGradient>
<linearGradient id="paint16_linear_14_66" x1="181.129" y1="258.91" x2="214.218" y2="267.312" gradientUnits="userSpaceOnUse">
<stop stop-color="#B1F0E0"/>
<stop offset="1" stop-color="#6732FF"/>
</linearGradient>
<linearGradient id="paint17_linear_14_66" x1="138.883" y1="204.326" x2="167.618" y2="214.966" gradientUnits="userSpaceOnUse">
<stop stop-color="#B1F0E0"/>
<stop offset="1" stop-color="#6732FF"/>
</linearGradient>
<linearGradient id="paint18_linear_14_66" x1="121.184" y1="207.716" x2="154.274" y2="216.118" gradientUnits="userSpaceOnUse">
<stop stop-color="#B1F0E0"/>
<stop offset="1" stop-color="#6732FF"/>
</linearGradient>
<linearGradient id="paint19_linear_14_66" x1="133.087" y1="141.316" x2="161.468" y2="154.275" gradientUnits="userSpaceOnUse">
<stop stop-color="#B1F0E0"/>
<stop offset="1" stop-color="#6732FF"/>
</linearGradient>
<linearGradient id="paint20_linear_14_66" x1="115" y1="129.129" x2="148.089" y2="137.531" gradientUnits="userSpaceOnUse">
<stop stop-color="#B1F0E0"/>
<stop offset="1" stop-color="#6732FF"/>
</linearGradient>
<linearGradient id="paint21_linear_14_66" x1="179.812" y1="86.8979" x2="201.55" y2="90.6834" gradientUnits="userSpaceOnUse">
<stop stop-color="#B1F0E0"/>
<stop offset="1" stop-color="#6732FF"/>
</linearGradient>
<linearGradient id="paint22_linear_14_66" x1="166.194" y1="69.1845" x2="199.283" y2="77.5865" gradientUnits="userSpaceOnUse">
<stop stop-color="#B1F0E0"/>
<stop offset="1" stop-color="#6732FF"/>
</linearGradient>
<linearGradient id="paint23_linear_14_66" x1="147.411" y1="95.4113" x2="334.917" y2="143.023" gradientUnits="userSpaceOnUse">
<stop stop-color="#D1FFF4"/>
<stop offset="1" stop-color="#6631FF"/>
</linearGradient>
<linearGradient id="paint24_linear_14_66" x1="152.385" y1="102.647" x2="306.588" y2="102.647" gradientUnits="userSpaceOnUse">
<stop stop-color="#5EFFD7"/>
<stop offset="1" stop-color="#FF40D2"/>
</linearGradient>
<clipPath id="clip0_14_66">
<rect width="224" height="224" fill="white" transform="translate(115 63)"/>
</clipPath>
</defs>
</svg>
