<svg width="389" height="389" viewBox="0 0 389 389" fill="none" xmlns="http://www.w3.org/2000/svg">
<g clip-path="url(#clip0_20_102)">
<path d="M194.089 350C192.48 350 191.05 350 189.441 350L221.266 262.39H265.25C272.939 262.39 281.342 256.489 284.024 249.159L318.711 154.039C324.432 138.484 315.492 125.789 298.864 125.789H237.895L186.759 266.323L157.794 345.888C89.1358 329.617 38 267.754 38 193.911C38 122.213 86.2751 61.9587 151.893 43.5427L122.034 125.789L72.3289 262.39H105.406L147.602 146.351H172.455L130.259 262.39H163.336L202.672 154.218C208.393 138.662 199.453 125.968 182.825 125.968H154.933L186.938 38.1788C189.262 38 191.586 38 193.911 38C280.091 38 350 107.909 350 194.089C350.179 280.091 280.269 350 194.089 350ZM288.494 146.172H263.641L228.776 241.649H253.629L288.494 146.172Z" fill="white"/>
</g>
<defs>
<clipPath id="clip0_20_102">
<rect width="389" height="389" fill="white"/>
</clipPath>
</defs>
</svg>
