<svg width="491" height="369" viewBox="0 0 491 369" fill="none" xmlns="http://www.w3.org/2000/svg">
<g filter="url(#filter0_f_14_66)">
<path d="M398.257 247.64L345.237 171.852C337.062 160.163 319.87 160.163 311.694 171.852L278.773 218.932L212.088 123.601C203.912 111.912 186.72 111.912 178.545 123.601L91.782 247.64C82.204 261.328 91.9222 280.205 108.553 280.205H381.465C398.096 280.205 407.815 261.328 398.237 247.64H398.257Z" fill="url(#paint0_linear_14_66)" fill-opacity="0.6"/>
</g>
<g clip-path="url(#clip0_14_66)">
<path d="M305.271 121.006C316.784 121.006 326.117 111.673 326.117 100.16C326.117 88.6467 316.784 79.3135 305.271 79.3135C293.758 79.3135 284.424 88.6467 284.424 100.16C284.424 111.673 293.758 121.006 305.271 121.006Z" fill="url(#paint1_linear_14_66)"/>
<path d="M317.521 249.197C314.186 251.621 310.206 253.001 306.086 253.162C301.966 253.324 297.891 252.261 294.375 250.106C290.86 247.952 288.062 244.803 286.336 241.058C284.61 237.314 284.033 233.142 284.679 229.069C285.324 224.997 287.163 221.207 289.962 218.18C292.761 215.153 296.395 213.023 300.404 212.061C304.414 211.099 308.618 211.348 312.486 212.775C316.354 214.203 319.712 216.746 322.135 220.082C325.384 224.555 326.723 230.135 325.858 235.595C324.992 241.055 321.994 245.948 317.521 249.197Z" fill="url(#paint2_linear_14_66)"/>
<path d="M290.233 186.075C286.312 187.348 282.102 187.431 278.134 186.312C274.166 185.193 270.619 182.922 267.941 179.787C265.264 176.652 263.576 172.794 263.091 168.7C262.606 164.606 263.346 160.46 265.217 156.786C267.088 153.113 270.007 150.076 273.604 148.061C277.201 146.046 281.314 145.143 285.424 145.466C289.534 145.789 293.456 147.323 296.695 149.874C299.933 152.426 302.342 155.881 303.617 159.801C304.464 162.405 304.789 165.15 304.575 167.88C304.36 170.61 303.611 173.27 302.368 175.71C301.125 178.15 299.414 180.321 297.332 182.099C295.25 183.878 292.838 185.228 290.233 186.075Z" fill="url(#paint3_linear_14_66)"/>
<path d="M215.326 223.952C211.99 221.529 209.448 218.17 208.021 214.302C206.594 210.433 206.346 206.229 207.309 202.219C208.272 198.21 210.402 194.577 213.43 191.778C216.459 188.98 220.249 187.142 224.321 186.497C228.394 185.853 232.566 186.431 236.31 188.158C240.054 189.885 243.202 192.683 245.356 196.199C247.51 199.715 248.572 203.791 248.409 207.911C248.246 212.031 246.865 216.01 244.441 219.345C241.191 223.817 236.297 226.814 230.837 227.678C225.377 228.542 219.798 227.202 215.326 223.952Z" fill="url(#paint4_linear_14_66)"/>
<path d="M247.401 131.846C246.126 135.767 243.718 139.221 240.479 141.773C237.241 144.325 233.319 145.859 229.209 146.182C225.099 146.504 220.985 145.601 217.388 143.586C213.792 141.571 210.873 138.535 209.002 134.861C207.131 131.188 206.391 127.042 206.875 122.948C207.36 118.853 209.048 114.995 211.726 111.86C214.403 108.725 217.95 106.455 221.918 105.336C225.886 104.216 230.097 104.299 234.018 105.573C236.622 106.419 239.034 107.77 241.116 109.548C243.198 111.326 244.91 113.497 246.152 115.937C247.395 118.377 248.145 121.038 248.359 123.767C248.574 126.497 248.248 129.242 247.401 131.846Z" fill="url(#paint5_linear_14_66)"/>
<path d="M363.571 184.368C373.583 178.685 377.093 165.961 371.409 155.948C365.726 145.936 353.002 142.426 342.989 148.11C332.977 153.793 329.467 166.517 335.151 176.53C340.834 186.542 353.558 190.052 363.571 184.368Z" fill="url(#paint6_linear_14_66)"/>
<path d="M315.972 67.1046C317.725 67.6739 319.632 67.5238 321.273 66.6872C322.915 65.8506 324.158 64.396 324.727 62.6434L333.316 36.2381C333.646 35.3593 333.795 34.4226 333.753 33.4848C333.711 32.5469 333.48 31.6272 333.073 30.7812C332.666 29.9352 332.092 29.1805 331.385 28.5626C330.678 27.9447 329.853 27.4764 328.961 27.186C328.068 26.8956 327.125 26.7891 326.19 26.873C325.255 26.9569 324.347 27.2294 323.52 27.674C322.693 28.1187 321.965 28.7263 321.38 29.4601C320.794 30.1939 320.363 31.0388 320.113 31.9437L311.525 58.3491C310.955 60.0999 311.103 62.0054 311.937 63.647C312.771 65.2886 314.222 66.5322 315.972 67.1046Z" fill="url(#paint7_linear_14_66)"/>
<path d="M331.002 41.6927C342.515 41.6927 351.848 32.3595 351.848 20.8463C351.848 9.33322 342.515 0 331.002 0C319.489 0 310.156 9.33322 310.156 20.8463C310.156 32.3595 319.489 41.6927 331.002 41.6927Z" fill="url(#paint8_linear_14_66)"/>
<path d="M376.635 118.915C377.471 120.557 378.926 121.799 380.679 122.368C382.431 122.938 384.339 122.788 385.981 121.951L410.746 109.332C411.561 108.919 412.286 108.349 412.88 107.655C413.474 106.961 413.926 106.157 414.209 105.288C414.492 104.42 414.601 103.504 414.53 102.593C414.458 101.682 414.208 100.795 413.793 99.9806C413.379 99.1666 412.808 98.4424 412.113 97.8494C411.418 97.2564 410.613 96.8063 409.744 96.5247C408.874 96.2432 407.958 96.1358 407.048 96.2087C406.137 96.2815 405.25 96.5333 404.437 96.9494L379.657 109.568C378.018 110.408 376.778 111.863 376.211 113.616C375.645 115.368 375.797 117.274 376.635 118.915Z" fill="url(#paint9_linear_14_66)"/>
<path d="M419.974 117.678C431.487 117.678 440.821 108.344 440.821 96.8312C440.821 85.3181 431.487 75.9849 419.974 75.9849C408.461 75.9849 399.128 85.3181 399.128 96.8312C399.128 108.344 408.461 117.678 419.974 117.678Z" fill="url(#paint10_linear_14_66)"/>
<path d="M382.895 198.443C382.326 200.196 382.476 202.103 383.313 203.745C384.149 205.387 385.604 206.629 387.357 207.199L413.762 215.787C415.486 216.264 417.328 216.057 418.903 215.21C420.479 214.362 421.667 212.94 422.22 211.239C422.773 209.538 422.649 207.689 421.874 206.077C421.098 204.465 419.731 203.214 418.056 202.585L391.651 193.996C389.9 193.426 387.995 193.574 386.353 194.408C384.711 195.242 383.468 196.693 382.895 198.443Z" fill="url(#paint11_linear_14_66)"/>
<path d="M429.153 234.32C440.667 234.32 450 224.986 450 213.473C450 201.96 440.667 192.627 429.153 192.627C417.64 192.627 408.307 201.96 408.307 213.473C408.307 224.986 417.64 234.32 429.153 234.32Z" fill="url(#paint12_linear_14_66)"/>
<path d="M331.085 259.106C329.443 259.943 328.201 261.397 327.631 263.15C327.062 264.903 327.212 266.81 328.049 268.452L340.668 293.218C341.506 294.856 342.961 296.095 344.712 296.663C346.463 297.23 348.368 297.079 350.008 296.243C351.649 295.408 352.89 293.955 353.461 292.205C354.031 290.455 353.883 288.55 353.051 286.908L340.432 262.129C339.592 260.489 338.137 259.25 336.384 258.683C334.632 258.116 332.726 258.268 331.085 259.106Z" fill="url(#paint13_linear_14_66)"/>
<path d="M353.169 323.292C364.682 323.292 374.015 313.959 374.015 302.445C374.015 290.932 364.682 281.599 353.169 281.599C341.655 281.599 332.322 290.932 332.322 302.445C332.322 313.959 341.655 323.292 353.169 323.292Z" fill="url(#paint14_linear_14_66)"/>
<path d="M251.557 265.367C249.804 264.797 247.897 264.948 246.255 265.784C244.613 266.621 243.371 268.075 242.801 269.828L234.213 296.233C233.736 297.958 233.943 299.799 234.79 301.375C235.638 302.95 237.06 304.138 238.761 304.692C240.462 305.245 242.311 305.121 243.923 304.345C245.535 303.57 246.786 302.202 247.415 300.528L256.004 274.122C256.574 272.371 256.426 270.466 255.592 268.824C254.758 267.183 253.307 265.939 251.557 265.367Z" fill="url(#paint15_linear_14_66)"/>
<path d="M236.526 332.471C248.04 332.471 257.373 323.138 257.373 311.625C257.373 300.112 248.04 290.779 236.526 290.779C225.013 290.779 215.68 300.112 215.68 311.625C215.68 323.138 225.013 332.471 236.526 332.471Z" fill="url(#paint16_linear_14_66)"/>
<path d="M190.894 213.557C190.057 211.915 188.602 210.672 186.849 210.103C185.097 209.533 183.19 209.683 181.548 210.52L156.782 223.139C155.967 223.552 155.242 224.122 154.648 224.816C154.054 225.51 153.602 226.314 153.319 227.183C153.036 228.052 152.927 228.967 152.998 229.878C153.07 230.789 153.32 231.677 153.735 232.491C154.149 233.305 154.721 234.029 155.416 234.622C156.11 235.215 156.916 235.665 157.785 235.946C158.654 236.228 159.57 236.335 160.48 236.263C161.391 236.19 162.278 235.938 163.092 235.522L187.871 222.903C189.511 222.064 190.75 220.608 191.317 218.855C191.883 217.103 191.731 215.197 190.894 213.557Z" fill="url(#paint17_linear_14_66)"/>
<path d="M147.554 256.487C159.067 256.487 168.4 247.153 168.4 235.64C168.4 224.127 159.067 214.794 147.554 214.794C136.041 214.794 126.708 224.127 126.708 235.64C126.708 247.153 136.041 256.487 147.554 256.487Z" fill="url(#paint18_linear_14_66)"/>
<path d="M184.633 134.028C185.202 132.275 185.052 130.368 184.215 128.726C183.379 127.084 181.924 125.842 180.172 125.272L153.766 116.684C152.888 116.354 151.951 116.205 151.013 116.247C150.075 116.288 149.155 116.52 148.31 116.927C147.464 117.334 146.709 117.908 146.091 118.615C145.473 119.322 145.005 120.146 144.714 121.039C144.424 121.932 144.317 122.874 144.401 123.809C144.485 124.744 144.758 125.653 145.202 126.48C145.647 127.306 146.255 128.035 146.988 128.62C147.722 129.206 148.567 129.636 149.472 129.886L175.877 138.475C177.628 139.045 179.534 138.897 181.175 138.063C182.817 137.229 184.06 135.778 184.633 134.028Z" fill="url(#paint19_linear_14_66)"/>
<path d="M138.375 139.844C149.888 139.844 159.221 130.511 159.221 118.998C159.221 107.485 149.888 98.1514 138.375 98.1514C126.862 98.1514 117.529 107.485 117.529 118.998C117.529 130.511 126.862 139.844 138.375 139.844Z" fill="url(#paint20_linear_14_66)"/>
<path d="M236.443 73.3651C238.085 72.5284 239.328 71.0737 239.897 69.3209C240.467 67.5682 240.316 65.661 239.48 64.019L226.861 39.2535C226.022 37.6148 224.568 36.3758 222.816 35.8084C221.065 35.2411 219.16 35.3919 217.52 36.2276C215.88 37.0634 214.638 38.5158 214.068 40.2661C213.498 42.0163 213.645 43.9214 214.478 45.563L227.097 70.3424C227.936 71.982 229.392 73.2214 231.144 73.7882C232.897 74.355 234.803 74.2028 236.443 73.3651Z" fill="url(#paint21_linear_14_66)"/>
<path d="M214.36 50.8719C225.873 50.8719 235.206 41.5387 235.206 30.0255C235.206 18.5124 225.873 9.1792 214.36 9.1792C202.847 9.1792 193.513 18.5124 193.513 30.0255C193.513 41.5387 202.847 50.8719 214.36 50.8719Z" fill="url(#paint22_linear_14_66)"/>
<g filter="url(#filter1_bi_14_66)">
<path d="M283.764 284.365C349.005 284.365 401.893 231.477 401.893 166.236C401.893 100.995 349.005 48.1064 283.764 48.1064C218.523 48.1064 165.635 100.995 165.635 166.236C165.635 231.477 218.523 284.365 283.764 284.365Z" fill="#150097" fill-opacity="0.05"/>
<path d="M283.764 284.365C349.005 284.365 401.893 231.477 401.893 166.236C401.893 100.995 349.005 48.1064 283.764 48.1064C218.523 48.1064 165.635 100.995 165.635 166.236C165.635 231.477 218.523 284.365 283.764 284.365Z" fill="url(#paint23_linear_14_66)" fill-opacity="0.2"/>
<path d="M401.743 166.236C401.743 231.394 348.922 284.215 283.764 284.215C218.606 284.215 165.785 231.394 165.785 166.236C165.785 101.078 218.606 48.2564 283.764 48.2564C348.922 48.2564 401.743 101.078 401.743 166.236Z" stroke="url(#paint24_linear_14_66)" stroke-opacity="0.1" stroke-width="0.3"/>
</g>
<g filter="url(#filter2_i_14_66)">
<path d="M305.274 121.009C316.787 121.009 326.121 111.676 326.121 100.163C326.121 88.6496 316.787 79.3164 305.274 79.3164C293.761 79.3164 284.428 88.6496 284.428 100.163C284.428 111.676 293.761 121.009 305.274 121.009Z" fill="white" fill-opacity="0.1"/>
<path d="M317.525 249.2C314.189 251.624 310.21 253.004 306.09 253.165C301.97 253.327 297.894 252.264 294.379 250.109C290.863 247.955 288.066 244.806 286.34 241.061C284.614 237.317 284.037 233.145 284.682 229.072C285.328 225 287.166 221.21 289.965 218.183C292.764 215.155 296.398 213.026 300.408 212.064C304.417 211.102 308.622 211.351 312.49 212.778C316.358 214.206 319.716 216.749 322.139 220.085C325.387 224.558 326.726 230.138 325.861 235.598C324.996 241.058 321.997 245.951 317.525 249.2Z" fill="white" fill-opacity="0.1"/>
<path d="M290.237 186.077C286.316 187.351 282.105 187.434 278.137 186.315C274.169 185.196 270.622 182.925 267.945 179.79C265.267 176.655 263.579 172.797 263.094 168.703C262.609 164.609 263.349 160.463 265.221 156.789C267.092 153.115 270.011 150.079 273.607 148.064C277.204 146.049 281.318 145.146 285.428 145.469C289.538 145.791 293.46 147.326 296.698 149.877C299.936 152.429 302.345 155.883 303.62 159.804C304.467 162.408 304.793 165.153 304.578 167.883C304.364 170.613 303.614 173.273 302.371 175.713C301.128 178.153 299.417 180.324 297.335 182.102C295.253 183.881 292.841 185.231 290.237 186.077Z" fill="white" fill-opacity="0.1"/>
<path d="M215.329 223.955C211.993 221.532 209.451 218.173 208.024 214.305C206.598 210.436 206.35 206.232 207.313 202.222C208.276 198.213 210.406 194.579 213.434 191.781C216.462 188.982 220.252 187.145 224.325 186.5C228.397 185.856 232.569 186.434 236.314 188.161C240.058 189.888 243.206 192.686 245.359 196.202C247.513 199.718 248.576 203.794 248.413 207.914C248.25 212.034 246.869 216.013 244.444 219.348C241.194 223.82 236.301 226.817 230.841 227.681C225.381 228.545 219.801 227.205 215.329 223.955Z" fill="white" fill-opacity="0.1"/>
<path d="M247.405 131.849C246.13 135.77 243.721 139.224 240.483 141.776C237.245 144.328 233.322 145.862 229.212 146.185C225.102 146.507 220.989 145.604 217.392 143.589C213.795 141.574 210.877 138.538 209.005 134.864C207.134 131.191 206.394 127.045 206.879 122.95C207.364 118.856 209.052 114.998 211.729 111.863C214.407 108.728 217.954 106.458 221.922 105.339C225.89 104.219 230.101 104.302 234.022 105.576C236.626 106.422 239.038 107.773 241.12 109.551C243.202 111.329 244.913 113.5 246.156 115.94C247.399 118.38 248.149 121.041 248.363 123.77C248.577 126.5 248.252 129.245 247.405 131.849Z" fill="white" fill-opacity="0.1"/>
<path d="M363.574 184.371C373.587 178.688 377.096 165.964 371.413 155.951C365.729 145.939 353.005 142.429 342.993 148.113C332.98 153.796 329.471 166.52 335.154 176.533C340.838 186.545 353.562 190.055 363.574 184.371Z" fill="white" fill-opacity="0.1"/>
</g>
</g>
<defs>
<filter id="filter0_f_14_66" x="0" y="26.834" width="490.019" height="341.371" filterUnits="userSpaceOnUse" color-interpolation-filters="sRGB">
<feFlood flood-opacity="0" result="BackgroundImageFix"/>
<feBlend mode="normal" in="SourceGraphic" in2="BackgroundImageFix" result="shape"/>
<feGaussianBlur stdDeviation="44" result="effect1_foregroundBlur_14_66"/>
</filter>
<filter id="filter1_bi_14_66" x="159.635" y="42.1064" width="248.258" height="248.258" filterUnits="userSpaceOnUse" color-interpolation-filters="sRGB">
<feFlood flood-opacity="0" result="BackgroundImageFix"/>
<feGaussianBlur in="BackgroundImageFix" stdDeviation="3"/>
<feComposite in2="SourceAlpha" operator="in" result="effect1_backgroundBlur_14_66"/>
<feBlend mode="normal" in="SourceGraphic" in2="effect1_backgroundBlur_14_66" result="shape"/>
<feColorMatrix in="SourceAlpha" type="matrix" values="0 0 0 0 0 0 0 0 0 0 0 0 0 0 0 0 0 0 127 0" result="hardAlpha"/>
<feOffset dy="2"/>
<feGaussianBlur stdDeviation="1.5"/>
<feComposite in2="hardAlpha" operator="arithmetic" k2="-1" k3="1"/>
<feColorMatrix type="matrix" values="0 0 0 0 1 0 0 0 0 1 0 0 0 0 1 0 0 0 0.15 0"/>
<feBlend mode="normal" in2="shape" result="effect2_innerShadow_14_66"/>
</filter>
<filter id="filter2_i_14_66" x="206.734" y="79.3164" width="167.399" height="175.865" filterUnits="userSpaceOnUse" color-interpolation-filters="sRGB">
<feFlood flood-opacity="0" result="BackgroundImageFix"/>
<feBlend mode="normal" in="SourceGraphic" in2="BackgroundImageFix" result="shape"/>
<feColorMatrix in="SourceAlpha" type="matrix" values="0 0 0 0 0 0 0 0 0 0 0 0 0 0 0 0 0 0 127 0" result="hardAlpha"/>
<feOffset dy="2"/>
<feGaussianBlur stdDeviation="1"/>
<feComposite in2="hardAlpha" operator="arithmetic" k2="-1" k3="1"/>
<feColorMatrix type="matrix" values="0 0 0 0 1 0 0 0 0 1 0 0 0 0 1 0 0 0 0.1 0"/>
<feBlend mode="normal" in2="shape" result="effect1_innerShadow_14_66"/>
</filter>
<linearGradient id="paint0_linear_14_66" x1="88.035" y1="197.532" x2="402.044" y2="197.532" gradientUnits="userSpaceOnUse">
<stop stop-color="#2F61D5"/>
<stop offset="0.465" stop-color="#262084"/>
<stop offset="1" stop-color="#262084"/>
</linearGradient>
<linearGradient id="paint1_linear_14_66" x1="206.731" y1="79.3135" x2="404.798" y2="127.736" gradientUnits="userSpaceOnUse">
<stop stop-color="#B1BFF0"/>
<stop offset="1" stop-color="#2F61D5"/>
</linearGradient>
<linearGradient id="paint2_linear_14_66" x1="206.731" y1="79.3135" x2="404.798" y2="127.736" gradientUnits="userSpaceOnUse">
<stop stop-color="#B1BFF0"/>
<stop offset="1" stop-color="#2F61D5"/>
</linearGradient>
<linearGradient id="paint3_linear_14_66" x1="206.731" y1="79.3135" x2="404.798" y2="127.736" gradientUnits="userSpaceOnUse">
<stop stop-color="#B1BFF0"/>
<stop offset="1" stop-color="#2F61D5"/>
</linearGradient>
<linearGradient id="paint4_linear_14_66" x1="206.731" y1="79.3135" x2="404.798" y2="127.736" gradientUnits="userSpaceOnUse">
<stop stop-color="#B1BFF0"/>
<stop offset="1" stop-color="#2F61D5"/>
</linearGradient>
<linearGradient id="paint5_linear_14_66" x1="206.731" y1="79.3135" x2="404.798" y2="127.736" gradientUnits="userSpaceOnUse">
<stop stop-color="#B1BFF0"/>
<stop offset="1" stop-color="#2F61D5"/>
</linearGradient>
<linearGradient id="paint6_linear_14_66" x1="206.731" y1="79.3135" x2="404.798" y2="127.736" gradientUnits="userSpaceOnUse">
<stop stop-color="#B1BFF0"/>
<stop offset="1" stop-color="#2F61D5"/>
</linearGradient>
<linearGradient id="paint7_linear_14_66" x1="311.183" y1="26.8452" x2="338.939" y2="30.7644" gradientUnits="userSpaceOnUse">
<stop stop-color="#B1BFF0"/>
<stop offset="1" stop-color="#2F61D5"/>
</linearGradient>
<linearGradient id="paint8_linear_14_66" x1="310.156" y1="0" x2="359.268" y2="12.4706" gradientUnits="userSpaceOnUse">
<stop stop-color="#B1BFF0"/>
<stop offset="1" stop-color="#2F61D5"/>
</linearGradient>
<linearGradient id="paint9_linear_14_66" x1="375.874" y1="96.1865" x2="418.524" y2="111.979" gradientUnits="userSpaceOnUse">
<stop stop-color="#B1BFF0"/>
<stop offset="1" stop-color="#2F61D5"/>
</linearGradient>
<linearGradient id="paint10_linear_14_66" x1="399.128" y1="75.9849" x2="448.241" y2="88.4555" gradientUnits="userSpaceOnUse">
<stop stop-color="#B1BFF0"/>
<stop offset="1" stop-color="#2F61D5"/>
</linearGradient>
<linearGradient id="paint11_linear_14_66" x1="382.555" y1="193.655" x2="424.152" y2="212.532" gradientUnits="userSpaceOnUse">
<stop stop-color="#B1BFF0"/>
<stop offset="1" stop-color="#2F61D5"/>
</linearGradient>
<linearGradient id="paint12_linear_14_66" x1="408.307" y1="192.627" x2="457.42" y2="205.098" gradientUnits="userSpaceOnUse">
<stop stop-color="#B1BFF0"/>
<stop offset="1" stop-color="#2F61D5"/>
</linearGradient>
<linearGradient id="paint13_linear_14_66" x1="327.291" y1="258.346" x2="359.556" y2="263.964" gradientUnits="userSpaceOnUse">
<stop stop-color="#B1BFF0"/>
<stop offset="1" stop-color="#2F61D5"/>
</linearGradient>
<linearGradient id="paint14_linear_14_66" x1="332.322" y1="281.599" x2="381.435" y2="294.07" gradientUnits="userSpaceOnUse">
<stop stop-color="#B1BFF0"/>
<stop offset="1" stop-color="#2F61D5"/>
</linearGradient>
<linearGradient id="paint15_linear_14_66" x1="233.962" y1="265.027" x2="261.474" y2="268.935" gradientUnits="userSpaceOnUse">
<stop stop-color="#B1BFF0"/>
<stop offset="1" stop-color="#2F61D5"/>
</linearGradient>
<linearGradient id="paint16_linear_14_66" x1="215.68" y1="290.779" x2="264.793" y2="303.249" gradientUnits="userSpaceOnUse">
<stop stop-color="#B1BFF0"/>
<stop offset="1" stop-color="#2F61D5"/>
</linearGradient>
<linearGradient id="paint17_linear_14_66" x1="152.977" y1="209.763" x2="195.627" y2="225.555" gradientUnits="userSpaceOnUse">
<stop stop-color="#B1BFF0"/>
<stop offset="1" stop-color="#2F61D5"/>
</linearGradient>
<linearGradient id="paint18_linear_14_66" x1="126.708" y1="214.794" x2="175.82" y2="227.265" gradientUnits="userSpaceOnUse">
<stop stop-color="#B1BFF0"/>
<stop offset="1" stop-color="#2F61D5"/>
</linearGradient>
<linearGradient id="paint19_linear_14_66" x1="144.374" y1="116.24" x2="186.499" y2="135.475" gradientUnits="userSpaceOnUse">
<stop stop-color="#B1BFF0"/>
<stop offset="1" stop-color="#2F61D5"/>
</linearGradient>
<linearGradient id="paint20_linear_14_66" x1="117.529" y1="98.1514" x2="166.641" y2="110.622" gradientUnits="userSpaceOnUse">
<stop stop-color="#B1BFF0"/>
<stop offset="1" stop-color="#2F61D5"/>
</linearGradient>
<linearGradient id="paint21_linear_14_66" x1="213.726" y1="35.4702" x2="245.99" y2="41.0889" gradientUnits="userSpaceOnUse">
<stop stop-color="#B1BFF0"/>
<stop offset="1" stop-color="#2F61D5"/>
</linearGradient>
<linearGradient id="paint22_linear_14_66" x1="193.513" y1="9.1792" x2="242.626" y2="21.6498" gradientUnits="userSpaceOnUse">
<stop stop-color="#B1BFF0"/>
<stop offset="1" stop-color="#2F61D5"/>
</linearGradient>
<linearGradient id="paint23_linear_14_66" x1="165.635" y1="48.1064" x2="443.94" y2="118.773" gradientUnits="userSpaceOnUse">
<stop stop-color="#2F61D5"/>
<stop offset="1" stop-color="#262084"/>
</linearGradient>
<linearGradient id="paint24_linear_14_66" x1="173.018" y1="58.8455" x2="401.893" y2="58.8455" gradientUnits="userSpaceOnUse">
<stop stop-color="#5EFFD7"/>
<stop offset="1" stop-color="#FF40D2"/>
</linearGradient>
<clipPath id="clip0_14_66">
<rect width="332.471" height="332.471" fill="white" transform="translate(117.529)"/>
</clipPath>
</defs>
</svg>
