<svg width="341" height="341" viewBox="0 0 341 341" fill="none" xmlns="http://www.w3.org/2000/svg">
<path d="M66.1251 223.388C68.0812 220.315 71.472 218.453 75.1154 218.453H265.885C269.528 218.453 272.919 220.315 274.875 223.388L303.82 268.874C306.078 272.421 303.53 277.062 299.325 277.062H41.6749C37.4705 277.062 34.9225 272.421 37.1798 268.874L66.1251 223.388Z" fill="url(#paint0_linear_14_196)"/>
<path d="M78.3878 231.794C79.3365 230.134 81.1019 229.109 83.0139 229.109H257.986C259.898 229.109 261.664 230.134 262.612 231.794L277.835 258.435C279.865 261.987 277.3 266.406 273.209 266.406H67.7907C63.6997 266.406 61.1349 261.987 63.1646 258.435L78.3878 231.794Z" fill="url(#paint1_linear_14_196)"/>
<path d="M63.9375 85.25C63.9375 73.4794 73.4794 63.9375 85.25 63.9375H255.75C267.521 63.9375 277.062 73.4794 277.062 85.25V191.812C277.062 203.583 267.521 213.125 255.75 213.125H85.25C73.4794 213.125 63.9375 203.583 63.9375 191.812V85.25Z" fill="url(#paint2_linear_14_196)"/>
<path d="M85.25 95.9063C85.25 90.021 90.021 85.25 95.9062 85.25H245.094C250.979 85.25 255.75 90.021 255.75 95.9062V181.156C255.75 187.042 250.979 191.812 245.094 191.812H95.9062C90.021 191.812 85.25 187.042 85.25 181.156V95.9063Z" fill="url(#paint3_linear_14_196)"/>
<path d="M95.9062 101.234C95.9062 98.2917 98.2917 95.9062 101.234 95.9062H239.766C242.708 95.9062 245.094 98.2917 245.094 101.234V101.234C245.094 104.177 242.708 106.562 239.766 106.562H101.234C98.2917 106.562 95.9062 104.177 95.9062 101.234V101.234Z" fill="url(#paint4_linear_14_196)"/>
<defs>
<linearGradient id="paint0_linear_14_196" x1="170.5" y1="218.453" x2="170.5" y2="277.062" gradientUnits="userSpaceOnUse">
<stop stop-color="#8000FF" stop-opacity="0.5"/>
<stop offset="1" stop-color="#7000FF" stop-opacity="0"/>
</linearGradient>
<linearGradient id="paint1_linear_14_196" x1="170.5" y1="229.109" x2="170.5" y2="266.406" gradientUnits="userSpaceOnUse">
<stop stop-color="#8000FF" stop-opacity="0.5"/>
<stop offset="1" stop-color="#7000FF" stop-opacity="0"/>
</linearGradient>
<linearGradient id="paint2_linear_14_196" x1="170.5" y1="63.9375" x2="170.5" y2="213.125" gradientUnits="userSpaceOnUse">
<stop stop-color="#8000FF" stop-opacity="0.5"/>
<stop offset="1" stop-color="#7000FF" stop-opacity="0"/>
</linearGradient>
<linearGradient id="paint3_linear_14_196" x1="170.5" y1="85.25" x2="170.5" y2="191.812" gradientUnits="userSpaceOnUse">
<stop stop-color="#8000FF" stop-opacity="0.5"/>
<stop offset="1" stop-color="#7000FF" stop-opacity="0"/>
</linearGradient>
<linearGradient id="paint4_linear_14_196" x1="161.724" y1="95.9062" x2="161.724" y2="106.562" gradientUnits="userSpaceOnUse">
<stop stop-color="#5200FF" stop-opacity="0.8"/>
<stop offset="1" stop-color="#6100FF" stop-opacity="0"/>
</linearGradient>
</defs>
</svg>
