<svg width="64" height="64" viewBox="0 0 64 64" fill="none" xmlns="http://www.w3.org/2000/svg">
<path d="M12.4106 41.9263C12.7777 41.3494 13.4141 41 14.0979 41H49.9021C50.5859 41 51.2223 41.3494 51.5895 41.9262L57.022 50.4631C57.4457 51.1288 56.9674 52 56.1783 52H7.82169C7.0326 52 6.55439 51.1288 6.97803 50.4631L12.4106 41.9263Z" fill="url(#paint0_linear_21_126)"/>
<path d="M14.7121 43.5039C14.8901 43.1923 15.2214 43 15.5803 43H48.4197C48.7785 43 49.1099 43.1923 49.2879 43.5039L52.145 48.5039C52.526 49.1705 52.0446 50 51.2768 50H12.7232C11.9553 50 11.474 49.1705 11.8549 48.5039L14.7121 43.5039Z" fill="url(#paint1_linear_21_126)"/>
<path d="M12 16C12 13.7909 13.7909 12 16 12H48C50.2091 12 52 13.7909 52 16V36C52 38.2091 50.2091 40 48 40H16C13.7909 40 12 38.2091 12 36V16Z" fill="url(#paint2_linear_21_126)"/>
<path d="M16 18C16 16.8954 16.8954 16 18 16H46C47.1046 16 48 16.8954 48 18V34C48 35.1046 47.1046 36 46 36H18C16.8954 36 16 35.1046 16 34V18Z" fill="url(#paint3_linear_21_126)"/>
<path d="M18 19C18 18.4477 18.4477 18 19 18H45C45.5523 18 46 18.4477 46 19C46 19.5523 45.5523 20 45 20H19C18.4477 20 18 19.5523 18 19Z" fill="url(#paint4_linear_21_126)"/>
<defs>
<linearGradient id="paint0_linear_21_126" x1="32" y1="41" x2="32" y2="52" gradientUnits="userSpaceOnUse">
<stop stop-color="white" stop-opacity="0.5"/>
<stop offset="1" stop-color="white" stop-opacity="0"/>
</linearGradient>
<linearGradient id="paint1_linear_21_126" x1="32" y1="43" x2="32" y2="50" gradientUnits="userSpaceOnUse">
<stop stop-color="white" stop-opacity="0.5"/>
<stop offset="1" stop-color="white" stop-opacity="0"/>
</linearGradient>
<linearGradient id="paint2_linear_21_126" x1="32" y1="12" x2="32" y2="40" gradientUnits="userSpaceOnUse">
<stop stop-color="white" stop-opacity="0.5"/>
<stop offset="1" stop-color="white" stop-opacity="0"/>
</linearGradient>
<linearGradient id="paint3_linear_21_126" x1="32" y1="16" x2="32" y2="36" gradientUnits="userSpaceOnUse">
<stop stop-color="white" stop-opacity="0.5"/>
<stop offset="1" stop-color="white" stop-opacity="0"/>
</linearGradient>
<linearGradient id="paint4_linear_21_126" x1="30.3529" y1="18" x2="30.3529" y2="20" gradientUnits="userSpaceOnUse">
<stop stop-color="white" stop-opacity="0.8"/>
<stop offset="1" stop-color="white" stop-opacity="0"/>
</linearGradient>
</defs>
</svg>
