<svg width="344" height="344" viewBox="0 0 344 344" fill="none" xmlns="http://www.w3.org/2000/svg">
<g clip-path="url(#clip0_29_221)">
<g filter="url(#filter0_f_29_221)">
<path d="M266.643 203.112L234.481 125.569C229.521 113.609 219.092 113.609 214.133 125.569L194.162 173.739L153.71 76.2013C148.751 64.2415 138.322 64.2415 133.362 76.2013L80.7307 203.112C74.9205 217.117 80.8158 236.43 90.9045 236.43H256.457C266.546 236.43 272.441 217.117 266.631 203.112H266.643Z" fill="url(#paint0_linear_29_221)" fill-opacity="0.6"/>
</g>
<path d="M338 172.5C338 263.903 263.903 338 172.5 338C81.0969 338 7 263.903 7 172.5C7 81.0969 81.0969 7 172.5 7C263.903 7 338 81.0969 338 172.5Z" fill="url(#paint1_linear_29_221)"/>
<path d="M310.417 172.5C310.417 248.669 248.669 310.417 172.5 310.417C96.3307 310.417 34.5833 248.669 34.5833 172.5C34.5833 96.3309 96.3307 34.5835 172.5 34.5835C248.669 34.5835 310.417 96.3309 310.417 172.5Z" fill="url(#paint2_linear_29_221)"/>
</g>
<g style="mix-blend-mode:saturation">
<path d="M166.683 18.8794C140.523 19.8812 114.864 27.6735 92.0442 41.9223C52.1922 66.7463 27.7578 106.932 21.524 150.068C57.7581 182.851 95.662 197.1 134.679 192.647C128.724 144.78 134.568 86.06 166.683 18.8794ZM152.935 261.887C145.978 245.134 139.911 225.598 136.238 203.557C131.173 204.169 126.108 204.447 121.043 204.447C86.3113 204.447 52.2478 190.755 20.1325 163.76C18.6853 189.864 23.9173 216.581 36.4406 241.182C75.3464 259.605 115.365 266.507 152.935 261.887ZM164.512 302.463C166.961 301.294 169.41 300.237 171.859 299.179C167.128 291.442 162.175 282.481 157.444 272.24C148.427 273.464 139.243 274.132 130.004 274.132C102.285 274.132 73.7323 268.511 45.9583 257.435C67.7767 289.828 100.003 311.313 135.403 320.274C144.085 313.595 153.826 307.584 164.512 302.463ZM150.319 323.279C163.232 325.228 176.368 325.561 189.448 324.17C186.331 320.385 182.435 315.209 178.038 308.808C175.143 309.977 172.249 311.146 169.355 312.537C162.564 315.765 156.275 319.383 150.319 323.279ZM254.012 301.962C254.291 301.739 254.625 301.517 254.903 301.35C233.307 296.34 211.155 297.621 188.724 304.912C194.791 313.483 199.745 319.328 202.361 322.222C220.172 318.771 237.704 312.092 254.012 301.962ZM180.654 178.955C233.975 153.463 259.411 107.823 256.406 43.3694C241.712 33.8517 225.292 26.8386 207.648 22.7198C198.186 20.5491 188.613 19.269 179.095 18.8794C157.611 62.3492 137.351 123.574 145.31 190.922C156.998 188.584 168.798 184.688 180.654 178.955ZM309.505 102.535C307.501 98.639 305.386 94.7428 302.993 90.958C293.475 75.6517 281.564 62.4048 267.816 51.5513C268.428 116.283 240.821 162.536 185.44 189.029C172.583 195.208 159.726 199.438 146.868 201.942C148.984 214.744 152.1 227.824 156.553 240.96C158.78 247.75 161.284 254.151 163.845 260.218C185.44 256.21 206.09 248.418 225.07 236.618C270.599 208.232 300.488 160.699 309.505 102.535ZM322.195 206.618C328.93 177.619 327.149 148.064 317.353 120.736C305.052 174.614 274.885 218.696 230.914 246.08C211.767 257.991 190.672 266.062 168.52 270.403C173.084 279.865 177.815 288.159 182.268 295.227C210.932 285.264 239.263 284.541 266.758 293.057C294.644 271.572 314.124 241.349 322.195 206.618ZM312.455 85.0581C335.664 122.294 342.956 166.376 333.048 209.122C323.085 251.869 297.148 288.159 259.857 311.368C232.918 328.177 202.917 336.192 173.251 336.192C161.451 336.192 149.651 334.857 138.13 332.352C137.573 332.797 136.961 333.242 136.405 333.743L134.512 331.517C94.0479 321.777 57.2572 296.841 33.5463 258.77C13.3977 226.432 5.93938 189.697 9.77986 154.465C9.11195 153.853 8.4997 153.296 7.88745 152.684L10.2251 150.291C16.5146 103.314 42.8971 59.3992 86.1443 32.4602C123.38 9.25031 167.462 1.95896 210.209 11.922C252.955 21.8293 289.245 47.8221 312.455 85.0581Z" fill="#121212"/>
</g>
<defs>
<filter id="filter0_f_29_221" x="-9.56354" y="-20.7686" width="366.489" height="345.199" filterUnits="userSpaceOnUse" color-interpolation-filters="sRGB">
<feFlood flood-opacity="0" result="BackgroundImageFix"/>
<feBlend mode="normal" in="SourceGraphic" in2="BackgroundImageFix" result="shape"/>
<feGaussianBlur stdDeviation="44" result="effect1_foregroundBlur_29_221"/>
</filter>
<linearGradient id="paint0_linear_29_221" x1="78.4577" y1="151.844" x2="268.94" y2="151.844" gradientUnits="userSpaceOnUse">
<stop stop-color="#4A72FF"/>
<stop offset="0.49" stop-color="#1C0E39"/>
<stop offset="1" stop-color="#19004F"/>
</linearGradient>
<linearGradient id="paint1_linear_29_221" x1="172.5" y1="7" x2="172.5" y2="338" gradientUnits="userSpaceOnUse">
<stop stop-color="#3680FF"/>
<stop offset="1" stop-color="#262084" stop-opacity="0"/>
</linearGradient>
<linearGradient id="paint2_linear_29_221" x1="172.5" y1="34.5835" x2="172.5" y2="310.417" gradientUnits="userSpaceOnUse">
<stop stop-color="#3680FF"/>
<stop offset="1" stop-color="#262084" stop-opacity="0"/>
</linearGradient>
<clipPath id="clip0_29_221">
<rect width="344" height="344" fill="white"/>
</clipPath>
</defs>
</svg>
