<svg width="520" height="432" viewBox="0 0 520 432" fill="none" xmlns="http://www.w3.org/2000/svg">
<g filter="url(#filter0_b_14_72)">
<path d="M381.173 102.787L373.816 100.88L374.732 97.2436C375.066 95.9182 375.475 94.9742 375.961 94.4113C376.487 93.8245 377.44 93.1076 378.822 92.2606L382.968 89.7195C383.599 89.2631 384.028 88.5824 384.256 87.6773C384.492 86.7399 384.429 85.8972 384.067 85.1492C383.706 84.4012 383.105 83.9185 382.266 83.7011C381.427 83.4836 380.624 83.6714 379.856 84.2643C379.128 84.8333 378.549 85.699 378.119 86.8616L370.424 84.8669C371.592 81.7265 373.409 79.4942 375.873 78.1703C378.338 76.8463 381.07 76.5732 384.071 77.351C387.104 78.1371 389.349 79.597 390.806 81.7306C392.294 83.8726 392.672 86.3982 391.94 89.3075C391.614 90.6004 391.209 91.5284 390.724 92.0912C390.246 92.6218 389.906 93.0158 389.704 93.2732C389.51 93.4984 389.102 93.823 388.479 94.247C387.889 94.6795 387.493 94.9556 387.291 95.0754C386.321 95.6505 385.396 96.1854 384.515 96.6802C383.667 97.1834 383.073 97.632 382.733 98.026C382.401 98.3877 382.126 99.0049 381.906 99.8777L381.173 102.787ZM372.211 110.329C371.616 109.28 371.469 108.157 371.77 106.961C372.071 105.765 372.727 104.867 373.737 104.268C374.787 103.645 375.91 103.489 377.103 103.798C378.297 104.108 379.192 104.787 379.787 105.837C380.422 106.862 380.59 107.973 380.288 109.169C379.987 110.365 379.312 111.274 378.261 111.897C377.251 112.496 376.149 112.641 374.955 112.332C373.761 112.022 372.846 111.355 372.211 110.329Z" fill="url(#paint0_linear_14_72)"/>
</g>
<g style="mix-blend-mode:hard-light" filter="url(#filter1_b_14_72)">
<mask id="path-2-outside-1_14_72" maskUnits="userSpaceOnUse" x="188.216" y="11.2776" width="32.1147" height="42.9165" fill="black">
<rect fill="white" x="188.216" y="11.2776" width="32.1147" height="42.9165"/>
<path d="M206.878 40.4556L199.411 39.0406L200.137 35.3615C200.402 34.0207 200.762 33.0543 201.219 32.4624C201.715 31.8439 202.632 31.0678 203.972 30.1343L207.99 27.3335C208.597 26.838 208.991 26.1324 209.172 25.2167C209.359 24.2683 209.252 23.4338 208.851 22.7132C208.45 21.9925 207.823 21.5515 206.972 21.3902C206.12 21.2288 205.325 21.4684 204.587 22.1088C203.889 22.7228 203.354 23.6223 202.985 24.8075L195.174 23.3273C196.179 20.1253 197.881 17.7847 200.28 16.3054C202.678 14.8262 205.4 14.3752 208.446 14.9523C211.525 15.5357 213.849 16.8413 215.419 18.8691C217.023 20.9031 217.534 23.3917 216.953 26.3349C216.695 27.643 216.337 28.593 215.881 29.185C215.43 29.7443 215.111 30.1587 214.922 30.4282C214.739 30.665 214.347 31.0148 213.746 31.4777C213.178 31.9467 212.796 32.2475 212.6 32.38C211.659 33.0159 210.76 33.6089 209.904 34.1592C209.081 34.7156 208.51 35.201 208.19 35.6154C207.877 35.9971 207.633 36.6294 207.459 37.5124L206.878 40.4556ZM198.299 48.5495C197.648 47.544 197.442 46.4363 197.68 45.2263C197.919 44.0163 198.529 43.0802 199.509 42.4177C200.528 41.7288 201.644 41.4992 202.855 41.7288C204.067 41.9585 204.999 42.576 205.649 43.5814C206.34 44.5603 206.565 45.6548 206.326 46.8648C206.088 48.0748 205.459 49.0242 204.439 49.7131C203.459 50.3755 202.363 50.5919 201.151 50.3623C199.94 50.1327 198.989 49.5284 198.299 48.5495Z"/>
</mask>
<path d="M206.878 40.4556L199.411 39.0406L200.137 35.3615C200.402 34.0207 200.762 33.0543 201.219 32.4624C201.715 31.8439 202.632 31.0678 203.972 30.1343L207.99 27.3335C208.597 26.838 208.991 26.1324 209.172 25.2167C209.359 24.2683 209.252 23.4338 208.851 22.7132C208.45 21.9925 207.823 21.5515 206.972 21.3902C206.12 21.2288 205.325 21.4684 204.587 22.1088C203.889 22.7228 203.354 23.6223 202.985 24.8075L195.174 23.3273C196.179 20.1253 197.881 17.7847 200.28 16.3054C202.678 14.8262 205.4 14.3752 208.446 14.9523C211.525 15.5357 213.849 16.8413 215.419 18.8691C217.023 20.9031 217.534 23.3917 216.953 26.3349C216.695 27.643 216.337 28.593 215.881 29.185C215.43 29.7443 215.111 30.1587 214.922 30.4282C214.739 30.665 214.347 31.0148 213.746 31.4777C213.178 31.9467 212.796 32.2475 212.6 32.38C211.659 33.0159 210.76 33.6089 209.904 34.1592C209.081 34.7156 208.51 35.201 208.19 35.6154C207.877 35.9971 207.633 36.6294 207.459 37.5124L206.878 40.4556ZM198.299 48.5495C197.648 47.544 197.442 46.4363 197.68 45.2263C197.919 44.0163 198.529 43.0802 199.509 42.4177C200.528 41.7288 201.644 41.4992 202.855 41.7288C204.067 41.9585 204.999 42.576 205.649 43.5814C206.34 44.5603 206.565 45.6548 206.326 46.8648C206.088 48.0748 205.459 49.0242 204.439 49.7131C203.459 50.3755 202.363 50.5919 201.151 50.3623C199.94 50.1327 198.989 49.5284 198.299 48.5495Z" fill="white" fill-opacity="0.5"/>
<path d="M206.878 40.4556L206.684 41.4366L207.667 41.6228L207.86 40.6418L206.878 40.4556ZM199.411 39.0406L198.428 38.8544L198.235 39.8354L199.217 40.0216L199.411 39.0406ZM201.219 32.4624L200.438 31.8422L200.432 31.8496L200.427 31.8571L201.219 32.4624ZM203.972 30.1343L204.541 30.9514L203.972 30.1343ZM207.99 27.3335L208.56 28.1507L208.591 28.1288L208.621 28.1046L207.99 27.3335ZM208.851 22.7132L209.727 22.2237L209.727 22.2237L208.851 22.7132ZM204.587 22.1088L203.933 21.3575L203.928 21.3616L204.587 22.1088ZM202.985 24.8075L202.791 25.7885L203.673 25.9557L203.941 25.098L202.985 24.8075ZM195.174 23.3273L194.218 23.035L193.883 24.1006L194.98 24.3084L195.174 23.3273ZM200.28 16.3054L199.757 15.4572L200.28 16.3054ZM215.419 18.8691L214.625 19.4829L214.63 19.4895L215.419 18.8691ZM215.881 29.185L216.66 29.8067L216.666 29.7986L216.673 29.7903L215.881 29.185ZM214.922 30.4282L215.714 31.0335L215.728 31.0154L215.741 30.9968L214.922 30.4282ZM213.746 31.4777L213.138 30.689L213.124 30.6994L213.111 30.7103L213.746 31.4777ZM212.6 32.38L213.158 33.2053L212.6 32.38ZM209.904 34.1592L209.366 33.3209L209.356 33.3272L209.347 33.3338L209.904 34.1592ZM208.19 35.6154L208.963 36.2444L208.973 36.2327L208.982 36.2206L208.19 35.6154ZM198.299 48.5495L197.456 49.0952L197.467 49.1116L197.478 49.1276L198.299 48.5495ZM199.509 42.4177L198.951 41.5924L199.509 42.4177ZM205.649 43.5814L204.807 44.1272L204.818 44.1436L204.829 44.1596L205.649 43.5814ZM204.439 49.7131L203.881 48.8877L203.881 48.8877L204.439 49.7131ZM207.072 39.4745L199.604 38.0595L199.217 40.0216L206.684 41.4366L207.072 39.4745ZM200.393 39.2267L201.12 35.5477L199.154 35.1754L198.428 38.8544L200.393 39.2267ZM201.12 35.5477C201.375 34.2524 201.699 33.472 202.011 33.0676L200.427 31.8571C199.825 32.6367 199.428 33.789 199.154 35.1754L201.12 35.5477ZM201.999 33.0825C202.4 32.5832 203.216 31.8752 204.541 30.9514L203.402 29.3171C202.048 30.2605 201.03 31.1046 200.438 31.8422L201.999 33.0825ZM204.541 30.9514L208.56 28.1507L207.42 26.5164L203.402 29.3171L204.541 30.9514ZM208.621 28.1046C209.444 27.433 209.938 26.5014 210.155 25.4029L208.19 25.0305C208.045 25.7634 207.751 26.243 207.359 26.5624L208.621 28.1046ZM210.155 25.4029C210.379 24.2641 210.261 23.1829 209.727 22.2237L207.975 23.2027C208.243 23.6847 208.339 24.2726 208.19 25.0305L210.155 25.4029ZM209.727 22.2237C209.175 21.2328 208.291 20.6224 207.165 20.4091L206.778 22.3713C207.355 22.4806 207.724 22.7522 207.975 23.2027L209.727 22.2237ZM207.165 20.4091C205.972 20.1829 204.871 20.5432 203.933 21.3575L205.242 22.8601C205.779 22.3935 206.269 22.2747 206.778 22.3713L207.165 20.4091ZM203.928 21.3616C203.051 22.1326 202.435 23.2134 202.029 24.5169L203.941 25.098C204.273 24.0312 204.726 23.3129 205.246 22.856L203.928 21.3616ZM203.178 23.8264L195.367 22.3462L194.98 24.3084L202.791 25.7885L203.178 23.8264ZM196.129 23.6196C197.077 20.6014 198.649 18.4817 200.802 17.1537L199.757 15.4572C197.114 17.0878 195.281 19.6492 194.218 23.035L196.129 23.6196ZM200.802 17.1537C202.963 15.8207 205.425 15.3976 208.252 15.9334L208.64 13.9713C205.375 13.3527 202.393 13.8317 199.757 15.4572L200.802 17.1537ZM208.252 15.9334C211.146 16.4818 213.234 17.6859 214.625 19.4829L216.214 18.2553C214.465 15.9966 211.903 14.5896 208.64 13.9713L208.252 15.9334ZM214.63 19.4895C216.026 21.2601 216.504 23.4418 215.97 26.1487L217.935 26.5211C218.563 23.3416 218.019 20.546 216.208 18.2486L214.63 19.4895ZM215.97 26.1487C215.722 27.4067 215.402 28.1733 215.088 28.5797L216.673 29.7903C217.272 29.0128 217.667 27.8793 217.935 26.5211L215.97 26.1487ZM215.101 28.5633C214.649 29.1247 214.312 29.561 214.103 29.8596L215.741 30.9968C215.91 30.7564 216.211 30.3639 216.66 29.8067L215.101 28.5633ZM214.13 29.8229C214.036 29.9437 213.743 30.2225 213.138 30.689L214.355 32.2664C214.951 31.8072 215.442 31.3863 215.714 31.0335L214.13 29.8229ZM213.111 30.7103C212.535 31.1854 212.191 31.454 212.042 31.5546L213.158 33.2053C213.401 33.041 213.821 32.7081 214.382 32.2451L213.111 30.7103ZM212.042 31.5546C211.107 32.1866 210.215 32.7754 209.366 33.3209L210.443 34.9974C211.306 34.4425 212.211 33.8451 213.158 33.2053L212.042 31.5546ZM209.347 33.3338C208.499 33.9066 207.818 34.4648 207.398 35.0101L208.982 36.2206C209.201 35.9371 209.663 35.5245 210.462 34.9845L209.347 33.3338ZM207.417 34.9863C206.943 35.5634 206.66 36.3947 206.476 37.3262L208.441 37.6985C208.606 36.864 208.81 36.4307 208.963 36.2444L207.417 34.9863ZM206.476 37.3262L205.895 40.2694L207.86 40.6418L208.441 37.6985L206.476 37.3262ZM199.141 48.0037C198.634 47.2205 198.473 46.3763 198.663 45.4125L196.698 45.0402C196.41 46.4964 196.661 47.8676 197.456 49.0952L199.141 48.0037ZM198.663 45.4125C198.853 44.4493 199.318 43.7489 200.067 43.2431L198.951 41.5924C197.739 42.4114 196.985 43.5834 196.698 45.0402L198.663 45.4125ZM200.067 43.2431C200.864 42.7043 201.709 42.5293 202.662 42.7099L203.049 40.7478C201.579 40.4691 200.192 40.7533 198.951 41.5924L200.067 43.2431ZM202.662 42.7099C203.614 42.8904 204.308 43.3558 204.807 44.1272L206.492 43.0356C205.689 41.7962 204.52 41.0266 203.049 40.7478L202.662 42.7099ZM204.829 44.1596C205.358 44.9106 205.532 45.7277 205.344 46.6786L207.309 47.051C207.599 45.5819 207.321 44.21 206.47 43.0033L204.829 44.1596ZM205.344 46.6786C205.156 47.6302 204.679 48.349 203.881 48.8877L204.997 50.5385C206.239 49.6995 207.019 48.5193 207.309 47.051L205.344 46.6786ZM203.881 48.8877C203.133 49.3935 202.31 49.564 201.345 49.3812L200.958 51.3434C202.417 51.6198 203.785 51.3575 204.997 50.5385L203.881 48.8877ZM201.345 49.3812C200.38 49.1983 199.657 48.7339 199.119 47.9713L197.478 49.1276C198.321 50.3229 199.499 51.067 200.958 51.3434L201.345 49.3812Z" fill="url(#paint1_radial_14_72)" fill-opacity="0.5" mask="url(#path-2-outside-1_14_72)"/>
<path d="M206.878 40.4556L206.684 41.4366L207.667 41.6228L207.86 40.6418L206.878 40.4556ZM199.411 39.0406L198.428 38.8544L198.235 39.8354L199.217 40.0216L199.411 39.0406ZM201.219 32.4624L200.438 31.8422L200.432 31.8496L200.427 31.8571L201.219 32.4624ZM203.972 30.1343L204.541 30.9514L203.972 30.1343ZM207.99 27.3335L208.56 28.1507L208.591 28.1288L208.621 28.1046L207.99 27.3335ZM208.851 22.7132L209.727 22.2237L209.727 22.2237L208.851 22.7132ZM204.587 22.1088L203.933 21.3575L203.928 21.3616L204.587 22.1088ZM202.985 24.8075L202.791 25.7885L203.673 25.9557L203.941 25.098L202.985 24.8075ZM195.174 23.3273L194.218 23.035L193.883 24.1006L194.98 24.3084L195.174 23.3273ZM200.28 16.3054L199.757 15.4572L200.28 16.3054ZM215.419 18.8691L214.625 19.4829L214.63 19.4895L215.419 18.8691ZM215.881 29.185L216.66 29.8067L216.666 29.7986L216.673 29.7903L215.881 29.185ZM214.922 30.4282L215.714 31.0335L215.728 31.0154L215.741 30.9968L214.922 30.4282ZM213.746 31.4777L213.138 30.689L213.124 30.6994L213.111 30.7103L213.746 31.4777ZM212.6 32.38L213.158 33.2053L212.6 32.38ZM209.904 34.1592L209.366 33.3209L209.356 33.3272L209.347 33.3338L209.904 34.1592ZM208.19 35.6154L208.963 36.2444L208.973 36.2327L208.982 36.2206L208.19 35.6154ZM198.299 48.5495L197.456 49.0952L197.467 49.1116L197.478 49.1276L198.299 48.5495ZM199.509 42.4177L198.951 41.5924L199.509 42.4177ZM205.649 43.5814L204.807 44.1272L204.818 44.1436L204.829 44.1596L205.649 43.5814ZM204.439 49.7131L203.881 48.8877L203.881 48.8877L204.439 49.7131ZM207.072 39.4745L199.604 38.0595L199.217 40.0216L206.684 41.4366L207.072 39.4745ZM200.393 39.2267L201.12 35.5477L199.154 35.1754L198.428 38.8544L200.393 39.2267ZM201.12 35.5477C201.375 34.2524 201.699 33.472 202.011 33.0676L200.427 31.8571C199.825 32.6367 199.428 33.789 199.154 35.1754L201.12 35.5477ZM201.999 33.0825C202.4 32.5832 203.216 31.8752 204.541 30.9514L203.402 29.3171C202.048 30.2605 201.03 31.1046 200.438 31.8422L201.999 33.0825ZM204.541 30.9514L208.56 28.1507L207.42 26.5164L203.402 29.3171L204.541 30.9514ZM208.621 28.1046C209.444 27.433 209.938 26.5014 210.155 25.4029L208.19 25.0305C208.045 25.7634 207.751 26.243 207.359 26.5624L208.621 28.1046ZM210.155 25.4029C210.379 24.2641 210.261 23.1829 209.727 22.2237L207.975 23.2027C208.243 23.6847 208.339 24.2726 208.19 25.0305L210.155 25.4029ZM209.727 22.2237C209.175 21.2328 208.291 20.6224 207.165 20.4091L206.778 22.3713C207.355 22.4806 207.724 22.7522 207.975 23.2027L209.727 22.2237ZM207.165 20.4091C205.972 20.1829 204.871 20.5432 203.933 21.3575L205.242 22.8601C205.779 22.3935 206.269 22.2747 206.778 22.3713L207.165 20.4091ZM203.928 21.3616C203.051 22.1326 202.435 23.2134 202.029 24.5169L203.941 25.098C204.273 24.0312 204.726 23.3129 205.246 22.856L203.928 21.3616ZM203.178 23.8264L195.367 22.3462L194.98 24.3084L202.791 25.7885L203.178 23.8264ZM196.129 23.6196C197.077 20.6014 198.649 18.4817 200.802 17.1537L199.757 15.4572C197.114 17.0878 195.281 19.6492 194.218 23.035L196.129 23.6196ZM200.802 17.1537C202.963 15.8207 205.425 15.3976 208.252 15.9334L208.64 13.9713C205.375 13.3527 202.393 13.8317 199.757 15.4572L200.802 17.1537ZM208.252 15.9334C211.146 16.4818 213.234 17.6859 214.625 19.4829L216.214 18.2553C214.465 15.9966 211.903 14.5896 208.64 13.9713L208.252 15.9334ZM214.63 19.4895C216.026 21.2601 216.504 23.4418 215.97 26.1487L217.935 26.5211C218.563 23.3416 218.019 20.546 216.208 18.2486L214.63 19.4895ZM215.97 26.1487C215.722 27.4067 215.402 28.1733 215.088 28.5797L216.673 29.7903C217.272 29.0128 217.667 27.8793 217.935 26.5211L215.97 26.1487ZM215.101 28.5633C214.649 29.1247 214.312 29.561 214.103 29.8596L215.741 30.9968C215.91 30.7564 216.211 30.3639 216.66 29.8067L215.101 28.5633ZM214.13 29.8229C214.036 29.9437 213.743 30.2225 213.138 30.689L214.355 32.2664C214.951 31.8072 215.442 31.3863 215.714 31.0335L214.13 29.8229ZM213.111 30.7103C212.535 31.1854 212.191 31.454 212.042 31.5546L213.158 33.2053C213.401 33.041 213.821 32.7081 214.382 32.2451L213.111 30.7103ZM212.042 31.5546C211.107 32.1866 210.215 32.7754 209.366 33.3209L210.443 34.9974C211.306 34.4425 212.211 33.8451 213.158 33.2053L212.042 31.5546ZM209.347 33.3338C208.499 33.9066 207.818 34.4648 207.398 35.0101L208.982 36.2206C209.201 35.9371 209.663 35.5245 210.462 34.9845L209.347 33.3338ZM207.417 34.9863C206.943 35.5634 206.66 36.3947 206.476 37.3262L208.441 37.6985C208.606 36.864 208.81 36.4307 208.963 36.2444L207.417 34.9863ZM206.476 37.3262L205.895 40.2694L207.86 40.6418L208.441 37.6985L206.476 37.3262ZM199.141 48.0037C198.634 47.2205 198.473 46.3763 198.663 45.4125L196.698 45.0402C196.41 46.4964 196.661 47.8676 197.456 49.0952L199.141 48.0037ZM198.663 45.4125C198.853 44.4493 199.318 43.7489 200.067 43.2431L198.951 41.5924C197.739 42.4114 196.985 43.5834 196.698 45.0402L198.663 45.4125ZM200.067 43.2431C200.864 42.7043 201.709 42.5293 202.662 42.7099L203.049 40.7478C201.579 40.4691 200.192 40.7533 198.951 41.5924L200.067 43.2431ZM202.662 42.7099C203.614 42.8904 204.308 43.3558 204.807 44.1272L206.492 43.0356C205.689 41.7962 204.52 41.0266 203.049 40.7478L202.662 42.7099ZM204.829 44.1596C205.358 44.9106 205.532 45.7277 205.344 46.6786L207.309 47.051C207.599 45.5819 207.321 44.21 206.47 43.0033L204.829 44.1596ZM205.344 46.6786C205.156 47.6302 204.679 48.349 203.881 48.8877L204.997 50.5385C206.239 49.6995 207.019 48.5193 207.309 47.051L205.344 46.6786ZM203.881 48.8877C203.133 49.3935 202.31 49.564 201.345 49.3812L200.958 51.3434C202.417 51.6198 203.785 51.3575 204.997 50.5385L203.881 48.8877ZM201.345 49.3812C200.38 49.1983 199.657 48.7339 199.119 47.9713L197.478 49.1276C198.321 50.3229 199.499 51.067 200.958 51.3434L201.345 49.3812Z" fill="url(#paint2_radial_14_72)" fill-opacity="0.5" mask="url(#path-2-outside-1_14_72)"/>
<path d="M206.878 40.4556L206.684 41.4366L207.667 41.6228L207.86 40.6418L206.878 40.4556ZM199.411 39.0406L198.428 38.8544L198.235 39.8354L199.217 40.0216L199.411 39.0406ZM201.219 32.4624L200.438 31.8422L200.432 31.8496L200.427 31.8571L201.219 32.4624ZM203.972 30.1343L204.541 30.9514L203.972 30.1343ZM207.99 27.3335L208.56 28.1507L208.591 28.1288L208.621 28.1046L207.99 27.3335ZM208.851 22.7132L209.727 22.2237L209.727 22.2237L208.851 22.7132ZM204.587 22.1088L203.933 21.3575L203.928 21.3616L204.587 22.1088ZM202.985 24.8075L202.791 25.7885L203.673 25.9557L203.941 25.098L202.985 24.8075ZM195.174 23.3273L194.218 23.035L193.883 24.1006L194.98 24.3084L195.174 23.3273ZM200.28 16.3054L199.757 15.4572L200.28 16.3054ZM215.419 18.8691L214.625 19.4829L214.63 19.4895L215.419 18.8691ZM215.881 29.185L216.66 29.8067L216.666 29.7986L216.673 29.7903L215.881 29.185ZM214.922 30.4282L215.714 31.0335L215.728 31.0154L215.741 30.9968L214.922 30.4282ZM213.746 31.4777L213.138 30.689L213.124 30.6994L213.111 30.7103L213.746 31.4777ZM212.6 32.38L213.158 33.2053L212.6 32.38ZM209.904 34.1592L209.366 33.3209L209.356 33.3272L209.347 33.3338L209.904 34.1592ZM208.19 35.6154L208.963 36.2444L208.973 36.2327L208.982 36.2206L208.19 35.6154ZM198.299 48.5495L197.456 49.0952L197.467 49.1116L197.478 49.1276L198.299 48.5495ZM199.509 42.4177L198.951 41.5924L199.509 42.4177ZM205.649 43.5814L204.807 44.1272L204.818 44.1436L204.829 44.1596L205.649 43.5814ZM204.439 49.7131L203.881 48.8877L203.881 48.8877L204.439 49.7131ZM207.072 39.4745L199.604 38.0595L199.217 40.0216L206.684 41.4366L207.072 39.4745ZM200.393 39.2267L201.12 35.5477L199.154 35.1754L198.428 38.8544L200.393 39.2267ZM201.12 35.5477C201.375 34.2524 201.699 33.472 202.011 33.0676L200.427 31.8571C199.825 32.6367 199.428 33.789 199.154 35.1754L201.12 35.5477ZM201.999 33.0825C202.4 32.5832 203.216 31.8752 204.541 30.9514L203.402 29.3171C202.048 30.2605 201.03 31.1046 200.438 31.8422L201.999 33.0825ZM204.541 30.9514L208.56 28.1507L207.42 26.5164L203.402 29.3171L204.541 30.9514ZM208.621 28.1046C209.444 27.433 209.938 26.5014 210.155 25.4029L208.19 25.0305C208.045 25.7634 207.751 26.243 207.359 26.5624L208.621 28.1046ZM210.155 25.4029C210.379 24.2641 210.261 23.1829 209.727 22.2237L207.975 23.2027C208.243 23.6847 208.339 24.2726 208.19 25.0305L210.155 25.4029ZM209.727 22.2237C209.175 21.2328 208.291 20.6224 207.165 20.4091L206.778 22.3713C207.355 22.4806 207.724 22.7522 207.975 23.2027L209.727 22.2237ZM207.165 20.4091C205.972 20.1829 204.871 20.5432 203.933 21.3575L205.242 22.8601C205.779 22.3935 206.269 22.2747 206.778 22.3713L207.165 20.4091ZM203.928 21.3616C203.051 22.1326 202.435 23.2134 202.029 24.5169L203.941 25.098C204.273 24.0312 204.726 23.3129 205.246 22.856L203.928 21.3616ZM203.178 23.8264L195.367 22.3462L194.98 24.3084L202.791 25.7885L203.178 23.8264ZM196.129 23.6196C197.077 20.6014 198.649 18.4817 200.802 17.1537L199.757 15.4572C197.114 17.0878 195.281 19.6492 194.218 23.035L196.129 23.6196ZM200.802 17.1537C202.963 15.8207 205.425 15.3976 208.252 15.9334L208.64 13.9713C205.375 13.3527 202.393 13.8317 199.757 15.4572L200.802 17.1537ZM208.252 15.9334C211.146 16.4818 213.234 17.6859 214.625 19.4829L216.214 18.2553C214.465 15.9966 211.903 14.5896 208.64 13.9713L208.252 15.9334ZM214.63 19.4895C216.026 21.2601 216.504 23.4418 215.97 26.1487L217.935 26.5211C218.563 23.3416 218.019 20.546 216.208 18.2486L214.63 19.4895ZM215.97 26.1487C215.722 27.4067 215.402 28.1733 215.088 28.5797L216.673 29.7903C217.272 29.0128 217.667 27.8793 217.935 26.5211L215.97 26.1487ZM215.101 28.5633C214.649 29.1247 214.312 29.561 214.103 29.8596L215.741 30.9968C215.91 30.7564 216.211 30.3639 216.66 29.8067L215.101 28.5633ZM214.13 29.8229C214.036 29.9437 213.743 30.2225 213.138 30.689L214.355 32.2664C214.951 31.8072 215.442 31.3863 215.714 31.0335L214.13 29.8229ZM213.111 30.7103C212.535 31.1854 212.191 31.454 212.042 31.5546L213.158 33.2053C213.401 33.041 213.821 32.7081 214.382 32.2451L213.111 30.7103ZM212.042 31.5546C211.107 32.1866 210.215 32.7754 209.366 33.3209L210.443 34.9974C211.306 34.4425 212.211 33.8451 213.158 33.2053L212.042 31.5546ZM209.347 33.3338C208.499 33.9066 207.818 34.4648 207.398 35.0101L208.982 36.2206C209.201 35.9371 209.663 35.5245 210.462 34.9845L209.347 33.3338ZM207.417 34.9863C206.943 35.5634 206.66 36.3947 206.476 37.3262L208.441 37.6985C208.606 36.864 208.81 36.4307 208.963 36.2444L207.417 34.9863ZM206.476 37.3262L205.895 40.2694L207.86 40.6418L208.441 37.6985L206.476 37.3262ZM199.141 48.0037C198.634 47.2205 198.473 46.3763 198.663 45.4125L196.698 45.0402C196.41 46.4964 196.661 47.8676 197.456 49.0952L199.141 48.0037ZM198.663 45.4125C198.853 44.4493 199.318 43.7489 200.067 43.2431L198.951 41.5924C197.739 42.4114 196.985 43.5834 196.698 45.0402L198.663 45.4125ZM200.067 43.2431C200.864 42.7043 201.709 42.5293 202.662 42.7099L203.049 40.7478C201.579 40.4691 200.192 40.7533 198.951 41.5924L200.067 43.2431ZM202.662 42.7099C203.614 42.8904 204.308 43.3558 204.807 44.1272L206.492 43.0356C205.689 41.7962 204.52 41.0266 203.049 40.7478L202.662 42.7099ZM204.829 44.1596C205.358 44.9106 205.532 45.7277 205.344 46.6786L207.309 47.051C207.599 45.5819 207.321 44.21 206.47 43.0033L204.829 44.1596ZM205.344 46.6786C205.156 47.6302 204.679 48.349 203.881 48.8877L204.997 50.5385C206.239 49.6995 207.019 48.5193 207.309 47.051L205.344 46.6786ZM203.881 48.8877C203.133 49.3935 202.31 49.564 201.345 49.3812L200.958 51.3434C202.417 51.6198 203.785 51.3575 204.997 50.5385L203.881 48.8877ZM201.345 49.3812C200.38 49.1983 199.657 48.7339 199.119 47.9713L197.478 49.1276C198.321 50.3229 199.499 51.067 200.958 51.3434L201.345 49.3812Z" fill="url(#paint3_linear_14_72)" mask="url(#path-2-outside-1_14_72)"/>
</g>
<g filter="url(#filter2_f_14_72)">
<path d="M431.699 322.709C421.615 271.569 375.831 232.973 320.843 232.973C265.856 232.973 220.072 271.569 209.988 322.709C207.802 333.745 216.678 343.98 228.1 343.98H413.555C425.009 343.98 433.852 333.778 431.666 322.709H431.699Z" fill="url(#paint4_linear_14_72)"/>
<path d="M320.844 206.889C351.807 206.889 376.908 182.212 376.908 151.771C376.908 121.33 351.807 96.6523 320.844 96.6523C289.881 96.6523 264.78 121.33 264.78 151.771C264.78 182.212 289.881 206.889 320.844 206.889Z" fill="url(#paint5_linear_14_72)"/>
</g>
<path d="M431.699 322.71C421.615 271.57 375.831 232.974 320.843 232.974C265.856 232.974 220.072 271.57 209.988 322.71C207.802 333.746 216.678 343.981 228.1 343.981H413.555C425.009 343.981 433.852 333.778 431.666 322.71H431.699Z" fill="url(#paint6_linear_14_72)"/>
<path d="M320.844 206.89C351.807 206.89 376.908 182.213 376.908 151.771C376.908 121.33 351.807 96.6528 320.844 96.6528C289.881 96.6528 264.78 121.33 264.78 151.771C264.78 182.213 289.881 206.89 320.844 206.89Z" fill="url(#paint7_linear_14_72)"/>
<g filter="url(#filter3_b_14_72)">
<path d="M278.388 317.319C265.727 253.218 208.325 204.804 139.403 204.804C70.4818 204.804 13.0799 253.218 0.418209 317.319C-2.32298 331.179 8.77232 343.98 23.1309 343.98H255.643C270.001 343.98 281.097 331.179 278.356 317.319H278.388Z" fill="url(#paint8_linear_14_72)"/>
<path d="M139.403 205.804C207.421 205.804 264.124 253.282 277.166 316.319H277.138L277.375 317.513C279.985 330.713 269.415 342.98 255.643 342.98H23.1309C9.35883 342.98 -1.21139 330.713 1.39921 317.513L1.39925 317.513C13.9679 253.882 70.9569 205.804 139.403 205.804Z" stroke="url(#paint9_linear_14_72)" stroke-width="2"/>
</g>
<g filter="url(#filter4_b_14_72)">
<path d="M155.497 170.273C193.262 161.509 216.651 124.307 207.738 87.1778C198.824 50.0491 160.984 27.0542 123.218 35.8174C85.4525 44.5806 62.0633 81.7834 70.9768 118.912C79.8903 156.041 117.731 179.036 155.497 170.273Z" fill="url(#paint10_linear_14_72)"/>
<path d="M206.764 87.4039C215.545 123.982 192.505 160.659 155.263 169.3C118.022 177.942 80.7321 155.264 71.9509 118.686C63.1697 82.1083 86.2099 45.4314 123.452 36.7898C160.693 28.1482 197.983 50.826 206.764 87.4039Z" stroke="url(#paint11_linear_14_72)" stroke-width="2"/>
</g>
<defs>
<filter id="filter0_b_14_72" x="322.21" y="32.4907" width="114.074" height="124.563" filterUnits="userSpaceOnUse" color-interpolation-filters="sRGB">
<feFlood flood-opacity="0" result="BackgroundImageFix"/>
<feGaussianBlur in="BackgroundImageFix" stdDeviation="21"/>
<feComposite in2="SourceAlpha" operator="in" result="effect1_backgroundBlur_14_72"/>
<feBlend mode="normal" in="SourceGraphic" in2="effect1_backgroundBlur_14_72" result="shape"/>
</filter>
<filter id="filter1_b_14_72" x="148.245" y="-29.1704" width="112.566" height="123.553" filterUnits="userSpaceOnUse" color-interpolation-filters="sRGB">
<feFlood flood-opacity="0" result="BackgroundImageFix"/>
<feGaussianBlur in="BackgroundImageFix" stdDeviation="21"/>
<feComposite in2="SourceAlpha" operator="in" result="effect1_backgroundBlur_14_72"/>
<feBlend mode="normal" in="SourceGraphic" in2="effect1_backgroundBlur_14_72" result="shape"/>
</filter>
<filter id="filter2_f_14_72" x="121.656" y="8.65234" width="398.344" height="423.328" filterUnits="userSpaceOnUse" color-interpolation-filters="sRGB">
<feFlood flood-opacity="0" result="BackgroundImageFix"/>
<feBlend mode="normal" in="SourceGraphic" in2="BackgroundImageFix" result="shape"/>
<feGaussianBlur stdDeviation="44" result="effect1_foregroundBlur_14_72"/>
</filter>
<filter id="filter3_b_14_72" x="-18" y="186.804" width="314.774" height="175.176" filterUnits="userSpaceOnUse" color-interpolation-filters="sRGB">
<feFlood flood-opacity="0" result="BackgroundImageFix"/>
<feGaussianBlur in="BackgroundImageFix" stdDeviation="9"/>
<feComposite in2="SourceAlpha" operator="in" result="effect1_backgroundBlur_14_72"/>
<feBlend mode="normal" in="SourceGraphic" in2="effect1_backgroundBlur_14_72" result="shape"/>
</filter>
<filter id="filter4_b_14_72" x="51.0822" y="15.9546" width="176.55" height="174.181" filterUnits="userSpaceOnUse" color-interpolation-filters="sRGB">
<feFlood flood-opacity="0" result="BackgroundImageFix"/>
<feGaussianBlur in="BackgroundImageFix" stdDeviation="9"/>
<feComposite in2="SourceAlpha" operator="in" result="effect1_backgroundBlur_14_72"/>
<feBlend mode="normal" in="SourceGraphic" in2="effect1_backgroundBlur_14_72" result="shape"/>
</filter>
<linearGradient id="paint0_linear_14_72" x1="388.078" y1="65.7349" x2="373.626" y2="121.493" gradientUnits="userSpaceOnUse">
<stop stop-color="#7285CA"/>
<stop offset="1" stop-color="#4F75FC"/>
</linearGradient>
<radialGradient id="paint1_radial_14_72" cx="0" cy="0" r="1" gradientUnits="userSpaceOnUse" gradientTransform="translate(197.831 2.27706) rotate(72.6104) scale(63.8038 86.0869)">
<stop stop-color="#D8D8D8" stop-opacity="0"/>
<stop offset="1" stop-color="#D8D8D8"/>
</radialGradient>
<radialGradient id="paint2_radial_14_72" cx="0" cy="0" r="1" gradientUnits="userSpaceOnUse" gradientTransform="translate(187.138 57.2241) rotate(-50.4688) scale(63.8791 85.028)">
<stop stop-color="#D8D8D8" stop-opacity="0"/>
<stop offset="1" stop-color="#D8D8D8"/>
</radialGradient>
<linearGradient id="paint3_linear_14_72" x1="198.152" y1="2.18759" x2="236.739" y2="19.8725" gradientUnits="userSpaceOnUse">
<stop stop-color="white" stop-opacity="0.9"/>
<stop offset="1" stop-color="white" stop-opacity="0"/>
</linearGradient>
<linearGradient id="paint4_linear_14_72" x1="320.843" y1="405.066" x2="320.843" y2="71.3063" gradientUnits="userSpaceOnUse">
<stop stop-color="#4247BE"/>
<stop offset="1" stop-color="#132BFE"/>
</linearGradient>
<linearGradient id="paint5_linear_14_72" x1="320.844" y1="-1351.09" x2="320.844" y2="71.3067" gradientUnits="userSpaceOnUse">
<stop stop-color="#4A5CFF"/>
<stop offset="1" stop-color="#325FFF"/>
</linearGradient>
<linearGradient id="paint6_linear_14_72" x1="320.843" y1="405.067" x2="320.843" y2="71.3073" gradientUnits="userSpaceOnUse">
<stop stop-color="#3680FF"/>
<stop offset="1" stop-color="#283EA6"/>
</linearGradient>
<linearGradient id="paint7_linear_14_72" x1="320.844" y1="-1351.09" x2="320.844" y2="71.3072" gradientUnits="userSpaceOnUse">
<stop stop-color="#2F61D5"/>
<stop offset="1" stop-color="#2F61D5"/>
</linearGradient>
<linearGradient id="paint8_linear_14_72" x1="15.7384" y1="336.123" x2="114.418" y2="138.465" gradientUnits="userSpaceOnUse">
<stop stop-color="white" stop-opacity="0.2"/>
<stop offset="1" stop-color="white" stop-opacity="0.49"/>
</linearGradient>
<linearGradient id="paint9_linear_14_72" x1="19.6783" y1="215.75" x2="109.073" y2="407.208" gradientUnits="userSpaceOnUse">
<stop stop-color="white"/>
<stop offset="1" stop-color="white" stop-opacity="0"/>
</linearGradient>
<linearGradient id="paint10_linear_14_72" x1="93.0147" y1="176.757" x2="183.437" y2="27.9572" gradientUnits="userSpaceOnUse">
<stop stop-color="white" stop-opacity="0.2"/>
<stop offset="1" stop-color="white" stop-opacity="0.49"/>
</linearGradient>
<linearGradient id="paint11_linear_14_72" x1="67.03" y1="60.0191" x2="208.695" y2="155.887" gradientUnits="userSpaceOnUse">
<stop stop-color="white"/>
<stop offset="1" stop-color="white" stop-opacity="0"/>
</linearGradient>
</defs>
</svg>
