<svg width="349" height="328" viewBox="0 0 349 328" fill="none" xmlns="http://www.w3.org/2000/svg">
<g filter="url(#filter0_b_14_72)">
<path d="M186.76 64.459C186.515 63.3182 186.478 62.2694 186.648 61.3125C186.85 60.3487 187.155 59.4652 187.563 58.6619C188.003 57.8517 188.486 57.0834 189.012 56.357C189.538 55.6307 190.022 54.9473 190.465 54.3071C190.932 53.6273 191.283 52.9556 191.516 52.2921C191.781 51.6216 191.837 50.9278 191.683 50.2107C191.432 49.0374 190.74 48.197 189.609 47.6895C188.51 47.175 187.162 47.089 185.565 47.4313C184.033 47.7596 182.734 48.379 181.668 49.2893C180.594 50.167 179.789 51.2601 179.251 52.5685L172.591 50.3653C173.469 48.0977 174.939 46.1292 177.002 44.4599C179.057 42.7579 181.731 41.5542 185.023 40.8486C187.468 40.3247 189.696 40.2221 191.707 40.541C193.712 40.8272 195.379 41.5267 196.708 42.6395C198.07 43.7453 198.96 45.276 199.38 47.2315C199.652 48.5027 199.698 49.6691 199.516 50.7307C199.334 51.7923 199.011 52.748 198.545 53.5978C198.08 54.4476 197.555 55.2589 196.97 56.0319C196.419 56.7979 195.896 57.5406 195.403 58.26C194.909 58.9794 194.52 59.7104 194.236 60.4531C193.985 61.1888 193.954 61.9966 194.142 62.8766L186.76 64.459ZM193.106 75.9339C191.737 76.2273 190.518 76.0283 189.449 75.3369C188.381 74.6455 187.717 73.6968 187.459 72.4909C187.193 71.2523 187.413 70.1313 188.119 69.1279C188.817 68.0919 189.851 67.4271 191.219 67.1337C192.621 66.8333 193.836 67.016 194.865 67.6818C195.92 68.308 196.58 69.2404 196.845 70.4789C197.104 71.6849 196.887 72.8222 196.196 73.8908C195.537 74.9524 194.507 75.6335 193.106 75.9339Z" fill="url(#paint0_linear_14_72)"/>
</g>
<g style="mix-blend-mode:hard-light" filter="url(#filter1_b_14_72)">
<mask id="path-2-outside-1_14_72" maskUnits="userSpaceOnUse" x="103.04" y="11.2487" width="38.1405" height="44.838" fill="black">
<rect fill="white" x="103.04" y="11.2487" width="38.1405" height="44.838"/>
<path d="M118.791 38.3825C119.058 37.2469 119.473 36.2831 120.037 35.4911C120.632 34.7067 121.286 34.0388 121.998 33.4873C122.743 32.9435 123.508 32.456 124.295 32.0248C125.081 31.5935 125.811 31.1833 126.485 30.7941C127.199 30.38 127.803 29.923 128.297 29.423C128.824 28.9307 129.172 28.3276 129.34 27.6138C129.615 26.4457 129.35 25.3902 128.545 24.4472C127.772 23.5118 126.59 22.8569 125 22.4825C123.476 22.1234 122.036 22.127 120.683 22.4932C119.337 22.827 118.142 23.47 117.095 24.4222L112.02 19.58C113.784 17.9065 115.955 16.7569 118.534 16.1313C121.12 15.4732 124.052 15.5301 127.329 16.3017C129.763 16.8748 131.82 17.7359 133.501 18.8852C135.19 20.0021 136.397 21.3479 137.122 22.9227C137.88 24.5051 138.029 26.2697 137.571 28.2164C137.273 29.4818 136.815 30.5554 136.196 31.4371C135.578 32.3188 134.876 33.0439 134.091 33.6126C133.307 34.1812 132.485 34.6897 131.626 35.1381C130.8 35.5941 130.009 36.0416 129.255 36.4804C128.501 36.9193 127.837 37.4135 127.262 37.9631C126.72 38.5204 126.346 39.237 126.14 40.113L118.791 38.3825ZM119.613 51.4694C118.25 51.1485 117.234 50.4469 116.564 49.3645C115.895 48.2822 115.701 47.1408 115.984 45.9403C116.274 44.7074 116.953 43.7885 118.02 43.1836C119.094 42.5463 120.313 42.3881 121.676 42.709C123.071 43.0375 124.091 43.7229 124.736 44.7651C125.421 45.7826 125.618 46.9078 125.328 48.1407C125.045 49.3412 124.363 50.2763 123.281 50.9461C122.231 51.6235 121.008 51.7979 119.613 51.4694Z"/>
</mask>
<path d="M118.791 38.3825C119.058 37.2469 119.473 36.2831 120.037 35.4911C120.632 34.7067 121.286 34.0388 121.998 33.4873C122.743 32.9435 123.508 32.456 124.295 32.0248C125.081 31.5935 125.811 31.1833 126.485 30.7941C127.199 30.38 127.803 29.923 128.297 29.423C128.824 28.9307 129.172 28.3276 129.34 27.6138C129.615 26.4457 129.35 25.3902 128.545 24.4472C127.772 23.5118 126.59 22.8569 125 22.4825C123.476 22.1234 122.036 22.127 120.683 22.4932C119.337 22.827 118.142 23.47 117.095 24.4222L112.02 19.58C113.784 17.9065 115.955 16.7569 118.534 16.1313C121.12 15.4732 124.052 15.5301 127.329 16.3017C129.763 16.8748 131.82 17.7359 133.501 18.8852C135.19 20.0021 136.397 21.3479 137.122 22.9227C137.88 24.5051 138.029 26.2697 137.571 28.2164C137.273 29.4818 136.815 30.5554 136.196 31.4371C135.578 32.3188 134.876 33.0439 134.091 33.6126C133.307 34.1812 132.485 34.6897 131.626 35.1381C130.8 35.5941 130.009 36.0416 129.255 36.4804C128.501 36.9193 127.837 37.4135 127.262 37.9631C126.72 38.5204 126.346 39.237 126.14 40.113L118.791 38.3825ZM119.613 51.4694C118.25 51.1485 117.234 50.4469 116.564 49.3645C115.895 48.2822 115.701 47.1408 115.984 45.9403C116.274 44.7074 116.953 43.7885 118.02 43.1836C119.094 42.5463 120.313 42.3881 121.676 42.709C123.071 43.0375 124.091 43.7229 124.736 44.7651C125.421 45.7826 125.618 46.9078 125.328 48.1407C125.045 49.3412 124.363 50.2763 123.281 50.9461C122.231 51.6235 121.008 51.7979 119.613 51.4694Z" fill="white" fill-opacity="0.5"/>
<path d="M118.791 38.3825L117.817 38.1533L117.588 39.1267L118.562 39.3559L118.791 38.3825ZM120.037 35.4911L119.24 34.8863L119.231 34.8988L119.222 34.9116L120.037 35.4911ZM121.998 33.4873L121.408 32.6798L121.397 32.6881L121.386 32.6967L121.998 33.4873ZM126.485 30.7941L126.985 31.66L126.987 31.6591L126.485 30.7941ZM128.297 29.423L127.615 28.6923L127.6 28.7058L127.586 28.7198L128.297 29.423ZM128.545 24.4472L127.774 25.0841L127.779 25.0904L127.784 25.0965L128.545 24.4472ZM120.683 22.4932L120.924 23.4638L120.934 23.4613L120.944 23.4585L120.683 22.4932ZM117.095 24.4222L116.405 25.1458L117.079 25.7891L117.769 25.1618L117.095 24.4222ZM112.02 19.58L111.332 18.8546L110.569 19.578L111.33 20.3036L112.02 19.58ZM118.534 16.1313L118.77 17.1031L118.781 17.1004L118.534 16.1313ZM133.501 18.8852L132.937 19.7108L132.943 19.7151L132.95 19.7194L133.501 18.8852ZM137.122 22.9227L136.214 23.3409L136.217 23.3477L136.22 23.3544L137.122 22.9227ZM136.196 31.4371L137.015 32.0114L137.015 32.0114L136.196 31.4371ZM134.091 33.6126L133.505 32.8029L134.091 33.6126ZM131.626 35.1381L131.163 34.2516L131.153 34.257L131.143 34.2625L131.626 35.1381ZM129.255 36.4804L129.758 37.3447L129.758 37.3447L129.255 36.4804ZM127.262 37.9631L126.571 37.2405L126.558 37.2529L126.546 37.2658L127.262 37.9631ZM126.14 40.113L125.911 41.0864L126.884 41.3156L127.113 40.3422L126.14 40.113ZM116.564 49.3645L115.714 49.8907L115.714 49.8907L116.564 49.3645ZM118.02 43.1836L118.513 44.0535L118.521 44.0487L118.53 44.0437L118.02 43.1836ZM124.736 44.7651L123.886 45.2913L123.896 45.3077L123.907 45.3236L124.736 44.7651ZM123.281 50.9461L122.754 50.0957L122.746 50.1007L122.738 50.1058L123.281 50.9461ZM119.764 38.6117C120.008 37.5773 120.377 36.7383 120.852 36.0706L119.222 34.9116C118.57 35.8278 118.109 36.9164 117.817 38.1533L119.764 38.6117ZM120.833 36.0959C121.381 35.3748 121.974 34.7711 122.61 34.2779L121.386 32.6967C120.598 33.3066 119.884 34.0387 119.24 34.8863L120.833 36.0959ZM122.588 34.2948C123.299 33.7757 124.028 33.3115 124.775 32.9016L123.814 31.1479C122.988 31.6004 122.187 32.1113 121.408 32.6798L122.588 34.2948ZM124.775 32.9016C125.567 32.4673 126.304 32.0534 126.985 31.66L125.985 29.9281C125.318 30.3132 124.595 30.7197 123.814 31.1479L124.775 32.9016ZM126.987 31.6591C127.764 31.2081 128.442 30.6989 129.008 30.1261L127.586 28.7198C127.164 29.147 126.633 29.5519 125.983 29.929L126.987 31.6591ZM128.98 30.1536C129.654 29.5241 130.101 28.7455 130.313 27.843L128.367 27.3846C128.243 27.9097 127.995 28.3372 127.615 28.6923L128.98 30.1536ZM130.313 27.843C130.664 26.3529 130.309 24.9735 129.305 23.7978L127.784 25.0965C128.391 25.8069 128.566 26.5386 128.367 27.3846L130.313 27.843ZM129.315 23.8102C128.362 22.6568 126.959 21.9164 125.23 21.5091L124.771 23.4559C126.222 23.7974 127.181 24.3668 127.774 25.0841L129.315 23.8102ZM125.23 21.5091C123.562 21.1165 121.954 21.1134 120.422 21.5279L120.944 23.4585C122.119 23.1405 123.389 23.1303 124.771 23.4559L125.23 21.5091ZM120.442 21.5226C118.932 21.8972 117.589 22.6212 116.422 23.6827L117.769 25.1618C118.695 24.3189 119.743 23.7568 120.924 23.4638L120.442 21.5226ZM117.786 23.6987L112.71 18.8565L111.33 20.3036L116.405 25.1458L117.786 23.6987ZM112.708 20.3055C114.334 18.7629 116.345 17.6914 118.77 17.1031L118.298 15.1595C115.566 15.8224 113.234 17.05 111.332 18.8546L112.708 20.3055ZM118.781 17.1004C121.176 16.4911 123.94 16.5309 127.1 17.2751L127.558 15.3284C124.165 14.5292 121.065 14.4554 118.288 15.1622L118.781 17.1004ZM127.1 17.2751C129.44 17.8261 131.378 18.6448 132.937 19.7108L134.066 18.0597C132.262 16.8271 130.085 15.9234 127.558 15.3284L127.1 17.2751ZM132.95 19.7194C134.51 20.751 135.579 21.962 136.214 23.3409L138.031 22.5045C137.215 20.7338 135.871 19.2532 134.053 18.0511L132.95 19.7194ZM136.22 23.3544C136.866 24.7027 137.011 26.2297 136.598 27.9872L138.544 28.4456C139.047 26.3096 138.894 24.3075 138.024 22.4909L136.22 23.3544ZM136.598 27.9872C136.323 29.1538 135.91 30.1043 135.377 30.8627L137.015 32.0114C137.72 31.0064 138.223 29.8099 138.544 28.4456L136.598 27.9872ZM135.377 30.8627C134.816 31.6637 134.19 32.3061 133.505 32.8029L134.678 34.4223C135.562 33.7817 136.34 32.9738 137.015 32.0114L135.377 30.8627ZM133.505 32.8029C132.759 33.3429 131.979 33.8258 131.163 34.2516L132.089 36.0246C132.991 35.5537 133.854 35.0195 134.678 34.4223L133.505 32.8029ZM131.143 34.2625C130.31 34.722 129.513 35.1732 128.752 35.6162L129.758 37.3447C130.505 36.91 131.289 36.4663 132.109 36.0137L131.143 34.2625ZM128.752 35.6162C127.937 36.0909 127.208 36.6314 126.571 37.2405L127.954 38.6858C128.466 38.1956 129.066 37.7477 129.758 37.3447L128.752 35.6162ZM126.546 37.2658C125.858 37.9722 125.408 38.8596 125.166 39.8838L127.113 40.3422C127.285 39.6144 127.582 39.0685 127.979 38.6605L126.546 37.2658ZM126.369 39.1397L119.02 37.4091L118.562 39.3559L125.911 41.0864L126.369 39.1397ZM119.842 50.496C118.709 50.2292 117.93 49.6715 117.415 48.8383L115.714 49.8907C116.538 51.2222 117.791 52.0677 119.384 52.4427L119.842 50.496ZM117.415 48.8383C116.879 47.9735 116.737 47.1028 116.957 46.1695L115.01 45.7111C114.665 47.1788 114.91 48.591 115.714 49.8907L117.415 48.8383ZM116.957 46.1695C117.186 45.1977 117.697 44.516 118.513 44.0535L117.527 42.3136C116.208 43.0609 115.362 44.217 115.01 45.7111L116.957 46.1695ZM118.53 44.0437C119.354 43.5547 120.303 43.413 121.447 43.6824L121.905 41.7356C120.324 41.3632 118.834 41.5379 117.51 42.3235L118.53 44.0437ZM121.447 43.6824C122.631 43.9612 123.404 44.5128 123.886 45.2913L125.586 44.2389C124.778 42.933 123.511 42.1138 121.905 41.7356L121.447 43.6824ZM123.907 45.3236C124.43 46.1016 124.584 46.9397 124.355 47.9115L126.301 48.3699C126.653 46.8759 126.412 45.4636 125.566 44.2066L123.907 45.3236ZM124.355 47.9115C124.135 48.8448 123.619 49.5605 122.754 50.0957L123.807 51.7964C125.107 50.9921 125.956 49.8377 126.301 48.3699L124.355 47.9115ZM122.738 50.1058C121.951 50.6138 121.015 50.7722 119.842 50.496L119.384 52.4427C121.001 52.8236 122.51 52.6332 123.823 51.7864L122.738 50.1058Z" fill="url(#paint1_radial_14_72)" fill-opacity="0.5" mask="url(#path-2-outside-1_14_72)"/>
<path d="M118.791 38.3825L117.817 38.1533L117.588 39.1267L118.562 39.3559L118.791 38.3825ZM120.037 35.4911L119.24 34.8863L119.231 34.8988L119.222 34.9116L120.037 35.4911ZM121.998 33.4873L121.408 32.6798L121.397 32.6881L121.386 32.6967L121.998 33.4873ZM126.485 30.7941L126.985 31.66L126.987 31.6591L126.485 30.7941ZM128.297 29.423L127.615 28.6923L127.6 28.7058L127.586 28.7198L128.297 29.423ZM128.545 24.4472L127.774 25.0841L127.779 25.0904L127.784 25.0965L128.545 24.4472ZM120.683 22.4932L120.924 23.4638L120.934 23.4613L120.944 23.4585L120.683 22.4932ZM117.095 24.4222L116.405 25.1458L117.079 25.7891L117.769 25.1618L117.095 24.4222ZM112.02 19.58L111.332 18.8546L110.569 19.578L111.33 20.3036L112.02 19.58ZM118.534 16.1313L118.77 17.1031L118.781 17.1004L118.534 16.1313ZM133.501 18.8852L132.937 19.7108L132.943 19.7151L132.95 19.7194L133.501 18.8852ZM137.122 22.9227L136.214 23.3409L136.217 23.3477L136.22 23.3544L137.122 22.9227ZM136.196 31.4371L137.015 32.0114L137.015 32.0114L136.196 31.4371ZM134.091 33.6126L133.505 32.8029L134.091 33.6126ZM131.626 35.1381L131.163 34.2516L131.153 34.257L131.143 34.2625L131.626 35.1381ZM129.255 36.4804L129.758 37.3447L129.758 37.3447L129.255 36.4804ZM127.262 37.9631L126.571 37.2405L126.558 37.2529L126.546 37.2658L127.262 37.9631ZM126.14 40.113L125.911 41.0864L126.884 41.3156L127.113 40.3422L126.14 40.113ZM116.564 49.3645L115.714 49.8907L115.714 49.8907L116.564 49.3645ZM118.02 43.1836L118.513 44.0535L118.521 44.0487L118.53 44.0437L118.02 43.1836ZM124.736 44.7651L123.886 45.2913L123.896 45.3077L123.907 45.3236L124.736 44.7651ZM123.281 50.9461L122.754 50.0957L122.746 50.1007L122.738 50.1058L123.281 50.9461ZM119.764 38.6117C120.008 37.5773 120.377 36.7383 120.852 36.0706L119.222 34.9116C118.57 35.8278 118.109 36.9164 117.817 38.1533L119.764 38.6117ZM120.833 36.0959C121.381 35.3748 121.974 34.7711 122.61 34.2779L121.386 32.6967C120.598 33.3066 119.884 34.0387 119.24 34.8863L120.833 36.0959ZM122.588 34.2948C123.299 33.7757 124.028 33.3115 124.775 32.9016L123.814 31.1479C122.988 31.6004 122.187 32.1113 121.408 32.6798L122.588 34.2948ZM124.775 32.9016C125.567 32.4673 126.304 32.0534 126.985 31.66L125.985 29.9281C125.318 30.3132 124.595 30.7197 123.814 31.1479L124.775 32.9016ZM126.987 31.6591C127.764 31.2081 128.442 30.6989 129.008 30.1261L127.586 28.7198C127.164 29.147 126.633 29.5519 125.983 29.929L126.987 31.6591ZM128.98 30.1536C129.654 29.5241 130.101 28.7455 130.313 27.843L128.367 27.3846C128.243 27.9097 127.995 28.3372 127.615 28.6923L128.98 30.1536ZM130.313 27.843C130.664 26.3529 130.309 24.9735 129.305 23.7978L127.784 25.0965C128.391 25.8069 128.566 26.5386 128.367 27.3846L130.313 27.843ZM129.315 23.8102C128.362 22.6568 126.959 21.9164 125.23 21.5091L124.771 23.4559C126.222 23.7974 127.181 24.3668 127.774 25.0841L129.315 23.8102ZM125.23 21.5091C123.562 21.1165 121.954 21.1134 120.422 21.5279L120.944 23.4585C122.119 23.1405 123.389 23.1303 124.771 23.4559L125.23 21.5091ZM120.442 21.5226C118.932 21.8972 117.589 22.6212 116.422 23.6827L117.769 25.1618C118.695 24.3189 119.743 23.7568 120.924 23.4638L120.442 21.5226ZM117.786 23.6987L112.71 18.8565L111.33 20.3036L116.405 25.1458L117.786 23.6987ZM112.708 20.3055C114.334 18.7629 116.345 17.6914 118.77 17.1031L118.298 15.1595C115.566 15.8224 113.234 17.05 111.332 18.8546L112.708 20.3055ZM118.781 17.1004C121.176 16.4911 123.94 16.5309 127.1 17.2751L127.558 15.3284C124.165 14.5292 121.065 14.4554 118.288 15.1622L118.781 17.1004ZM127.1 17.2751C129.44 17.8261 131.378 18.6448 132.937 19.7108L134.066 18.0597C132.262 16.8271 130.085 15.9234 127.558 15.3284L127.1 17.2751ZM132.95 19.7194C134.51 20.751 135.579 21.962 136.214 23.3409L138.031 22.5045C137.215 20.7338 135.871 19.2532 134.053 18.0511L132.95 19.7194ZM136.22 23.3544C136.866 24.7027 137.011 26.2297 136.598 27.9872L138.544 28.4456C139.047 26.3096 138.894 24.3075 138.024 22.4909L136.22 23.3544ZM136.598 27.9872C136.323 29.1538 135.91 30.1043 135.377 30.8627L137.015 32.0114C137.72 31.0064 138.223 29.8099 138.544 28.4456L136.598 27.9872ZM135.377 30.8627C134.816 31.6637 134.19 32.3061 133.505 32.8029L134.678 34.4223C135.562 33.7817 136.34 32.9738 137.015 32.0114L135.377 30.8627ZM133.505 32.8029C132.759 33.3429 131.979 33.8258 131.163 34.2516L132.089 36.0246C132.991 35.5537 133.854 35.0195 134.678 34.4223L133.505 32.8029ZM131.143 34.2625C130.31 34.722 129.513 35.1732 128.752 35.6162L129.758 37.3447C130.505 36.91 131.289 36.4663 132.109 36.0137L131.143 34.2625ZM128.752 35.6162C127.937 36.0909 127.208 36.6314 126.571 37.2405L127.954 38.6858C128.466 38.1956 129.066 37.7477 129.758 37.3447L128.752 35.6162ZM126.546 37.2658C125.858 37.9722 125.408 38.8596 125.166 39.8838L127.113 40.3422C127.285 39.6144 127.582 39.0685 127.979 38.6605L126.546 37.2658ZM126.369 39.1397L119.02 37.4091L118.562 39.3559L125.911 41.0864L126.369 39.1397ZM119.842 50.496C118.709 50.2292 117.93 49.6715 117.415 48.8383L115.714 49.8907C116.538 51.2222 117.791 52.0677 119.384 52.4427L119.842 50.496ZM117.415 48.8383C116.879 47.9735 116.737 47.1028 116.957 46.1695L115.01 45.7111C114.665 47.1788 114.91 48.591 115.714 49.8907L117.415 48.8383ZM116.957 46.1695C117.186 45.1977 117.697 44.516 118.513 44.0535L117.527 42.3136C116.208 43.0609 115.362 44.217 115.01 45.7111L116.957 46.1695ZM118.53 44.0437C119.354 43.5547 120.303 43.413 121.447 43.6824L121.905 41.7356C120.324 41.3632 118.834 41.5379 117.51 42.3235L118.53 44.0437ZM121.447 43.6824C122.631 43.9612 123.404 44.5128 123.886 45.2913L125.586 44.2389C124.778 42.933 123.511 42.1138 121.905 41.7356L121.447 43.6824ZM123.907 45.3236C124.43 46.1016 124.584 46.9397 124.355 47.9115L126.301 48.3699C126.653 46.8759 126.412 45.4636 125.566 44.2066L123.907 45.3236ZM124.355 47.9115C124.135 48.8448 123.619 49.5605 122.754 50.0957L123.807 51.7964C125.107 50.9921 125.956 49.8377 126.301 48.3699L124.355 47.9115ZM122.738 50.1058C121.951 50.6138 121.015 50.7722 119.842 50.496L119.384 52.4427C121.001 52.8236 122.51 52.6332 123.823 51.7864L122.738 50.1058Z" fill="url(#paint2_radial_14_72)" fill-opacity="0.5" mask="url(#path-2-outside-1_14_72)"/>
<path d="M118.791 38.3825L117.817 38.1533L117.588 39.1267L118.562 39.3559L118.791 38.3825ZM120.037 35.4911L119.24 34.8863L119.231 34.8988L119.222 34.9116L120.037 35.4911ZM121.998 33.4873L121.408 32.6798L121.397 32.6881L121.386 32.6967L121.998 33.4873ZM126.485 30.7941L126.985 31.66L126.987 31.6591L126.485 30.7941ZM128.297 29.423L127.615 28.6923L127.6 28.7058L127.586 28.7198L128.297 29.423ZM128.545 24.4472L127.774 25.0841L127.779 25.0904L127.784 25.0965L128.545 24.4472ZM120.683 22.4932L120.924 23.4638L120.934 23.4613L120.944 23.4585L120.683 22.4932ZM117.095 24.4222L116.405 25.1458L117.079 25.7891L117.769 25.1618L117.095 24.4222ZM112.02 19.58L111.332 18.8546L110.569 19.578L111.33 20.3036L112.02 19.58ZM118.534 16.1313L118.77 17.1031L118.781 17.1004L118.534 16.1313ZM133.501 18.8852L132.937 19.7108L132.943 19.7151L132.95 19.7194L133.501 18.8852ZM137.122 22.9227L136.214 23.3409L136.217 23.3477L136.22 23.3544L137.122 22.9227ZM136.196 31.4371L137.015 32.0114L137.015 32.0114L136.196 31.4371ZM134.091 33.6126L133.505 32.8029L134.091 33.6126ZM131.626 35.1381L131.163 34.2516L131.153 34.257L131.143 34.2625L131.626 35.1381ZM129.255 36.4804L129.758 37.3447L129.758 37.3447L129.255 36.4804ZM127.262 37.9631L126.571 37.2405L126.558 37.2529L126.546 37.2658L127.262 37.9631ZM126.14 40.113L125.911 41.0864L126.884 41.3156L127.113 40.3422L126.14 40.113ZM116.564 49.3645L115.714 49.8907L115.714 49.8907L116.564 49.3645ZM118.02 43.1836L118.513 44.0535L118.521 44.0487L118.53 44.0437L118.02 43.1836ZM124.736 44.7651L123.886 45.2913L123.896 45.3077L123.907 45.3236L124.736 44.7651ZM123.281 50.9461L122.754 50.0957L122.746 50.1007L122.738 50.1058L123.281 50.9461ZM119.764 38.6117C120.008 37.5773 120.377 36.7383 120.852 36.0706L119.222 34.9116C118.57 35.8278 118.109 36.9164 117.817 38.1533L119.764 38.6117ZM120.833 36.0959C121.381 35.3748 121.974 34.7711 122.61 34.2779L121.386 32.6967C120.598 33.3066 119.884 34.0387 119.24 34.8863L120.833 36.0959ZM122.588 34.2948C123.299 33.7757 124.028 33.3115 124.775 32.9016L123.814 31.1479C122.988 31.6004 122.187 32.1113 121.408 32.6798L122.588 34.2948ZM124.775 32.9016C125.567 32.4673 126.304 32.0534 126.985 31.66L125.985 29.9281C125.318 30.3132 124.595 30.7197 123.814 31.1479L124.775 32.9016ZM126.987 31.6591C127.764 31.2081 128.442 30.6989 129.008 30.1261L127.586 28.7198C127.164 29.147 126.633 29.5519 125.983 29.929L126.987 31.6591ZM128.98 30.1536C129.654 29.5241 130.101 28.7455 130.313 27.843L128.367 27.3846C128.243 27.9097 127.995 28.3372 127.615 28.6923L128.98 30.1536ZM130.313 27.843C130.664 26.3529 130.309 24.9735 129.305 23.7978L127.784 25.0965C128.391 25.8069 128.566 26.5386 128.367 27.3846L130.313 27.843ZM129.315 23.8102C128.362 22.6568 126.959 21.9164 125.23 21.5091L124.771 23.4559C126.222 23.7974 127.181 24.3668 127.774 25.0841L129.315 23.8102ZM125.23 21.5091C123.562 21.1165 121.954 21.1134 120.422 21.5279L120.944 23.4585C122.119 23.1405 123.389 23.1303 124.771 23.4559L125.23 21.5091ZM120.442 21.5226C118.932 21.8972 117.589 22.6212 116.422 23.6827L117.769 25.1618C118.695 24.3189 119.743 23.7568 120.924 23.4638L120.442 21.5226ZM117.786 23.6987L112.71 18.8565L111.33 20.3036L116.405 25.1458L117.786 23.6987ZM112.708 20.3055C114.334 18.7629 116.345 17.6914 118.77 17.1031L118.298 15.1595C115.566 15.8224 113.234 17.05 111.332 18.8546L112.708 20.3055ZM118.781 17.1004C121.176 16.4911 123.94 16.5309 127.1 17.2751L127.558 15.3284C124.165 14.5292 121.065 14.4554 118.288 15.1622L118.781 17.1004ZM127.1 17.2751C129.44 17.8261 131.378 18.6448 132.937 19.7108L134.066 18.0597C132.262 16.8271 130.085 15.9234 127.558 15.3284L127.1 17.2751ZM132.95 19.7194C134.51 20.751 135.579 21.962 136.214 23.3409L138.031 22.5045C137.215 20.7338 135.871 19.2532 134.053 18.0511L132.95 19.7194ZM136.22 23.3544C136.866 24.7027 137.011 26.2297 136.598 27.9872L138.544 28.4456C139.047 26.3096 138.894 24.3075 138.024 22.4909L136.22 23.3544ZM136.598 27.9872C136.323 29.1538 135.91 30.1043 135.377 30.8627L137.015 32.0114C137.72 31.0064 138.223 29.8099 138.544 28.4456L136.598 27.9872ZM135.377 30.8627C134.816 31.6637 134.19 32.3061 133.505 32.8029L134.678 34.4223C135.562 33.7817 136.34 32.9738 137.015 32.0114L135.377 30.8627ZM133.505 32.8029C132.759 33.3429 131.979 33.8258 131.163 34.2516L132.089 36.0246C132.991 35.5537 133.854 35.0195 134.678 34.4223L133.505 32.8029ZM131.143 34.2625C130.31 34.722 129.513 35.1732 128.752 35.6162L129.758 37.3447C130.505 36.91 131.289 36.4663 132.109 36.0137L131.143 34.2625ZM128.752 35.6162C127.937 36.0909 127.208 36.6314 126.571 37.2405L127.954 38.6858C128.466 38.1956 129.066 37.7477 129.758 37.3447L128.752 35.6162ZM126.546 37.2658C125.858 37.9722 125.408 38.8596 125.166 39.8838L127.113 40.3422C127.285 39.6144 127.582 39.0685 127.979 38.6605L126.546 37.2658ZM126.369 39.1397L119.02 37.4091L118.562 39.3559L125.911 41.0864L126.369 39.1397ZM119.842 50.496C118.709 50.2292 117.93 49.6715 117.415 48.8383L115.714 49.8907C116.538 51.2222 117.791 52.0677 119.384 52.4427L119.842 50.496ZM117.415 48.8383C116.879 47.9735 116.737 47.1028 116.957 46.1695L115.01 45.7111C114.665 47.1788 114.91 48.591 115.714 49.8907L117.415 48.8383ZM116.957 46.1695C117.186 45.1977 117.697 44.516 118.513 44.0535L117.527 42.3136C116.208 43.0609 115.362 44.217 115.01 45.7111L116.957 46.1695ZM118.53 44.0437C119.354 43.5547 120.303 43.413 121.447 43.6824L121.905 41.7356C120.324 41.3632 118.834 41.5379 117.51 42.3235L118.53 44.0437ZM121.447 43.6824C122.631 43.9612 123.404 44.5128 123.886 45.2913L125.586 44.2389C124.778 42.933 123.511 42.1138 121.905 41.7356L121.447 43.6824ZM123.907 45.3236C124.43 46.1016 124.584 46.9397 124.355 47.9115L126.301 48.3699C126.653 46.8759 126.412 45.4636 125.566 44.2066L123.907 45.3236ZM124.355 47.9115C124.135 48.8448 123.619 49.5605 122.754 50.0957L123.807 51.7964C125.107 50.9921 125.956 49.8377 126.301 48.3699L124.355 47.9115ZM122.738 50.1058C121.951 50.6138 121.015 50.7722 119.842 50.496L119.384 52.4427C121.001 52.8236 122.51 52.6332 123.823 51.7864L122.738 50.1058Z" fill="url(#paint3_linear_14_72)" mask="url(#path-2-outside-1_14_72)"/>
</g>
<g filter="url(#filter2_f_14_72)">
<path d="M260.58 226.92C254.493 195.522 226.857 171.825 193.666 171.825C160.475 171.825 132.839 195.522 126.752 226.92C125.432 233.696 130.79 239.98 137.684 239.98H249.628C256.542 239.98 261.88 233.716 260.56 226.92H260.58Z" fill="url(#paint4_linear_14_72)"/>
<path d="M193.666 155.811C212.356 155.811 227.507 140.66 227.507 121.97C227.507 103.28 212.356 88.1288 193.666 88.1288C174.976 88.1288 159.825 103.28 159.825 121.97C159.825 140.66 174.976 155.811 193.666 155.811Z" fill="url(#paint5_linear_14_72)"/>
</g>
<path d="M260.58 226.92C254.493 195.522 226.857 171.825 193.666 171.825C160.475 171.825 132.839 195.522 126.752 226.92C125.432 233.697 130.79 239.98 137.684 239.98H249.628C256.542 239.98 261.88 233.716 260.56 226.92H260.58Z" fill="url(#paint6_linear_14_72)"/>
<path d="M193.666 155.811C212.356 155.811 227.507 140.66 227.507 121.97C227.507 103.28 212.356 88.1291 193.666 88.1291C174.976 88.1291 159.825 103.28 159.825 121.97C159.825 140.66 174.976 155.811 193.666 155.811Z" fill="url(#paint7_linear_14_72)"/>
<g filter="url(#filter3_b_14_72)">
<path d="M168.039 223.611C160.396 184.255 125.748 154.53 84.1458 154.53C42.5438 154.53 7.89522 184.255 0.252437 223.611C-1.40219 232.121 5.2951 239.98 13.9622 239.98H154.31C162.977 239.98 169.674 232.121 168.019 223.611H168.039Z" fill="url(#paint8_linear_14_72)"/>
<path d="M84.1458 155.53C124.839 155.53 158.803 184.308 166.817 222.611H166.806L167.038 223.802C168.568 231.672 162.37 238.98 154.31 238.98H13.9622C5.90161 238.98 -0.29631 231.672 1.23405 223.802L1.2341 223.802C8.78738 184.906 43.0318 155.53 84.1458 155.53ZM0.267459 223.614L0.252437 223.611L0.267459 223.614Z" stroke="url(#paint9_linear_14_72)" stroke-width="2"/>
</g>
<g filter="url(#filter4_b_14_72)">
<path d="M93.8601 133.329C116.656 127.949 130.774 105.108 125.394 82.3118C120.013 59.5159 97.1721 45.3979 74.3763 50.7782C51.5805 56.1585 37.4624 78.9997 42.8427 101.796C48.223 124.591 71.0643 138.709 93.8601 133.329Z" fill="url(#paint10_linear_14_72)"/>
<path d="M124.42 82.5415C129.674 104.8 115.889 127.102 93.6304 132.356C71.3721 137.609 49.0694 123.824 43.816 101.566C38.5626 79.3076 52.3477 57.0049 74.606 51.7514C96.8643 46.498 119.167 60.2832 124.42 82.5415Z" stroke="url(#paint11_linear_14_72)" stroke-width="2"/>
</g>
<defs>
<filter id="filter0_b_14_72" x="129.187" y="-3.81305" width="117.799" height="124.828" filterUnits="userSpaceOnUse" color-interpolation-filters="sRGB">
<feFlood flood-opacity="0" result="BackgroundImageFix"/>
<feGaussianBlur in="BackgroundImageFix" stdDeviation="21"/>
<feComposite in2="SourceAlpha" operator="in" result="effect1_backgroundBlur_14_72"/>
<feBlend mode="normal" in="SourceGraphic" in2="effect1_backgroundBlur_14_72" result="shape"/>
</filter>
<filter id="filter1_b_14_72" x="63.3044" y="-28.9416" width="118.387" height="125.196" filterUnits="userSpaceOnUse" color-interpolation-filters="sRGB">
<feFlood flood-opacity="0" result="BackgroundImageFix"/>
<feGaussianBlur in="BackgroundImageFix" stdDeviation="21"/>
<feComposite in2="SourceAlpha" operator="in" result="effect1_backgroundBlur_14_72"/>
<feBlend mode="normal" in="SourceGraphic" in2="effect1_backgroundBlur_14_72" result="shape"/>
</filter>
<filter id="filter2_f_14_72" x="38.5513" y="0.128784" width="310.21" height="327.851" filterUnits="userSpaceOnUse" color-interpolation-filters="sRGB">
<feFlood flood-opacity="0" result="BackgroundImageFix"/>
<feBlend mode="normal" in="SourceGraphic" in2="BackgroundImageFix" result="shape"/>
<feGaussianBlur stdDeviation="44" result="effect1_foregroundBlur_14_72"/>
</filter>
<filter id="filter3_b_14_72" x="-18" y="136.53" width="204.272" height="121.45" filterUnits="userSpaceOnUse" color-interpolation-filters="sRGB">
<feFlood flood-opacity="0" result="BackgroundImageFix"/>
<feGaussianBlur in="BackgroundImageFix" stdDeviation="9"/>
<feComposite in2="SourceAlpha" operator="in" result="effect1_backgroundBlur_14_72"/>
<feBlend mode="normal" in="SourceGraphic" in2="effect1_backgroundBlur_14_72" result="shape"/>
</filter>
<filter id="filter4_b_14_72" x="23.699" y="31.6345" width="120.838" height="120.838" filterUnits="userSpaceOnUse" color-interpolation-filters="sRGB">
<feFlood flood-opacity="0" result="BackgroundImageFix"/>
<feGaussianBlur in="BackgroundImageFix" stdDeviation="9"/>
<feComposite in2="SourceAlpha" operator="in" result="effect1_backgroundBlur_14_72"/>
<feBlend mode="normal" in="SourceGraphic" in2="effect1_backgroundBlur_14_72" result="shape"/>
</filter>
<linearGradient id="paint0_linear_14_72" x1="186.432" y1="27.8651" x2="201.942" y2="100.228" gradientUnits="userSpaceOnUse">
<stop stop-color="#8372CA"/>
<stop offset="1" stop-color="#694FFC"/>
</linearGradient>
<radialGradient id="paint1_radial_14_72" cx="0" cy="0" r="1" gradientUnits="userSpaceOnUse" gradientTransform="translate(116.261 3.21826) rotate(76.3218) scale(78.4105 101.325)">
<stop stop-color="#D8D8D8" stop-opacity="0"/>
<stop offset="1" stop-color="#D8D8D8"/>
</radialGradient>
<radialGradient id="paint2_radial_14_72" cx="0" cy="0" r="1" gradientUnits="userSpaceOnUse" gradientTransform="translate(100.49 70.9481) rotate(-49.8121) scale(78.0049 100.718)">
<stop stop-color="#D8D8D8" stop-opacity="0"/>
<stop offset="1" stop-color="#D8D8D8"/>
</radialGradient>
<linearGradient id="paint3_linear_14_72" x1="116.64" y1="3.11911" x2="161.318" y2="24.8272" gradientUnits="userSpaceOnUse">
<stop stop-color="white" stop-opacity="0.9"/>
<stop offset="1" stop-color="white" stop-opacity="0"/>
</linearGradient>
<linearGradient id="paint4_linear_14_72" x1="193.666" y1="277.485" x2="193.666" y2="72.5673" gradientUnits="userSpaceOnUse">
<stop stop-color="#5442BE"/>
<stop offset="1" stop-color="#4213FE"/>
</linearGradient>
<linearGradient id="paint5_linear_14_72" x1="193.666" y1="-800.739" x2="193.666" y2="72.5674" gradientUnits="userSpaceOnUse">
<stop stop-color="#4E4AFF"/>
<stop offset="1" stop-color="#4F32FF"/>
</linearGradient>
<linearGradient id="paint6_linear_14_72" x1="193.666" y1="277.485" x2="193.666" y2="72.5676" gradientUnits="userSpaceOnUse">
<stop stop-color="#5442BE"/>
<stop offset="1" stop-color="#4213FE"/>
</linearGradient>
<linearGradient id="paint7_linear_14_72" x1="193.666" y1="-800.738" x2="193.666" y2="72.5677" gradientUnits="userSpaceOnUse">
<stop stop-color="#4E4AFF"/>
<stop offset="1" stop-color="#5526B9"/>
</linearGradient>
<linearGradient id="paint8_linear_14_72" x1="9.49992" y1="235.156" x2="70.7026" y2="114.632" gradientUnits="userSpaceOnUse">
<stop stop-color="white" stop-opacity="0.2"/>
<stop offset="1" stop-color="white" stop-opacity="0.49"/>
</linearGradient>
<linearGradient id="paint9_linear_14_72" x1="11.8781" y1="161.251" x2="67.3615" y2="278.076" gradientUnits="userSpaceOnUse">
<stop stop-color="white"/>
<stop offset="1" stop-color="white" stop-opacity="0"/>
</linearGradient>
<linearGradient id="paint10_linear_14_72" x1="56.1451" y1="137.311" x2="112.091" y2="46.7967" gradientUnits="userSpaceOnUse">
<stop stop-color="white" stop-opacity="0.2"/>
<stop offset="1" stop-color="white" stop-opacity="0.49"/>
</linearGradient>
<linearGradient id="paint11_linear_14_72" x1="40.4604" y1="65.6372" x2="126.879" y2="123.133" gradientUnits="userSpaceOnUse">
<stop stop-color="white"/>
<stop offset="1" stop-color="white" stop-opacity="0"/>
</linearGradient>
</defs>
</svg>
