<svg width="439" height="409" viewBox="0 0 439 409" fill="none" xmlns="http://www.w3.org/2000/svg">
<g filter="url(#filter0_b_14_72)">
<path d="M244.624 73.9857C244.379 72.8449 244.342 71.7961 244.512 70.8393C244.714 69.8754 245.019 68.9919 245.427 68.1887C245.866 67.3785 246.35 66.6102 246.876 65.8838C247.402 65.1574 247.886 64.4741 248.328 63.8338C248.796 63.154 249.147 62.4823 249.379 61.8188C249.645 61.1483 249.701 60.4545 249.547 59.7375C249.295 58.5641 248.604 57.7237 247.472 57.2162C246.373 56.7018 245.026 56.6157 243.428 56.958C241.897 57.2863 240.598 57.9057 239.531 58.816C238.458 59.6938 237.653 60.7869 237.115 62.0953L230.455 59.8921C231.333 57.6244 232.803 55.656 234.866 53.9866C236.921 52.2847 239.595 51.0809 242.887 50.3753C245.331 49.8514 247.559 49.7488 249.571 50.0677C251.575 50.354 253.242 51.0535 254.572 52.1662C255.934 53.272 256.824 54.8027 257.243 56.7583C257.516 58.0294 257.561 59.1958 257.38 60.2574C257.198 61.319 256.875 62.2747 256.409 63.1245C255.944 63.9743 255.419 64.7857 254.834 65.5586C254.283 66.3246 253.76 67.0673 253.266 67.7867C252.773 68.5061 252.384 69.2371 252.1 69.9798C251.849 70.7155 251.817 71.5234 252.006 72.4034L244.624 73.9857ZM250.969 85.4606C249.601 85.754 248.382 85.555 247.313 84.8636C246.244 84.1722 245.581 83.2235 245.322 82.0176C245.057 80.7791 245.277 79.6581 245.982 78.6546C246.681 77.6186 247.714 76.9539 249.083 76.6605C250.485 76.3601 251.7 76.5428 252.729 77.2085C253.784 77.8348 254.444 78.7671 254.709 80.0057C254.968 81.2116 254.751 82.3489 254.06 83.4175C253.401 84.4792 252.371 85.1602 250.969 85.4606Z" fill="url(#paint0_linear_14_72)"/>
</g>
<g style="mix-blend-mode:hard-light" filter="url(#filter1_b_14_72)">
<mask id="path-2-outside-1_14_72" maskUnits="userSpaceOnUse" x="142.995" y="10.2487" width="38.1405" height="44.838" fill="black">
<rect fill="white" x="142.995" y="10.2487" width="38.1405" height="44.838"/>
<path d="M158.747 37.3825C159.014 36.2469 159.429 35.2831 159.992 34.4911C160.588 33.7067 161.242 33.0388 161.954 32.4873C162.698 31.9435 163.464 31.456 164.25 31.0248C165.037 30.5935 165.767 30.1833 166.441 29.7941C167.155 29.38 167.759 28.923 168.253 28.423C168.78 27.9307 169.128 27.3276 169.296 26.6138C169.571 25.4457 169.306 24.3902 168.5 23.4472C167.727 22.5118 166.546 21.8569 164.956 21.4825C163.431 21.1234 161.992 21.127 160.639 21.4932C159.293 21.827 158.097 22.47 157.051 23.4222L151.976 18.58C153.74 16.9065 155.911 15.7569 158.49 15.1313C161.076 14.4732 164.008 14.5301 167.285 15.3017C169.718 15.8748 171.776 16.7359 173.457 17.8852C175.146 19.0021 176.353 20.3479 177.078 21.9227C177.836 23.5051 177.985 25.2697 177.527 27.2164C177.229 28.4818 176.77 29.5554 176.152 30.4371C175.533 31.3188 174.832 32.0439 174.047 32.6126C173.263 33.1812 172.441 33.6897 171.582 34.1381C170.755 34.5941 169.965 35.0416 169.211 35.4804C168.457 35.9193 167.793 36.4135 167.218 36.9631C166.676 37.5204 166.302 38.237 166.096 39.113L158.747 37.3825ZM159.569 50.4694C158.206 50.1485 157.19 49.4469 156.52 48.3645C155.85 47.2822 155.657 46.1408 155.939 44.9403C156.23 43.7074 156.909 42.7885 157.976 42.1836C159.05 41.5463 160.269 41.3881 161.632 41.709C163.027 42.0375 164.047 42.7229 164.692 43.7651C165.377 44.7826 165.574 45.9078 165.284 47.1407C165.001 48.3412 164.319 49.2763 163.236 49.9461C162.186 50.6235 160.964 50.7979 159.569 50.4694Z"/>
</mask>
<path d="M158.747 37.3825C159.014 36.2469 159.429 35.2831 159.992 34.4911C160.588 33.7067 161.242 33.0388 161.954 32.4873C162.698 31.9435 163.464 31.456 164.25 31.0248C165.037 30.5935 165.767 30.1833 166.441 29.7941C167.155 29.38 167.759 28.923 168.253 28.423C168.78 27.9307 169.128 27.3276 169.296 26.6138C169.571 25.4457 169.306 24.3902 168.5 23.4472C167.727 22.5118 166.546 21.8569 164.956 21.4825C163.431 21.1234 161.992 21.127 160.639 21.4932C159.293 21.827 158.097 22.47 157.051 23.4222L151.976 18.58C153.74 16.9065 155.911 15.7569 158.49 15.1313C161.076 14.4732 164.008 14.5301 167.285 15.3017C169.718 15.8748 171.776 16.7359 173.457 17.8852C175.146 19.0021 176.353 20.3479 177.078 21.9227C177.836 23.5051 177.985 25.2697 177.527 27.2164C177.229 28.4818 176.77 29.5554 176.152 30.4371C175.533 31.3188 174.832 32.0439 174.047 32.6126C173.263 33.1812 172.441 33.6897 171.582 34.1381C170.755 34.5941 169.965 35.0416 169.211 35.4804C168.457 35.9193 167.793 36.4135 167.218 36.9631C166.676 37.5204 166.302 38.237 166.096 39.113L158.747 37.3825ZM159.569 50.4694C158.206 50.1485 157.19 49.4469 156.52 48.3645C155.85 47.2822 155.657 46.1408 155.939 44.9403C156.23 43.7074 156.909 42.7885 157.976 42.1836C159.05 41.5463 160.269 41.3881 161.632 41.709C163.027 42.0375 164.047 42.7229 164.692 43.7651C165.377 44.7826 165.574 45.9078 165.284 47.1407C165.001 48.3412 164.319 49.2763 163.236 49.9461C162.186 50.6235 160.964 50.7979 159.569 50.4694Z" fill="white" fill-opacity="0.5"/>
<path d="M158.747 37.3825L157.773 37.1533L157.544 38.1267L158.517 38.3559L158.747 37.3825ZM159.992 34.4911L159.196 33.8863L159.187 33.8988L159.178 33.9116L159.992 34.4911ZM161.954 32.4873L161.364 31.6798L161.353 31.6881L161.342 31.6967L161.954 32.4873ZM166.441 29.7941L166.941 30.66L166.942 30.6591L166.441 29.7941ZM168.253 28.423L167.57 27.6923L167.556 27.7058L167.542 27.7198L168.253 28.423ZM168.5 23.4472L167.729 24.0841L167.735 24.0904L167.74 24.0965L168.5 23.4472ZM160.639 21.4932L160.88 22.4638L160.89 22.4613L160.9 22.4585L160.639 21.4932ZM157.051 23.4222L156.361 24.1458L157.035 24.7891L157.724 24.1618L157.051 23.4222ZM151.976 18.58L151.288 17.8546L150.525 18.578L151.286 19.3036L151.976 18.58ZM158.49 15.1313L158.726 16.1031L158.736 16.1004L158.49 15.1313ZM173.457 17.8852L172.893 18.7108L172.899 18.7151L172.906 18.7194L173.457 17.8852ZM177.078 21.9227L176.17 22.3409L176.173 22.3477L176.176 22.3544L177.078 21.9227ZM176.152 30.4371L176.971 31.0114L176.971 31.0114L176.152 30.4371ZM174.047 32.6126L173.46 31.8029L174.047 32.6126ZM171.582 34.1381L171.119 33.2516L171.109 33.257L171.099 33.2625L171.582 34.1381ZM169.211 35.4804L169.714 36.3447L169.714 36.3447L169.211 35.4804ZM167.218 36.9631L166.527 36.2405L166.514 36.2529L166.501 36.2658L167.218 36.9631ZM166.096 39.113L165.866 40.0864L166.84 40.3156L167.069 39.3422L166.096 39.113ZM156.52 48.3645L155.67 48.8907L155.67 48.8907L156.52 48.3645ZM157.976 42.1836L158.469 43.0535L158.477 43.0487L158.486 43.0437L157.976 42.1836ZM164.692 43.7651L163.842 44.2913L163.852 44.3077L163.862 44.3236L164.692 43.7651ZM163.236 49.9461L162.71 49.0957L162.702 49.1007L162.694 49.1058L163.236 49.9461ZM159.72 37.6117C159.963 36.5773 160.333 35.7383 160.807 35.0706L159.178 33.9116C158.526 34.8278 158.064 35.9164 157.773 37.1533L159.72 37.6117ZM160.789 35.0959C161.336 34.3748 161.93 33.7711 162.566 33.2779L161.342 31.6967C160.554 32.3066 159.84 33.0387 159.196 33.8863L160.789 35.0959ZM162.544 33.2948C163.254 32.7757 163.984 32.3115 164.731 31.9016L163.77 30.1479C162.944 30.6004 162.142 31.1113 161.364 31.6798L162.544 33.2948ZM164.731 31.9016C165.523 31.4673 166.26 31.0534 166.941 30.66L165.941 28.9281C165.274 29.3132 164.55 29.7197 163.77 30.1479L164.731 31.9016ZM166.942 30.6591C167.72 30.2081 168.398 29.6989 168.964 29.1261L167.542 27.7198C167.12 28.147 166.589 28.5519 165.939 28.929L166.942 30.6591ZM168.936 29.1536C169.61 28.5241 170.057 27.7455 170.269 26.843L168.322 26.3846C168.199 26.9097 167.951 27.3372 167.57 27.6923L168.936 29.1536ZM170.269 26.843C170.62 25.3529 170.265 23.9735 169.261 22.7978L167.74 24.0965C168.346 24.8069 168.522 25.5386 168.322 26.3846L170.269 26.843ZM169.271 22.8102C168.318 21.6568 166.915 20.9164 165.186 20.5091L164.727 22.4559C166.177 22.7974 167.137 23.3668 167.729 24.0841L169.271 22.8102ZM165.186 20.5091C163.518 20.1165 161.909 20.1134 160.378 20.5279L160.9 22.4585C162.075 22.1405 163.344 22.1303 164.727 22.4559L165.186 20.5091ZM160.398 20.5226C158.888 20.8972 157.544 21.6212 156.378 22.6827L157.724 24.1618C158.65 23.3189 159.698 22.7568 160.88 22.4638L160.398 20.5226ZM157.742 22.6987L152.666 17.8565L151.286 19.3036L156.361 24.1458L157.742 22.6987ZM152.664 19.3055C154.29 17.7629 156.301 16.6914 158.726 16.1031L158.254 14.1595C155.522 14.8224 153.19 16.05 151.288 17.8546L152.664 19.3055ZM158.736 16.1004C161.131 15.4911 163.895 15.5309 167.056 16.2751L167.514 14.3284C164.121 13.5292 161.021 13.4554 158.243 14.1622L158.736 16.1004ZM167.056 16.2751C169.396 16.8261 171.333 17.6448 172.893 18.7108L174.021 17.0597C172.218 15.8271 170.041 14.9234 167.514 14.3284L167.056 16.2751ZM172.906 18.7194C174.466 19.751 175.535 20.962 176.17 22.3409L177.986 21.5045C177.171 19.7338 175.827 18.2532 174.009 17.0511L172.906 18.7194ZM176.176 22.3544C176.822 23.7027 176.967 25.2297 176.553 26.9872L178.5 27.4456C179.003 25.3096 178.85 23.3075 177.98 21.4909L176.176 22.3544ZM176.553 26.9872C176.279 28.1538 175.865 29.1043 175.333 29.8627L176.971 31.0114C177.676 30.0064 178.179 28.8099 178.5 27.4456L176.553 26.9872ZM175.333 29.8627C174.771 30.6637 174.146 31.3061 173.46 31.8029L174.634 33.4223C175.518 32.7817 176.295 31.9738 176.971 31.0114L175.333 29.8627ZM173.46 31.8029C172.715 32.3429 171.935 32.8258 171.119 33.2516L172.045 35.0246C172.947 34.5537 173.81 34.0195 174.634 33.4223L173.46 31.8029ZM171.099 33.2625C170.266 33.722 169.469 34.1732 168.708 34.6162L169.714 36.3447C170.461 35.91 171.245 35.4663 172.065 35.0137L171.099 33.2625ZM168.708 34.6162C167.893 35.0909 167.164 35.6314 166.527 36.2405L167.909 37.6858C168.422 37.1956 169.022 36.7477 169.714 36.3447L168.708 34.6162ZM166.501 36.2658C165.814 36.9722 165.363 37.8596 165.122 38.8838L167.069 39.3422C167.24 38.6144 167.538 38.0685 167.935 37.6605L166.501 36.2658ZM166.325 38.1397L158.976 36.4091L158.517 38.3559L165.866 40.0864L166.325 38.1397ZM159.798 49.496C158.665 49.2292 157.886 48.6715 157.37 47.8383L155.67 48.8907C156.494 50.2222 157.747 51.0677 159.34 51.4427L159.798 49.496ZM157.37 47.8383C156.835 46.9735 156.693 46.1028 156.913 45.1695L154.966 44.7111C154.62 46.1788 154.865 47.591 155.67 48.8907L157.37 47.8383ZM156.913 45.1695C157.142 44.1977 157.653 43.516 158.469 43.0535L157.482 41.3136C156.164 42.0609 155.318 43.217 154.966 44.7111L156.913 45.1695ZM158.486 43.0437C159.31 42.5547 160.259 42.413 161.402 42.6824L161.861 40.7356C160.279 40.3632 158.79 40.5379 157.465 41.3235L158.486 43.0437ZM161.402 42.6824C162.587 42.9612 163.36 43.5128 163.842 44.2913L165.542 43.2389C164.734 41.933 163.467 41.1138 161.861 40.7356L161.402 42.6824ZM163.862 44.3236C164.386 45.1016 164.539 45.9397 164.311 46.9115L166.257 47.3699C166.609 45.8759 166.368 44.4636 165.521 43.2066L163.862 44.3236ZM164.311 46.9115C164.091 47.8448 163.575 48.5605 162.71 49.0957L163.763 50.7964C165.062 49.9921 165.912 48.8377 166.257 47.3699L164.311 46.9115ZM162.694 49.1058C161.907 49.6138 160.971 49.7722 159.798 49.496L159.34 51.4427C160.957 51.8236 162.466 51.6332 163.779 50.7864L162.694 49.1058Z" fill="url(#paint1_radial_14_72)" fill-opacity="0.5" mask="url(#path-2-outside-1_14_72)"/>
<path d="M158.747 37.3825L157.773 37.1533L157.544 38.1267L158.517 38.3559L158.747 37.3825ZM159.992 34.4911L159.196 33.8863L159.187 33.8988L159.178 33.9116L159.992 34.4911ZM161.954 32.4873L161.364 31.6798L161.353 31.6881L161.342 31.6967L161.954 32.4873ZM166.441 29.7941L166.941 30.66L166.942 30.6591L166.441 29.7941ZM168.253 28.423L167.57 27.6923L167.556 27.7058L167.542 27.7198L168.253 28.423ZM168.5 23.4472L167.729 24.0841L167.735 24.0904L167.74 24.0965L168.5 23.4472ZM160.639 21.4932L160.88 22.4638L160.89 22.4613L160.9 22.4585L160.639 21.4932ZM157.051 23.4222L156.361 24.1458L157.035 24.7891L157.724 24.1618L157.051 23.4222ZM151.976 18.58L151.288 17.8546L150.525 18.578L151.286 19.3036L151.976 18.58ZM158.49 15.1313L158.726 16.1031L158.736 16.1004L158.49 15.1313ZM173.457 17.8852L172.893 18.7108L172.899 18.7151L172.906 18.7194L173.457 17.8852ZM177.078 21.9227L176.17 22.3409L176.173 22.3477L176.176 22.3544L177.078 21.9227ZM176.152 30.4371L176.971 31.0114L176.971 31.0114L176.152 30.4371ZM174.047 32.6126L173.46 31.8029L174.047 32.6126ZM171.582 34.1381L171.119 33.2516L171.109 33.257L171.099 33.2625L171.582 34.1381ZM169.211 35.4804L169.714 36.3447L169.714 36.3447L169.211 35.4804ZM167.218 36.9631L166.527 36.2405L166.514 36.2529L166.501 36.2658L167.218 36.9631ZM166.096 39.113L165.866 40.0864L166.84 40.3156L167.069 39.3422L166.096 39.113ZM156.52 48.3645L155.67 48.8907L155.67 48.8907L156.52 48.3645ZM157.976 42.1836L158.469 43.0535L158.477 43.0487L158.486 43.0437L157.976 42.1836ZM164.692 43.7651L163.842 44.2913L163.852 44.3077L163.862 44.3236L164.692 43.7651ZM163.236 49.9461L162.71 49.0957L162.702 49.1007L162.694 49.1058L163.236 49.9461ZM159.72 37.6117C159.963 36.5773 160.333 35.7383 160.807 35.0706L159.178 33.9116C158.526 34.8278 158.064 35.9164 157.773 37.1533L159.72 37.6117ZM160.789 35.0959C161.336 34.3748 161.93 33.7711 162.566 33.2779L161.342 31.6967C160.554 32.3066 159.84 33.0387 159.196 33.8863L160.789 35.0959ZM162.544 33.2948C163.254 32.7757 163.984 32.3115 164.731 31.9016L163.77 30.1479C162.944 30.6004 162.142 31.1113 161.364 31.6798L162.544 33.2948ZM164.731 31.9016C165.523 31.4673 166.26 31.0534 166.941 30.66L165.941 28.9281C165.274 29.3132 164.55 29.7197 163.77 30.1479L164.731 31.9016ZM166.942 30.6591C167.72 30.2081 168.398 29.6989 168.964 29.1261L167.542 27.7198C167.12 28.147 166.589 28.5519 165.939 28.929L166.942 30.6591ZM168.936 29.1536C169.61 28.5241 170.057 27.7455 170.269 26.843L168.322 26.3846C168.199 26.9097 167.951 27.3372 167.57 27.6923L168.936 29.1536ZM170.269 26.843C170.62 25.3529 170.265 23.9735 169.261 22.7978L167.74 24.0965C168.346 24.8069 168.522 25.5386 168.322 26.3846L170.269 26.843ZM169.271 22.8102C168.318 21.6568 166.915 20.9164 165.186 20.5091L164.727 22.4559C166.177 22.7974 167.137 23.3668 167.729 24.0841L169.271 22.8102ZM165.186 20.5091C163.518 20.1165 161.909 20.1134 160.378 20.5279L160.9 22.4585C162.075 22.1405 163.344 22.1303 164.727 22.4559L165.186 20.5091ZM160.398 20.5226C158.888 20.8972 157.544 21.6212 156.378 22.6827L157.724 24.1618C158.65 23.3189 159.698 22.7568 160.88 22.4638L160.398 20.5226ZM157.742 22.6987L152.666 17.8565L151.286 19.3036L156.361 24.1458L157.742 22.6987ZM152.664 19.3055C154.29 17.7629 156.301 16.6914 158.726 16.1031L158.254 14.1595C155.522 14.8224 153.19 16.05 151.288 17.8546L152.664 19.3055ZM158.736 16.1004C161.131 15.4911 163.895 15.5309 167.056 16.2751L167.514 14.3284C164.121 13.5292 161.021 13.4554 158.243 14.1622L158.736 16.1004ZM167.056 16.2751C169.396 16.8261 171.333 17.6448 172.893 18.7108L174.021 17.0597C172.218 15.8271 170.041 14.9234 167.514 14.3284L167.056 16.2751ZM172.906 18.7194C174.466 19.751 175.535 20.962 176.17 22.3409L177.986 21.5045C177.171 19.7338 175.827 18.2532 174.009 17.0511L172.906 18.7194ZM176.176 22.3544C176.822 23.7027 176.967 25.2297 176.553 26.9872L178.5 27.4456C179.003 25.3096 178.85 23.3075 177.98 21.4909L176.176 22.3544ZM176.553 26.9872C176.279 28.1538 175.865 29.1043 175.333 29.8627L176.971 31.0114C177.676 30.0064 178.179 28.8099 178.5 27.4456L176.553 26.9872ZM175.333 29.8627C174.771 30.6637 174.146 31.3061 173.46 31.8029L174.634 33.4223C175.518 32.7817 176.295 31.9738 176.971 31.0114L175.333 29.8627ZM173.46 31.8029C172.715 32.3429 171.935 32.8258 171.119 33.2516L172.045 35.0246C172.947 34.5537 173.81 34.0195 174.634 33.4223L173.46 31.8029ZM171.099 33.2625C170.266 33.722 169.469 34.1732 168.708 34.6162L169.714 36.3447C170.461 35.91 171.245 35.4663 172.065 35.0137L171.099 33.2625ZM168.708 34.6162C167.893 35.0909 167.164 35.6314 166.527 36.2405L167.909 37.6858C168.422 37.1956 169.022 36.7477 169.714 36.3447L168.708 34.6162ZM166.501 36.2658C165.814 36.9722 165.363 37.8596 165.122 38.8838L167.069 39.3422C167.24 38.6144 167.538 38.0685 167.935 37.6605L166.501 36.2658ZM166.325 38.1397L158.976 36.4091L158.517 38.3559L165.866 40.0864L166.325 38.1397ZM159.798 49.496C158.665 49.2292 157.886 48.6715 157.37 47.8383L155.67 48.8907C156.494 50.2222 157.747 51.0677 159.34 51.4427L159.798 49.496ZM157.37 47.8383C156.835 46.9735 156.693 46.1028 156.913 45.1695L154.966 44.7111C154.62 46.1788 154.865 47.591 155.67 48.8907L157.37 47.8383ZM156.913 45.1695C157.142 44.1977 157.653 43.516 158.469 43.0535L157.482 41.3136C156.164 42.0609 155.318 43.217 154.966 44.7111L156.913 45.1695ZM158.486 43.0437C159.31 42.5547 160.259 42.413 161.402 42.6824L161.861 40.7356C160.279 40.3632 158.79 40.5379 157.465 41.3235L158.486 43.0437ZM161.402 42.6824C162.587 42.9612 163.36 43.5128 163.842 44.2913L165.542 43.2389C164.734 41.933 163.467 41.1138 161.861 40.7356L161.402 42.6824ZM163.862 44.3236C164.386 45.1016 164.539 45.9397 164.311 46.9115L166.257 47.3699C166.609 45.8759 166.368 44.4636 165.521 43.2066L163.862 44.3236ZM164.311 46.9115C164.091 47.8448 163.575 48.5605 162.71 49.0957L163.763 50.7964C165.062 49.9921 165.912 48.8377 166.257 47.3699L164.311 46.9115ZM162.694 49.1058C161.907 49.6138 160.971 49.7722 159.798 49.496L159.34 51.4427C160.957 51.8236 162.466 51.6332 163.779 50.7864L162.694 49.1058Z" fill="url(#paint2_radial_14_72)" fill-opacity="0.5" mask="url(#path-2-outside-1_14_72)"/>
<path d="M158.747 37.3825L157.773 37.1533L157.544 38.1267L158.517 38.3559L158.747 37.3825ZM159.992 34.4911L159.196 33.8863L159.187 33.8988L159.178 33.9116L159.992 34.4911ZM161.954 32.4873L161.364 31.6798L161.353 31.6881L161.342 31.6967L161.954 32.4873ZM166.441 29.7941L166.941 30.66L166.942 30.6591L166.441 29.7941ZM168.253 28.423L167.57 27.6923L167.556 27.7058L167.542 27.7198L168.253 28.423ZM168.5 23.4472L167.729 24.0841L167.735 24.0904L167.74 24.0965L168.5 23.4472ZM160.639 21.4932L160.88 22.4638L160.89 22.4613L160.9 22.4585L160.639 21.4932ZM157.051 23.4222L156.361 24.1458L157.035 24.7891L157.724 24.1618L157.051 23.4222ZM151.976 18.58L151.288 17.8546L150.525 18.578L151.286 19.3036L151.976 18.58ZM158.49 15.1313L158.726 16.1031L158.736 16.1004L158.49 15.1313ZM173.457 17.8852L172.893 18.7108L172.899 18.7151L172.906 18.7194L173.457 17.8852ZM177.078 21.9227L176.17 22.3409L176.173 22.3477L176.176 22.3544L177.078 21.9227ZM176.152 30.4371L176.971 31.0114L176.971 31.0114L176.152 30.4371ZM174.047 32.6126L173.46 31.8029L174.047 32.6126ZM171.582 34.1381L171.119 33.2516L171.109 33.257L171.099 33.2625L171.582 34.1381ZM169.211 35.4804L169.714 36.3447L169.714 36.3447L169.211 35.4804ZM167.218 36.9631L166.527 36.2405L166.514 36.2529L166.501 36.2658L167.218 36.9631ZM166.096 39.113L165.866 40.0864L166.84 40.3156L167.069 39.3422L166.096 39.113ZM156.52 48.3645L155.67 48.8907L155.67 48.8907L156.52 48.3645ZM157.976 42.1836L158.469 43.0535L158.477 43.0487L158.486 43.0437L157.976 42.1836ZM164.692 43.7651L163.842 44.2913L163.852 44.3077L163.862 44.3236L164.692 43.7651ZM163.236 49.9461L162.71 49.0957L162.702 49.1007L162.694 49.1058L163.236 49.9461ZM159.72 37.6117C159.963 36.5773 160.333 35.7383 160.807 35.0706L159.178 33.9116C158.526 34.8278 158.064 35.9164 157.773 37.1533L159.72 37.6117ZM160.789 35.0959C161.336 34.3748 161.93 33.7711 162.566 33.2779L161.342 31.6967C160.554 32.3066 159.84 33.0387 159.196 33.8863L160.789 35.0959ZM162.544 33.2948C163.254 32.7757 163.984 32.3115 164.731 31.9016L163.77 30.1479C162.944 30.6004 162.142 31.1113 161.364 31.6798L162.544 33.2948ZM164.731 31.9016C165.523 31.4673 166.26 31.0534 166.941 30.66L165.941 28.9281C165.274 29.3132 164.55 29.7197 163.77 30.1479L164.731 31.9016ZM166.942 30.6591C167.72 30.2081 168.398 29.6989 168.964 29.1261L167.542 27.7198C167.12 28.147 166.589 28.5519 165.939 28.929L166.942 30.6591ZM168.936 29.1536C169.61 28.5241 170.057 27.7455 170.269 26.843L168.322 26.3846C168.199 26.9097 167.951 27.3372 167.57 27.6923L168.936 29.1536ZM170.269 26.843C170.62 25.3529 170.265 23.9735 169.261 22.7978L167.74 24.0965C168.346 24.8069 168.522 25.5386 168.322 26.3846L170.269 26.843ZM169.271 22.8102C168.318 21.6568 166.915 20.9164 165.186 20.5091L164.727 22.4559C166.177 22.7974 167.137 23.3668 167.729 24.0841L169.271 22.8102ZM165.186 20.5091C163.518 20.1165 161.909 20.1134 160.378 20.5279L160.9 22.4585C162.075 22.1405 163.344 22.1303 164.727 22.4559L165.186 20.5091ZM160.398 20.5226C158.888 20.8972 157.544 21.6212 156.378 22.6827L157.724 24.1618C158.65 23.3189 159.698 22.7568 160.88 22.4638L160.398 20.5226ZM157.742 22.6987L152.666 17.8565L151.286 19.3036L156.361 24.1458L157.742 22.6987ZM152.664 19.3055C154.29 17.7629 156.301 16.6914 158.726 16.1031L158.254 14.1595C155.522 14.8224 153.19 16.05 151.288 17.8546L152.664 19.3055ZM158.736 16.1004C161.131 15.4911 163.895 15.5309 167.056 16.2751L167.514 14.3284C164.121 13.5292 161.021 13.4554 158.243 14.1622L158.736 16.1004ZM167.056 16.2751C169.396 16.8261 171.333 17.6448 172.893 18.7108L174.021 17.0597C172.218 15.8271 170.041 14.9234 167.514 14.3284L167.056 16.2751ZM172.906 18.7194C174.466 19.751 175.535 20.962 176.17 22.3409L177.986 21.5045C177.171 19.7338 175.827 18.2532 174.009 17.0511L172.906 18.7194ZM176.176 22.3544C176.822 23.7027 176.967 25.2297 176.553 26.9872L178.5 27.4456C179.003 25.3096 178.85 23.3075 177.98 21.4909L176.176 22.3544ZM176.553 26.9872C176.279 28.1538 175.865 29.1043 175.333 29.8627L176.971 31.0114C177.676 30.0064 178.179 28.8099 178.5 27.4456L176.553 26.9872ZM175.333 29.8627C174.771 30.6637 174.146 31.3061 173.46 31.8029L174.634 33.4223C175.518 32.7817 176.295 31.9738 176.971 31.0114L175.333 29.8627ZM173.46 31.8029C172.715 32.3429 171.935 32.8258 171.119 33.2516L172.045 35.0246C172.947 34.5537 173.81 34.0195 174.634 33.4223L173.46 31.8029ZM171.099 33.2625C170.266 33.722 169.469 34.1732 168.708 34.6162L169.714 36.3447C170.461 35.91 171.245 35.4663 172.065 35.0137L171.099 33.2625ZM168.708 34.6162C167.893 35.0909 167.164 35.6314 166.527 36.2405L167.909 37.6858C168.422 37.1956 169.022 36.7477 169.714 36.3447L168.708 34.6162ZM166.501 36.2658C165.814 36.9722 165.363 37.8596 165.122 38.8838L167.069 39.3422C167.24 38.6144 167.538 38.0685 167.935 37.6605L166.501 36.2658ZM166.325 38.1397L158.976 36.4091L158.517 38.3559L165.866 40.0864L166.325 38.1397ZM159.798 49.496C158.665 49.2292 157.886 48.6715 157.37 47.8383L155.67 48.8907C156.494 50.2222 157.747 51.0677 159.34 51.4427L159.798 49.496ZM157.37 47.8383C156.835 46.9735 156.693 46.1028 156.913 45.1695L154.966 44.7111C154.62 46.1788 154.865 47.591 155.67 48.8907L157.37 47.8383ZM156.913 45.1695C157.142 44.1977 157.653 43.516 158.469 43.0535L157.482 41.3136C156.164 42.0609 155.318 43.217 154.966 44.7111L156.913 45.1695ZM158.486 43.0437C159.31 42.5547 160.259 42.413 161.402 42.6824L161.861 40.7356C160.279 40.3632 158.79 40.5379 157.465 41.3235L158.486 43.0437ZM161.402 42.6824C162.587 42.9612 163.36 43.5128 163.842 44.2913L165.542 43.2389C164.734 41.933 163.467 41.1138 161.861 40.7356L161.402 42.6824ZM163.862 44.3236C164.386 45.1016 164.539 45.9397 164.311 46.9115L166.257 47.3699C166.609 45.8759 166.368 44.4636 165.521 43.2066L163.862 44.3236ZM164.311 46.9115C164.091 47.8448 163.575 48.5605 162.71 49.0957L163.763 50.7964C165.062 49.9921 165.912 48.8377 166.257 47.3699L164.311 46.9115ZM162.694 49.1058C161.907 49.6138 160.971 49.7722 159.798 49.496L159.34 51.4427C160.957 51.8236 162.466 51.6332 163.779 50.7864L162.694 49.1058Z" fill="url(#paint3_linear_14_72)" mask="url(#path-2-outside-1_14_72)"/>
</g>
<g filter="url(#filter2_f_14_72)">
<path d="M349.991 303.439C341.816 261.267 304.697 229.439 260.117 229.439C215.538 229.439 178.419 261.267 170.244 303.439C168.471 312.54 175.668 320.98 184.927 320.98H335.281C344.567 320.98 351.737 312.567 349.965 303.439H349.991Z" fill="url(#paint4_linear_14_72)"/>
<path d="M260.118 207.93C285.221 207.93 305.571 187.58 305.571 162.477C305.571 137.375 285.221 117.025 260.118 117.025C235.015 117.025 214.665 137.375 214.665 162.477C214.665 187.58 235.015 207.93 260.118 207.93Z" fill="url(#paint5_linear_14_72)"/>
</g>
<path d="M349.991 303.439C341.816 261.267 304.697 229.44 260.117 229.44C215.538 229.44 178.419 261.267 170.244 303.439C168.471 312.541 175.668 320.98 184.927 320.98H335.281C344.567 320.98 351.737 312.567 349.965 303.439H349.991Z" fill="url(#paint6_linear_14_72)"/>
<path d="M260.118 207.931C285.221 207.931 305.571 187.581 305.571 162.478C305.571 137.375 285.221 117.025 260.118 117.025C235.015 117.025 214.665 137.375 214.665 162.478C214.665 187.581 235.015 207.931 260.118 207.931Z" fill="url(#paint7_linear_14_72)"/>
<g filter="url(#filter3_b_14_72)">
<path d="M225.698 298.995C215.432 246.134 168.895 206.211 113.018 206.211C57.1417 206.211 10.6043 246.134 0.339054 298.995C-1.88331 310.424 7.11198 320.98 18.7529 320.98H207.257C218.898 320.98 227.893 310.424 225.671 298.995H225.698Z" fill="url(#paint8_linear_14_72)"/>
<path d="M113.018 207.211C167.987 207.211 213.839 246.187 224.478 297.995H224.458L224.689 299.185C226.788 309.976 218.292 319.98 207.257 319.98H18.7529C7.71848 319.98 -0.777435 309.976 1.32067 299.185L1.32072 299.185C11.4964 246.785 57.6296 207.211 113.018 207.211ZM0.339054 298.995L0.3541 298.997L0.339054 298.995Z" stroke="url(#paint9_linear_14_72)" stroke-width="2"/>
</g>
<g filter="url(#filter4_b_14_72)">
<path d="M126.066 177.735C156.683 170.508 175.646 139.83 168.419 109.212C161.193 78.5943 130.514 59.6319 99.8966 66.8583C69.279 74.0848 50.3167 104.763 57.5431 135.381C64.7695 165.999 95.4482 184.961 126.066 177.735Z" fill="url(#paint10_linear_14_72)"/>
<path d="M167.446 109.442C174.546 139.522 155.916 169.662 125.836 176.761C95.756 183.861 65.6159 165.232 58.5163 135.151C51.4168 105.071 70.0462 74.9312 100.126 67.8316C130.206 60.732 160.347 79.3615 167.446 109.442Z" stroke="url(#paint11_linear_14_72)" stroke-width="2"/>
</g>
<defs>
<filter id="filter0_b_14_72" x="187.051" y="5.71368" width="117.799" height="124.828" filterUnits="userSpaceOnUse" color-interpolation-filters="sRGB">
<feFlood flood-opacity="0" result="BackgroundImageFix"/>
<feGaussianBlur in="BackgroundImageFix" stdDeviation="21"/>
<feComposite in2="SourceAlpha" operator="in" result="effect1_backgroundBlur_14_72"/>
<feBlend mode="normal" in="SourceGraphic" in2="effect1_backgroundBlur_14_72" result="shape"/>
</filter>
<filter id="filter1_b_14_72" x="103.26" y="-29.9416" width="118.387" height="125.196" filterUnits="userSpaceOnUse" color-interpolation-filters="sRGB">
<feFlood flood-opacity="0" result="BackgroundImageFix"/>
<feGaussianBlur in="BackgroundImageFix" stdDeviation="21"/>
<feComposite in2="SourceAlpha" operator="in" result="effect1_backgroundBlur_14_72"/>
<feBlend mode="normal" in="SourceGraphic" in2="effect1_backgroundBlur_14_72" result="shape"/>
</filter>
<filter id="filter2_f_14_72" x="81.9741" y="29.0248" width="356.261" height="379.955" filterUnits="userSpaceOnUse" color-interpolation-filters="sRGB">
<feFlood flood-opacity="0" result="BackgroundImageFix"/>
<feBlend mode="normal" in="SourceGraphic" in2="BackgroundImageFix" result="shape"/>
<feGaussianBlur stdDeviation="44" result="effect1_foregroundBlur_14_72"/>
</filter>
<filter id="filter3_b_14_72" x="-18" y="188.211" width="262.01" height="150.769" filterUnits="userSpaceOnUse" color-interpolation-filters="sRGB">
<feFlood flood-opacity="0" result="BackgroundImageFix"/>
<feGaussianBlur in="BackgroundImageFix" stdDeviation="9"/>
<feComposite in2="SourceAlpha" operator="in" result="effect1_backgroundBlur_14_72"/>
<feBlend mode="normal" in="SourceGraphic" in2="effect1_backgroundBlur_14_72" result="shape"/>
</filter>
<filter id="filter4_b_14_72" x="38.0071" y="47.3223" width="149.948" height="149.948" filterUnits="userSpaceOnUse" color-interpolation-filters="sRGB">
<feFlood flood-opacity="0" result="BackgroundImageFix"/>
<feGaussianBlur in="BackgroundImageFix" stdDeviation="9"/>
<feComposite in2="SourceAlpha" operator="in" result="effect1_backgroundBlur_14_72"/>
<feBlend mode="normal" in="SourceGraphic" in2="effect1_backgroundBlur_14_72" result="shape"/>
</filter>
<linearGradient id="paint0_linear_14_72" x1="250.401" y1="36.0831" x2="271.233" y2="133.276" gradientUnits="userSpaceOnUse">
<stop stop-color="#8372CA"/>
<stop offset="1" stop-color="#694FFC"/>
</linearGradient>
<radialGradient id="paint1_radial_14_72" cx="0" cy="0" r="1" gradientUnits="userSpaceOnUse" gradientTransform="translate(156.153 2.9794) rotate(76.3218) scale(105.315 136.092)">
<stop stop-color="#D8D8D8" stop-opacity="0"/>
<stop offset="1" stop-color="#D8D8D8"/>
</radialGradient>
<radialGradient id="paint2_radial_14_72" cx="0" cy="0" r="1" gradientUnits="userSpaceOnUse" gradientTransform="translate(134.97 93.9491) rotate(-49.8121) scale(104.77 135.277)">
<stop stop-color="#D8D8D8" stop-opacity="0"/>
<stop offset="1" stop-color="#D8D8D8"/>
</radialGradient>
<linearGradient id="paint3_linear_14_72" x1="156.662" y1="2.84623" x2="216.67" y2="32.0029" gradientUnits="userSpaceOnUse">
<stop stop-color="white" stop-opacity="0.9"/>
<stop offset="1" stop-color="white" stop-opacity="0"/>
</linearGradient>
<linearGradient id="paint4_linear_14_72" x1="260.117" y1="371.353" x2="260.117" y2="96.1238" gradientUnits="userSpaceOnUse">
<stop stop-color="#5442BE"/>
<stop offset="1" stop-color="#4213FE"/>
</linearGradient>
<linearGradient id="paint5_linear_14_72" x1="260.118" y1="-1076.84" x2="260.118" y2="96.124" gradientUnits="userSpaceOnUse">
<stop stop-color="#4E4AFF"/>
<stop offset="1" stop-color="#4F32FF"/>
</linearGradient>
<linearGradient id="paint6_linear_14_72" x1="260.117" y1="371.354" x2="260.117" y2="96.1242" gradientUnits="userSpaceOnUse">
<stop stop-color="#5442BE"/>
<stop offset="1" stop-color="#4213FE"/>
</linearGradient>
<linearGradient id="paint7_linear_14_72" x1="260.118" y1="-1076.83" x2="260.118" y2="96.1244" gradientUnits="userSpaceOnUse">
<stop stop-color="#4E4AFF"/>
<stop offset="1" stop-color="#5526B9"/>
</linearGradient>
<linearGradient id="paint8_linear_14_72" x1="12.7596" y1="314.501" x2="94.9624" y2="152.623" gradientUnits="userSpaceOnUse">
<stop stop-color="white" stop-opacity="0.2"/>
<stop offset="1" stop-color="white" stop-opacity="0.49"/>
</linearGradient>
<linearGradient id="paint9_linear_14_72" x1="15.9538" y1="215.237" x2="90.4749" y2="372.148" gradientUnits="userSpaceOnUse">
<stop stop-color="white"/>
<stop offset="1" stop-color="white" stop-opacity="0"/>
</linearGradient>
<linearGradient id="paint10_linear_14_72" x1="75.4099" y1="183.082" x2="150.553" y2="61.5108" gradientUnits="userSpaceOnUse">
<stop stop-color="white" stop-opacity="0.2"/>
<stop offset="1" stop-color="white" stop-opacity="0.49"/>
</linearGradient>
<linearGradient id="paint11_linear_14_72" x1="54.3433" y1="86.8159" x2="170.415" y2="164.04" gradientUnits="userSpaceOnUse">
<stop stop-color="white"/>
<stop offset="1" stop-color="white" stop-opacity="0"/>
</linearGradient>
</defs>
</svg>
