<svg width="64" height="64" viewBox="0 0 64 64" fill="none" xmlns="http://www.w3.org/2000/svg">
<path d="M56 32C56 45.2548 45.2548 56 32 56C18.7452 56 8 45.2548 8 32C8 18.7452 18.7452 8 32 8C45.2548 8 56 18.7452 56 32Z" fill="url(#paint0_linear_7_259)"/>
<path d="M52 32C52 43.0457 43.0457 52 32 52C20.9543 52 12 43.0457 12 32C12 20.9543 20.9543 12 32 12C43.0457 12 52 20.9543 52 32Z" fill="url(#paint1_linear_7_259)"/>
<path opacity="0.8" d="M16.5188 31.0282C15.1512 30.1842 14.0063 29.2339 13.1697 28.4376C12.2718 27.5828 10.7603 27.2257 11.1227 28.4113C11.4967 29.6351 12.6687 31.5183 13.8406 33.507C15.8493 36.9155 14.1754 35.676 14.5102 41.2535C14.845 46.831 17.5232 49 19.8666 49C22.21 49 24.5534 41.5634 23.8839 37.2253C23.2143 32.8873 19.5318 32.8873 16.5188 31.0282Z" fill="url(#paint2_linear_7_259)"/>
<path opacity="0.8" d="M34.7641 21.13C37.1809 20.5081 38.338 19.3895 38.7352 18.7181C38.8355 18.5485 38.9037 18.3608 39.0216 18.2029C40.2047 16.6186 44.121 16.2294 48.3231 19.3448C52.7376 22.6177 55.5756 30.9488 53.053 31.2464C50.5304 31.5439 47.6924 27.9734 44.8545 26.7833C42.0166 25.5931 42.0166 27.9734 43.2779 30.9488C44.5392 33.9242 42.3319 35.1144 42.0166 37.4947C41.7013 39.875 38.2327 45.2308 36.3407 43.7431C34.4488 42.2554 34.7641 37.1972 34.1335 34.5193C33.5028 31.8415 29.7189 31.2464 29.0883 27.9734C28.4576 24.7005 31.2955 22.0226 34.7641 21.13Z" fill="url(#paint3_linear_7_259)"/>
<path opacity="0.8" d="M24.1368 12.3579C20.1636 14.1464 17.0859 17.3182 15.0961 20.0541C13.7876 21.8533 14.6889 24.3467 16.9131 24.3926C18.9444 24.4345 21.1331 23.7782 22.5 21.5C25.5 16.5 28 19.5 29 17.5C29.5048 16.4904 28.8418 14.897 27.9906 13.5235C27.1805 12.2163 25.5391 11.7267 24.1368 12.3579Z" fill="url(#paint4_linear_7_259)"/>
<defs>
<linearGradient id="paint0_linear_7_259" x1="32" y1="8" x2="32" y2="56" gradientUnits="userSpaceOnUse">
<stop stop-color="white" stop-opacity="0.5"/>
<stop offset="1" stop-color="white" stop-opacity="0"/>
</linearGradient>
<linearGradient id="paint1_linear_7_259" x1="32" y1="12" x2="32" y2="52" gradientUnits="userSpaceOnUse">
<stop stop-color="white" stop-opacity="0.5"/>
<stop offset="1" stop-color="white" stop-opacity="0"/>
</linearGradient>
<linearGradient id="paint2_linear_7_259" x1="16.7731" y1="27.6526" x2="16.7731" y2="49" gradientUnits="userSpaceOnUse">
<stop stop-color="white" stop-opacity="0.8"/>
<stop offset="1" stop-color="white" stop-opacity="0"/>
</linearGradient>
<linearGradient id="paint3_linear_7_259" x1="40.0294" y1="17" x2="40.0294" y2="44" gradientUnits="userSpaceOnUse">
<stop stop-color="white" stop-opacity="0.8"/>
<stop offset="1" stop-color="white" stop-opacity="0"/>
</linearGradient>
<linearGradient id="paint4_linear_7_259" x1="20.9686" y1="12.0841" x2="20.9686" y2="24.3944" gradientUnits="userSpaceOnUse">
<stop stop-color="white" stop-opacity="0.8"/>
<stop offset="1" stop-color="white" stop-opacity="0"/>
</linearGradient>
</defs>
</svg>
